M48
; DRILL file {KiCad 9.0.6} date 2026-03-18T21:43:19+0000
; FORMAT={-:-/ absolute / metric / decimal}
; #@! TF.CreationDate,2026-03-18T21:43:19+00:00
; #@! TF.GenerationSoftware,Kicad,Pcbnew,9.0.6
; #@! TF.FileFunction,Plated,1,6,PTH
FMAT,2
METRIC
; #@! TA.AperFunction,Plated,PTH,ViaDrill
T1C0.200
%
G90
G05
T1
X27.2Y-38.8
X27.2Y-39.2
X27.2Y-39.6
X28.3Y-68.9
X28.4Y-73.3
X31.1Y-55.6
X31.85Y-50.05
X32.0Y-75.0
X32.25Y-49.65
X32.6Y-31.7
X32.6Y-49.3
X33.0Y-48.9
X33.5Y-31.7
X34.2Y-31.7
X35.0Y-31.7
X35.4Y-54.2
X35.8Y-31.7
X36.5Y-31.7
X37.4Y-31.7
X38.101Y-31.701
X39.0Y-31.7
X39.7Y-31.7
X42.2Y-52.3
X43.9Y-67.0
X45.3Y-67.8
X45.7Y-67.8
X46.1Y-67.8
X46.2Y-65.7
X48.25Y-56.45
X50.3Y-52.7
X50.7Y-69.2
X52.5Y-56.5
X54.3Y-67.8
X54.3Y-70.2
X54.5Y-52.7
X55.1Y-69.2
X55.1Y-76.1
X55.3Y-60.3
X57.0Y-56.5
X57.29Y-71.62
X57.29Y-72.22
X57.29Y-72.82
X57.29Y-73.42
X57.29Y-74.02
X57.29Y-74.62
X57.29Y-75.22
X58.15Y-71.62
X58.15Y-72.22
X58.15Y-72.82
X58.15Y-73.42
X58.15Y-74.02
X58.15Y-74.62
X58.15Y-75.22
X59.0Y-52.8
X59.8Y-46.2
X60.1Y-58.1
X60.3Y-46.6
X60.8Y-46.9
X60.8Y-54.8
X61.45Y-69.95
X61.45Y-70.4
X61.45Y-70.9
X61.45Y-71.62
X61.8Y-45.9
X62.0Y-58.9
X62.3Y-46.2
X62.8Y-46.6
X63.3Y-46.9
X63.3Y-58.1
X63.5Y-59.2
X63.771Y-57.931
X64.4Y-54.3
X64.5Y-35.1
X65.4Y-76.4
X65.4Y-77.0
X65.5Y-56.9
X65.517Y-74.625
X65.6Y-75.2
X65.9Y-54.3
X65.9Y-55.8
X66.0Y-73.6
X66.1Y-33.3
X66.1Y-34.1
X66.5Y-77.0
X66.8Y-78.7
X67.2Y-67.2
X67.241Y-55.401
X67.859Y-55.401
X68.4Y-36.3
X68.6Y-54.9
X68.6Y-77.6
X69.0Y-34.9
X69.1Y-73.0
X69.2Y-75.6
X69.431Y-67.531
X69.5Y-46.9
X70.0Y-53.3
X70.4Y-46.45
X71.045Y-53.249
X71.6Y-55.1
X71.8Y-46.0
X72.0Y-38.7
X72.2Y-55.1
X72.5Y-37.4
X72.5Y-45.8
X72.7Y-76.3
X72.7Y-77.8
X72.8Y-77.1
X72.9Y-78.4
X73.2Y-44.7
X73.2Y-76.1
X73.5Y-78.9
X73.6Y-54.9
X74.1Y-54.9
X74.3Y-45.1
X74.6Y-65.8
X74.8Y-54.9
X74.9Y-54.3
X75.242Y-74.38
X75.259Y-74.98
X75.3Y-75.58
X75.639Y-73.564
X75.643Y-72.962
X75.695Y-75.886
X75.9Y-58.5
X75.929Y-75.444
X75.984Y-72.512
X76.007Y-74.95
X76.3Y-74.3
X76.609Y-73.589
X76.8Y-54.5
X76.824Y-73.124
X76.9Y-58.4
X77.7Y-58.2
X77.7Y-60.1
X78.3Y-54.4
X78.8Y-58.2
X78.9Y-66.6
X79.5Y-58.2
X79.7Y-66.5
X79.8Y-77.4
X79.9Y-54.8
X80.3Y-80.4
X80.351Y-60.85
X80.6Y-46.3
X80.6Y-58.3
X81.1Y-78.3
X81.2Y-46.1
X81.4Y-54.8
X81.5Y-61.7
X81.776Y-73.124
X81.991Y-73.589
X82.1Y-61.8
X82.2Y-57.9
X82.3Y-74.3
X82.593Y-74.95
X82.616Y-72.512
X82.671Y-75.444
X82.7Y-53.55
X82.8Y-57.9
X82.905Y-75.886
X82.957Y-72.962
X82.961Y-73.564
X83.1Y-74.7
X83.3Y-53.2
X83.3Y-75.58
X83.7Y-71.4
X83.8Y-74.4
X84.2Y-78.901
X84.4Y-47.5
X84.5Y-53.5
X84.8Y-78.331
X84.994Y-47.006
X85.2Y-54.0
X85.4Y-76.1
X85.8Y-77.1
X85.9Y-62.0
X85.9Y-76.3
X86.0Y-45.5
X86.0Y-58.4
X86.2Y-60.0
X86.2Y-61.5
X86.2Y-77.5
X86.6Y-45.4
X86.8Y-58.4
X87.4Y-54.7
X87.868Y-45.332
X87.9Y-46.0
X87.9Y-54.7
X89.6Y-58.1
X89.7Y-72.8
X91.5Y-58.1
X91.5Y-69.3
X92.5Y-61.8
X92.5Y-78.3
X93.1Y-71.3
X93.3Y-64.9
X94.8Y-64.9
X96.0Y-44.0
X96.5Y-43.6
X97.0Y-43.3
X97.9Y-64.9
X99.2Y-38.8
X99.5Y-64.9
X100.5Y-41.7
X100.6Y-68.3
X100.8Y-64.9
X101.0Y-37.0
X101.0Y-41.7
X101.5Y-41.7
X101.6Y-64.9
X103.3Y-43.2
X103.3Y-43.7
X103.3Y-44.2
X103.3Y-44.7
X103.3Y-45.2
X103.3Y-45.7
X103.3Y-46.2
X103.3Y-46.7
X103.8Y-43.2
X103.8Y-43.7
X103.8Y-44.2
X103.8Y-44.7
X103.8Y-45.2
X103.8Y-45.7
X103.8Y-46.2
X103.8Y-46.7
X104.3Y-43.2
X104.3Y-43.7
X104.3Y-44.2
X104.3Y-44.7
X104.3Y-45.2
X104.3Y-45.7
X104.3Y-46.2
X104.3Y-46.7
X104.8Y-43.2
X104.8Y-43.7
X104.8Y-44.2
X104.8Y-44.7
X104.8Y-45.2
X104.8Y-45.7
X104.8Y-46.2
X104.8Y-46.7
X105.1Y-57.3
X105.3Y-43.2
X105.3Y-43.7
X105.3Y-44.2
X105.3Y-44.7
X105.3Y-45.2
X105.3Y-45.7
X105.3Y-46.2
X105.3Y-46.7
X105.8Y-43.2
X105.8Y-43.7
X105.8Y-44.2
X105.8Y-44.7
X105.8Y-45.2
X105.8Y-45.7
X105.8Y-46.2
X105.8Y-46.7
X106.3Y-43.2
X106.3Y-43.7
X106.3Y-44.2
X106.3Y-44.7
X106.3Y-45.2
X106.3Y-45.7
X106.3Y-46.2
X106.3Y-46.7
X106.8Y-43.2
X106.8Y-43.7
X106.8Y-44.2
X106.8Y-44.7
X106.8Y-45.2
X106.8Y-45.7
X106.8Y-46.2
X106.8Y-46.7
X108.2Y-43.3
X108.2Y-43.8
X108.2Y-44.3
X108.2Y-44.8
X108.2Y-45.3
X108.2Y-45.8
X108.2Y-46.3
X108.2Y-46.8
X108.2Y-47.3
X108.7Y-43.3
X108.7Y-43.8
X108.7Y-44.3
X108.7Y-44.8
X108.7Y-45.3
X108.7Y-45.8
X108.7Y-46.3
X108.7Y-46.8
X108.7Y-47.3
X109.2Y-43.3
X109.2Y-43.8
X109.2Y-44.3
X109.2Y-44.8
X109.2Y-45.3
X109.2Y-45.8
X109.2Y-46.3
X109.2Y-46.8
X109.2Y-47.3
X109.7Y-43.3
X109.7Y-43.8
X109.7Y-44.3
X109.7Y-44.8
X109.7Y-45.3
X109.7Y-45.8
X109.7Y-46.3
X109.7Y-46.8
X109.7Y-47.3
X110.2Y-43.3
X110.2Y-43.8
X110.2Y-44.3
X110.2Y-44.8
X110.2Y-45.3
X110.2Y-45.8
X110.2Y-46.3
X110.2Y-46.8
X110.2Y-47.3
X110.7Y-43.3
X110.7Y-43.8
X110.7Y-44.3
X110.7Y-44.8
X110.7Y-45.3
X110.7Y-45.8
X110.7Y-46.3
X110.7Y-46.8
X110.7Y-47.3
X111.2Y-43.3
X111.2Y-43.8
X111.2Y-44.3
X111.2Y-44.8
X111.2Y-45.3
X111.2Y-45.8
X111.2Y-46.3
X111.2Y-46.8
X111.2Y-47.3
X111.7Y-43.3
X111.7Y-43.8
X111.7Y-44.3
X111.7Y-44.8
X111.7Y-45.3
X111.7Y-45.8
X111.7Y-46.3
X111.7Y-46.8
X111.7Y-47.3
M30
