%TF.GenerationSoftware,KiCad,Pcbnew,9.0.6*%
%TF.CreationDate,2026-03-18T21:43:19+00:00*%
%TF.ProjectId,FrameworkGPU to MXM v0.5,4672616d-6577-46f7-926b-47505520746f,rev?*%
%TF.SameCoordinates,Original*%
%TF.FileFunction,Drillmap*%
%TF.FilePolarity,Positive*%
%FSLAX45Y45*%
G04 Gerber Fmt 4.5, Leading zero omitted, Abs format (unit mm)*
G04 Created by KiCad (PCBNEW 9.0.6) date 2026-03-18 21:43:19*
%MOMM*%
%LPD*%
G01*
G04 APERTURE LIST*
%ADD10C,0.200000*%
%ADD11C,0.120000*%
%ADD12C,0.140000*%
%ADD13C,0.150000*%
%ADD14C,0.170000*%
%ADD15C,0.270000*%
G04 APERTURE END LIST*
D10*
X1950000Y-1680000D02*
X12910000Y-1680000D01*
X12910000Y-8230000D01*
X1950000Y-8230000D01*
X1950000Y-1680000D01*
D11*
X11290000Y-4480000D02*
X11410000Y-4600000D01*
X11410000Y-4480000D02*
X11290000Y-4600000D01*
D12*
X6337500Y-7030000D02*
G75*
G02*
X6197500Y-7030000I-70000J0D01*
G01*
X6197500Y-7030000D02*
G75*
G02*
X6337500Y-7030000I70000J0D01*
G01*
X8002000Y-7870000D02*
G75*
G02*
X7862000Y-7870000I-70000J0D01*
G01*
X7862000Y-7870000D02*
G75*
G02*
X8002000Y-7870000I70000J0D01*
G01*
D13*
X5633000Y-7809000D02*
X5633000Y-7959000D01*
X5558000Y-7884000D02*
X5708000Y-7884000D01*
X6901000Y-7809500D02*
X6901000Y-7959500D01*
X6826000Y-7884500D02*
X6976000Y-7884500D01*
X7298000Y-6941000D02*
X7298000Y-7091000D01*
X7223000Y-7016000D02*
X7373000Y-7016000D01*
X8566000Y-6941000D02*
X8566000Y-7091000D01*
X8491000Y-7016000D02*
X8641000Y-7016000D01*
D14*
X3210105Y-4600105D02*
X3210105Y-4479895D01*
X3089895Y-4479895D01*
X3089895Y-4600105D01*
X3210105Y-4600105D01*
D15*
X6267000Y-7585000D02*
X6402000Y-7450000D01*
X6267000Y-7315000D01*
X6132000Y-7450000D01*
X6267000Y-7585000D01*
X7932000Y-7585000D02*
X8067000Y-7450000D01*
X7932000Y-7315000D01*
X7797000Y-7450000D01*
X7932000Y-7585000D01*
D10*
X2200777Y-8551484D02*
X2200777Y-8351484D01*
X2200777Y-8351484D02*
X2248396Y-8351484D01*
X2248396Y-8351484D02*
X2276967Y-8361008D01*
X2276967Y-8361008D02*
X2296015Y-8380055D01*
X2296015Y-8380055D02*
X2305539Y-8399103D01*
X2305539Y-8399103D02*
X2315063Y-8437198D01*
X2315063Y-8437198D02*
X2315063Y-8465770D01*
X2315063Y-8465770D02*
X2305539Y-8503865D01*
X2305539Y-8503865D02*
X2296015Y-8522912D01*
X2296015Y-8522912D02*
X2276967Y-8541960D01*
X2276967Y-8541960D02*
X2248396Y-8551484D01*
X2248396Y-8551484D02*
X2200777Y-8551484D01*
X2400777Y-8551484D02*
X2400777Y-8418150D01*
X2400777Y-8456246D02*
X2410301Y-8437198D01*
X2410301Y-8437198D02*
X2419824Y-8427674D01*
X2419824Y-8427674D02*
X2438872Y-8418150D01*
X2438872Y-8418150D02*
X2457920Y-8418150D01*
X2524586Y-8551484D02*
X2524586Y-8418150D01*
X2524586Y-8351484D02*
X2515063Y-8361008D01*
X2515063Y-8361008D02*
X2524586Y-8370531D01*
X2524586Y-8370531D02*
X2534110Y-8361008D01*
X2534110Y-8361008D02*
X2524586Y-8351484D01*
X2524586Y-8351484D02*
X2524586Y-8370531D01*
X2648396Y-8551484D02*
X2629348Y-8541960D01*
X2629348Y-8541960D02*
X2619824Y-8522912D01*
X2619824Y-8522912D02*
X2619824Y-8351484D01*
X2753158Y-8551484D02*
X2734110Y-8541960D01*
X2734110Y-8541960D02*
X2724586Y-8522912D01*
X2724586Y-8522912D02*
X2724586Y-8351484D01*
X2981729Y-8551484D02*
X2981729Y-8351484D01*
X2981729Y-8351484D02*
X3048396Y-8494341D01*
X3048396Y-8494341D02*
X3115062Y-8351484D01*
X3115062Y-8351484D02*
X3115062Y-8551484D01*
X3296015Y-8551484D02*
X3296015Y-8446722D01*
X3296015Y-8446722D02*
X3286491Y-8427674D01*
X3286491Y-8427674D02*
X3267443Y-8418150D01*
X3267443Y-8418150D02*
X3229348Y-8418150D01*
X3229348Y-8418150D02*
X3210301Y-8427674D01*
X3296015Y-8541960D02*
X3276967Y-8551484D01*
X3276967Y-8551484D02*
X3229348Y-8551484D01*
X3229348Y-8551484D02*
X3210301Y-8541960D01*
X3210301Y-8541960D02*
X3200777Y-8522912D01*
X3200777Y-8522912D02*
X3200777Y-8503865D01*
X3200777Y-8503865D02*
X3210301Y-8484817D01*
X3210301Y-8484817D02*
X3229348Y-8475293D01*
X3229348Y-8475293D02*
X3276967Y-8475293D01*
X3276967Y-8475293D02*
X3296015Y-8465770D01*
X3391253Y-8418150D02*
X3391253Y-8618150D01*
X3391253Y-8427674D02*
X3410301Y-8418150D01*
X3410301Y-8418150D02*
X3448396Y-8418150D01*
X3448396Y-8418150D02*
X3467443Y-8427674D01*
X3467443Y-8427674D02*
X3476967Y-8437198D01*
X3476967Y-8437198D02*
X3486491Y-8456246D01*
X3486491Y-8456246D02*
X3486491Y-8513389D01*
X3486491Y-8513389D02*
X3476967Y-8532436D01*
X3476967Y-8532436D02*
X3467443Y-8541960D01*
X3467443Y-8541960D02*
X3448396Y-8551484D01*
X3448396Y-8551484D02*
X3410301Y-8551484D01*
X3410301Y-8551484D02*
X3391253Y-8541960D01*
X3572205Y-8532436D02*
X3581729Y-8541960D01*
X3581729Y-8541960D02*
X3572205Y-8551484D01*
X3572205Y-8551484D02*
X3562682Y-8541960D01*
X3562682Y-8541960D02*
X3572205Y-8532436D01*
X3572205Y-8532436D02*
X3572205Y-8551484D01*
X3572205Y-8427674D02*
X3581729Y-8437198D01*
X3581729Y-8437198D02*
X3572205Y-8446722D01*
X3572205Y-8446722D02*
X3562682Y-8437198D01*
X3562682Y-8437198D02*
X3572205Y-8427674D01*
X3572205Y-8427674D02*
X3572205Y-8446722D01*
D11*
X1820000Y-8820000D02*
X1940000Y-8940000D01*
X1940000Y-8820000D02*
X1820000Y-8940000D01*
D10*
X2305539Y-8971484D02*
X2191253Y-8971484D01*
X2248396Y-8971484D02*
X2248396Y-8771484D01*
X2248396Y-8771484D02*
X2229348Y-8800055D01*
X2229348Y-8800055D02*
X2210301Y-8819103D01*
X2210301Y-8819103D02*
X2191253Y-8828627D01*
X2391253Y-8952436D02*
X2400777Y-8961960D01*
X2400777Y-8961960D02*
X2391253Y-8971484D01*
X2391253Y-8971484D02*
X2381729Y-8961960D01*
X2381729Y-8961960D02*
X2391253Y-8952436D01*
X2391253Y-8952436D02*
X2391253Y-8971484D01*
X2476967Y-8790531D02*
X2486491Y-8781008D01*
X2486491Y-8781008D02*
X2505539Y-8771484D01*
X2505539Y-8771484D02*
X2553158Y-8771484D01*
X2553158Y-8771484D02*
X2572205Y-8781008D01*
X2572205Y-8781008D02*
X2581729Y-8790531D01*
X2581729Y-8790531D02*
X2591253Y-8809579D01*
X2591253Y-8809579D02*
X2591253Y-8828627D01*
X2591253Y-8828627D02*
X2581729Y-8857198D01*
X2581729Y-8857198D02*
X2467444Y-8971484D01*
X2467444Y-8971484D02*
X2591253Y-8971484D01*
X2715063Y-8771484D02*
X2734110Y-8771484D01*
X2734110Y-8771484D02*
X2753158Y-8781008D01*
X2753158Y-8781008D02*
X2762682Y-8790531D01*
X2762682Y-8790531D02*
X2772205Y-8809579D01*
X2772205Y-8809579D02*
X2781729Y-8847674D01*
X2781729Y-8847674D02*
X2781729Y-8895293D01*
X2781729Y-8895293D02*
X2772205Y-8933389D01*
X2772205Y-8933389D02*
X2762682Y-8952436D01*
X2762682Y-8952436D02*
X2753158Y-8961960D01*
X2753158Y-8961960D02*
X2734110Y-8971484D01*
X2734110Y-8971484D02*
X2715063Y-8971484D01*
X2715063Y-8971484D02*
X2696015Y-8961960D01*
X2696015Y-8961960D02*
X2686491Y-8952436D01*
X2686491Y-8952436D02*
X2676967Y-8933389D01*
X2676967Y-8933389D02*
X2667444Y-8895293D01*
X2667444Y-8895293D02*
X2667444Y-8847674D01*
X2667444Y-8847674D02*
X2676967Y-8809579D01*
X2676967Y-8809579D02*
X2686491Y-8790531D01*
X2686491Y-8790531D02*
X2696015Y-8781008D01*
X2696015Y-8781008D02*
X2715063Y-8771484D01*
X2905539Y-8771484D02*
X2924586Y-8771484D01*
X2924586Y-8771484D02*
X2943634Y-8781008D01*
X2943634Y-8781008D02*
X2953158Y-8790531D01*
X2953158Y-8790531D02*
X2962682Y-8809579D01*
X2962682Y-8809579D02*
X2972205Y-8847674D01*
X2972205Y-8847674D02*
X2972205Y-8895293D01*
X2972205Y-8895293D02*
X2962682Y-8933389D01*
X2962682Y-8933389D02*
X2953158Y-8952436D01*
X2953158Y-8952436D02*
X2943634Y-8961960D01*
X2943634Y-8961960D02*
X2924586Y-8971484D01*
X2924586Y-8971484D02*
X2905539Y-8971484D01*
X2905539Y-8971484D02*
X2886491Y-8961960D01*
X2886491Y-8961960D02*
X2876967Y-8952436D01*
X2876967Y-8952436D02*
X2867443Y-8933389D01*
X2867443Y-8933389D02*
X2857920Y-8895293D01*
X2857920Y-8895293D02*
X2857920Y-8847674D01*
X2857920Y-8847674D02*
X2867443Y-8809579D01*
X2867443Y-8809579D02*
X2876967Y-8790531D01*
X2876967Y-8790531D02*
X2886491Y-8781008D01*
X2886491Y-8781008D02*
X2905539Y-8771484D01*
X3057920Y-8971484D02*
X3057920Y-8838150D01*
X3057920Y-8857198D02*
X3067443Y-8847674D01*
X3067443Y-8847674D02*
X3086491Y-8838150D01*
X3086491Y-8838150D02*
X3115063Y-8838150D01*
X3115063Y-8838150D02*
X3134110Y-8847674D01*
X3134110Y-8847674D02*
X3143634Y-8866722D01*
X3143634Y-8866722D02*
X3143634Y-8971484D01*
X3143634Y-8866722D02*
X3153158Y-8847674D01*
X3153158Y-8847674D02*
X3172205Y-8838150D01*
X3172205Y-8838150D02*
X3200777Y-8838150D01*
X3200777Y-8838150D02*
X3219824Y-8847674D01*
X3219824Y-8847674D02*
X3229348Y-8866722D01*
X3229348Y-8866722D02*
X3229348Y-8971484D01*
X3324586Y-8971484D02*
X3324586Y-8838150D01*
X3324586Y-8857198D02*
X3334110Y-8847674D01*
X3334110Y-8847674D02*
X3353158Y-8838150D01*
X3353158Y-8838150D02*
X3381729Y-8838150D01*
X3381729Y-8838150D02*
X3400777Y-8847674D01*
X3400777Y-8847674D02*
X3410301Y-8866722D01*
X3410301Y-8866722D02*
X3410301Y-8971484D01*
X3410301Y-8866722D02*
X3419824Y-8847674D01*
X3419824Y-8847674D02*
X3438872Y-8838150D01*
X3438872Y-8838150D02*
X3467443Y-8838150D01*
X3467443Y-8838150D02*
X3486491Y-8847674D01*
X3486491Y-8847674D02*
X3496015Y-8866722D01*
X3496015Y-8866722D02*
X3496015Y-8971484D01*
X3886491Y-8761960D02*
X3715063Y-9019103D01*
X4143634Y-8771484D02*
X4162682Y-8771484D01*
X4162682Y-8771484D02*
X4181729Y-8781008D01*
X4181729Y-8781008D02*
X4191253Y-8790531D01*
X4191253Y-8790531D02*
X4200777Y-8809579D01*
X4200777Y-8809579D02*
X4210301Y-8847674D01*
X4210301Y-8847674D02*
X4210301Y-8895293D01*
X4210301Y-8895293D02*
X4200777Y-8933389D01*
X4200777Y-8933389D02*
X4191253Y-8952436D01*
X4191253Y-8952436D02*
X4181729Y-8961960D01*
X4181729Y-8961960D02*
X4162682Y-8971484D01*
X4162682Y-8971484D02*
X4143634Y-8971484D01*
X4143634Y-8971484D02*
X4124586Y-8961960D01*
X4124586Y-8961960D02*
X4115063Y-8952436D01*
X4115063Y-8952436D02*
X4105539Y-8933389D01*
X4105539Y-8933389D02*
X4096015Y-8895293D01*
X4096015Y-8895293D02*
X4096015Y-8847674D01*
X4096015Y-8847674D02*
X4105539Y-8809579D01*
X4105539Y-8809579D02*
X4115063Y-8790531D01*
X4115063Y-8790531D02*
X4124586Y-8781008D01*
X4124586Y-8781008D02*
X4143634Y-8771484D01*
X4296015Y-8952436D02*
X4305539Y-8961960D01*
X4305539Y-8961960D02*
X4296015Y-8971484D01*
X4296015Y-8971484D02*
X4286491Y-8961960D01*
X4286491Y-8961960D02*
X4296015Y-8952436D01*
X4296015Y-8952436D02*
X4296015Y-8971484D01*
X4429348Y-8771484D02*
X4448396Y-8771484D01*
X4448396Y-8771484D02*
X4467444Y-8781008D01*
X4467444Y-8781008D02*
X4476968Y-8790531D01*
X4476968Y-8790531D02*
X4486491Y-8809579D01*
X4486491Y-8809579D02*
X4496015Y-8847674D01*
X4496015Y-8847674D02*
X4496015Y-8895293D01*
X4496015Y-8895293D02*
X4486491Y-8933389D01*
X4486491Y-8933389D02*
X4476968Y-8952436D01*
X4476968Y-8952436D02*
X4467444Y-8961960D01*
X4467444Y-8961960D02*
X4448396Y-8971484D01*
X4448396Y-8971484D02*
X4429348Y-8971484D01*
X4429348Y-8971484D02*
X4410301Y-8961960D01*
X4410301Y-8961960D02*
X4400777Y-8952436D01*
X4400777Y-8952436D02*
X4391253Y-8933389D01*
X4391253Y-8933389D02*
X4381729Y-8895293D01*
X4381729Y-8895293D02*
X4381729Y-8847674D01*
X4381729Y-8847674D02*
X4391253Y-8809579D01*
X4391253Y-8809579D02*
X4400777Y-8790531D01*
X4400777Y-8790531D02*
X4410301Y-8781008D01*
X4410301Y-8781008D02*
X4429348Y-8771484D01*
X4667444Y-8838150D02*
X4667444Y-8971484D01*
X4619825Y-8761960D02*
X4572206Y-8904817D01*
X4572206Y-8904817D02*
X4696015Y-8904817D01*
X4753158Y-8771484D02*
X4886491Y-8771484D01*
X4886491Y-8771484D02*
X4800777Y-8971484D01*
X4953158Y-8790531D02*
X4962682Y-8781008D01*
X4962682Y-8781008D02*
X4981729Y-8771484D01*
X4981729Y-8771484D02*
X5029349Y-8771484D01*
X5029349Y-8771484D02*
X5048396Y-8781008D01*
X5048396Y-8781008D02*
X5057920Y-8790531D01*
X5057920Y-8790531D02*
X5067444Y-8809579D01*
X5067444Y-8809579D02*
X5067444Y-8828627D01*
X5067444Y-8828627D02*
X5057920Y-8857198D01*
X5057920Y-8857198D02*
X4943634Y-8971484D01*
X4943634Y-8971484D02*
X5067444Y-8971484D01*
X5143634Y-8771484D02*
X5143634Y-8809579D01*
X5219825Y-8771484D02*
X5219825Y-8809579D01*
X5515063Y-9047674D02*
X5505539Y-9038150D01*
X5505539Y-9038150D02*
X5486491Y-9009579D01*
X5486491Y-9009579D02*
X5476968Y-8990531D01*
X5476968Y-8990531D02*
X5467444Y-8961960D01*
X5467444Y-8961960D02*
X5457920Y-8914341D01*
X5457920Y-8914341D02*
X5457920Y-8876246D01*
X5457920Y-8876246D02*
X5467444Y-8828627D01*
X5467444Y-8828627D02*
X5476968Y-8800055D01*
X5476968Y-8800055D02*
X5486491Y-8781008D01*
X5486491Y-8781008D02*
X5505539Y-8752436D01*
X5505539Y-8752436D02*
X5515063Y-8742912D01*
X5696015Y-8971484D02*
X5581730Y-8971484D01*
X5638872Y-8971484D02*
X5638872Y-8771484D01*
X5638872Y-8771484D02*
X5619825Y-8800055D01*
X5619825Y-8800055D02*
X5600777Y-8819103D01*
X5600777Y-8819103D02*
X5581730Y-8828627D01*
X5934110Y-8971484D02*
X5934110Y-8771484D01*
X6019825Y-8971484D02*
X6019825Y-8866722D01*
X6019825Y-8866722D02*
X6010301Y-8847674D01*
X6010301Y-8847674D02*
X5991253Y-8838150D01*
X5991253Y-8838150D02*
X5962682Y-8838150D01*
X5962682Y-8838150D02*
X5943634Y-8847674D01*
X5943634Y-8847674D02*
X5934110Y-8857198D01*
X6143634Y-8971484D02*
X6124587Y-8961960D01*
X6124587Y-8961960D02*
X6115063Y-8952436D01*
X6115063Y-8952436D02*
X6105539Y-8933389D01*
X6105539Y-8933389D02*
X6105539Y-8876246D01*
X6105539Y-8876246D02*
X6115063Y-8857198D01*
X6115063Y-8857198D02*
X6124587Y-8847674D01*
X6124587Y-8847674D02*
X6143634Y-8838150D01*
X6143634Y-8838150D02*
X6172206Y-8838150D01*
X6172206Y-8838150D02*
X6191253Y-8847674D01*
X6191253Y-8847674D02*
X6200777Y-8857198D01*
X6200777Y-8857198D02*
X6210301Y-8876246D01*
X6210301Y-8876246D02*
X6210301Y-8933389D01*
X6210301Y-8933389D02*
X6200777Y-8952436D01*
X6200777Y-8952436D02*
X6191253Y-8961960D01*
X6191253Y-8961960D02*
X6172206Y-8971484D01*
X6172206Y-8971484D02*
X6143634Y-8971484D01*
X6324587Y-8971484D02*
X6305539Y-8961960D01*
X6305539Y-8961960D02*
X6296015Y-8942912D01*
X6296015Y-8942912D02*
X6296015Y-8771484D01*
X6476968Y-8961960D02*
X6457920Y-8971484D01*
X6457920Y-8971484D02*
X6419825Y-8971484D01*
X6419825Y-8971484D02*
X6400777Y-8961960D01*
X6400777Y-8961960D02*
X6391253Y-8942912D01*
X6391253Y-8942912D02*
X6391253Y-8866722D01*
X6391253Y-8866722D02*
X6400777Y-8847674D01*
X6400777Y-8847674D02*
X6419825Y-8838150D01*
X6419825Y-8838150D02*
X6457920Y-8838150D01*
X6457920Y-8838150D02*
X6476968Y-8847674D01*
X6476968Y-8847674D02*
X6486491Y-8866722D01*
X6486491Y-8866722D02*
X6486491Y-8885770D01*
X6486491Y-8885770D02*
X6391253Y-8904817D01*
X6553158Y-9047674D02*
X6562682Y-9038150D01*
X6562682Y-9038150D02*
X6581730Y-9009579D01*
X6581730Y-9009579D02*
X6591253Y-8990531D01*
X6591253Y-8990531D02*
X6600777Y-8961960D01*
X6600777Y-8961960D02*
X6610301Y-8914341D01*
X6610301Y-8914341D02*
X6610301Y-8876246D01*
X6610301Y-8876246D02*
X6600777Y-8828627D01*
X6600777Y-8828627D02*
X6591253Y-8800055D01*
X6591253Y-8800055D02*
X6581730Y-8781008D01*
X6581730Y-8781008D02*
X6562682Y-8752436D01*
X6562682Y-8752436D02*
X6553158Y-8742912D01*
X6915063Y-9047674D02*
X6905539Y-9038150D01*
X6905539Y-9038150D02*
X6886491Y-9009579D01*
X6886491Y-9009579D02*
X6876968Y-8990531D01*
X6876968Y-8990531D02*
X6867444Y-8961960D01*
X6867444Y-8961960D02*
X6857920Y-8914341D01*
X6857920Y-8914341D02*
X6857920Y-8876246D01*
X6857920Y-8876246D02*
X6867444Y-8828627D01*
X6867444Y-8828627D02*
X6876968Y-8800055D01*
X6876968Y-8800055D02*
X6886491Y-8781008D01*
X6886491Y-8781008D02*
X6905539Y-8752436D01*
X6905539Y-8752436D02*
X6915063Y-8742912D01*
X6991253Y-8838150D02*
X6991253Y-8971484D01*
X6991253Y-8857198D02*
X7000777Y-8847674D01*
X7000777Y-8847674D02*
X7019825Y-8838150D01*
X7019825Y-8838150D02*
X7048396Y-8838150D01*
X7048396Y-8838150D02*
X7067444Y-8847674D01*
X7067444Y-8847674D02*
X7076968Y-8866722D01*
X7076968Y-8866722D02*
X7076968Y-8971484D01*
X7200777Y-8971484D02*
X7181730Y-8961960D01*
X7181730Y-8961960D02*
X7172206Y-8952436D01*
X7172206Y-8952436D02*
X7162682Y-8933389D01*
X7162682Y-8933389D02*
X7162682Y-8876246D01*
X7162682Y-8876246D02*
X7172206Y-8857198D01*
X7172206Y-8857198D02*
X7181730Y-8847674D01*
X7181730Y-8847674D02*
X7200777Y-8838150D01*
X7200777Y-8838150D02*
X7229349Y-8838150D01*
X7229349Y-8838150D02*
X7248396Y-8847674D01*
X7248396Y-8847674D02*
X7257920Y-8857198D01*
X7257920Y-8857198D02*
X7267444Y-8876246D01*
X7267444Y-8876246D02*
X7267444Y-8933389D01*
X7267444Y-8933389D02*
X7257920Y-8952436D01*
X7257920Y-8952436D02*
X7248396Y-8961960D01*
X7248396Y-8961960D02*
X7229349Y-8971484D01*
X7229349Y-8971484D02*
X7200777Y-8971484D01*
X7324587Y-8838150D02*
X7400777Y-8838150D01*
X7353158Y-8771484D02*
X7353158Y-8942912D01*
X7353158Y-8942912D02*
X7362682Y-8961960D01*
X7362682Y-8961960D02*
X7381730Y-8971484D01*
X7381730Y-8971484D02*
X7400777Y-8971484D01*
X7619825Y-8838150D02*
X7619825Y-9038150D01*
X7619825Y-8847674D02*
X7638872Y-8838150D01*
X7638872Y-8838150D02*
X7676968Y-8838150D01*
X7676968Y-8838150D02*
X7696015Y-8847674D01*
X7696015Y-8847674D02*
X7705539Y-8857198D01*
X7705539Y-8857198D02*
X7715063Y-8876246D01*
X7715063Y-8876246D02*
X7715063Y-8933389D01*
X7715063Y-8933389D02*
X7705539Y-8952436D01*
X7705539Y-8952436D02*
X7696015Y-8961960D01*
X7696015Y-8961960D02*
X7676968Y-8971484D01*
X7676968Y-8971484D02*
X7638872Y-8971484D01*
X7638872Y-8971484D02*
X7619825Y-8961960D01*
X7829349Y-8971484D02*
X7810301Y-8961960D01*
X7810301Y-8961960D02*
X7800777Y-8942912D01*
X7800777Y-8942912D02*
X7800777Y-8771484D01*
X7991253Y-8971484D02*
X7991253Y-8866722D01*
X7991253Y-8866722D02*
X7981730Y-8847674D01*
X7981730Y-8847674D02*
X7962682Y-8838150D01*
X7962682Y-8838150D02*
X7924587Y-8838150D01*
X7924587Y-8838150D02*
X7905539Y-8847674D01*
X7991253Y-8961960D02*
X7972206Y-8971484D01*
X7972206Y-8971484D02*
X7924587Y-8971484D01*
X7924587Y-8971484D02*
X7905539Y-8961960D01*
X7905539Y-8961960D02*
X7896015Y-8942912D01*
X7896015Y-8942912D02*
X7896015Y-8923865D01*
X7896015Y-8923865D02*
X7905539Y-8904817D01*
X7905539Y-8904817D02*
X7924587Y-8895293D01*
X7924587Y-8895293D02*
X7972206Y-8895293D01*
X7972206Y-8895293D02*
X7991253Y-8885770D01*
X8057920Y-8838150D02*
X8134111Y-8838150D01*
X8086492Y-8771484D02*
X8086492Y-8942912D01*
X8086492Y-8942912D02*
X8096015Y-8961960D01*
X8096015Y-8961960D02*
X8115063Y-8971484D01*
X8115063Y-8971484D02*
X8134111Y-8971484D01*
X8276968Y-8961960D02*
X8257920Y-8971484D01*
X8257920Y-8971484D02*
X8219825Y-8971484D01*
X8219825Y-8971484D02*
X8200777Y-8961960D01*
X8200777Y-8961960D02*
X8191253Y-8942912D01*
X8191253Y-8942912D02*
X8191253Y-8866722D01*
X8191253Y-8866722D02*
X8200777Y-8847674D01*
X8200777Y-8847674D02*
X8219825Y-8838150D01*
X8219825Y-8838150D02*
X8257920Y-8838150D01*
X8257920Y-8838150D02*
X8276968Y-8847674D01*
X8276968Y-8847674D02*
X8286492Y-8866722D01*
X8286492Y-8866722D02*
X8286492Y-8885770D01*
X8286492Y-8885770D02*
X8191253Y-8904817D01*
X8457920Y-8971484D02*
X8457920Y-8771484D01*
X8457920Y-8961960D02*
X8438873Y-8971484D01*
X8438873Y-8971484D02*
X8400777Y-8971484D01*
X8400777Y-8971484D02*
X8381730Y-8961960D01*
X8381730Y-8961960D02*
X8372206Y-8952436D01*
X8372206Y-8952436D02*
X8362682Y-8933389D01*
X8362682Y-8933389D02*
X8362682Y-8876246D01*
X8362682Y-8876246D02*
X8372206Y-8857198D01*
X8372206Y-8857198D02*
X8381730Y-8847674D01*
X8381730Y-8847674D02*
X8400777Y-8838150D01*
X8400777Y-8838150D02*
X8438873Y-8838150D01*
X8438873Y-8838150D02*
X8457920Y-8847674D01*
X8534111Y-9047674D02*
X8543635Y-9038150D01*
X8543635Y-9038150D02*
X8562682Y-9009579D01*
X8562682Y-9009579D02*
X8572206Y-8990531D01*
X8572206Y-8990531D02*
X8581730Y-8961960D01*
X8581730Y-8961960D02*
X8591254Y-8914341D01*
X8591254Y-8914341D02*
X8591254Y-8876246D01*
X8591254Y-8876246D02*
X8581730Y-8828627D01*
X8581730Y-8828627D02*
X8572206Y-8800055D01*
X8572206Y-8800055D02*
X8562682Y-8781008D01*
X8562682Y-8781008D02*
X8543635Y-8752436D01*
X8543635Y-8752436D02*
X8534111Y-8742912D01*
D12*
X1940000Y-9144000D02*
G75*
G02*
X1800000Y-9144000I-70000J0D01*
G01*
X1800000Y-9144000D02*
G75*
G02*
X1940000Y-9144000I70000J0D01*
G01*
D10*
X2305539Y-9235484D02*
X2191253Y-9235484D01*
X2248396Y-9235484D02*
X2248396Y-9035484D01*
X2248396Y-9035484D02*
X2229348Y-9064055D01*
X2229348Y-9064055D02*
X2210301Y-9083103D01*
X2210301Y-9083103D02*
X2191253Y-9092627D01*
X2391253Y-9216436D02*
X2400777Y-9225960D01*
X2400777Y-9225960D02*
X2391253Y-9235484D01*
X2391253Y-9235484D02*
X2381729Y-9225960D01*
X2381729Y-9225960D02*
X2391253Y-9216436D01*
X2391253Y-9216436D02*
X2391253Y-9235484D01*
X2572205Y-9102150D02*
X2572205Y-9235484D01*
X2524586Y-9025960D02*
X2476967Y-9168817D01*
X2476967Y-9168817D02*
X2600777Y-9168817D01*
X2715063Y-9035484D02*
X2734110Y-9035484D01*
X2734110Y-9035484D02*
X2753158Y-9045008D01*
X2753158Y-9045008D02*
X2762682Y-9054531D01*
X2762682Y-9054531D02*
X2772205Y-9073579D01*
X2772205Y-9073579D02*
X2781729Y-9111674D01*
X2781729Y-9111674D02*
X2781729Y-9159293D01*
X2781729Y-9159293D02*
X2772205Y-9197389D01*
X2772205Y-9197389D02*
X2762682Y-9216436D01*
X2762682Y-9216436D02*
X2753158Y-9225960D01*
X2753158Y-9225960D02*
X2734110Y-9235484D01*
X2734110Y-9235484D02*
X2715063Y-9235484D01*
X2715063Y-9235484D02*
X2696015Y-9225960D01*
X2696015Y-9225960D02*
X2686491Y-9216436D01*
X2686491Y-9216436D02*
X2676967Y-9197389D01*
X2676967Y-9197389D02*
X2667444Y-9159293D01*
X2667444Y-9159293D02*
X2667444Y-9111674D01*
X2667444Y-9111674D02*
X2676967Y-9073579D01*
X2676967Y-9073579D02*
X2686491Y-9054531D01*
X2686491Y-9054531D02*
X2696015Y-9045008D01*
X2696015Y-9045008D02*
X2715063Y-9035484D01*
X2905539Y-9035484D02*
X2924586Y-9035484D01*
X2924586Y-9035484D02*
X2943634Y-9045008D01*
X2943634Y-9045008D02*
X2953158Y-9054531D01*
X2953158Y-9054531D02*
X2962682Y-9073579D01*
X2962682Y-9073579D02*
X2972205Y-9111674D01*
X2972205Y-9111674D02*
X2972205Y-9159293D01*
X2972205Y-9159293D02*
X2962682Y-9197389D01*
X2962682Y-9197389D02*
X2953158Y-9216436D01*
X2953158Y-9216436D02*
X2943634Y-9225960D01*
X2943634Y-9225960D02*
X2924586Y-9235484D01*
X2924586Y-9235484D02*
X2905539Y-9235484D01*
X2905539Y-9235484D02*
X2886491Y-9225960D01*
X2886491Y-9225960D02*
X2876967Y-9216436D01*
X2876967Y-9216436D02*
X2867443Y-9197389D01*
X2867443Y-9197389D02*
X2857920Y-9159293D01*
X2857920Y-9159293D02*
X2857920Y-9111674D01*
X2857920Y-9111674D02*
X2867443Y-9073579D01*
X2867443Y-9073579D02*
X2876967Y-9054531D01*
X2876967Y-9054531D02*
X2886491Y-9045008D01*
X2886491Y-9045008D02*
X2905539Y-9035484D01*
X3057920Y-9235484D02*
X3057920Y-9102150D01*
X3057920Y-9121198D02*
X3067443Y-9111674D01*
X3067443Y-9111674D02*
X3086491Y-9102150D01*
X3086491Y-9102150D02*
X3115063Y-9102150D01*
X3115063Y-9102150D02*
X3134110Y-9111674D01*
X3134110Y-9111674D02*
X3143634Y-9130722D01*
X3143634Y-9130722D02*
X3143634Y-9235484D01*
X3143634Y-9130722D02*
X3153158Y-9111674D01*
X3153158Y-9111674D02*
X3172205Y-9102150D01*
X3172205Y-9102150D02*
X3200777Y-9102150D01*
X3200777Y-9102150D02*
X3219824Y-9111674D01*
X3219824Y-9111674D02*
X3229348Y-9130722D01*
X3229348Y-9130722D02*
X3229348Y-9235484D01*
X3324586Y-9235484D02*
X3324586Y-9102150D01*
X3324586Y-9121198D02*
X3334110Y-9111674D01*
X3334110Y-9111674D02*
X3353158Y-9102150D01*
X3353158Y-9102150D02*
X3381729Y-9102150D01*
X3381729Y-9102150D02*
X3400777Y-9111674D01*
X3400777Y-9111674D02*
X3410301Y-9130722D01*
X3410301Y-9130722D02*
X3410301Y-9235484D01*
X3410301Y-9130722D02*
X3419824Y-9111674D01*
X3419824Y-9111674D02*
X3438872Y-9102150D01*
X3438872Y-9102150D02*
X3467443Y-9102150D01*
X3467443Y-9102150D02*
X3486491Y-9111674D01*
X3486491Y-9111674D02*
X3496015Y-9130722D01*
X3496015Y-9130722D02*
X3496015Y-9235484D01*
X3886491Y-9025960D02*
X3715063Y-9283103D01*
X4143634Y-9035484D02*
X4162682Y-9035484D01*
X4162682Y-9035484D02*
X4181729Y-9045008D01*
X4181729Y-9045008D02*
X4191253Y-9054531D01*
X4191253Y-9054531D02*
X4200777Y-9073579D01*
X4200777Y-9073579D02*
X4210301Y-9111674D01*
X4210301Y-9111674D02*
X4210301Y-9159293D01*
X4210301Y-9159293D02*
X4200777Y-9197389D01*
X4200777Y-9197389D02*
X4191253Y-9216436D01*
X4191253Y-9216436D02*
X4181729Y-9225960D01*
X4181729Y-9225960D02*
X4162682Y-9235484D01*
X4162682Y-9235484D02*
X4143634Y-9235484D01*
X4143634Y-9235484D02*
X4124586Y-9225960D01*
X4124586Y-9225960D02*
X4115063Y-9216436D01*
X4115063Y-9216436D02*
X4105539Y-9197389D01*
X4105539Y-9197389D02*
X4096015Y-9159293D01*
X4096015Y-9159293D02*
X4096015Y-9111674D01*
X4096015Y-9111674D02*
X4105539Y-9073579D01*
X4105539Y-9073579D02*
X4115063Y-9054531D01*
X4115063Y-9054531D02*
X4124586Y-9045008D01*
X4124586Y-9045008D02*
X4143634Y-9035484D01*
X4296015Y-9216436D02*
X4305539Y-9225960D01*
X4305539Y-9225960D02*
X4296015Y-9235484D01*
X4296015Y-9235484D02*
X4286491Y-9225960D01*
X4286491Y-9225960D02*
X4296015Y-9216436D01*
X4296015Y-9216436D02*
X4296015Y-9235484D01*
X4429348Y-9035484D02*
X4448396Y-9035484D01*
X4448396Y-9035484D02*
X4467444Y-9045008D01*
X4467444Y-9045008D02*
X4476968Y-9054531D01*
X4476968Y-9054531D02*
X4486491Y-9073579D01*
X4486491Y-9073579D02*
X4496015Y-9111674D01*
X4496015Y-9111674D02*
X4496015Y-9159293D01*
X4496015Y-9159293D02*
X4486491Y-9197389D01*
X4486491Y-9197389D02*
X4476968Y-9216436D01*
X4476968Y-9216436D02*
X4467444Y-9225960D01*
X4467444Y-9225960D02*
X4448396Y-9235484D01*
X4448396Y-9235484D02*
X4429348Y-9235484D01*
X4429348Y-9235484D02*
X4410301Y-9225960D01*
X4410301Y-9225960D02*
X4400777Y-9216436D01*
X4400777Y-9216436D02*
X4391253Y-9197389D01*
X4391253Y-9197389D02*
X4381729Y-9159293D01*
X4381729Y-9159293D02*
X4381729Y-9111674D01*
X4381729Y-9111674D02*
X4391253Y-9073579D01*
X4391253Y-9073579D02*
X4400777Y-9054531D01*
X4400777Y-9054531D02*
X4410301Y-9045008D01*
X4410301Y-9045008D02*
X4429348Y-9035484D01*
X4676968Y-9035484D02*
X4581729Y-9035484D01*
X4581729Y-9035484D02*
X4572206Y-9130722D01*
X4572206Y-9130722D02*
X4581729Y-9121198D01*
X4581729Y-9121198D02*
X4600777Y-9111674D01*
X4600777Y-9111674D02*
X4648396Y-9111674D01*
X4648396Y-9111674D02*
X4667444Y-9121198D01*
X4667444Y-9121198D02*
X4676968Y-9130722D01*
X4676968Y-9130722D02*
X4686491Y-9149770D01*
X4686491Y-9149770D02*
X4686491Y-9197389D01*
X4686491Y-9197389D02*
X4676968Y-9216436D01*
X4676968Y-9216436D02*
X4667444Y-9225960D01*
X4667444Y-9225960D02*
X4648396Y-9235484D01*
X4648396Y-9235484D02*
X4600777Y-9235484D01*
X4600777Y-9235484D02*
X4581729Y-9225960D01*
X4581729Y-9225960D02*
X4572206Y-9216436D01*
X4867444Y-9035484D02*
X4772206Y-9035484D01*
X4772206Y-9035484D02*
X4762682Y-9130722D01*
X4762682Y-9130722D02*
X4772206Y-9121198D01*
X4772206Y-9121198D02*
X4791253Y-9111674D01*
X4791253Y-9111674D02*
X4838872Y-9111674D01*
X4838872Y-9111674D02*
X4857920Y-9121198D01*
X4857920Y-9121198D02*
X4867444Y-9130722D01*
X4867444Y-9130722D02*
X4876968Y-9149770D01*
X4876968Y-9149770D02*
X4876968Y-9197389D01*
X4876968Y-9197389D02*
X4867444Y-9216436D01*
X4867444Y-9216436D02*
X4857920Y-9225960D01*
X4857920Y-9225960D02*
X4838872Y-9235484D01*
X4838872Y-9235484D02*
X4791253Y-9235484D01*
X4791253Y-9235484D02*
X4772206Y-9225960D01*
X4772206Y-9225960D02*
X4762682Y-9216436D01*
X5067444Y-9235484D02*
X4953158Y-9235484D01*
X5010301Y-9235484D02*
X5010301Y-9035484D01*
X5010301Y-9035484D02*
X4991253Y-9064055D01*
X4991253Y-9064055D02*
X4972206Y-9083103D01*
X4972206Y-9083103D02*
X4953158Y-9092627D01*
X5143634Y-9035484D02*
X5143634Y-9073579D01*
X5219825Y-9035484D02*
X5219825Y-9073579D01*
X5515063Y-9311674D02*
X5505539Y-9302150D01*
X5505539Y-9302150D02*
X5486491Y-9273579D01*
X5486491Y-9273579D02*
X5476968Y-9254531D01*
X5476968Y-9254531D02*
X5467444Y-9225960D01*
X5467444Y-9225960D02*
X5457920Y-9178341D01*
X5457920Y-9178341D02*
X5457920Y-9140246D01*
X5457920Y-9140246D02*
X5467444Y-9092627D01*
X5467444Y-9092627D02*
X5476968Y-9064055D01*
X5476968Y-9064055D02*
X5486491Y-9045008D01*
X5486491Y-9045008D02*
X5505539Y-9016436D01*
X5505539Y-9016436D02*
X5515063Y-9006912D01*
X5581730Y-9054531D02*
X5591253Y-9045008D01*
X5591253Y-9045008D02*
X5610301Y-9035484D01*
X5610301Y-9035484D02*
X5657920Y-9035484D01*
X5657920Y-9035484D02*
X5676968Y-9045008D01*
X5676968Y-9045008D02*
X5686491Y-9054531D01*
X5686491Y-9054531D02*
X5696015Y-9073579D01*
X5696015Y-9073579D02*
X5696015Y-9092627D01*
X5696015Y-9092627D02*
X5686491Y-9121198D01*
X5686491Y-9121198D02*
X5572206Y-9235484D01*
X5572206Y-9235484D02*
X5696015Y-9235484D01*
X5934110Y-9235484D02*
X5934110Y-9035484D01*
X6019825Y-9235484D02*
X6019825Y-9130722D01*
X6019825Y-9130722D02*
X6010301Y-9111674D01*
X6010301Y-9111674D02*
X5991253Y-9102150D01*
X5991253Y-9102150D02*
X5962682Y-9102150D01*
X5962682Y-9102150D02*
X5943634Y-9111674D01*
X5943634Y-9111674D02*
X5934110Y-9121198D01*
X6143634Y-9235484D02*
X6124587Y-9225960D01*
X6124587Y-9225960D02*
X6115063Y-9216436D01*
X6115063Y-9216436D02*
X6105539Y-9197389D01*
X6105539Y-9197389D02*
X6105539Y-9140246D01*
X6105539Y-9140246D02*
X6115063Y-9121198D01*
X6115063Y-9121198D02*
X6124587Y-9111674D01*
X6124587Y-9111674D02*
X6143634Y-9102150D01*
X6143634Y-9102150D02*
X6172206Y-9102150D01*
X6172206Y-9102150D02*
X6191253Y-9111674D01*
X6191253Y-9111674D02*
X6200777Y-9121198D01*
X6200777Y-9121198D02*
X6210301Y-9140246D01*
X6210301Y-9140246D02*
X6210301Y-9197389D01*
X6210301Y-9197389D02*
X6200777Y-9216436D01*
X6200777Y-9216436D02*
X6191253Y-9225960D01*
X6191253Y-9225960D02*
X6172206Y-9235484D01*
X6172206Y-9235484D02*
X6143634Y-9235484D01*
X6324587Y-9235484D02*
X6305539Y-9225960D01*
X6305539Y-9225960D02*
X6296015Y-9206912D01*
X6296015Y-9206912D02*
X6296015Y-9035484D01*
X6476968Y-9225960D02*
X6457920Y-9235484D01*
X6457920Y-9235484D02*
X6419825Y-9235484D01*
X6419825Y-9235484D02*
X6400777Y-9225960D01*
X6400777Y-9225960D02*
X6391253Y-9206912D01*
X6391253Y-9206912D02*
X6391253Y-9130722D01*
X6391253Y-9130722D02*
X6400777Y-9111674D01*
X6400777Y-9111674D02*
X6419825Y-9102150D01*
X6419825Y-9102150D02*
X6457920Y-9102150D01*
X6457920Y-9102150D02*
X6476968Y-9111674D01*
X6476968Y-9111674D02*
X6486491Y-9130722D01*
X6486491Y-9130722D02*
X6486491Y-9149770D01*
X6486491Y-9149770D02*
X6391253Y-9168817D01*
X6562682Y-9225960D02*
X6581730Y-9235484D01*
X6581730Y-9235484D02*
X6619825Y-9235484D01*
X6619825Y-9235484D02*
X6638872Y-9225960D01*
X6638872Y-9225960D02*
X6648396Y-9206912D01*
X6648396Y-9206912D02*
X6648396Y-9197389D01*
X6648396Y-9197389D02*
X6638872Y-9178341D01*
X6638872Y-9178341D02*
X6619825Y-9168817D01*
X6619825Y-9168817D02*
X6591253Y-9168817D01*
X6591253Y-9168817D02*
X6572206Y-9159293D01*
X6572206Y-9159293D02*
X6562682Y-9140246D01*
X6562682Y-9140246D02*
X6562682Y-9130722D01*
X6562682Y-9130722D02*
X6572206Y-9111674D01*
X6572206Y-9111674D02*
X6591253Y-9102150D01*
X6591253Y-9102150D02*
X6619825Y-9102150D01*
X6619825Y-9102150D02*
X6638872Y-9111674D01*
X6715063Y-9311674D02*
X6724587Y-9302150D01*
X6724587Y-9302150D02*
X6743634Y-9273579D01*
X6743634Y-9273579D02*
X6753158Y-9254531D01*
X6753158Y-9254531D02*
X6762682Y-9225960D01*
X6762682Y-9225960D02*
X6772206Y-9178341D01*
X6772206Y-9178341D02*
X6772206Y-9140246D01*
X6772206Y-9140246D02*
X6762682Y-9092627D01*
X6762682Y-9092627D02*
X6753158Y-9064055D01*
X6753158Y-9064055D02*
X6743634Y-9045008D01*
X6743634Y-9045008D02*
X6724587Y-9016436D01*
X6724587Y-9016436D02*
X6715063Y-9006912D01*
X7076968Y-9311674D02*
X7067444Y-9302150D01*
X7067444Y-9302150D02*
X7048396Y-9273579D01*
X7048396Y-9273579D02*
X7038872Y-9254531D01*
X7038872Y-9254531D02*
X7029349Y-9225960D01*
X7029349Y-9225960D02*
X7019825Y-9178341D01*
X7019825Y-9178341D02*
X7019825Y-9140246D01*
X7019825Y-9140246D02*
X7029349Y-9092627D01*
X7029349Y-9092627D02*
X7038872Y-9064055D01*
X7038872Y-9064055D02*
X7048396Y-9045008D01*
X7048396Y-9045008D02*
X7067444Y-9016436D01*
X7067444Y-9016436D02*
X7076968Y-9006912D01*
X7153158Y-9102150D02*
X7153158Y-9235484D01*
X7153158Y-9121198D02*
X7162682Y-9111674D01*
X7162682Y-9111674D02*
X7181730Y-9102150D01*
X7181730Y-9102150D02*
X7210301Y-9102150D01*
X7210301Y-9102150D02*
X7229349Y-9111674D01*
X7229349Y-9111674D02*
X7238872Y-9130722D01*
X7238872Y-9130722D02*
X7238872Y-9235484D01*
X7362682Y-9235484D02*
X7343634Y-9225960D01*
X7343634Y-9225960D02*
X7334111Y-9216436D01*
X7334111Y-9216436D02*
X7324587Y-9197389D01*
X7324587Y-9197389D02*
X7324587Y-9140246D01*
X7324587Y-9140246D02*
X7334111Y-9121198D01*
X7334111Y-9121198D02*
X7343634Y-9111674D01*
X7343634Y-9111674D02*
X7362682Y-9102150D01*
X7362682Y-9102150D02*
X7391253Y-9102150D01*
X7391253Y-9102150D02*
X7410301Y-9111674D01*
X7410301Y-9111674D02*
X7419825Y-9121198D01*
X7419825Y-9121198D02*
X7429349Y-9140246D01*
X7429349Y-9140246D02*
X7429349Y-9197389D01*
X7429349Y-9197389D02*
X7419825Y-9216436D01*
X7419825Y-9216436D02*
X7410301Y-9225960D01*
X7410301Y-9225960D02*
X7391253Y-9235484D01*
X7391253Y-9235484D02*
X7362682Y-9235484D01*
X7486492Y-9102150D02*
X7562682Y-9102150D01*
X7515063Y-9035484D02*
X7515063Y-9206912D01*
X7515063Y-9206912D02*
X7524587Y-9225960D01*
X7524587Y-9225960D02*
X7543634Y-9235484D01*
X7543634Y-9235484D02*
X7562682Y-9235484D01*
X7781730Y-9102150D02*
X7781730Y-9302150D01*
X7781730Y-9111674D02*
X7800777Y-9102150D01*
X7800777Y-9102150D02*
X7838873Y-9102150D01*
X7838873Y-9102150D02*
X7857920Y-9111674D01*
X7857920Y-9111674D02*
X7867444Y-9121198D01*
X7867444Y-9121198D02*
X7876968Y-9140246D01*
X7876968Y-9140246D02*
X7876968Y-9197389D01*
X7876968Y-9197389D02*
X7867444Y-9216436D01*
X7867444Y-9216436D02*
X7857920Y-9225960D01*
X7857920Y-9225960D02*
X7838873Y-9235484D01*
X7838873Y-9235484D02*
X7800777Y-9235484D01*
X7800777Y-9235484D02*
X7781730Y-9225960D01*
X7991253Y-9235484D02*
X7972206Y-9225960D01*
X7972206Y-9225960D02*
X7962682Y-9206912D01*
X7962682Y-9206912D02*
X7962682Y-9035484D01*
X8153158Y-9235484D02*
X8153158Y-9130722D01*
X8153158Y-9130722D02*
X8143634Y-9111674D01*
X8143634Y-9111674D02*
X8124587Y-9102150D01*
X8124587Y-9102150D02*
X8086492Y-9102150D01*
X8086492Y-9102150D02*
X8067444Y-9111674D01*
X8153158Y-9225960D02*
X8134111Y-9235484D01*
X8134111Y-9235484D02*
X8086492Y-9235484D01*
X8086492Y-9235484D02*
X8067444Y-9225960D01*
X8067444Y-9225960D02*
X8057920Y-9206912D01*
X8057920Y-9206912D02*
X8057920Y-9187865D01*
X8057920Y-9187865D02*
X8067444Y-9168817D01*
X8067444Y-9168817D02*
X8086492Y-9159293D01*
X8086492Y-9159293D02*
X8134111Y-9159293D01*
X8134111Y-9159293D02*
X8153158Y-9149770D01*
X8219825Y-9102150D02*
X8296015Y-9102150D01*
X8248396Y-9035484D02*
X8248396Y-9206912D01*
X8248396Y-9206912D02*
X8257920Y-9225960D01*
X8257920Y-9225960D02*
X8276968Y-9235484D01*
X8276968Y-9235484D02*
X8296015Y-9235484D01*
X8438873Y-9225960D02*
X8419825Y-9235484D01*
X8419825Y-9235484D02*
X8381730Y-9235484D01*
X8381730Y-9235484D02*
X8362682Y-9225960D01*
X8362682Y-9225960D02*
X8353158Y-9206912D01*
X8353158Y-9206912D02*
X8353158Y-9130722D01*
X8353158Y-9130722D02*
X8362682Y-9111674D01*
X8362682Y-9111674D02*
X8381730Y-9102150D01*
X8381730Y-9102150D02*
X8419825Y-9102150D01*
X8419825Y-9102150D02*
X8438873Y-9111674D01*
X8438873Y-9111674D02*
X8448396Y-9130722D01*
X8448396Y-9130722D02*
X8448396Y-9149770D01*
X8448396Y-9149770D02*
X8353158Y-9168817D01*
X8619825Y-9235484D02*
X8619825Y-9035484D01*
X8619825Y-9225960D02*
X8600777Y-9235484D01*
X8600777Y-9235484D02*
X8562682Y-9235484D01*
X8562682Y-9235484D02*
X8543635Y-9225960D01*
X8543635Y-9225960D02*
X8534111Y-9216436D01*
X8534111Y-9216436D02*
X8524587Y-9197389D01*
X8524587Y-9197389D02*
X8524587Y-9140246D01*
X8524587Y-9140246D02*
X8534111Y-9121198D01*
X8534111Y-9121198D02*
X8543635Y-9111674D01*
X8543635Y-9111674D02*
X8562682Y-9102150D01*
X8562682Y-9102150D02*
X8600777Y-9102150D01*
X8600777Y-9102150D02*
X8619825Y-9111674D01*
X8696016Y-9311674D02*
X8705539Y-9302150D01*
X8705539Y-9302150D02*
X8724587Y-9273579D01*
X8724587Y-9273579D02*
X8734111Y-9254531D01*
X8734111Y-9254531D02*
X8743635Y-9225960D01*
X8743635Y-9225960D02*
X8753158Y-9178341D01*
X8753158Y-9178341D02*
X8753158Y-9140246D01*
X8753158Y-9140246D02*
X8743635Y-9092627D01*
X8743635Y-9092627D02*
X8734111Y-9064055D01*
X8734111Y-9064055D02*
X8724587Y-9045008D01*
X8724587Y-9045008D02*
X8705539Y-9016436D01*
X8705539Y-9016436D02*
X8696016Y-9006912D01*
D13*
X1865000Y-9333000D02*
X1865000Y-9483000D01*
X1790000Y-9408000D02*
X1940000Y-9408000D01*
D10*
X2305539Y-9499484D02*
X2191253Y-9499484D01*
X2248396Y-9499484D02*
X2248396Y-9299484D01*
X2248396Y-9299484D02*
X2229348Y-9328055D01*
X2229348Y-9328055D02*
X2210301Y-9347103D01*
X2210301Y-9347103D02*
X2191253Y-9356627D01*
X2391253Y-9480436D02*
X2400777Y-9489960D01*
X2400777Y-9489960D02*
X2391253Y-9499484D01*
X2391253Y-9499484D02*
X2381729Y-9489960D01*
X2381729Y-9489960D02*
X2391253Y-9480436D01*
X2391253Y-9480436D02*
X2391253Y-9499484D01*
X2581729Y-9299484D02*
X2486491Y-9299484D01*
X2486491Y-9299484D02*
X2476967Y-9394722D01*
X2476967Y-9394722D02*
X2486491Y-9385198D01*
X2486491Y-9385198D02*
X2505539Y-9375674D01*
X2505539Y-9375674D02*
X2553158Y-9375674D01*
X2553158Y-9375674D02*
X2572205Y-9385198D01*
X2572205Y-9385198D02*
X2581729Y-9394722D01*
X2581729Y-9394722D02*
X2591253Y-9413770D01*
X2591253Y-9413770D02*
X2591253Y-9461389D01*
X2591253Y-9461389D02*
X2581729Y-9480436D01*
X2581729Y-9480436D02*
X2572205Y-9489960D01*
X2572205Y-9489960D02*
X2553158Y-9499484D01*
X2553158Y-9499484D02*
X2505539Y-9499484D01*
X2505539Y-9499484D02*
X2486491Y-9489960D01*
X2486491Y-9489960D02*
X2476967Y-9480436D01*
X2715063Y-9299484D02*
X2734110Y-9299484D01*
X2734110Y-9299484D02*
X2753158Y-9309008D01*
X2753158Y-9309008D02*
X2762682Y-9318531D01*
X2762682Y-9318531D02*
X2772205Y-9337579D01*
X2772205Y-9337579D02*
X2781729Y-9375674D01*
X2781729Y-9375674D02*
X2781729Y-9423293D01*
X2781729Y-9423293D02*
X2772205Y-9461389D01*
X2772205Y-9461389D02*
X2762682Y-9480436D01*
X2762682Y-9480436D02*
X2753158Y-9489960D01*
X2753158Y-9489960D02*
X2734110Y-9499484D01*
X2734110Y-9499484D02*
X2715063Y-9499484D01*
X2715063Y-9499484D02*
X2696015Y-9489960D01*
X2696015Y-9489960D02*
X2686491Y-9480436D01*
X2686491Y-9480436D02*
X2676967Y-9461389D01*
X2676967Y-9461389D02*
X2667444Y-9423293D01*
X2667444Y-9423293D02*
X2667444Y-9375674D01*
X2667444Y-9375674D02*
X2676967Y-9337579D01*
X2676967Y-9337579D02*
X2686491Y-9318531D01*
X2686491Y-9318531D02*
X2696015Y-9309008D01*
X2696015Y-9309008D02*
X2715063Y-9299484D01*
X2905539Y-9299484D02*
X2924586Y-9299484D01*
X2924586Y-9299484D02*
X2943634Y-9309008D01*
X2943634Y-9309008D02*
X2953158Y-9318531D01*
X2953158Y-9318531D02*
X2962682Y-9337579D01*
X2962682Y-9337579D02*
X2972205Y-9375674D01*
X2972205Y-9375674D02*
X2972205Y-9423293D01*
X2972205Y-9423293D02*
X2962682Y-9461389D01*
X2962682Y-9461389D02*
X2953158Y-9480436D01*
X2953158Y-9480436D02*
X2943634Y-9489960D01*
X2943634Y-9489960D02*
X2924586Y-9499484D01*
X2924586Y-9499484D02*
X2905539Y-9499484D01*
X2905539Y-9499484D02*
X2886491Y-9489960D01*
X2886491Y-9489960D02*
X2876967Y-9480436D01*
X2876967Y-9480436D02*
X2867443Y-9461389D01*
X2867443Y-9461389D02*
X2857920Y-9423293D01*
X2857920Y-9423293D02*
X2857920Y-9375674D01*
X2857920Y-9375674D02*
X2867443Y-9337579D01*
X2867443Y-9337579D02*
X2876967Y-9318531D01*
X2876967Y-9318531D02*
X2886491Y-9309008D01*
X2886491Y-9309008D02*
X2905539Y-9299484D01*
X3057920Y-9499484D02*
X3057920Y-9366150D01*
X3057920Y-9385198D02*
X3067443Y-9375674D01*
X3067443Y-9375674D02*
X3086491Y-9366150D01*
X3086491Y-9366150D02*
X3115063Y-9366150D01*
X3115063Y-9366150D02*
X3134110Y-9375674D01*
X3134110Y-9375674D02*
X3143634Y-9394722D01*
X3143634Y-9394722D02*
X3143634Y-9499484D01*
X3143634Y-9394722D02*
X3153158Y-9375674D01*
X3153158Y-9375674D02*
X3172205Y-9366150D01*
X3172205Y-9366150D02*
X3200777Y-9366150D01*
X3200777Y-9366150D02*
X3219824Y-9375674D01*
X3219824Y-9375674D02*
X3229348Y-9394722D01*
X3229348Y-9394722D02*
X3229348Y-9499484D01*
X3324586Y-9499484D02*
X3324586Y-9366150D01*
X3324586Y-9385198D02*
X3334110Y-9375674D01*
X3334110Y-9375674D02*
X3353158Y-9366150D01*
X3353158Y-9366150D02*
X3381729Y-9366150D01*
X3381729Y-9366150D02*
X3400777Y-9375674D01*
X3400777Y-9375674D02*
X3410301Y-9394722D01*
X3410301Y-9394722D02*
X3410301Y-9499484D01*
X3410301Y-9394722D02*
X3419824Y-9375674D01*
X3419824Y-9375674D02*
X3438872Y-9366150D01*
X3438872Y-9366150D02*
X3467443Y-9366150D01*
X3467443Y-9366150D02*
X3486491Y-9375674D01*
X3486491Y-9375674D02*
X3496015Y-9394722D01*
X3496015Y-9394722D02*
X3496015Y-9499484D01*
X3886491Y-9289960D02*
X3715063Y-9547103D01*
X4143634Y-9299484D02*
X4162682Y-9299484D01*
X4162682Y-9299484D02*
X4181729Y-9309008D01*
X4181729Y-9309008D02*
X4191253Y-9318531D01*
X4191253Y-9318531D02*
X4200777Y-9337579D01*
X4200777Y-9337579D02*
X4210301Y-9375674D01*
X4210301Y-9375674D02*
X4210301Y-9423293D01*
X4210301Y-9423293D02*
X4200777Y-9461389D01*
X4200777Y-9461389D02*
X4191253Y-9480436D01*
X4191253Y-9480436D02*
X4181729Y-9489960D01*
X4181729Y-9489960D02*
X4162682Y-9499484D01*
X4162682Y-9499484D02*
X4143634Y-9499484D01*
X4143634Y-9499484D02*
X4124586Y-9489960D01*
X4124586Y-9489960D02*
X4115063Y-9480436D01*
X4115063Y-9480436D02*
X4105539Y-9461389D01*
X4105539Y-9461389D02*
X4096015Y-9423293D01*
X4096015Y-9423293D02*
X4096015Y-9375674D01*
X4096015Y-9375674D02*
X4105539Y-9337579D01*
X4105539Y-9337579D02*
X4115063Y-9318531D01*
X4115063Y-9318531D02*
X4124586Y-9309008D01*
X4124586Y-9309008D02*
X4143634Y-9299484D01*
X4296015Y-9480436D02*
X4305539Y-9489960D01*
X4305539Y-9489960D02*
X4296015Y-9499484D01*
X4296015Y-9499484D02*
X4286491Y-9489960D01*
X4286491Y-9489960D02*
X4296015Y-9480436D01*
X4296015Y-9480436D02*
X4296015Y-9499484D01*
X4429348Y-9299484D02*
X4448396Y-9299484D01*
X4448396Y-9299484D02*
X4467444Y-9309008D01*
X4467444Y-9309008D02*
X4476968Y-9318531D01*
X4476968Y-9318531D02*
X4486491Y-9337579D01*
X4486491Y-9337579D02*
X4496015Y-9375674D01*
X4496015Y-9375674D02*
X4496015Y-9423293D01*
X4496015Y-9423293D02*
X4486491Y-9461389D01*
X4486491Y-9461389D02*
X4476968Y-9480436D01*
X4476968Y-9480436D02*
X4467444Y-9489960D01*
X4467444Y-9489960D02*
X4448396Y-9499484D01*
X4448396Y-9499484D02*
X4429348Y-9499484D01*
X4429348Y-9499484D02*
X4410301Y-9489960D01*
X4410301Y-9489960D02*
X4400777Y-9480436D01*
X4400777Y-9480436D02*
X4391253Y-9461389D01*
X4391253Y-9461389D02*
X4381729Y-9423293D01*
X4381729Y-9423293D02*
X4381729Y-9375674D01*
X4381729Y-9375674D02*
X4391253Y-9337579D01*
X4391253Y-9337579D02*
X4400777Y-9318531D01*
X4400777Y-9318531D02*
X4410301Y-9309008D01*
X4410301Y-9309008D02*
X4429348Y-9299484D01*
X4676968Y-9299484D02*
X4581729Y-9299484D01*
X4581729Y-9299484D02*
X4572206Y-9394722D01*
X4572206Y-9394722D02*
X4581729Y-9385198D01*
X4581729Y-9385198D02*
X4600777Y-9375674D01*
X4600777Y-9375674D02*
X4648396Y-9375674D01*
X4648396Y-9375674D02*
X4667444Y-9385198D01*
X4667444Y-9385198D02*
X4676968Y-9394722D01*
X4676968Y-9394722D02*
X4686491Y-9413770D01*
X4686491Y-9413770D02*
X4686491Y-9461389D01*
X4686491Y-9461389D02*
X4676968Y-9480436D01*
X4676968Y-9480436D02*
X4667444Y-9489960D01*
X4667444Y-9489960D02*
X4648396Y-9499484D01*
X4648396Y-9499484D02*
X4600777Y-9499484D01*
X4600777Y-9499484D02*
X4581729Y-9489960D01*
X4581729Y-9489960D02*
X4572206Y-9480436D01*
X4781729Y-9499484D02*
X4819825Y-9499484D01*
X4819825Y-9499484D02*
X4838872Y-9489960D01*
X4838872Y-9489960D02*
X4848396Y-9480436D01*
X4848396Y-9480436D02*
X4867444Y-9451865D01*
X4867444Y-9451865D02*
X4876968Y-9413770D01*
X4876968Y-9413770D02*
X4876968Y-9337579D01*
X4876968Y-9337579D02*
X4867444Y-9318531D01*
X4867444Y-9318531D02*
X4857920Y-9309008D01*
X4857920Y-9309008D02*
X4838872Y-9299484D01*
X4838872Y-9299484D02*
X4800777Y-9299484D01*
X4800777Y-9299484D02*
X4781729Y-9309008D01*
X4781729Y-9309008D02*
X4772206Y-9318531D01*
X4772206Y-9318531D02*
X4762682Y-9337579D01*
X4762682Y-9337579D02*
X4762682Y-9385198D01*
X4762682Y-9385198D02*
X4772206Y-9404246D01*
X4772206Y-9404246D02*
X4781729Y-9413770D01*
X4781729Y-9413770D02*
X4800777Y-9423293D01*
X4800777Y-9423293D02*
X4838872Y-9423293D01*
X4838872Y-9423293D02*
X4857920Y-9413770D01*
X4857920Y-9413770D02*
X4867444Y-9404246D01*
X4867444Y-9404246D02*
X4876968Y-9385198D01*
X5067444Y-9499484D02*
X4953158Y-9499484D01*
X5010301Y-9499484D02*
X5010301Y-9299484D01*
X5010301Y-9299484D02*
X4991253Y-9328055D01*
X4991253Y-9328055D02*
X4972206Y-9347103D01*
X4972206Y-9347103D02*
X4953158Y-9356627D01*
X5143634Y-9299484D02*
X5143634Y-9337579D01*
X5219825Y-9299484D02*
X5219825Y-9337579D01*
X5515063Y-9575674D02*
X5505539Y-9566150D01*
X5505539Y-9566150D02*
X5486491Y-9537579D01*
X5486491Y-9537579D02*
X5476968Y-9518531D01*
X5476968Y-9518531D02*
X5467444Y-9489960D01*
X5467444Y-9489960D02*
X5457920Y-9442341D01*
X5457920Y-9442341D02*
X5457920Y-9404246D01*
X5457920Y-9404246D02*
X5467444Y-9356627D01*
X5467444Y-9356627D02*
X5476968Y-9328055D01*
X5476968Y-9328055D02*
X5486491Y-9309008D01*
X5486491Y-9309008D02*
X5505539Y-9280436D01*
X5505539Y-9280436D02*
X5515063Y-9270912D01*
X5676968Y-9366150D02*
X5676968Y-9499484D01*
X5629348Y-9289960D02*
X5581730Y-9432817D01*
X5581730Y-9432817D02*
X5705539Y-9432817D01*
X5934110Y-9499484D02*
X5934110Y-9299484D01*
X6019825Y-9499484D02*
X6019825Y-9394722D01*
X6019825Y-9394722D02*
X6010301Y-9375674D01*
X6010301Y-9375674D02*
X5991253Y-9366150D01*
X5991253Y-9366150D02*
X5962682Y-9366150D01*
X5962682Y-9366150D02*
X5943634Y-9375674D01*
X5943634Y-9375674D02*
X5934110Y-9385198D01*
X6143634Y-9499484D02*
X6124587Y-9489960D01*
X6124587Y-9489960D02*
X6115063Y-9480436D01*
X6115063Y-9480436D02*
X6105539Y-9461389D01*
X6105539Y-9461389D02*
X6105539Y-9404246D01*
X6105539Y-9404246D02*
X6115063Y-9385198D01*
X6115063Y-9385198D02*
X6124587Y-9375674D01*
X6124587Y-9375674D02*
X6143634Y-9366150D01*
X6143634Y-9366150D02*
X6172206Y-9366150D01*
X6172206Y-9366150D02*
X6191253Y-9375674D01*
X6191253Y-9375674D02*
X6200777Y-9385198D01*
X6200777Y-9385198D02*
X6210301Y-9404246D01*
X6210301Y-9404246D02*
X6210301Y-9461389D01*
X6210301Y-9461389D02*
X6200777Y-9480436D01*
X6200777Y-9480436D02*
X6191253Y-9489960D01*
X6191253Y-9489960D02*
X6172206Y-9499484D01*
X6172206Y-9499484D02*
X6143634Y-9499484D01*
X6324587Y-9499484D02*
X6305539Y-9489960D01*
X6305539Y-9489960D02*
X6296015Y-9470912D01*
X6296015Y-9470912D02*
X6296015Y-9299484D01*
X6476968Y-9489960D02*
X6457920Y-9499484D01*
X6457920Y-9499484D02*
X6419825Y-9499484D01*
X6419825Y-9499484D02*
X6400777Y-9489960D01*
X6400777Y-9489960D02*
X6391253Y-9470912D01*
X6391253Y-9470912D02*
X6391253Y-9394722D01*
X6391253Y-9394722D02*
X6400777Y-9375674D01*
X6400777Y-9375674D02*
X6419825Y-9366150D01*
X6419825Y-9366150D02*
X6457920Y-9366150D01*
X6457920Y-9366150D02*
X6476968Y-9375674D01*
X6476968Y-9375674D02*
X6486491Y-9394722D01*
X6486491Y-9394722D02*
X6486491Y-9413770D01*
X6486491Y-9413770D02*
X6391253Y-9432817D01*
X6562682Y-9489960D02*
X6581730Y-9499484D01*
X6581730Y-9499484D02*
X6619825Y-9499484D01*
X6619825Y-9499484D02*
X6638872Y-9489960D01*
X6638872Y-9489960D02*
X6648396Y-9470912D01*
X6648396Y-9470912D02*
X6648396Y-9461389D01*
X6648396Y-9461389D02*
X6638872Y-9442341D01*
X6638872Y-9442341D02*
X6619825Y-9432817D01*
X6619825Y-9432817D02*
X6591253Y-9432817D01*
X6591253Y-9432817D02*
X6572206Y-9423293D01*
X6572206Y-9423293D02*
X6562682Y-9404246D01*
X6562682Y-9404246D02*
X6562682Y-9394722D01*
X6562682Y-9394722D02*
X6572206Y-9375674D01*
X6572206Y-9375674D02*
X6591253Y-9366150D01*
X6591253Y-9366150D02*
X6619825Y-9366150D01*
X6619825Y-9366150D02*
X6638872Y-9375674D01*
X6715063Y-9575674D02*
X6724587Y-9566150D01*
X6724587Y-9566150D02*
X6743634Y-9537579D01*
X6743634Y-9537579D02*
X6753158Y-9518531D01*
X6753158Y-9518531D02*
X6762682Y-9489960D01*
X6762682Y-9489960D02*
X6772206Y-9442341D01*
X6772206Y-9442341D02*
X6772206Y-9404246D01*
X6772206Y-9404246D02*
X6762682Y-9356627D01*
X6762682Y-9356627D02*
X6753158Y-9328055D01*
X6753158Y-9328055D02*
X6743634Y-9309008D01*
X6743634Y-9309008D02*
X6724587Y-9280436D01*
X6724587Y-9280436D02*
X6715063Y-9270912D01*
X7076968Y-9575674D02*
X7067444Y-9566150D01*
X7067444Y-9566150D02*
X7048396Y-9537579D01*
X7048396Y-9537579D02*
X7038872Y-9518531D01*
X7038872Y-9518531D02*
X7029349Y-9489960D01*
X7029349Y-9489960D02*
X7019825Y-9442341D01*
X7019825Y-9442341D02*
X7019825Y-9404246D01*
X7019825Y-9404246D02*
X7029349Y-9356627D01*
X7029349Y-9356627D02*
X7038872Y-9328055D01*
X7038872Y-9328055D02*
X7048396Y-9309008D01*
X7048396Y-9309008D02*
X7067444Y-9280436D01*
X7067444Y-9280436D02*
X7076968Y-9270912D01*
X7153158Y-9366150D02*
X7153158Y-9499484D01*
X7153158Y-9385198D02*
X7162682Y-9375674D01*
X7162682Y-9375674D02*
X7181730Y-9366150D01*
X7181730Y-9366150D02*
X7210301Y-9366150D01*
X7210301Y-9366150D02*
X7229349Y-9375674D01*
X7229349Y-9375674D02*
X7238872Y-9394722D01*
X7238872Y-9394722D02*
X7238872Y-9499484D01*
X7362682Y-9499484D02*
X7343634Y-9489960D01*
X7343634Y-9489960D02*
X7334111Y-9480436D01*
X7334111Y-9480436D02*
X7324587Y-9461389D01*
X7324587Y-9461389D02*
X7324587Y-9404246D01*
X7324587Y-9404246D02*
X7334111Y-9385198D01*
X7334111Y-9385198D02*
X7343634Y-9375674D01*
X7343634Y-9375674D02*
X7362682Y-9366150D01*
X7362682Y-9366150D02*
X7391253Y-9366150D01*
X7391253Y-9366150D02*
X7410301Y-9375674D01*
X7410301Y-9375674D02*
X7419825Y-9385198D01*
X7419825Y-9385198D02*
X7429349Y-9404246D01*
X7429349Y-9404246D02*
X7429349Y-9461389D01*
X7429349Y-9461389D02*
X7419825Y-9480436D01*
X7419825Y-9480436D02*
X7410301Y-9489960D01*
X7410301Y-9489960D02*
X7391253Y-9499484D01*
X7391253Y-9499484D02*
X7362682Y-9499484D01*
X7486492Y-9366150D02*
X7562682Y-9366150D01*
X7515063Y-9299484D02*
X7515063Y-9470912D01*
X7515063Y-9470912D02*
X7524587Y-9489960D01*
X7524587Y-9489960D02*
X7543634Y-9499484D01*
X7543634Y-9499484D02*
X7562682Y-9499484D01*
X7781730Y-9366150D02*
X7781730Y-9566150D01*
X7781730Y-9375674D02*
X7800777Y-9366150D01*
X7800777Y-9366150D02*
X7838873Y-9366150D01*
X7838873Y-9366150D02*
X7857920Y-9375674D01*
X7857920Y-9375674D02*
X7867444Y-9385198D01*
X7867444Y-9385198D02*
X7876968Y-9404246D01*
X7876968Y-9404246D02*
X7876968Y-9461389D01*
X7876968Y-9461389D02*
X7867444Y-9480436D01*
X7867444Y-9480436D02*
X7857920Y-9489960D01*
X7857920Y-9489960D02*
X7838873Y-9499484D01*
X7838873Y-9499484D02*
X7800777Y-9499484D01*
X7800777Y-9499484D02*
X7781730Y-9489960D01*
X7991253Y-9499484D02*
X7972206Y-9489960D01*
X7972206Y-9489960D02*
X7962682Y-9470912D01*
X7962682Y-9470912D02*
X7962682Y-9299484D01*
X8153158Y-9499484D02*
X8153158Y-9394722D01*
X8153158Y-9394722D02*
X8143634Y-9375674D01*
X8143634Y-9375674D02*
X8124587Y-9366150D01*
X8124587Y-9366150D02*
X8086492Y-9366150D01*
X8086492Y-9366150D02*
X8067444Y-9375674D01*
X8153158Y-9489960D02*
X8134111Y-9499484D01*
X8134111Y-9499484D02*
X8086492Y-9499484D01*
X8086492Y-9499484D02*
X8067444Y-9489960D01*
X8067444Y-9489960D02*
X8057920Y-9470912D01*
X8057920Y-9470912D02*
X8057920Y-9451865D01*
X8057920Y-9451865D02*
X8067444Y-9432817D01*
X8067444Y-9432817D02*
X8086492Y-9423293D01*
X8086492Y-9423293D02*
X8134111Y-9423293D01*
X8134111Y-9423293D02*
X8153158Y-9413770D01*
X8219825Y-9366150D02*
X8296015Y-9366150D01*
X8248396Y-9299484D02*
X8248396Y-9470912D01*
X8248396Y-9470912D02*
X8257920Y-9489960D01*
X8257920Y-9489960D02*
X8276968Y-9499484D01*
X8276968Y-9499484D02*
X8296015Y-9499484D01*
X8438873Y-9489960D02*
X8419825Y-9499484D01*
X8419825Y-9499484D02*
X8381730Y-9499484D01*
X8381730Y-9499484D02*
X8362682Y-9489960D01*
X8362682Y-9489960D02*
X8353158Y-9470912D01*
X8353158Y-9470912D02*
X8353158Y-9394722D01*
X8353158Y-9394722D02*
X8362682Y-9375674D01*
X8362682Y-9375674D02*
X8381730Y-9366150D01*
X8381730Y-9366150D02*
X8419825Y-9366150D01*
X8419825Y-9366150D02*
X8438873Y-9375674D01*
X8438873Y-9375674D02*
X8448396Y-9394722D01*
X8448396Y-9394722D02*
X8448396Y-9413770D01*
X8448396Y-9413770D02*
X8353158Y-9432817D01*
X8619825Y-9499484D02*
X8619825Y-9299484D01*
X8619825Y-9489960D02*
X8600777Y-9499484D01*
X8600777Y-9499484D02*
X8562682Y-9499484D01*
X8562682Y-9499484D02*
X8543635Y-9489960D01*
X8543635Y-9489960D02*
X8534111Y-9480436D01*
X8534111Y-9480436D02*
X8524587Y-9461389D01*
X8524587Y-9461389D02*
X8524587Y-9404246D01*
X8524587Y-9404246D02*
X8534111Y-9385198D01*
X8534111Y-9385198D02*
X8543635Y-9375674D01*
X8543635Y-9375674D02*
X8562682Y-9366150D01*
X8562682Y-9366150D02*
X8600777Y-9366150D01*
X8600777Y-9366150D02*
X8619825Y-9375674D01*
X8696016Y-9575674D02*
X8705539Y-9566150D01*
X8705539Y-9566150D02*
X8724587Y-9537579D01*
X8724587Y-9537579D02*
X8734111Y-9518531D01*
X8734111Y-9518531D02*
X8743635Y-9489960D01*
X8743635Y-9489960D02*
X8753158Y-9442341D01*
X8753158Y-9442341D02*
X8753158Y-9404246D01*
X8753158Y-9404246D02*
X8743635Y-9356627D01*
X8743635Y-9356627D02*
X8734111Y-9328055D01*
X8734111Y-9328055D02*
X8724587Y-9309008D01*
X8724587Y-9309008D02*
X8705539Y-9280436D01*
X8705539Y-9280436D02*
X8696016Y-9270912D01*
D14*
X1915105Y-9738105D02*
X1915105Y-9617895D01*
X1794895Y-9617895D01*
X1794895Y-9738105D01*
X1915105Y-9738105D01*
D10*
X2305539Y-9769484D02*
X2191253Y-9769484D01*
X2248396Y-9769484D02*
X2248396Y-9569484D01*
X2248396Y-9569484D02*
X2229348Y-9598055D01*
X2229348Y-9598055D02*
X2210301Y-9617103D01*
X2210301Y-9617103D02*
X2191253Y-9626627D01*
X2391253Y-9750436D02*
X2400777Y-9759960D01*
X2400777Y-9759960D02*
X2391253Y-9769484D01*
X2391253Y-9769484D02*
X2381729Y-9759960D01*
X2381729Y-9759960D02*
X2391253Y-9750436D01*
X2391253Y-9750436D02*
X2391253Y-9769484D01*
X2467444Y-9569484D02*
X2600777Y-9569484D01*
X2600777Y-9569484D02*
X2515063Y-9769484D01*
X2715063Y-9569484D02*
X2734110Y-9569484D01*
X2734110Y-9569484D02*
X2753158Y-9579008D01*
X2753158Y-9579008D02*
X2762682Y-9588531D01*
X2762682Y-9588531D02*
X2772205Y-9607579D01*
X2772205Y-9607579D02*
X2781729Y-9645674D01*
X2781729Y-9645674D02*
X2781729Y-9693293D01*
X2781729Y-9693293D02*
X2772205Y-9731389D01*
X2772205Y-9731389D02*
X2762682Y-9750436D01*
X2762682Y-9750436D02*
X2753158Y-9759960D01*
X2753158Y-9759960D02*
X2734110Y-9769484D01*
X2734110Y-9769484D02*
X2715063Y-9769484D01*
X2715063Y-9769484D02*
X2696015Y-9759960D01*
X2696015Y-9759960D02*
X2686491Y-9750436D01*
X2686491Y-9750436D02*
X2676967Y-9731389D01*
X2676967Y-9731389D02*
X2667444Y-9693293D01*
X2667444Y-9693293D02*
X2667444Y-9645674D01*
X2667444Y-9645674D02*
X2676967Y-9607579D01*
X2676967Y-9607579D02*
X2686491Y-9588531D01*
X2686491Y-9588531D02*
X2696015Y-9579008D01*
X2696015Y-9579008D02*
X2715063Y-9569484D01*
X2905539Y-9569484D02*
X2924586Y-9569484D01*
X2924586Y-9569484D02*
X2943634Y-9579008D01*
X2943634Y-9579008D02*
X2953158Y-9588531D01*
X2953158Y-9588531D02*
X2962682Y-9607579D01*
X2962682Y-9607579D02*
X2972205Y-9645674D01*
X2972205Y-9645674D02*
X2972205Y-9693293D01*
X2972205Y-9693293D02*
X2962682Y-9731389D01*
X2962682Y-9731389D02*
X2953158Y-9750436D01*
X2953158Y-9750436D02*
X2943634Y-9759960D01*
X2943634Y-9759960D02*
X2924586Y-9769484D01*
X2924586Y-9769484D02*
X2905539Y-9769484D01*
X2905539Y-9769484D02*
X2886491Y-9759960D01*
X2886491Y-9759960D02*
X2876967Y-9750436D01*
X2876967Y-9750436D02*
X2867443Y-9731389D01*
X2867443Y-9731389D02*
X2857920Y-9693293D01*
X2857920Y-9693293D02*
X2857920Y-9645674D01*
X2857920Y-9645674D02*
X2867443Y-9607579D01*
X2867443Y-9607579D02*
X2876967Y-9588531D01*
X2876967Y-9588531D02*
X2886491Y-9579008D01*
X2886491Y-9579008D02*
X2905539Y-9569484D01*
X3057920Y-9769484D02*
X3057920Y-9636150D01*
X3057920Y-9655198D02*
X3067443Y-9645674D01*
X3067443Y-9645674D02*
X3086491Y-9636150D01*
X3086491Y-9636150D02*
X3115063Y-9636150D01*
X3115063Y-9636150D02*
X3134110Y-9645674D01*
X3134110Y-9645674D02*
X3143634Y-9664722D01*
X3143634Y-9664722D02*
X3143634Y-9769484D01*
X3143634Y-9664722D02*
X3153158Y-9645674D01*
X3153158Y-9645674D02*
X3172205Y-9636150D01*
X3172205Y-9636150D02*
X3200777Y-9636150D01*
X3200777Y-9636150D02*
X3219824Y-9645674D01*
X3219824Y-9645674D02*
X3229348Y-9664722D01*
X3229348Y-9664722D02*
X3229348Y-9769484D01*
X3324586Y-9769484D02*
X3324586Y-9636150D01*
X3324586Y-9655198D02*
X3334110Y-9645674D01*
X3334110Y-9645674D02*
X3353158Y-9636150D01*
X3353158Y-9636150D02*
X3381729Y-9636150D01*
X3381729Y-9636150D02*
X3400777Y-9645674D01*
X3400777Y-9645674D02*
X3410301Y-9664722D01*
X3410301Y-9664722D02*
X3410301Y-9769484D01*
X3410301Y-9664722D02*
X3419824Y-9645674D01*
X3419824Y-9645674D02*
X3438872Y-9636150D01*
X3438872Y-9636150D02*
X3467443Y-9636150D01*
X3467443Y-9636150D02*
X3486491Y-9645674D01*
X3486491Y-9645674D02*
X3496015Y-9664722D01*
X3496015Y-9664722D02*
X3496015Y-9769484D01*
X3886491Y-9559960D02*
X3715063Y-9817103D01*
X4143634Y-9569484D02*
X4162682Y-9569484D01*
X4162682Y-9569484D02*
X4181729Y-9579008D01*
X4181729Y-9579008D02*
X4191253Y-9588531D01*
X4191253Y-9588531D02*
X4200777Y-9607579D01*
X4200777Y-9607579D02*
X4210301Y-9645674D01*
X4210301Y-9645674D02*
X4210301Y-9693293D01*
X4210301Y-9693293D02*
X4200777Y-9731389D01*
X4200777Y-9731389D02*
X4191253Y-9750436D01*
X4191253Y-9750436D02*
X4181729Y-9759960D01*
X4181729Y-9759960D02*
X4162682Y-9769484D01*
X4162682Y-9769484D02*
X4143634Y-9769484D01*
X4143634Y-9769484D02*
X4124586Y-9759960D01*
X4124586Y-9759960D02*
X4115063Y-9750436D01*
X4115063Y-9750436D02*
X4105539Y-9731389D01*
X4105539Y-9731389D02*
X4096015Y-9693293D01*
X4096015Y-9693293D02*
X4096015Y-9645674D01*
X4096015Y-9645674D02*
X4105539Y-9607579D01*
X4105539Y-9607579D02*
X4115063Y-9588531D01*
X4115063Y-9588531D02*
X4124586Y-9579008D01*
X4124586Y-9579008D02*
X4143634Y-9569484D01*
X4296015Y-9750436D02*
X4305539Y-9759960D01*
X4305539Y-9759960D02*
X4296015Y-9769484D01*
X4296015Y-9769484D02*
X4286491Y-9759960D01*
X4286491Y-9759960D02*
X4296015Y-9750436D01*
X4296015Y-9750436D02*
X4296015Y-9769484D01*
X4429348Y-9569484D02*
X4448396Y-9569484D01*
X4448396Y-9569484D02*
X4467444Y-9579008D01*
X4467444Y-9579008D02*
X4476968Y-9588531D01*
X4476968Y-9588531D02*
X4486491Y-9607579D01*
X4486491Y-9607579D02*
X4496015Y-9645674D01*
X4496015Y-9645674D02*
X4496015Y-9693293D01*
X4496015Y-9693293D02*
X4486491Y-9731389D01*
X4486491Y-9731389D02*
X4476968Y-9750436D01*
X4476968Y-9750436D02*
X4467444Y-9759960D01*
X4467444Y-9759960D02*
X4448396Y-9769484D01*
X4448396Y-9769484D02*
X4429348Y-9769484D01*
X4429348Y-9769484D02*
X4410301Y-9759960D01*
X4410301Y-9759960D02*
X4400777Y-9750436D01*
X4400777Y-9750436D02*
X4391253Y-9731389D01*
X4391253Y-9731389D02*
X4381729Y-9693293D01*
X4381729Y-9693293D02*
X4381729Y-9645674D01*
X4381729Y-9645674D02*
X4391253Y-9607579D01*
X4391253Y-9607579D02*
X4400777Y-9588531D01*
X4400777Y-9588531D02*
X4410301Y-9579008D01*
X4410301Y-9579008D02*
X4429348Y-9569484D01*
X4667444Y-9569484D02*
X4629348Y-9569484D01*
X4629348Y-9569484D02*
X4610301Y-9579008D01*
X4610301Y-9579008D02*
X4600777Y-9588531D01*
X4600777Y-9588531D02*
X4581729Y-9617103D01*
X4581729Y-9617103D02*
X4572206Y-9655198D01*
X4572206Y-9655198D02*
X4572206Y-9731389D01*
X4572206Y-9731389D02*
X4581729Y-9750436D01*
X4581729Y-9750436D02*
X4591253Y-9759960D01*
X4591253Y-9759960D02*
X4610301Y-9769484D01*
X4610301Y-9769484D02*
X4648396Y-9769484D01*
X4648396Y-9769484D02*
X4667444Y-9759960D01*
X4667444Y-9759960D02*
X4676968Y-9750436D01*
X4676968Y-9750436D02*
X4686491Y-9731389D01*
X4686491Y-9731389D02*
X4686491Y-9683770D01*
X4686491Y-9683770D02*
X4676968Y-9664722D01*
X4676968Y-9664722D02*
X4667444Y-9655198D01*
X4667444Y-9655198D02*
X4648396Y-9645674D01*
X4648396Y-9645674D02*
X4610301Y-9645674D01*
X4610301Y-9645674D02*
X4591253Y-9655198D01*
X4591253Y-9655198D02*
X4581729Y-9664722D01*
X4581729Y-9664722D02*
X4572206Y-9683770D01*
X4857920Y-9569484D02*
X4819825Y-9569484D01*
X4819825Y-9569484D02*
X4800777Y-9579008D01*
X4800777Y-9579008D02*
X4791253Y-9588531D01*
X4791253Y-9588531D02*
X4772206Y-9617103D01*
X4772206Y-9617103D02*
X4762682Y-9655198D01*
X4762682Y-9655198D02*
X4762682Y-9731389D01*
X4762682Y-9731389D02*
X4772206Y-9750436D01*
X4772206Y-9750436D02*
X4781729Y-9759960D01*
X4781729Y-9759960D02*
X4800777Y-9769484D01*
X4800777Y-9769484D02*
X4838872Y-9769484D01*
X4838872Y-9769484D02*
X4857920Y-9759960D01*
X4857920Y-9759960D02*
X4867444Y-9750436D01*
X4867444Y-9750436D02*
X4876968Y-9731389D01*
X4876968Y-9731389D02*
X4876968Y-9683770D01*
X4876968Y-9683770D02*
X4867444Y-9664722D01*
X4867444Y-9664722D02*
X4857920Y-9655198D01*
X4857920Y-9655198D02*
X4838872Y-9645674D01*
X4838872Y-9645674D02*
X4800777Y-9645674D01*
X4800777Y-9645674D02*
X4781729Y-9655198D01*
X4781729Y-9655198D02*
X4772206Y-9664722D01*
X4772206Y-9664722D02*
X4762682Y-9683770D01*
X4972206Y-9769484D02*
X5010301Y-9769484D01*
X5010301Y-9769484D02*
X5029349Y-9759960D01*
X5029349Y-9759960D02*
X5038872Y-9750436D01*
X5038872Y-9750436D02*
X5057920Y-9721865D01*
X5057920Y-9721865D02*
X5067444Y-9683770D01*
X5067444Y-9683770D02*
X5067444Y-9607579D01*
X5067444Y-9607579D02*
X5057920Y-9588531D01*
X5057920Y-9588531D02*
X5048396Y-9579008D01*
X5048396Y-9579008D02*
X5029349Y-9569484D01*
X5029349Y-9569484D02*
X4991253Y-9569484D01*
X4991253Y-9569484D02*
X4972206Y-9579008D01*
X4972206Y-9579008D02*
X4962682Y-9588531D01*
X4962682Y-9588531D02*
X4953158Y-9607579D01*
X4953158Y-9607579D02*
X4953158Y-9655198D01*
X4953158Y-9655198D02*
X4962682Y-9674246D01*
X4962682Y-9674246D02*
X4972206Y-9683770D01*
X4972206Y-9683770D02*
X4991253Y-9693293D01*
X4991253Y-9693293D02*
X5029349Y-9693293D01*
X5029349Y-9693293D02*
X5048396Y-9683770D01*
X5048396Y-9683770D02*
X5057920Y-9674246D01*
X5057920Y-9674246D02*
X5067444Y-9655198D01*
X5143634Y-9569484D02*
X5143634Y-9607579D01*
X5219825Y-9569484D02*
X5219825Y-9607579D01*
X5515063Y-9845674D02*
X5505539Y-9836150D01*
X5505539Y-9836150D02*
X5486491Y-9807579D01*
X5486491Y-9807579D02*
X5476968Y-9788531D01*
X5476968Y-9788531D02*
X5467444Y-9759960D01*
X5467444Y-9759960D02*
X5457920Y-9712341D01*
X5457920Y-9712341D02*
X5457920Y-9674246D01*
X5457920Y-9674246D02*
X5467444Y-9626627D01*
X5467444Y-9626627D02*
X5476968Y-9598055D01*
X5476968Y-9598055D02*
X5486491Y-9579008D01*
X5486491Y-9579008D02*
X5505539Y-9550436D01*
X5505539Y-9550436D02*
X5515063Y-9540912D01*
X5696015Y-9769484D02*
X5581730Y-9769484D01*
X5638872Y-9769484D02*
X5638872Y-9569484D01*
X5638872Y-9569484D02*
X5619825Y-9598055D01*
X5619825Y-9598055D02*
X5600777Y-9617103D01*
X5600777Y-9617103D02*
X5581730Y-9626627D01*
X5934110Y-9769484D02*
X5934110Y-9569484D01*
X6019825Y-9769484D02*
X6019825Y-9664722D01*
X6019825Y-9664722D02*
X6010301Y-9645674D01*
X6010301Y-9645674D02*
X5991253Y-9636150D01*
X5991253Y-9636150D02*
X5962682Y-9636150D01*
X5962682Y-9636150D02*
X5943634Y-9645674D01*
X5943634Y-9645674D02*
X5934110Y-9655198D01*
X6143634Y-9769484D02*
X6124587Y-9759960D01*
X6124587Y-9759960D02*
X6115063Y-9750436D01*
X6115063Y-9750436D02*
X6105539Y-9731389D01*
X6105539Y-9731389D02*
X6105539Y-9674246D01*
X6105539Y-9674246D02*
X6115063Y-9655198D01*
X6115063Y-9655198D02*
X6124587Y-9645674D01*
X6124587Y-9645674D02*
X6143634Y-9636150D01*
X6143634Y-9636150D02*
X6172206Y-9636150D01*
X6172206Y-9636150D02*
X6191253Y-9645674D01*
X6191253Y-9645674D02*
X6200777Y-9655198D01*
X6200777Y-9655198D02*
X6210301Y-9674246D01*
X6210301Y-9674246D02*
X6210301Y-9731389D01*
X6210301Y-9731389D02*
X6200777Y-9750436D01*
X6200777Y-9750436D02*
X6191253Y-9759960D01*
X6191253Y-9759960D02*
X6172206Y-9769484D01*
X6172206Y-9769484D02*
X6143634Y-9769484D01*
X6324587Y-9769484D02*
X6305539Y-9759960D01*
X6305539Y-9759960D02*
X6296015Y-9740912D01*
X6296015Y-9740912D02*
X6296015Y-9569484D01*
X6476968Y-9759960D02*
X6457920Y-9769484D01*
X6457920Y-9769484D02*
X6419825Y-9769484D01*
X6419825Y-9769484D02*
X6400777Y-9759960D01*
X6400777Y-9759960D02*
X6391253Y-9740912D01*
X6391253Y-9740912D02*
X6391253Y-9664722D01*
X6391253Y-9664722D02*
X6400777Y-9645674D01*
X6400777Y-9645674D02*
X6419825Y-9636150D01*
X6419825Y-9636150D02*
X6457920Y-9636150D01*
X6457920Y-9636150D02*
X6476968Y-9645674D01*
X6476968Y-9645674D02*
X6486491Y-9664722D01*
X6486491Y-9664722D02*
X6486491Y-9683770D01*
X6486491Y-9683770D02*
X6391253Y-9702817D01*
X6553158Y-9845674D02*
X6562682Y-9836150D01*
X6562682Y-9836150D02*
X6581730Y-9807579D01*
X6581730Y-9807579D02*
X6591253Y-9788531D01*
X6591253Y-9788531D02*
X6600777Y-9759960D01*
X6600777Y-9759960D02*
X6610301Y-9712341D01*
X6610301Y-9712341D02*
X6610301Y-9674246D01*
X6610301Y-9674246D02*
X6600777Y-9626627D01*
X6600777Y-9626627D02*
X6591253Y-9598055D01*
X6591253Y-9598055D02*
X6581730Y-9579008D01*
X6581730Y-9579008D02*
X6562682Y-9550436D01*
X6562682Y-9550436D02*
X6553158Y-9540912D01*
X6915063Y-9845674D02*
X6905539Y-9836150D01*
X6905539Y-9836150D02*
X6886491Y-9807579D01*
X6886491Y-9807579D02*
X6876968Y-9788531D01*
X6876968Y-9788531D02*
X6867444Y-9759960D01*
X6867444Y-9759960D02*
X6857920Y-9712341D01*
X6857920Y-9712341D02*
X6857920Y-9674246D01*
X6857920Y-9674246D02*
X6867444Y-9626627D01*
X6867444Y-9626627D02*
X6876968Y-9598055D01*
X6876968Y-9598055D02*
X6886491Y-9579008D01*
X6886491Y-9579008D02*
X6905539Y-9550436D01*
X6905539Y-9550436D02*
X6915063Y-9540912D01*
X6991253Y-9636150D02*
X6991253Y-9769484D01*
X6991253Y-9655198D02*
X7000777Y-9645674D01*
X7000777Y-9645674D02*
X7019825Y-9636150D01*
X7019825Y-9636150D02*
X7048396Y-9636150D01*
X7048396Y-9636150D02*
X7067444Y-9645674D01*
X7067444Y-9645674D02*
X7076968Y-9664722D01*
X7076968Y-9664722D02*
X7076968Y-9769484D01*
X7200777Y-9769484D02*
X7181730Y-9759960D01*
X7181730Y-9759960D02*
X7172206Y-9750436D01*
X7172206Y-9750436D02*
X7162682Y-9731389D01*
X7162682Y-9731389D02*
X7162682Y-9674246D01*
X7162682Y-9674246D02*
X7172206Y-9655198D01*
X7172206Y-9655198D02*
X7181730Y-9645674D01*
X7181730Y-9645674D02*
X7200777Y-9636150D01*
X7200777Y-9636150D02*
X7229349Y-9636150D01*
X7229349Y-9636150D02*
X7248396Y-9645674D01*
X7248396Y-9645674D02*
X7257920Y-9655198D01*
X7257920Y-9655198D02*
X7267444Y-9674246D01*
X7267444Y-9674246D02*
X7267444Y-9731389D01*
X7267444Y-9731389D02*
X7257920Y-9750436D01*
X7257920Y-9750436D02*
X7248396Y-9759960D01*
X7248396Y-9759960D02*
X7229349Y-9769484D01*
X7229349Y-9769484D02*
X7200777Y-9769484D01*
X7324587Y-9636150D02*
X7400777Y-9636150D01*
X7353158Y-9569484D02*
X7353158Y-9740912D01*
X7353158Y-9740912D02*
X7362682Y-9759960D01*
X7362682Y-9759960D02*
X7381730Y-9769484D01*
X7381730Y-9769484D02*
X7400777Y-9769484D01*
X7619825Y-9636150D02*
X7619825Y-9836150D01*
X7619825Y-9645674D02*
X7638872Y-9636150D01*
X7638872Y-9636150D02*
X7676968Y-9636150D01*
X7676968Y-9636150D02*
X7696015Y-9645674D01*
X7696015Y-9645674D02*
X7705539Y-9655198D01*
X7705539Y-9655198D02*
X7715063Y-9674246D01*
X7715063Y-9674246D02*
X7715063Y-9731389D01*
X7715063Y-9731389D02*
X7705539Y-9750436D01*
X7705539Y-9750436D02*
X7696015Y-9759960D01*
X7696015Y-9759960D02*
X7676968Y-9769484D01*
X7676968Y-9769484D02*
X7638872Y-9769484D01*
X7638872Y-9769484D02*
X7619825Y-9759960D01*
X7829349Y-9769484D02*
X7810301Y-9759960D01*
X7810301Y-9759960D02*
X7800777Y-9740912D01*
X7800777Y-9740912D02*
X7800777Y-9569484D01*
X7991253Y-9769484D02*
X7991253Y-9664722D01*
X7991253Y-9664722D02*
X7981730Y-9645674D01*
X7981730Y-9645674D02*
X7962682Y-9636150D01*
X7962682Y-9636150D02*
X7924587Y-9636150D01*
X7924587Y-9636150D02*
X7905539Y-9645674D01*
X7991253Y-9759960D02*
X7972206Y-9769484D01*
X7972206Y-9769484D02*
X7924587Y-9769484D01*
X7924587Y-9769484D02*
X7905539Y-9759960D01*
X7905539Y-9759960D02*
X7896015Y-9740912D01*
X7896015Y-9740912D02*
X7896015Y-9721865D01*
X7896015Y-9721865D02*
X7905539Y-9702817D01*
X7905539Y-9702817D02*
X7924587Y-9693293D01*
X7924587Y-9693293D02*
X7972206Y-9693293D01*
X7972206Y-9693293D02*
X7991253Y-9683770D01*
X8057920Y-9636150D02*
X8134111Y-9636150D01*
X8086492Y-9569484D02*
X8086492Y-9740912D01*
X8086492Y-9740912D02*
X8096015Y-9759960D01*
X8096015Y-9759960D02*
X8115063Y-9769484D01*
X8115063Y-9769484D02*
X8134111Y-9769484D01*
X8276968Y-9759960D02*
X8257920Y-9769484D01*
X8257920Y-9769484D02*
X8219825Y-9769484D01*
X8219825Y-9769484D02*
X8200777Y-9759960D01*
X8200777Y-9759960D02*
X8191253Y-9740912D01*
X8191253Y-9740912D02*
X8191253Y-9664722D01*
X8191253Y-9664722D02*
X8200777Y-9645674D01*
X8200777Y-9645674D02*
X8219825Y-9636150D01*
X8219825Y-9636150D02*
X8257920Y-9636150D01*
X8257920Y-9636150D02*
X8276968Y-9645674D01*
X8276968Y-9645674D02*
X8286492Y-9664722D01*
X8286492Y-9664722D02*
X8286492Y-9683770D01*
X8286492Y-9683770D02*
X8191253Y-9702817D01*
X8457920Y-9769484D02*
X8457920Y-9569484D01*
X8457920Y-9759960D02*
X8438873Y-9769484D01*
X8438873Y-9769484D02*
X8400777Y-9769484D01*
X8400777Y-9769484D02*
X8381730Y-9759960D01*
X8381730Y-9759960D02*
X8372206Y-9750436D01*
X8372206Y-9750436D02*
X8362682Y-9731389D01*
X8362682Y-9731389D02*
X8362682Y-9674246D01*
X8362682Y-9674246D02*
X8372206Y-9655198D01*
X8372206Y-9655198D02*
X8381730Y-9645674D01*
X8381730Y-9645674D02*
X8400777Y-9636150D01*
X8400777Y-9636150D02*
X8438873Y-9636150D01*
X8438873Y-9636150D02*
X8457920Y-9645674D01*
X8534111Y-9845674D02*
X8543635Y-9836150D01*
X8543635Y-9836150D02*
X8562682Y-9807579D01*
X8562682Y-9807579D02*
X8572206Y-9788531D01*
X8572206Y-9788531D02*
X8581730Y-9759960D01*
X8581730Y-9759960D02*
X8591254Y-9712341D01*
X8591254Y-9712341D02*
X8591254Y-9674246D01*
X8591254Y-9674246D02*
X8581730Y-9626627D01*
X8581730Y-9626627D02*
X8572206Y-9598055D01*
X8572206Y-9598055D02*
X8562682Y-9579008D01*
X8562682Y-9579008D02*
X8543635Y-9550436D01*
X8543635Y-9550436D02*
X8534111Y-9540912D01*
X1840000Y-10068000D02*
X1940000Y-9968000D01*
X1840000Y-9868000D01*
X1740000Y-9968000D01*
X1840000Y-10068000D01*
X2191253Y-9878531D02*
X2200777Y-9869008D01*
X2200777Y-9869008D02*
X2219824Y-9859484D01*
X2219824Y-9859484D02*
X2267444Y-9859484D01*
X2267444Y-9859484D02*
X2286491Y-9869008D01*
X2286491Y-9869008D02*
X2296015Y-9878531D01*
X2296015Y-9878531D02*
X2305539Y-9897579D01*
X2305539Y-9897579D02*
X2305539Y-9916627D01*
X2305539Y-9916627D02*
X2296015Y-9945198D01*
X2296015Y-9945198D02*
X2181729Y-10059484D01*
X2181729Y-10059484D02*
X2305539Y-10059484D01*
X2391253Y-10040436D02*
X2400777Y-10049960D01*
X2400777Y-10049960D02*
X2391253Y-10059484D01*
X2391253Y-10059484D02*
X2381729Y-10049960D01*
X2381729Y-10049960D02*
X2391253Y-10040436D01*
X2391253Y-10040436D02*
X2391253Y-10059484D01*
X2467444Y-9859484D02*
X2600777Y-9859484D01*
X2600777Y-9859484D02*
X2515063Y-10059484D01*
X2715063Y-9859484D02*
X2734110Y-9859484D01*
X2734110Y-9859484D02*
X2753158Y-9869008D01*
X2753158Y-9869008D02*
X2762682Y-9878531D01*
X2762682Y-9878531D02*
X2772205Y-9897579D01*
X2772205Y-9897579D02*
X2781729Y-9935674D01*
X2781729Y-9935674D02*
X2781729Y-9983293D01*
X2781729Y-9983293D02*
X2772205Y-10021389D01*
X2772205Y-10021389D02*
X2762682Y-10040436D01*
X2762682Y-10040436D02*
X2753158Y-10049960D01*
X2753158Y-10049960D02*
X2734110Y-10059484D01*
X2734110Y-10059484D02*
X2715063Y-10059484D01*
X2715063Y-10059484D02*
X2696015Y-10049960D01*
X2696015Y-10049960D02*
X2686491Y-10040436D01*
X2686491Y-10040436D02*
X2676967Y-10021389D01*
X2676967Y-10021389D02*
X2667444Y-9983293D01*
X2667444Y-9983293D02*
X2667444Y-9935674D01*
X2667444Y-9935674D02*
X2676967Y-9897579D01*
X2676967Y-9897579D02*
X2686491Y-9878531D01*
X2686491Y-9878531D02*
X2696015Y-9869008D01*
X2696015Y-9869008D02*
X2715063Y-9859484D01*
X2905539Y-9859484D02*
X2924586Y-9859484D01*
X2924586Y-9859484D02*
X2943634Y-9869008D01*
X2943634Y-9869008D02*
X2953158Y-9878531D01*
X2953158Y-9878531D02*
X2962682Y-9897579D01*
X2962682Y-9897579D02*
X2972205Y-9935674D01*
X2972205Y-9935674D02*
X2972205Y-9983293D01*
X2972205Y-9983293D02*
X2962682Y-10021389D01*
X2962682Y-10021389D02*
X2953158Y-10040436D01*
X2953158Y-10040436D02*
X2943634Y-10049960D01*
X2943634Y-10049960D02*
X2924586Y-10059484D01*
X2924586Y-10059484D02*
X2905539Y-10059484D01*
X2905539Y-10059484D02*
X2886491Y-10049960D01*
X2886491Y-10049960D02*
X2876967Y-10040436D01*
X2876967Y-10040436D02*
X2867443Y-10021389D01*
X2867443Y-10021389D02*
X2857920Y-9983293D01*
X2857920Y-9983293D02*
X2857920Y-9935674D01*
X2857920Y-9935674D02*
X2867443Y-9897579D01*
X2867443Y-9897579D02*
X2876967Y-9878531D01*
X2876967Y-9878531D02*
X2886491Y-9869008D01*
X2886491Y-9869008D02*
X2905539Y-9859484D01*
X3057920Y-10059484D02*
X3057920Y-9926150D01*
X3057920Y-9945198D02*
X3067443Y-9935674D01*
X3067443Y-9935674D02*
X3086491Y-9926150D01*
X3086491Y-9926150D02*
X3115063Y-9926150D01*
X3115063Y-9926150D02*
X3134110Y-9935674D01*
X3134110Y-9935674D02*
X3143634Y-9954722D01*
X3143634Y-9954722D02*
X3143634Y-10059484D01*
X3143634Y-9954722D02*
X3153158Y-9935674D01*
X3153158Y-9935674D02*
X3172205Y-9926150D01*
X3172205Y-9926150D02*
X3200777Y-9926150D01*
X3200777Y-9926150D02*
X3219824Y-9935674D01*
X3219824Y-9935674D02*
X3229348Y-9954722D01*
X3229348Y-9954722D02*
X3229348Y-10059484D01*
X3324586Y-10059484D02*
X3324586Y-9926150D01*
X3324586Y-9945198D02*
X3334110Y-9935674D01*
X3334110Y-9935674D02*
X3353158Y-9926150D01*
X3353158Y-9926150D02*
X3381729Y-9926150D01*
X3381729Y-9926150D02*
X3400777Y-9935674D01*
X3400777Y-9935674D02*
X3410301Y-9954722D01*
X3410301Y-9954722D02*
X3410301Y-10059484D01*
X3410301Y-9954722D02*
X3419824Y-9935674D01*
X3419824Y-9935674D02*
X3438872Y-9926150D01*
X3438872Y-9926150D02*
X3467443Y-9926150D01*
X3467443Y-9926150D02*
X3486491Y-9935674D01*
X3486491Y-9935674D02*
X3496015Y-9954722D01*
X3496015Y-9954722D02*
X3496015Y-10059484D01*
X3886491Y-9849960D02*
X3715063Y-10107103D01*
X4143634Y-9859484D02*
X4162682Y-9859484D01*
X4162682Y-9859484D02*
X4181729Y-9869008D01*
X4181729Y-9869008D02*
X4191253Y-9878531D01*
X4191253Y-9878531D02*
X4200777Y-9897579D01*
X4200777Y-9897579D02*
X4210301Y-9935674D01*
X4210301Y-9935674D02*
X4210301Y-9983293D01*
X4210301Y-9983293D02*
X4200777Y-10021389D01*
X4200777Y-10021389D02*
X4191253Y-10040436D01*
X4191253Y-10040436D02*
X4181729Y-10049960D01*
X4181729Y-10049960D02*
X4162682Y-10059484D01*
X4162682Y-10059484D02*
X4143634Y-10059484D01*
X4143634Y-10059484D02*
X4124586Y-10049960D01*
X4124586Y-10049960D02*
X4115063Y-10040436D01*
X4115063Y-10040436D02*
X4105539Y-10021389D01*
X4105539Y-10021389D02*
X4096015Y-9983293D01*
X4096015Y-9983293D02*
X4096015Y-9935674D01*
X4096015Y-9935674D02*
X4105539Y-9897579D01*
X4105539Y-9897579D02*
X4115063Y-9878531D01*
X4115063Y-9878531D02*
X4124586Y-9869008D01*
X4124586Y-9869008D02*
X4143634Y-9859484D01*
X4296015Y-10040436D02*
X4305539Y-10049960D01*
X4305539Y-10049960D02*
X4296015Y-10059484D01*
X4296015Y-10059484D02*
X4286491Y-10049960D01*
X4286491Y-10049960D02*
X4296015Y-10040436D01*
X4296015Y-10040436D02*
X4296015Y-10059484D01*
X4496015Y-10059484D02*
X4381729Y-10059484D01*
X4438872Y-10059484D02*
X4438872Y-9859484D01*
X4438872Y-9859484D02*
X4419825Y-9888055D01*
X4419825Y-9888055D02*
X4400777Y-9907103D01*
X4400777Y-9907103D02*
X4381729Y-9916627D01*
X4619825Y-9859484D02*
X4638872Y-9859484D01*
X4638872Y-9859484D02*
X4657920Y-9869008D01*
X4657920Y-9869008D02*
X4667444Y-9878531D01*
X4667444Y-9878531D02*
X4676968Y-9897579D01*
X4676968Y-9897579D02*
X4686491Y-9935674D01*
X4686491Y-9935674D02*
X4686491Y-9983293D01*
X4686491Y-9983293D02*
X4676968Y-10021389D01*
X4676968Y-10021389D02*
X4667444Y-10040436D01*
X4667444Y-10040436D02*
X4657920Y-10049960D01*
X4657920Y-10049960D02*
X4638872Y-10059484D01*
X4638872Y-10059484D02*
X4619825Y-10059484D01*
X4619825Y-10059484D02*
X4600777Y-10049960D01*
X4600777Y-10049960D02*
X4591253Y-10040436D01*
X4591253Y-10040436D02*
X4581729Y-10021389D01*
X4581729Y-10021389D02*
X4572206Y-9983293D01*
X4572206Y-9983293D02*
X4572206Y-9935674D01*
X4572206Y-9935674D02*
X4581729Y-9897579D01*
X4581729Y-9897579D02*
X4591253Y-9878531D01*
X4591253Y-9878531D02*
X4600777Y-9869008D01*
X4600777Y-9869008D02*
X4619825Y-9859484D01*
X4857920Y-9859484D02*
X4819825Y-9859484D01*
X4819825Y-9859484D02*
X4800777Y-9869008D01*
X4800777Y-9869008D02*
X4791253Y-9878531D01*
X4791253Y-9878531D02*
X4772206Y-9907103D01*
X4772206Y-9907103D02*
X4762682Y-9945198D01*
X4762682Y-9945198D02*
X4762682Y-10021389D01*
X4762682Y-10021389D02*
X4772206Y-10040436D01*
X4772206Y-10040436D02*
X4781729Y-10049960D01*
X4781729Y-10049960D02*
X4800777Y-10059484D01*
X4800777Y-10059484D02*
X4838872Y-10059484D01*
X4838872Y-10059484D02*
X4857920Y-10049960D01*
X4857920Y-10049960D02*
X4867444Y-10040436D01*
X4867444Y-10040436D02*
X4876968Y-10021389D01*
X4876968Y-10021389D02*
X4876968Y-9973770D01*
X4876968Y-9973770D02*
X4867444Y-9954722D01*
X4867444Y-9954722D02*
X4857920Y-9945198D01*
X4857920Y-9945198D02*
X4838872Y-9935674D01*
X4838872Y-9935674D02*
X4800777Y-9935674D01*
X4800777Y-9935674D02*
X4781729Y-9945198D01*
X4781729Y-9945198D02*
X4772206Y-9954722D01*
X4772206Y-9954722D02*
X4762682Y-9973770D01*
X4943634Y-9859484D02*
X5067444Y-9859484D01*
X5067444Y-9859484D02*
X5000777Y-9935674D01*
X5000777Y-9935674D02*
X5029349Y-9935674D01*
X5029349Y-9935674D02*
X5048396Y-9945198D01*
X5048396Y-9945198D02*
X5057920Y-9954722D01*
X5057920Y-9954722D02*
X5067444Y-9973770D01*
X5067444Y-9973770D02*
X5067444Y-10021389D01*
X5067444Y-10021389D02*
X5057920Y-10040436D01*
X5057920Y-10040436D02*
X5048396Y-10049960D01*
X5048396Y-10049960D02*
X5029349Y-10059484D01*
X5029349Y-10059484D02*
X4972206Y-10059484D01*
X4972206Y-10059484D02*
X4953158Y-10049960D01*
X4953158Y-10049960D02*
X4943634Y-10040436D01*
X5143634Y-9859484D02*
X5143634Y-9897579D01*
X5219825Y-9859484D02*
X5219825Y-9897579D01*
X5515063Y-10135674D02*
X5505539Y-10126150D01*
X5505539Y-10126150D02*
X5486491Y-10097579D01*
X5486491Y-10097579D02*
X5476968Y-10078531D01*
X5476968Y-10078531D02*
X5467444Y-10049960D01*
X5467444Y-10049960D02*
X5457920Y-10002341D01*
X5457920Y-10002341D02*
X5457920Y-9964246D01*
X5457920Y-9964246D02*
X5467444Y-9916627D01*
X5467444Y-9916627D02*
X5476968Y-9888055D01*
X5476968Y-9888055D02*
X5486491Y-9869008D01*
X5486491Y-9869008D02*
X5505539Y-9840436D01*
X5505539Y-9840436D02*
X5515063Y-9830912D01*
X5581730Y-9878531D02*
X5591253Y-9869008D01*
X5591253Y-9869008D02*
X5610301Y-9859484D01*
X5610301Y-9859484D02*
X5657920Y-9859484D01*
X5657920Y-9859484D02*
X5676968Y-9869008D01*
X5676968Y-9869008D02*
X5686491Y-9878531D01*
X5686491Y-9878531D02*
X5696015Y-9897579D01*
X5696015Y-9897579D02*
X5696015Y-9916627D01*
X5696015Y-9916627D02*
X5686491Y-9945198D01*
X5686491Y-9945198D02*
X5572206Y-10059484D01*
X5572206Y-10059484D02*
X5696015Y-10059484D01*
X5934110Y-10059484D02*
X5934110Y-9859484D01*
X6019825Y-10059484D02*
X6019825Y-9954722D01*
X6019825Y-9954722D02*
X6010301Y-9935674D01*
X6010301Y-9935674D02*
X5991253Y-9926150D01*
X5991253Y-9926150D02*
X5962682Y-9926150D01*
X5962682Y-9926150D02*
X5943634Y-9935674D01*
X5943634Y-9935674D02*
X5934110Y-9945198D01*
X6143634Y-10059484D02*
X6124587Y-10049960D01*
X6124587Y-10049960D02*
X6115063Y-10040436D01*
X6115063Y-10040436D02*
X6105539Y-10021389D01*
X6105539Y-10021389D02*
X6105539Y-9964246D01*
X6105539Y-9964246D02*
X6115063Y-9945198D01*
X6115063Y-9945198D02*
X6124587Y-9935674D01*
X6124587Y-9935674D02*
X6143634Y-9926150D01*
X6143634Y-9926150D02*
X6172206Y-9926150D01*
X6172206Y-9926150D02*
X6191253Y-9935674D01*
X6191253Y-9935674D02*
X6200777Y-9945198D01*
X6200777Y-9945198D02*
X6210301Y-9964246D01*
X6210301Y-9964246D02*
X6210301Y-10021389D01*
X6210301Y-10021389D02*
X6200777Y-10040436D01*
X6200777Y-10040436D02*
X6191253Y-10049960D01*
X6191253Y-10049960D02*
X6172206Y-10059484D01*
X6172206Y-10059484D02*
X6143634Y-10059484D01*
X6324587Y-10059484D02*
X6305539Y-10049960D01*
X6305539Y-10049960D02*
X6296015Y-10030912D01*
X6296015Y-10030912D02*
X6296015Y-9859484D01*
X6476968Y-10049960D02*
X6457920Y-10059484D01*
X6457920Y-10059484D02*
X6419825Y-10059484D01*
X6419825Y-10059484D02*
X6400777Y-10049960D01*
X6400777Y-10049960D02*
X6391253Y-10030912D01*
X6391253Y-10030912D02*
X6391253Y-9954722D01*
X6391253Y-9954722D02*
X6400777Y-9935674D01*
X6400777Y-9935674D02*
X6419825Y-9926150D01*
X6419825Y-9926150D02*
X6457920Y-9926150D01*
X6457920Y-9926150D02*
X6476968Y-9935674D01*
X6476968Y-9935674D02*
X6486491Y-9954722D01*
X6486491Y-9954722D02*
X6486491Y-9973770D01*
X6486491Y-9973770D02*
X6391253Y-9992817D01*
X6562682Y-10049960D02*
X6581730Y-10059484D01*
X6581730Y-10059484D02*
X6619825Y-10059484D01*
X6619825Y-10059484D02*
X6638872Y-10049960D01*
X6638872Y-10049960D02*
X6648396Y-10030912D01*
X6648396Y-10030912D02*
X6648396Y-10021389D01*
X6648396Y-10021389D02*
X6638872Y-10002341D01*
X6638872Y-10002341D02*
X6619825Y-9992817D01*
X6619825Y-9992817D02*
X6591253Y-9992817D01*
X6591253Y-9992817D02*
X6572206Y-9983293D01*
X6572206Y-9983293D02*
X6562682Y-9964246D01*
X6562682Y-9964246D02*
X6562682Y-9954722D01*
X6562682Y-9954722D02*
X6572206Y-9935674D01*
X6572206Y-9935674D02*
X6591253Y-9926150D01*
X6591253Y-9926150D02*
X6619825Y-9926150D01*
X6619825Y-9926150D02*
X6638872Y-9935674D01*
X6715063Y-10135674D02*
X6724587Y-10126150D01*
X6724587Y-10126150D02*
X6743634Y-10097579D01*
X6743634Y-10097579D02*
X6753158Y-10078531D01*
X6753158Y-10078531D02*
X6762682Y-10049960D01*
X6762682Y-10049960D02*
X6772206Y-10002341D01*
X6772206Y-10002341D02*
X6772206Y-9964246D01*
X6772206Y-9964246D02*
X6762682Y-9916627D01*
X6762682Y-9916627D02*
X6753158Y-9888055D01*
X6753158Y-9888055D02*
X6743634Y-9869008D01*
X6743634Y-9869008D02*
X6724587Y-9840436D01*
X6724587Y-9840436D02*
X6715063Y-9830912D01*
X7076968Y-10135674D02*
X7067444Y-10126150D01*
X7067444Y-10126150D02*
X7048396Y-10097579D01*
X7048396Y-10097579D02*
X7038872Y-10078531D01*
X7038872Y-10078531D02*
X7029349Y-10049960D01*
X7029349Y-10049960D02*
X7019825Y-10002341D01*
X7019825Y-10002341D02*
X7019825Y-9964246D01*
X7019825Y-9964246D02*
X7029349Y-9916627D01*
X7029349Y-9916627D02*
X7038872Y-9888055D01*
X7038872Y-9888055D02*
X7048396Y-9869008D01*
X7048396Y-9869008D02*
X7067444Y-9840436D01*
X7067444Y-9840436D02*
X7076968Y-9830912D01*
X7153158Y-9926150D02*
X7153158Y-10059484D01*
X7153158Y-9945198D02*
X7162682Y-9935674D01*
X7162682Y-9935674D02*
X7181730Y-9926150D01*
X7181730Y-9926150D02*
X7210301Y-9926150D01*
X7210301Y-9926150D02*
X7229349Y-9935674D01*
X7229349Y-9935674D02*
X7238872Y-9954722D01*
X7238872Y-9954722D02*
X7238872Y-10059484D01*
X7362682Y-10059484D02*
X7343634Y-10049960D01*
X7343634Y-10049960D02*
X7334111Y-10040436D01*
X7334111Y-10040436D02*
X7324587Y-10021389D01*
X7324587Y-10021389D02*
X7324587Y-9964246D01*
X7324587Y-9964246D02*
X7334111Y-9945198D01*
X7334111Y-9945198D02*
X7343634Y-9935674D01*
X7343634Y-9935674D02*
X7362682Y-9926150D01*
X7362682Y-9926150D02*
X7391253Y-9926150D01*
X7391253Y-9926150D02*
X7410301Y-9935674D01*
X7410301Y-9935674D02*
X7419825Y-9945198D01*
X7419825Y-9945198D02*
X7429349Y-9964246D01*
X7429349Y-9964246D02*
X7429349Y-10021389D01*
X7429349Y-10021389D02*
X7419825Y-10040436D01*
X7419825Y-10040436D02*
X7410301Y-10049960D01*
X7410301Y-10049960D02*
X7391253Y-10059484D01*
X7391253Y-10059484D02*
X7362682Y-10059484D01*
X7486492Y-9926150D02*
X7562682Y-9926150D01*
X7515063Y-9859484D02*
X7515063Y-10030912D01*
X7515063Y-10030912D02*
X7524587Y-10049960D01*
X7524587Y-10049960D02*
X7543634Y-10059484D01*
X7543634Y-10059484D02*
X7562682Y-10059484D01*
X7781730Y-9926150D02*
X7781730Y-10126150D01*
X7781730Y-9935674D02*
X7800777Y-9926150D01*
X7800777Y-9926150D02*
X7838873Y-9926150D01*
X7838873Y-9926150D02*
X7857920Y-9935674D01*
X7857920Y-9935674D02*
X7867444Y-9945198D01*
X7867444Y-9945198D02*
X7876968Y-9964246D01*
X7876968Y-9964246D02*
X7876968Y-10021389D01*
X7876968Y-10021389D02*
X7867444Y-10040436D01*
X7867444Y-10040436D02*
X7857920Y-10049960D01*
X7857920Y-10049960D02*
X7838873Y-10059484D01*
X7838873Y-10059484D02*
X7800777Y-10059484D01*
X7800777Y-10059484D02*
X7781730Y-10049960D01*
X7991253Y-10059484D02*
X7972206Y-10049960D01*
X7972206Y-10049960D02*
X7962682Y-10030912D01*
X7962682Y-10030912D02*
X7962682Y-9859484D01*
X8153158Y-10059484D02*
X8153158Y-9954722D01*
X8153158Y-9954722D02*
X8143634Y-9935674D01*
X8143634Y-9935674D02*
X8124587Y-9926150D01*
X8124587Y-9926150D02*
X8086492Y-9926150D01*
X8086492Y-9926150D02*
X8067444Y-9935674D01*
X8153158Y-10049960D02*
X8134111Y-10059484D01*
X8134111Y-10059484D02*
X8086492Y-10059484D01*
X8086492Y-10059484D02*
X8067444Y-10049960D01*
X8067444Y-10049960D02*
X8057920Y-10030912D01*
X8057920Y-10030912D02*
X8057920Y-10011865D01*
X8057920Y-10011865D02*
X8067444Y-9992817D01*
X8067444Y-9992817D02*
X8086492Y-9983293D01*
X8086492Y-9983293D02*
X8134111Y-9983293D01*
X8134111Y-9983293D02*
X8153158Y-9973770D01*
X8219825Y-9926150D02*
X8296015Y-9926150D01*
X8248396Y-9859484D02*
X8248396Y-10030912D01*
X8248396Y-10030912D02*
X8257920Y-10049960D01*
X8257920Y-10049960D02*
X8276968Y-10059484D01*
X8276968Y-10059484D02*
X8296015Y-10059484D01*
X8438873Y-10049960D02*
X8419825Y-10059484D01*
X8419825Y-10059484D02*
X8381730Y-10059484D01*
X8381730Y-10059484D02*
X8362682Y-10049960D01*
X8362682Y-10049960D02*
X8353158Y-10030912D01*
X8353158Y-10030912D02*
X8353158Y-9954722D01*
X8353158Y-9954722D02*
X8362682Y-9935674D01*
X8362682Y-9935674D02*
X8381730Y-9926150D01*
X8381730Y-9926150D02*
X8419825Y-9926150D01*
X8419825Y-9926150D02*
X8438873Y-9935674D01*
X8438873Y-9935674D02*
X8448396Y-9954722D01*
X8448396Y-9954722D02*
X8448396Y-9973770D01*
X8448396Y-9973770D02*
X8353158Y-9992817D01*
X8619825Y-10059484D02*
X8619825Y-9859484D01*
X8619825Y-10049960D02*
X8600777Y-10059484D01*
X8600777Y-10059484D02*
X8562682Y-10059484D01*
X8562682Y-10059484D02*
X8543635Y-10049960D01*
X8543635Y-10049960D02*
X8534111Y-10040436D01*
X8534111Y-10040436D02*
X8524587Y-10021389D01*
X8524587Y-10021389D02*
X8524587Y-9964246D01*
X8524587Y-9964246D02*
X8534111Y-9945198D01*
X8534111Y-9945198D02*
X8543635Y-9935674D01*
X8543635Y-9935674D02*
X8562682Y-9926150D01*
X8562682Y-9926150D02*
X8600777Y-9926150D01*
X8600777Y-9926150D02*
X8619825Y-9935674D01*
X8696016Y-10135674D02*
X8705539Y-10126150D01*
X8705539Y-10126150D02*
X8724587Y-10097579D01*
X8724587Y-10097579D02*
X8734111Y-10078531D01*
X8734111Y-10078531D02*
X8743635Y-10049960D01*
X8743635Y-10049960D02*
X8753158Y-10002341D01*
X8753158Y-10002341D02*
X8753158Y-9964246D01*
X8753158Y-9964246D02*
X8743635Y-9916627D01*
X8743635Y-9916627D02*
X8734111Y-9888055D01*
X8734111Y-9888055D02*
X8724587Y-9869008D01*
X8724587Y-9869008D02*
X8705539Y-9840436D01*
X8705539Y-9840436D02*
X8696016Y-9830912D01*
M02*
