%TF.GenerationSoftware,KiCad,Pcbnew,9.0.6*%
%TF.CreationDate,2026-03-17T18:09:38+00:00*%
%TF.ProjectId,FrameworkGPU to MXM v0.5,4672616d-6577-46f7-926b-47505520746f,rev?*%
%TF.SameCoordinates,Original*%
%TF.FileFunction,Paste,Top*%
%TF.FilePolarity,Positive*%
%FSLAX46Y46*%
G04 Gerber Fmt 4.6, Leading zero omitted, Abs format (unit mm)*
G04 Created by KiCad (PCBNEW 9.0.6) date 2026-03-17 18:09:38*
%MOMM*%
%LPD*%
G01*
G04 APERTURE LIST*
G04 Aperture macros list*
%AMRoundRect*
0 Rectangle with rounded corners*
0 $1 Rounding radius*
0 $2 $3 $4 $5 $6 $7 $8 $9 X,Y pos of 4 corners*
0 Add a 4 corners polygon primitive as box body*
4,1,4,$2,$3,$4,$5,$6,$7,$8,$9,$2,$3,0*
0 Add four circle primitives for the rounded corners*
1,1,$1+$1,$2,$3*
1,1,$1+$1,$4,$5*
1,1,$1+$1,$6,$7*
1,1,$1+$1,$8,$9*
0 Add four rect primitives between the rounded corners*
20,1,$1+$1,$2,$3,$4,$5,0*
20,1,$1+$1,$4,$5,$6,$7,0*
20,1,$1+$1,$6,$7,$8,$9,0*
20,1,$1+$1,$8,$9,$2,$3,0*%
G04 Aperture macros list end*
%ADD10R,0.800100X0.800100*%
%ADD11RoundRect,0.051250X-0.728750X-0.153750X0.728750X-0.153750X0.728750X0.153750X-0.728750X0.153750X0*%
%ADD12R,0.700000X0.400000*%
%ADD13R,2.300000X2.000000*%
%ADD14R,0.300000X2.000000*%
%ADD15R,1.800000X2.000000*%
%ADD16R,0.800000X2.000000*%
%ADD17R,4.820000X2.000000*%
%ADD18R,3.000000X5.150000*%
G04 APERTURE END LIST*
D10*
%TO.C,R14*%
X85400000Y-59400000D03*
X85400000Y-61000200D03*
%TD*%
%TO.C,C17*%
X33800000Y-52600000D03*
X33800000Y-54200200D03*
%TD*%
%TO.C,R31*%
X90100000Y-59299900D03*
X90100000Y-60900100D03*
%TD*%
%TO.C,R27*%
X75000000Y-52099900D03*
X75000000Y-53700100D03*
%TD*%
%TO.C,R20*%
X64500000Y-53500000D03*
X64500000Y-55100200D03*
%TD*%
%TO.C,C73*%
X42300000Y-72900100D03*
X42300000Y-71299900D03*
%TD*%
%TO.C,C22*%
X35800000Y-32499900D03*
X35800000Y-34100100D03*
%TD*%
%TO.C,R51*%
X47200000Y-73400100D03*
X47200000Y-71799900D03*
%TD*%
%TO.C,R53*%
X27299900Y-37900000D03*
X28900100Y-37900000D03*
%TD*%
%TO.C,R13*%
X86900000Y-59299900D03*
X86900000Y-60900100D03*
%TD*%
%TO.C,R5*%
X78300000Y-55599900D03*
X78300000Y-57200100D03*
%TD*%
%TO.C,R8*%
X75400000Y-59299900D03*
X75400000Y-60900100D03*
%TD*%
%TO.C,R23*%
X68400000Y-59599800D03*
X68400000Y-61200000D03*
%TD*%
%TO.C,R36*%
X82800000Y-59000000D03*
X82800000Y-60600200D03*
%TD*%
%TO.C,C24*%
X37400000Y-34100100D03*
X37400000Y-32499900D03*
%TD*%
%TO.C,R34*%
X60000000Y-55500000D03*
X60000000Y-57100200D03*
%TD*%
%TO.C,R1*%
X71200000Y-59300000D03*
X71200000Y-60900200D03*
%TD*%
%TO.C,R15*%
X87400000Y-55600000D03*
X87400000Y-57200200D03*
%TD*%
%TO.C,R54*%
X105100000Y-56700100D03*
X105100000Y-55099900D03*
%TD*%
%TO.C,R12*%
X80000000Y-55699900D03*
X80000000Y-57300100D03*
%TD*%
%TO.C,R35*%
X61500000Y-55500000D03*
X61500000Y-57100200D03*
%TD*%
%TO.C,R57*%
X94100100Y-79000000D03*
X92499900Y-79000000D03*
%TD*%
%TO.C,R3*%
X72600000Y-59400000D03*
X72600000Y-61000200D03*
%TD*%
%TO.C,R24*%
X66900000Y-59399900D03*
X66900000Y-61000100D03*
%TD*%
%TO.C,R26*%
X70400000Y-52399900D03*
X70400000Y-54000100D03*
%TD*%
D11*
%TO.C,U54*%
X35740000Y-74825000D03*
X35740000Y-75475000D03*
X35740000Y-76125000D03*
X35740000Y-76775000D03*
X41500000Y-76775000D03*
X41500000Y-76125000D03*
X41500000Y-75475000D03*
X41500000Y-74825000D03*
%TD*%
D10*
%TO.C,R32*%
X91700000Y-59099900D03*
X91700000Y-60700100D03*
%TD*%
%TO.C,C26*%
X39000000Y-32499900D03*
X39000000Y-34100100D03*
%TD*%
D12*
%TO.C,U2*%
X57290000Y-76420000D03*
X60590000Y-77020000D03*
X60590000Y-77620000D03*
X68050000Y-71620000D03*
X67190000Y-71620000D03*
X64750000Y-71620000D03*
X63890000Y-71620000D03*
X61450000Y-71620000D03*
X60590000Y-71620000D03*
X58150000Y-71620000D03*
X57290000Y-71620000D03*
X68050000Y-72220000D03*
X67190000Y-72220000D03*
X64750000Y-72220000D03*
X63890000Y-72220000D03*
X61450000Y-72220000D03*
X60590000Y-72220000D03*
X58150000Y-72220000D03*
X57290000Y-72220000D03*
X68050000Y-72820000D03*
X67190000Y-72820000D03*
X64750000Y-72820000D03*
X60590000Y-72820000D03*
X58150000Y-72820000D03*
X57290000Y-72820000D03*
X68050000Y-73420000D03*
X67190000Y-73420000D03*
X64750000Y-73420000D03*
X60590000Y-73420000D03*
X58150000Y-73420000D03*
X57290000Y-73420000D03*
X68050000Y-74020000D03*
X67190000Y-74020000D03*
X64750000Y-74020000D03*
X60590000Y-74020000D03*
X58150000Y-74020000D03*
X57290000Y-74020000D03*
X68050000Y-74620000D03*
X67190000Y-74620000D03*
X64750000Y-74620000D03*
X60590000Y-74620000D03*
X58150000Y-74620000D03*
X57290000Y-74620000D03*
X68050000Y-75220000D03*
X67190000Y-75220000D03*
X64750000Y-75220000D03*
X60590000Y-75220000D03*
X58150000Y-75220000D03*
X57290000Y-75220000D03*
X68050000Y-75820000D03*
X67190000Y-75820000D03*
X64750000Y-75820000D03*
X60590000Y-75820000D03*
X58150000Y-75820000D03*
X57290000Y-75820000D03*
X60590000Y-76420000D03*
X68050000Y-76420000D03*
X58150000Y-76420000D03*
X67190000Y-76420000D03*
X64750000Y-76420000D03*
X68050000Y-77020000D03*
X67190000Y-77020000D03*
X64750000Y-77020000D03*
X63890000Y-77020000D03*
X61450000Y-77020000D03*
X58150000Y-77020000D03*
X57290000Y-77020000D03*
X68050000Y-77620000D03*
X67190000Y-77620000D03*
X64750000Y-77620000D03*
X63890000Y-77620000D03*
X61450000Y-77620000D03*
X58150000Y-77620000D03*
X57290000Y-77620000D03*
X84700000Y-71380000D03*
X83840000Y-71380000D03*
X81400000Y-71380000D03*
X80540000Y-71380000D03*
X78100000Y-71380000D03*
X77240000Y-71380000D03*
X74800000Y-71380000D03*
X73940000Y-71380000D03*
X84700000Y-71980000D03*
X83840000Y-71980000D03*
X81400000Y-71980000D03*
X80540000Y-71980000D03*
X78100000Y-71980000D03*
X77240000Y-71980000D03*
X74800000Y-71980000D03*
X73940000Y-71980000D03*
X84700000Y-72580000D03*
X83840000Y-72580000D03*
X81400000Y-72580000D03*
X77240000Y-72580000D03*
X74800000Y-72580000D03*
X73940000Y-72580000D03*
X84700000Y-73180000D03*
X83840000Y-73180000D03*
X81400000Y-73180000D03*
X77240000Y-73180000D03*
X74800000Y-73180000D03*
X73940000Y-73180000D03*
X84700000Y-73780000D03*
X83840000Y-73780000D03*
X81400000Y-73780000D03*
X77240000Y-73780000D03*
X74800000Y-73780000D03*
X73940000Y-73780000D03*
X84700000Y-74380000D03*
X83840000Y-74380000D03*
X81400000Y-74380000D03*
X77240000Y-74380000D03*
X74800000Y-74380000D03*
X73940000Y-74380000D03*
X84700000Y-74980000D03*
X83840000Y-74980000D03*
X81400000Y-74980000D03*
X77240000Y-74980000D03*
X74800000Y-74980000D03*
X73940000Y-74980000D03*
X84700000Y-75580000D03*
X83840000Y-75580000D03*
X81400000Y-75580000D03*
X77240000Y-75580000D03*
X74800000Y-75580000D03*
X73940000Y-75580000D03*
X84700000Y-76180000D03*
X83840000Y-76180000D03*
X81400000Y-76180000D03*
X77240000Y-76180000D03*
X74800000Y-76180000D03*
X73940000Y-76180000D03*
X84700000Y-76780000D03*
X83840000Y-76780000D03*
X81400000Y-76780000D03*
X80540000Y-76780000D03*
X78100000Y-76780000D03*
X77240000Y-76780000D03*
X74800000Y-76780000D03*
X73940000Y-76780000D03*
X84700000Y-77380000D03*
X83840000Y-77380000D03*
X81400000Y-77380000D03*
X80540000Y-77380000D03*
X78100000Y-77380000D03*
X77240000Y-77380000D03*
X74800000Y-77380000D03*
X73940000Y-77380000D03*
%TD*%
D10*
%TO.C,R62*%
X99500000Y-58499900D03*
X99500000Y-60100100D03*
%TD*%
%TO.C,R56*%
X93300000Y-55200000D03*
X93300000Y-56800200D03*
%TD*%
%TO.C,R50*%
X45700000Y-74400200D03*
X45700000Y-72800000D03*
%TD*%
%TO.C,C27*%
X39500000Y-35599900D03*
X39500000Y-37200100D03*
%TD*%
%TO.C,R18*%
X68800000Y-55699900D03*
X68800000Y-57300100D03*
%TD*%
%TO.C,R49*%
X44800000Y-69400100D03*
X44800000Y-67799900D03*
%TD*%
%TO.C,R21*%
X68800000Y-52299800D03*
X68800000Y-53900000D03*
%TD*%
%TO.C,R64*%
X100800000Y-55199900D03*
X100800000Y-56800100D03*
%TD*%
%TO.C,R29*%
X77800000Y-51500000D03*
X77800000Y-53100200D03*
%TD*%
%TO.C,R4*%
X73000000Y-55899900D03*
X73000000Y-57500100D03*
%TD*%
%TO.C,R25*%
X71900000Y-53900100D03*
X71900000Y-52299900D03*
%TD*%
%TO.C,R37*%
X81300000Y-59000000D03*
X81300000Y-60600200D03*
%TD*%
%TO.C,R52*%
X43300000Y-67800000D03*
X43300000Y-69400200D03*
%TD*%
D13*
%TO.C,J1*%
X101500000Y-41650000D03*
D14*
X102250000Y-48900000D03*
X101750000Y-48900000D03*
X101250000Y-48900000D03*
X100750000Y-48900000D03*
X100250000Y-48900000D03*
D15*
X99250000Y-41650000D03*
D14*
X99750000Y-48900000D03*
X99250000Y-48900000D03*
X98750000Y-48900000D03*
X98250000Y-48900000D03*
X98000000Y-41650000D03*
X97750000Y-48900000D03*
X97500000Y-41650000D03*
X97250000Y-48900000D03*
X97000000Y-41650000D03*
X96750000Y-48900000D03*
X96500000Y-41650000D03*
X96250000Y-48900000D03*
X96000000Y-41650000D03*
X95750000Y-48900000D03*
X95500000Y-41650000D03*
X95250000Y-48900000D03*
X95000000Y-41650000D03*
X94750000Y-48900000D03*
X94500000Y-41650000D03*
X94250000Y-48900000D03*
X94000000Y-41650000D03*
X93750000Y-48900000D03*
X93500000Y-41650000D03*
X93250000Y-48900000D03*
X93000000Y-41650000D03*
X92750000Y-48900000D03*
X92500000Y-41650000D03*
X92250000Y-48900000D03*
X92000000Y-41650000D03*
X91750000Y-48900000D03*
X91500000Y-41650000D03*
X91250000Y-48900000D03*
X91000000Y-41650000D03*
X90750000Y-48900000D03*
X90500000Y-41650000D03*
X90250000Y-48900000D03*
X90000000Y-41650000D03*
X89750000Y-48900000D03*
X89500000Y-41650000D03*
X89250000Y-48900000D03*
X89000000Y-41650000D03*
X88750000Y-48900000D03*
X88500000Y-41650000D03*
X88250000Y-48900000D03*
X88000000Y-41650000D03*
X87750000Y-48900000D03*
X87500000Y-41650000D03*
X87250000Y-48900000D03*
X87000000Y-41650000D03*
X86750000Y-48900000D03*
X86500000Y-41650000D03*
X86250000Y-48900000D03*
X86000000Y-41650000D03*
X85750000Y-48900000D03*
X85500000Y-41650000D03*
X85250000Y-48900000D03*
X85000000Y-41650000D03*
X84750000Y-48900000D03*
X84500000Y-41650000D03*
X84250000Y-48900000D03*
X84000000Y-41650000D03*
X83750000Y-48900000D03*
X83500000Y-41650000D03*
X83250000Y-48900000D03*
X83000000Y-41650000D03*
X82750000Y-48900000D03*
X82500000Y-41650000D03*
X82250000Y-48900000D03*
X82000000Y-41650000D03*
X81750000Y-48900000D03*
X81500000Y-41650000D03*
X81250000Y-48900000D03*
X81000000Y-41650000D03*
X80750000Y-48900000D03*
X80500000Y-41650000D03*
X80250000Y-48900000D03*
X80000000Y-41650000D03*
X79750000Y-48900000D03*
X79500000Y-41650000D03*
X79250000Y-48900000D03*
X79000000Y-41650000D03*
X78750000Y-48900000D03*
X78500000Y-41650000D03*
X78250000Y-48900000D03*
X78000000Y-41650000D03*
X77750000Y-48900000D03*
X77500000Y-41650000D03*
X77250000Y-48900000D03*
X77000000Y-41650000D03*
X76750000Y-48900000D03*
X76500000Y-41650000D03*
X76250000Y-48900000D03*
X76000000Y-41650000D03*
X75750000Y-48900000D03*
X75500000Y-41650000D03*
X75250000Y-48900000D03*
X75000000Y-41650000D03*
X74750000Y-48900000D03*
X74500000Y-41650000D03*
X74250000Y-48900000D03*
X74000000Y-41650000D03*
X73750000Y-48900000D03*
X73500000Y-41650000D03*
X73250000Y-48900000D03*
X73000000Y-41650000D03*
X72750000Y-48900000D03*
X72500000Y-41650000D03*
X72250000Y-48900000D03*
X72000000Y-41650000D03*
X71750000Y-48900000D03*
X71500000Y-41650000D03*
X69500000Y-41650000D03*
X69250000Y-48900000D03*
X69000000Y-41650000D03*
X68750000Y-48900000D03*
X68500000Y-41650000D03*
X68250000Y-48900000D03*
X68000000Y-41650000D03*
X67750000Y-48900000D03*
X67500000Y-41650000D03*
X67250000Y-48900000D03*
X67000000Y-41650000D03*
X66750000Y-48900000D03*
X66500000Y-41650000D03*
X66250000Y-48900000D03*
X66000000Y-41650000D03*
X65750000Y-48900000D03*
X65500000Y-41650000D03*
X65250000Y-48900000D03*
X65000000Y-41650000D03*
X64750000Y-48900000D03*
X64500000Y-41650000D03*
X64250000Y-48900000D03*
X64000000Y-41650000D03*
X63750000Y-48900000D03*
X63500000Y-41650000D03*
X63250000Y-48900000D03*
X63000000Y-41650000D03*
X62750000Y-48900000D03*
X62500000Y-41650000D03*
X62250000Y-48900000D03*
X62000000Y-41650000D03*
X61750000Y-48900000D03*
X61500000Y-41650000D03*
X61250000Y-48900000D03*
X61000000Y-41650000D03*
X60750000Y-48900000D03*
X60500000Y-41650000D03*
X60250000Y-48900000D03*
X60000000Y-41650000D03*
X59750000Y-48900000D03*
X59500000Y-41650000D03*
X59250000Y-48900000D03*
X59000000Y-41650000D03*
X58750000Y-48900000D03*
X58500000Y-41650000D03*
X58250000Y-48900000D03*
X58000000Y-41650000D03*
X57750000Y-48900000D03*
X57500000Y-41650000D03*
X57250000Y-48900000D03*
X57000000Y-41650000D03*
X56750000Y-48900000D03*
X56500000Y-41650000D03*
X56250000Y-48900000D03*
X56000000Y-41650000D03*
X55750000Y-48900000D03*
X55500000Y-41650000D03*
X55250000Y-48900000D03*
X55000000Y-41650000D03*
X54750000Y-48900000D03*
X54500000Y-41650000D03*
X54250000Y-48900000D03*
X54000000Y-41650000D03*
X53750000Y-48900000D03*
X53500000Y-41650000D03*
X53250000Y-48900000D03*
X53000000Y-41650000D03*
X52750000Y-48900000D03*
X52500000Y-41650000D03*
X52250000Y-48900000D03*
X52000000Y-41650000D03*
X51750000Y-48900000D03*
X51500000Y-41650000D03*
X51250000Y-48900000D03*
X51000000Y-41650000D03*
X50750000Y-48900000D03*
X50500000Y-41650000D03*
X50250000Y-48900000D03*
X50000000Y-41650000D03*
X49750000Y-48900000D03*
X49500000Y-41650000D03*
X49250000Y-48900000D03*
X49000000Y-41650000D03*
X48750000Y-48900000D03*
X48500000Y-41650000D03*
X48250000Y-48900000D03*
X48000000Y-41650000D03*
X47750000Y-48900000D03*
X47500000Y-41650000D03*
X47250000Y-48900000D03*
X47000000Y-41650000D03*
X46750000Y-48900000D03*
X46500000Y-41650000D03*
X46250000Y-48900000D03*
X46000000Y-41650000D03*
X45750000Y-48900000D03*
X45500000Y-41650000D03*
X45250000Y-48900000D03*
X45000000Y-41650000D03*
X44750000Y-48900000D03*
X44500000Y-41650000D03*
X44250000Y-48900000D03*
X44000000Y-41650000D03*
X43750000Y-48900000D03*
X43500000Y-41650000D03*
X43250000Y-48900000D03*
X43000000Y-41650000D03*
X42750000Y-48900000D03*
X42500000Y-41650000D03*
X42250000Y-48900000D03*
X42000000Y-41650000D03*
X41750000Y-48900000D03*
X41500000Y-41650000D03*
X41250000Y-48900000D03*
X41000000Y-41650000D03*
X40750000Y-48900000D03*
X40500000Y-41650000D03*
X40250000Y-48900000D03*
X40000000Y-41650000D03*
X39750000Y-48900000D03*
X39500000Y-41650000D03*
X39250000Y-48900000D03*
X39000000Y-41650000D03*
X38750000Y-48900000D03*
X38500000Y-41650000D03*
X38250000Y-48900000D03*
X38000000Y-41650000D03*
X37750000Y-48900000D03*
X37500000Y-41650000D03*
X37250000Y-48900000D03*
X37000000Y-41650000D03*
X36750000Y-48900000D03*
X36500000Y-41650000D03*
X36250000Y-48900000D03*
X36000000Y-41650000D03*
X35750000Y-48900000D03*
X35500000Y-41650000D03*
X35250000Y-48900000D03*
X35000000Y-41650000D03*
X34750000Y-48900000D03*
X34500000Y-41650000D03*
X34250000Y-48900000D03*
X34000000Y-41650000D03*
X33750000Y-48900000D03*
X33500000Y-41650000D03*
D16*
X33000000Y-48900000D03*
D14*
X33000000Y-41650000D03*
X32500000Y-41650000D03*
D17*
X110250000Y-41650000D03*
X110000000Y-48900000D03*
X105250000Y-41650000D03*
X105000000Y-48900000D03*
D18*
X116500000Y-46150000D03*
X28500000Y-46150000D03*
%TD*%
D10*
%TO.C,R30*%
X76300000Y-51899900D03*
X76300000Y-53500100D03*
%TD*%
%TO.C,C21*%
X35000000Y-35599900D03*
X35000000Y-37200100D03*
%TD*%
%TO.C,R6*%
X76800000Y-55499900D03*
X76800000Y-57100100D03*
%TD*%
%TO.C,R33*%
X98300000Y-38800100D03*
X98300000Y-37199900D03*
%TD*%
%TO.C,C18*%
X32600000Y-34100100D03*
X32600000Y-32499900D03*
%TD*%
%TO.C,R63*%
X101600000Y-58499900D03*
X101600000Y-60100100D03*
%TD*%
%TO.C,C20*%
X34200000Y-34100100D03*
X34200000Y-32499900D03*
%TD*%
%TO.C,C19*%
X33500000Y-35599900D03*
X33500000Y-37200100D03*
%TD*%
%TO.C,R9*%
X85300000Y-55200000D03*
X85300000Y-56800200D03*
%TD*%
%TO.C,R10*%
X83700000Y-55200000D03*
X83700000Y-56800200D03*
%TD*%
%TO.C,R7*%
X77000000Y-59499900D03*
X77000000Y-61100100D03*
%TD*%
%TO.C,C23*%
X36500000Y-35599900D03*
X36500000Y-37200100D03*
%TD*%
%TO.C,R28*%
X73500000Y-53700100D03*
X73500000Y-52099900D03*
%TD*%
%TO.C,R59*%
X98600000Y-55199900D03*
X98600000Y-56800100D03*
%TD*%
%TO.C,C25*%
X38000000Y-37200100D03*
X38000000Y-35599900D03*
%TD*%
%TO.C,R61*%
X97200000Y-55199900D03*
X97200000Y-56800100D03*
%TD*%
%TO.C,R55*%
X94800000Y-55199900D03*
X94800000Y-56800100D03*
%TD*%
%TO.C,R11*%
X81400000Y-55699900D03*
X81400000Y-57300100D03*
%TD*%
%TO.C,R22*%
X67400000Y-52899800D03*
X67400000Y-54500000D03*
%TD*%
%TO.C,R2*%
X74500000Y-55899900D03*
X74500000Y-57500100D03*
%TD*%
%TO.C,R60*%
X97900000Y-58499900D03*
X97900000Y-60100100D03*
%TD*%
%TO.C,R17*%
X70400000Y-55799900D03*
X70400000Y-57400100D03*
%TD*%
%TO.C,R19*%
X65900000Y-53299900D03*
X65900000Y-54900100D03*
%TD*%
%TO.C,R58*%
X44900000Y-79800000D03*
X46500200Y-79800000D03*
%TD*%
M02*
