%TF.GenerationSoftware,KiCad,Pcbnew,9.0.6*%
%TF.CreationDate,2026-03-17T22:27:15+00:00*%
%TF.ProjectId,FrameworkGPU to MXM v0.5,4672616d-6577-46f7-926b-47505520746f,rev?*%
%TF.SameCoordinates,Original*%
%TF.FileFunction,Copper,L4,Inr*%
%TF.FilePolarity,Positive*%
%FSLAX46Y46*%
G04 Gerber Fmt 4.6, Leading zero omitted, Abs format (unit mm)*
G04 Created by KiCad (PCBNEW 9.0.6) date 2026-03-17 22:27:15*
%MOMM*%
%LPD*%
G01*
G04 APERTURE LIST*
%TA.AperFunction,Conductor*%
%ADD10C,0.200000*%
%TD*%
%TA.AperFunction,ViaPad*%
%ADD11C,0.300000*%
%TD*%
%TA.AperFunction,Conductor*%
%ADD12C,0.400000*%
%TD*%
%TA.AperFunction,Conductor*%
%ADD13C,0.600000*%
%TD*%
G04 APERTURE END LIST*
%TO.N,VCC*%
D10*
X107900000Y-40700000D02*
X112400000Y-40700000D01*
X112400000Y-64300000D01*
X107900000Y-64300000D01*
X107900000Y-40700000D01*
%TA.AperFunction,Conductor*%
G36*
X107900000Y-40700000D02*
G01*
X112400000Y-40700000D01*
X112400000Y-64300000D01*
X107900000Y-64300000D01*
X107900000Y-40700000D01*
G37*
%TD.AperFunction*%
X56900000Y-62600000D02*
X112400000Y-62600000D01*
X112400000Y-64300000D01*
X56900000Y-64300000D01*
X56900000Y-62600000D01*
%TA.AperFunction,Conductor*%
G36*
X56900000Y-62600000D02*
G01*
X112400000Y-62600000D01*
X112400000Y-64300000D01*
X56900000Y-64300000D01*
X56900000Y-62600000D01*
G37*
%TD.AperFunction*%
X56900000Y-62600000D02*
X58500000Y-62600000D01*
X58500000Y-75400000D01*
X56900000Y-75400000D01*
X56900000Y-62600000D01*
%TA.AperFunction,Conductor*%
G36*
X56900000Y-62600000D02*
G01*
X58500000Y-62600000D01*
X58500000Y-75400000D01*
X56900000Y-75400000D01*
X56900000Y-62600000D01*
G37*
%TD.AperFunction*%
%TD*%
D11*
%TO.N,Net-(U2-DDS_CLK)*%
X66800000Y-78700000D03*
%TO.N,GND*%
X75300000Y-75580000D03*
X83300000Y-75580000D03*
%TO.N,Net-(U2-DP_A_HPD)*%
X74600000Y-65800000D03*
X35400000Y-54200000D03*
%TO.N,DP_A_AUXP*%
X72900000Y-78400000D03*
X32600000Y-31700000D03*
%TO.N,DP_A_AUXN*%
X73500000Y-78900000D03*
X33500000Y-31700000D03*
%TO.N,DP_A_L3P*%
X34200000Y-31700000D03*
X83100000Y-74700000D03*
%TO.N,DP_A_L3N*%
X83800000Y-74400000D03*
X35000000Y-31700000D03*
%TO.N,DP_A_L2P*%
X35800000Y-31700000D03*
X84800000Y-78331000D03*
%TO.N,DP_A_L2N*%
X36500000Y-31700000D03*
X84200000Y-78901000D03*
%TO.N,DP_A_L1P*%
X75642832Y-72961632D03*
X37400000Y-31700000D03*
%TO.N,DP_A_L1N*%
X75984053Y-72512451D03*
X38101050Y-31701050D03*
%TO.N,DP_A_L0P*%
X39000000Y-31700000D03*
X75258972Y-74980000D03*
%TO.N,DP_A_L0N*%
X75242259Y-74380000D03*
X39700000Y-31700000D03*
%TO.N,PNL_BL_EN*%
X81100000Y-78300000D03*
X96500000Y-43600000D03*
%TO.N,PNL_PWR_EN*%
X97000000Y-43300000D03*
X80300000Y-80400000D03*
%TO.N,PNL_BL_PWM*%
X79800000Y-77400000D03*
X96000000Y-44000000D03*
%TO.N,PEX_TX2P*%
X76006533Y-74950389D03*
X67240686Y-55400999D03*
%TO.N,PEX_TX4N*%
X71044814Y-53249000D03*
X89700000Y-72800000D03*
X86200000Y-60000000D03*
%TO.N,PEX_TX2N*%
X75929465Y-75444416D03*
X67859099Y-55401000D03*
%TO.N,PEX_RX5P*%
X81775701Y-73123780D03*
X79500000Y-58200000D03*
%TO.N,PEX_TX3P*%
X69431151Y-67531152D03*
X69100000Y-73000000D03*
%TO.N,PEX_TX1N*%
X72700000Y-76300000D03*
X65900000Y-54300000D03*
%TO.N,PWR_EN*%
X100800000Y-64900000D03*
X66500000Y-77000000D03*
%TO.N,PWR_GOOD*%
X101600000Y-64900000D03*
X68600000Y-77600000D03*
%TO.N,Net-(J1-PEX_RX7)*%
X87900000Y-54700000D03*
X87900000Y-46000000D03*
%TO.N,PEX_TX6N*%
X85800000Y-77100000D03*
X83300000Y-53200000D03*
%TO.N,PEX_TX6P*%
X82700000Y-53550200D03*
X85900000Y-76300000D03*
%TO.N,PEX_RX5N*%
X81990549Y-73589270D03*
X80600000Y-58300000D03*
%TO.N,BK_I2C_SDA*%
X54300000Y-67800000D03*
X54300000Y-70200000D03*
%TO.N,PEX_TX5N*%
X74900000Y-54300000D03*
X82593467Y-74950389D03*
X86200000Y-61500000D03*
%TO.N,GND*%
X105300000Y-43700000D03*
X103800000Y-44700000D03*
X106300000Y-45200000D03*
X105300000Y-46700000D03*
X103300000Y-43200000D03*
X103300000Y-44700000D03*
X105300000Y-45700000D03*
X103300000Y-46700000D03*
X103800000Y-44200000D03*
X106300000Y-43700000D03*
X104800000Y-44700000D03*
X105300000Y-44700000D03*
X103300000Y-43700000D03*
X106800000Y-46700000D03*
X103800000Y-46700000D03*
X104300000Y-46200000D03*
X106300000Y-46700000D03*
X103800000Y-46200000D03*
X75639008Y-73563603D03*
X82300000Y-74300000D03*
X104800000Y-45700000D03*
X106800000Y-43200000D03*
X105800000Y-46700000D03*
X105300000Y-45200000D03*
X106800000Y-43700000D03*
X105300000Y-44200000D03*
X104800000Y-46700000D03*
X104300000Y-45200000D03*
X104300000Y-45700000D03*
X103800000Y-45700000D03*
X103800000Y-43200000D03*
X68600000Y-54900000D03*
X105800000Y-44700000D03*
X75695286Y-75886189D03*
X106800000Y-45200000D03*
X103800000Y-45200000D03*
X106800000Y-46200000D03*
X104800000Y-46200000D03*
X106300000Y-44700000D03*
X106300000Y-45700000D03*
X105800000Y-44200000D03*
X105800000Y-45200000D03*
X106300000Y-44200000D03*
X103300000Y-44200000D03*
X104800000Y-45200000D03*
X105800000Y-45700000D03*
X103300000Y-46200000D03*
X106800000Y-45700000D03*
X104800000Y-44200000D03*
X106800000Y-44200000D03*
X104300000Y-43700000D03*
X104300000Y-44700000D03*
X73200000Y-76100000D03*
X106800000Y-44700000D03*
X104300000Y-44200000D03*
X104300000Y-46700000D03*
X105800000Y-43200000D03*
X104800000Y-43700000D03*
X104300000Y-43200000D03*
X105800000Y-46200000D03*
X105300000Y-46200000D03*
X105800000Y-43700000D03*
X104800000Y-43200000D03*
X105300000Y-43200000D03*
X85400000Y-76100000D03*
X103300000Y-45700000D03*
X82904714Y-75886189D03*
X103300000Y-45200000D03*
X76300000Y-74300000D03*
X82960992Y-73563603D03*
X103800000Y-43700000D03*
X106300000Y-46200000D03*
X106300000Y-43200000D03*
%TO.N,PEX_RX2P*%
X76609451Y-73589270D03*
X77700000Y-58200000D03*
%TO.N,PEX_TX5P*%
X85900000Y-62000000D03*
X82670535Y-75444416D03*
X74800000Y-54900000D03*
%TO.N,PEX_RX2N*%
X76824299Y-73123780D03*
X78800000Y-58200000D03*
%TO.N,PEX_TX1P*%
X72800000Y-77100000D03*
X64400000Y-54300000D03*
%TO.N,PEX_TX4P*%
X70000000Y-53300000D03*
X92500000Y-61800000D03*
%TO.N,VCC*%
X109200000Y-44300000D03*
X110700000Y-44300000D03*
X58150000Y-72220000D03*
X111700000Y-47300000D03*
X108200000Y-43300000D03*
X111200000Y-44800000D03*
X109700000Y-44300000D03*
X108700000Y-46300000D03*
X108200000Y-43800000D03*
X111700000Y-43800000D03*
X111200000Y-47300000D03*
X109700000Y-43300000D03*
X108700000Y-45300000D03*
X108200000Y-46300000D03*
X110700000Y-44800000D03*
X108700000Y-47300000D03*
X110200000Y-46300000D03*
X108200000Y-44300000D03*
X111700000Y-44300000D03*
X111700000Y-43300000D03*
X108200000Y-47300000D03*
X109700000Y-47300000D03*
X108200000Y-44800000D03*
X111700000Y-45300000D03*
X110700000Y-46800000D03*
X110200000Y-44800000D03*
X110200000Y-44300000D03*
X110200000Y-45300000D03*
X108200000Y-46800000D03*
X109200000Y-45800000D03*
X109700000Y-45300000D03*
X57290000Y-74620000D03*
X109200000Y-46800000D03*
X108700000Y-44300000D03*
X111700000Y-46800000D03*
X111200000Y-44300000D03*
X57290000Y-72220000D03*
X111200000Y-43800000D03*
X109200000Y-47300000D03*
X110700000Y-43800000D03*
X110200000Y-43800000D03*
X57290000Y-72820000D03*
X110200000Y-45800000D03*
X111200000Y-45300000D03*
X111700000Y-46300000D03*
X110200000Y-46800000D03*
X57290000Y-74020000D03*
X110700000Y-43300000D03*
X110700000Y-46300000D03*
X109700000Y-44800000D03*
X109700000Y-46800000D03*
X58150000Y-71620000D03*
X109700000Y-43800000D03*
X110200000Y-43300000D03*
X58150000Y-75220000D03*
X109200000Y-44800000D03*
X57290000Y-73420000D03*
X108700000Y-46800000D03*
X58150000Y-74020000D03*
X109700000Y-45800000D03*
X109700000Y-46300000D03*
X111200000Y-46800000D03*
X110700000Y-45300000D03*
X108700000Y-43300000D03*
X108200000Y-45800000D03*
X111200000Y-45800000D03*
X58150000Y-74620000D03*
X111700000Y-44800000D03*
X109200000Y-43800000D03*
X111200000Y-46300000D03*
X109200000Y-45300000D03*
X108700000Y-44800000D03*
X108200000Y-45300000D03*
X111200000Y-43300000D03*
X109200000Y-43300000D03*
X57290000Y-75220000D03*
X111700000Y-45800000D03*
X110700000Y-47300000D03*
X58150000Y-73420000D03*
X57290000Y-71620000D03*
X58150000Y-72820000D03*
X110200000Y-47300000D03*
X108700000Y-43800000D03*
X109200000Y-46300000D03*
X108700000Y-45800000D03*
X110700000Y-45800000D03*
%TO.N,Net-(U2-ID1)*%
X86200000Y-77500000D03*
X92500000Y-78300000D03*
%TO.N,PEX_CLK_REQ-*%
X63500000Y-59200000D03*
X80351000Y-60850000D03*
%TO.N,PEX_REFCLK+*%
X81500000Y-61700000D03*
X82615947Y-72512451D03*
%TO.N,SMB_DAT*%
X94800000Y-64900000D03*
X65600000Y-75200000D03*
X43900000Y-67000000D03*
%TO.N,SMB_CLK*%
X65517253Y-74625154D03*
X46200000Y-65700000D03*
X93300000Y-64900000D03*
%TO.N,TH_OVERT*%
X100600000Y-68300000D03*
X91500000Y-69300000D03*
%TO.N,TH_ALERT*%
X78900000Y-66600000D03*
X97900000Y-64900000D03*
%TO.N,PWR_LEVEL*%
X99500000Y-64900000D03*
X79700000Y-66500000D03*
%TO.N,PEX_REFCLK-*%
X82957168Y-72961632D03*
X82100000Y-61800000D03*
%TO.N,PEX_RST*%
X77700000Y-60100000D03*
X60100000Y-58100000D03*
%TO.N,Net-(J1-VGA_GREEN)*%
X54500000Y-52700000D03*
X60300000Y-46600000D03*
%TO.N,Net-(J1-PEX_RX6)*%
X86000000Y-58400000D03*
X86000000Y-45500000D03*
%TO.N,Net-(J1-VGA_VSYNC)*%
X48250000Y-56450000D03*
X62300000Y-46200000D03*
%TO.N,Net-(J1-PEX_RST#)*%
X60800000Y-54800000D03*
X62000000Y-58900000D03*
%TO.N,Net-(J1-PEX_RX5)*%
X79900000Y-54800000D03*
X80600000Y-46300000D03*
%TO.N,Net-(J1-PEX_RX0-)*%
X72500000Y-45800000D03*
X72200000Y-55100000D03*
%TO.N,Net-(J1-PEX_RX3-)*%
X72500000Y-37400000D03*
X76900000Y-58400000D03*
%TO.N,Net-(J1-PEX_RX4)*%
X84400000Y-47500000D03*
X84500000Y-53500000D03*
%TO.N,Net-(J1-VGA_DDC_DAT)*%
X63300000Y-46900000D03*
X57000000Y-56500000D03*
%TO.N,Net-(J1-PEX_RX0)*%
X71800000Y-46000000D03*
X71600000Y-55100000D03*
%TO.N,Net-(J1-PEX_RX3)*%
X75900000Y-58500000D03*
X72000000Y-38700000D03*
%TO.N,Net-(J1-VGA_HSYNC)*%
X61800000Y-45900000D03*
X42200000Y-52300000D03*
%TO.N,Net-(J1-PEX_RX5-)*%
X81200000Y-46100000D03*
X81400000Y-54800000D03*
%TO.N,Net-(J1-PEX_RX1-)*%
X74300000Y-45100000D03*
X74100000Y-54900000D03*
%TO.N,Net-(J1-PEX_REFCLK#)*%
X66100000Y-33300000D03*
X64500000Y-35100000D03*
X82800000Y-57900000D03*
%TO.N,Net-(J1-PEX_REFCLK)*%
X82200000Y-57900000D03*
X66100000Y-34100000D03*
%TO.N,Net-(J1-PEX_RX7-)*%
X87400000Y-54700000D03*
X87868199Y-45331801D03*
%TO.N,+3.3V*%
X32600000Y-49300000D03*
X46100000Y-67800000D03*
X45300000Y-67800000D03*
X61450000Y-70900000D03*
X31850000Y-50050000D03*
X31100000Y-55600000D03*
X61450000Y-71620000D03*
X27200000Y-38800000D03*
X27200000Y-39200000D03*
X61450000Y-70400000D03*
X105100000Y-57300000D03*
X33000000Y-48900000D03*
X32250000Y-49650000D03*
X45700000Y-67800000D03*
X27200000Y-39600000D03*
X61450000Y-69950000D03*
%TO.N,Net-(J1-VGA_BLUE)*%
X59800000Y-46200000D03*
X50300000Y-52700000D03*
%TO.N,Net-(J1-VGA_RED)*%
X59000000Y-52800000D03*
X60800000Y-46900000D03*
%TO.N,Net-(J1-PEX_RX4-)*%
X85200000Y-54000000D03*
X84994000Y-47006000D03*
%TO.N,Net-(J1-PEX_RX6-)*%
X86800000Y-58400000D03*
X86600000Y-45400000D03*
%TO.N,Net-(J1-VGA_DDC_CLK)*%
X62800000Y-46600000D03*
X52500000Y-56500000D03*
%TO.N,Net-(J1-PEX_RX2)*%
X68400000Y-36300000D03*
X76800000Y-54500000D03*
%TO.N,Net-(J1-PEX_RX2-)*%
X69000000Y-34900000D03*
X78300000Y-54400000D03*
%TO.N,Net-(J1-PEX_RX1)*%
X73600000Y-54900000D03*
X73200000Y-44700000D03*
%TO.N,Net-(U2-GPIO3_EC)*%
X72700000Y-77800000D03*
X55300000Y-60300000D03*
%TO.N,Net-(U2-DDS_CLK)*%
X50700000Y-69200000D03*
X55100000Y-69200000D03*
%TO.N,Net-(U2-GPIO0_EC)*%
X32000000Y-75000000D03*
X69200000Y-75600000D03*
%TO.N,Net-(U2-USB+)*%
X28400000Y-73300000D03*
X65400000Y-76400000D03*
%TO.N,Net-(U2-GPIO2_EC)*%
X83700000Y-71400000D03*
X93100000Y-71300000D03*
%TO.N,Net-(U2-I2C_INT_VS)*%
X66000000Y-73600000D03*
X67200000Y-67200000D03*
%TO.N,Net-(U2-USB-)*%
X65400000Y-77000000D03*
X28300000Y-68900000D03*
%TO.N,Net-(J1-PEX_TX3)*%
X69500000Y-46900000D03*
X63300000Y-58100000D03*
%TO.N,+5V*%
X101000000Y-41700000D03*
X101500000Y-41700000D03*
X100500000Y-41700000D03*
X55100000Y-76100000D03*
%TO.N,Net-(J1-PEX_TX7)*%
X91500000Y-58100000D03*
X89600000Y-58100000D03*
%TO.N,Net-(J1-PEX_TX3-)*%
X70400000Y-46450000D03*
X63770559Y-57930953D03*
%TO.N,Net-(J1-PEX_TX0)*%
X65900000Y-55800000D03*
X65500000Y-56900000D03*
%TO.N,Net-(J1-PEX_STD_SW-)*%
X101000000Y-37000000D03*
X99200000Y-38800000D03*
%TD*%
D10*
%TO.N,DP_A_AUXP*%
X41625000Y-31706802D02*
X41625000Y-66504720D01*
X32824999Y-31156803D02*
X34206802Y-29775000D01*
X39693198Y-29775000D02*
X41625000Y-31706802D01*
X72900000Y-78862189D02*
X72900000Y-78400000D01*
X54842280Y-79722000D02*
X55600000Y-79722000D01*
X54660140Y-79539860D02*
X55117280Y-79997000D01*
X55117280Y-79997000D02*
X71765189Y-79997000D01*
X41625000Y-66504720D02*
X54660140Y-79539860D01*
X34206802Y-29775000D02*
X39693198Y-29775000D01*
X32600000Y-31700000D02*
X32824999Y-31475001D01*
X54660140Y-79539860D02*
X54842280Y-79722000D01*
X71765189Y-79997000D02*
X72900000Y-78862189D01*
X32824999Y-31475001D02*
X32824999Y-31156803D01*
%TO.N,DP_A_AUXN*%
X33275001Y-31343197D02*
X34393198Y-30225000D01*
X41175000Y-31893198D02*
X41175000Y-66689702D01*
X33275001Y-31475001D02*
X33275001Y-31343197D01*
X54883298Y-80398000D02*
X72002000Y-80398000D01*
X34393198Y-30225000D02*
X39506802Y-30225000D01*
X41175000Y-66689702D02*
X54883298Y-80398000D01*
X33500000Y-31700000D02*
X33275001Y-31475001D01*
X39506802Y-30225000D02*
X41175000Y-31893198D01*
X72002000Y-80398000D02*
X73500000Y-78900000D01*
%TO.N,DP_A_L3P*%
X80200000Y-81200000D02*
X84400000Y-77000000D01*
X83551000Y-73949000D02*
X83100000Y-74400000D01*
X84049000Y-73949000D02*
X83551000Y-73949000D01*
X34200000Y-31700000D02*
X34374999Y-31874999D01*
X34374999Y-61093197D02*
X54481802Y-81200000D01*
X83100000Y-74400000D02*
X83100000Y-74700000D01*
X54481802Y-81200000D02*
X80200000Y-81200000D01*
X84400000Y-77000000D02*
X84400000Y-74300000D01*
X84400000Y-74300000D02*
X84049000Y-73949000D01*
X34374999Y-31874999D02*
X34374999Y-61093197D01*
%TO.N,DP_A_L3N*%
X35000000Y-31700000D02*
X34825001Y-31874999D01*
X54717198Y-80799000D02*
X79238810Y-80799000D01*
X34825001Y-31874999D02*
X34825001Y-60906803D01*
X79238810Y-80799000D02*
X83800000Y-76237811D01*
X83800000Y-76237811D02*
X83800000Y-74400000D01*
X34825001Y-60906803D02*
X54717198Y-80799000D01*
%TO.N,PEX_TX4N*%
X74000000Y-53200000D02*
X74470656Y-53200000D01*
X73280000Y-54181005D02*
X73400000Y-54181005D01*
X80407969Y-55859993D02*
X80492821Y-55944845D01*
X71044814Y-53249000D02*
X71551000Y-53249000D01*
X81581766Y-55336734D02*
X81864608Y-55619576D01*
X81680758Y-56793371D02*
X82218159Y-56255969D01*
X80832233Y-55944845D02*
X81199928Y-55577149D01*
X85962189Y-60000000D02*
X86200000Y-60000000D01*
X83236391Y-57274201D02*
X83321244Y-57359055D01*
X73880000Y-53200000D02*
X74000000Y-53200000D01*
X79162189Y-53200000D02*
X80775665Y-54813476D01*
X82352508Y-57309558D02*
X82437360Y-57394410D01*
X81369633Y-55407444D02*
X81440342Y-55336732D01*
X72680000Y-53200000D02*
X72800000Y-53200000D01*
X82642422Y-56680233D02*
X82472716Y-56849938D01*
X82713134Y-56609524D02*
X82642422Y-56680233D01*
X81864608Y-55760998D02*
X81793896Y-55831707D01*
X81199928Y-55577149D02*
X81369634Y-55407443D01*
X83659985Y-57697796D02*
X85962189Y-60000000D01*
X82472716Y-56849938D02*
X82352508Y-56970146D01*
X81793896Y-55831707D02*
X81256494Y-56369108D01*
X81369634Y-55407443D02*
X81369633Y-55407444D01*
X82430292Y-56185260D02*
X82713134Y-56468102D01*
X71551000Y-53249000D02*
X71600000Y-53200000D01*
X73040000Y-53440000D02*
X73040000Y-53941005D01*
X81256494Y-56708519D02*
X81341346Y-56793371D01*
X72080000Y-54181005D02*
X72200000Y-54181005D01*
X83321244Y-57359055D02*
X83659985Y-57697796D01*
X80775665Y-55152887D02*
X80407969Y-55520582D01*
X72440000Y-53941005D02*
X72440000Y-53440000D01*
X74470656Y-53200000D02*
X79162189Y-53200000D01*
X71840000Y-53440000D02*
X71840000Y-53941005D01*
X73640000Y-53941005D02*
X73640000Y-53440000D01*
X82218159Y-56255970D02*
X82288868Y-56185258D01*
X82776772Y-57394410D02*
X82896980Y-57274201D01*
X82218159Y-56255969D02*
X82218159Y-56255970D01*
X82437360Y-57394410D02*
G75*
G03*
X82776772Y-57394410I169706J169704D01*
G01*
X80775665Y-54813476D02*
G75*
G02*
X80775684Y-55152906I-169665J-169724D01*
G01*
X81864608Y-55619576D02*
G75*
G02*
X81864621Y-55761011I-70708J-70724D01*
G01*
X73640000Y-53440000D02*
G75*
G02*
X73880000Y-53200000I240000J0D01*
G01*
X81256494Y-56369108D02*
G75*
G03*
X81256507Y-56708505I169706J-169692D01*
G01*
X80407969Y-55520582D02*
G75*
G03*
X80407956Y-55860005I169731J-169718D01*
G01*
X72440000Y-53440000D02*
G75*
G02*
X72680000Y-53200000I240000J0D01*
G01*
X81440342Y-55336732D02*
G75*
G02*
X81581813Y-55336687I70758J-70768D01*
G01*
X82896980Y-57274201D02*
G75*
G02*
X83236391Y-57274200I169706J-169707D01*
G01*
X80492821Y-55944845D02*
G75*
G03*
X80832233Y-55944845I169706J169704D01*
G01*
X71840000Y-53941005D02*
G75*
G03*
X72080000Y-54181000I240000J5D01*
G01*
X72800000Y-53200000D02*
G75*
G02*
X73040000Y-53440000I0J-240000D01*
G01*
X82713134Y-56468102D02*
G75*
G02*
X82713121Y-56609511I-70734J-70698D01*
G01*
X73040000Y-53941005D02*
G75*
G03*
X73280000Y-54181000I240000J5D01*
G01*
X82352508Y-56970146D02*
G75*
G03*
X82352460Y-57309606I169692J-169754D01*
G01*
X71600000Y-53200000D02*
G75*
G02*
X71840000Y-53440000I0J-240000D01*
G01*
X72200000Y-54181005D02*
G75*
G03*
X72440005Y-53941005I0J240005D01*
G01*
X81341346Y-56793371D02*
G75*
G03*
X81680758Y-56793371I169706J169704D01*
G01*
X82288868Y-56185258D02*
G75*
G02*
X82430313Y-56185239I70732J-70742D01*
G01*
X73400000Y-54181005D02*
G75*
G03*
X73640005Y-53941005I0J240005D01*
G01*
%TO.N,PWR_EN*%
X98997000Y-66703000D02*
X90300000Y-66703000D01*
X80597000Y-66703000D02*
X80200000Y-67100000D01*
X80200000Y-67100000D02*
X72300000Y-67100000D01*
X70900000Y-68500000D02*
X66500000Y-72900000D01*
X90300000Y-66703000D02*
X80597000Y-66703000D01*
X100800000Y-64900000D02*
X98997000Y-66703000D01*
X72300000Y-67100000D02*
X70900000Y-68500000D01*
X66500000Y-72900000D02*
X66500000Y-77000000D01*
%TO.N,PWR_GOOD*%
X94200000Y-67500000D02*
X72467100Y-67500000D01*
X72467100Y-67500000D02*
X70433550Y-69533550D01*
X99000000Y-67500000D02*
X94200000Y-67500000D01*
X67900000Y-72067100D02*
X67900000Y-77100000D01*
X68400000Y-77600000D02*
X68600000Y-77600000D01*
X101600000Y-64900000D02*
X99000000Y-67500000D01*
X70433550Y-69533550D02*
X68083550Y-71883550D01*
X67900000Y-77100000D02*
X68400000Y-77600000D01*
X68083550Y-71883550D02*
X67900000Y-72067100D01*
%TO.N,PEX_TX5N*%
X79100000Y-55437811D02*
X79100000Y-55400000D01*
X77400000Y-55400000D02*
X76000000Y-55400000D01*
X77400000Y-55400000D02*
X77062189Y-55400000D01*
X79100000Y-55400000D02*
X77400000Y-55400000D01*
X82062189Y-58400000D02*
X79100000Y-55437811D01*
X86200000Y-61500000D02*
X83100000Y-58400000D01*
X83100000Y-58400000D02*
X82600000Y-58400000D01*
X82600000Y-58400000D02*
X82062189Y-58400000D01*
X76000000Y-55400000D02*
X74900000Y-54300000D01*
%TO.N,PEX_TX5P*%
X82933900Y-58801000D02*
X85116450Y-60983550D01*
X78896089Y-55801000D02*
X79173883Y-56078794D01*
X81896089Y-58801000D02*
X82933900Y-58801000D01*
X79173883Y-56418205D02*
X79100544Y-56491543D01*
X79937558Y-56842468D02*
X80022411Y-56927322D01*
X75701000Y-55801000D02*
X78896089Y-55801000D01*
X85116450Y-61216450D02*
X85900000Y-62000000D01*
X79524808Y-56915807D02*
X79598146Y-56842468D01*
X80022411Y-56927322D02*
X80371924Y-57276835D01*
X74800000Y-54900000D02*
X75701000Y-55801000D01*
X80371924Y-57276835D02*
X81896089Y-58801000D01*
X79100544Y-56830955D02*
X79185396Y-56915807D01*
X85116450Y-60983550D02*
X85116450Y-61216450D01*
X79598146Y-56842468D02*
G75*
G02*
X79937558Y-56842468I169706J-169704D01*
G01*
X79173883Y-56078794D02*
G75*
G02*
X79173884Y-56418206I-169683J-169706D01*
G01*
X79185396Y-56915807D02*
G75*
G03*
X79524808Y-56915807I169706J169704D01*
G01*
X79100544Y-56491543D02*
G75*
G03*
X79100593Y-56830906I169656J-169657D01*
G01*
%TO.N,PEX_TX4P*%
X88637811Y-61800000D02*
X86468905Y-59631094D01*
X80036811Y-52799000D02*
X78700000Y-52799000D01*
X81851000Y-54613189D02*
X80036811Y-52799000D01*
X78700000Y-52799000D02*
X70501000Y-52799000D01*
X86468905Y-59631094D02*
X81851000Y-55013189D01*
X81851000Y-55013189D02*
X81851000Y-54613189D01*
X70501000Y-52799000D02*
X70000000Y-53300000D01*
X92500000Y-61800000D02*
X88637811Y-61800000D01*
%TO.N,Net-(U2-ID1)*%
X91700000Y-77500000D02*
X92500000Y-78300000D01*
X86200000Y-77500000D02*
X91700000Y-77500000D01*
%TO.N,PEX_CLK_REQ-*%
X80250000Y-60850000D02*
X78600000Y-59200000D01*
X78600000Y-59200000D02*
X63500000Y-59200000D01*
X80351000Y-60850000D02*
X80250000Y-60850000D01*
%TO.N,SMB_DAT*%
X53426380Y-77739000D02*
X52493690Y-76806310D01*
X43900000Y-67100000D02*
X43900000Y-67000000D01*
X56939000Y-77739000D02*
X53426380Y-77739000D01*
X65851000Y-79149000D02*
X65404000Y-79596000D01*
X65968253Y-74268253D02*
X65650000Y-73950000D01*
X65600000Y-75200000D02*
X65851000Y-75451000D01*
X65200000Y-66367100D02*
X66266100Y-65301000D01*
X93100000Y-65500000D02*
X94200000Y-65500000D01*
X58796000Y-79596000D02*
X57200000Y-78000000D01*
X65600000Y-75200000D02*
X65637811Y-75200000D01*
X65968253Y-74869559D02*
X65968253Y-74268253D01*
X52493690Y-76806310D02*
X43900000Y-68212620D01*
X64900000Y-79596000D02*
X59300000Y-79596000D01*
X65200000Y-73500000D02*
X65200000Y-66367100D01*
X92901000Y-65301000D02*
X93100000Y-65500000D01*
X59300000Y-79596000D02*
X58796000Y-79596000D01*
X66266100Y-65301000D02*
X92901000Y-65301000D01*
X65818906Y-75018906D02*
X65968253Y-74869559D01*
X94200000Y-65500000D02*
X94800000Y-64900000D01*
X65404000Y-79596000D02*
X64900000Y-79596000D01*
X57200000Y-78000000D02*
X56939000Y-77739000D01*
X65968253Y-74268253D02*
X65200000Y-73500000D01*
X43900000Y-68212620D02*
X43900000Y-67100000D01*
X65851000Y-77000000D02*
X65851000Y-79149000D01*
X65851000Y-75451000D02*
X65851000Y-77000000D01*
X65637811Y-75200000D02*
X65818906Y-75018906D01*
%TO.N,SMB_CLK*%
X66100000Y-64900000D02*
X93300000Y-64900000D01*
X46100000Y-65700000D02*
X46200000Y-65700000D01*
X57105100Y-77338000D02*
X53592480Y-77338000D01*
X44400000Y-67400000D02*
X46100000Y-65700000D01*
X64949000Y-75213189D02*
X64949000Y-77649000D01*
X44400000Y-68145520D02*
X44400000Y-67400000D01*
X65000000Y-77700000D02*
X65000000Y-78500000D01*
X65517253Y-74517253D02*
X64800000Y-73800000D01*
X58962100Y-79195000D02*
X57105100Y-77338000D01*
X64949000Y-77649000D02*
X65000000Y-77700000D01*
X64800000Y-73800000D02*
X64800000Y-66200000D01*
X65517253Y-74625154D02*
X65517253Y-74644936D01*
X64800000Y-66200000D02*
X66100000Y-64900000D01*
X65517253Y-74625154D02*
X65517253Y-74517253D01*
X64305000Y-79195000D02*
X58962100Y-79195000D01*
X65517253Y-74644936D02*
X64949000Y-75213189D01*
X65000000Y-78500000D02*
X64305000Y-79195000D01*
X53592480Y-77338000D02*
X44400000Y-68145520D01*
%TO.N,TH_OVERT*%
X100600000Y-68300000D02*
X92500000Y-68300000D01*
X92500000Y-68300000D02*
X91500000Y-69300000D01*
%TO.N,TH_ALERT*%
X79399000Y-65901000D02*
X96899000Y-65901000D01*
X96899000Y-65901000D02*
X97900000Y-64900000D01*
X78900000Y-66400000D02*
X79399000Y-65901000D01*
X78900000Y-66600000D02*
X78900000Y-66400000D01*
%TO.N,PWR_LEVEL*%
X79898000Y-66302000D02*
X98098000Y-66302000D01*
X79700000Y-66500000D02*
X79898000Y-66302000D01*
X98098000Y-66302000D02*
X99500000Y-64900000D01*
%TO.N,PEX_RST*%
X77700000Y-60100000D02*
X62100000Y-60100000D01*
X62100000Y-60100000D02*
X60100000Y-58100000D01*
%TO.N,Net-(J1-PEX_RST#)*%
X60800000Y-57700000D02*
X62000000Y-58900000D01*
X60800000Y-54800000D02*
X60800000Y-57700000D01*
D12*
%TO.N,+3.3V*%
X46800000Y-40200000D02*
X44300000Y-37700000D01*
X33800000Y-28700000D02*
X27200000Y-35300000D01*
X40500000Y-28700000D02*
X33800000Y-28700000D01*
X101600000Y-40200000D02*
X46800000Y-40200000D01*
X102600000Y-41200000D02*
X101600000Y-40200000D01*
X44300000Y-32500000D02*
X40500000Y-28700000D01*
X27200000Y-35300000D02*
X27200000Y-39600000D01*
X105100000Y-57300000D02*
X102600000Y-54800000D01*
X44300000Y-37700000D02*
X44300000Y-32500000D01*
X102600000Y-54800000D02*
X102600000Y-41200000D01*
D10*
%TO.N,Net-(U2-DDS_CLK)*%
X55100000Y-69200000D02*
X50700000Y-69200000D01*
%TO.N,Net-(U2-GPIO2_EC)*%
X83800000Y-71300000D02*
X83700000Y-71400000D01*
X93100000Y-71300000D02*
X83800000Y-71300000D01*
D13*
%TO.N,+5V*%
X61100000Y-41700000D02*
X100500000Y-41700000D01*
X57800000Y-45000000D02*
X61100000Y-41700000D01*
X55100000Y-76100000D02*
X55167100Y-76100000D01*
X56100000Y-72100000D02*
X56100000Y-71800000D01*
X101000000Y-41700000D02*
X101500000Y-41700000D01*
X101500000Y-41700000D02*
X101600000Y-41700000D01*
X56100000Y-63400000D02*
X56100000Y-61900000D01*
X55167100Y-76100000D02*
X56100000Y-75167100D01*
X56100000Y-75167100D02*
X56100000Y-72100000D01*
X56100000Y-46700000D02*
X57800000Y-45000000D01*
X56100000Y-63400000D02*
X56100000Y-46700000D01*
X56100000Y-72100000D02*
X56100000Y-63400000D01*
X100500000Y-41700000D02*
X101000000Y-41700000D01*
%TD*%
%TA.AperFunction,Conductor*%
%TO.N,GND*%
G36*
X128558691Y-17319407D02*
G01*
X128594655Y-17368907D01*
X128599500Y-17399500D01*
X128599500Y-81401000D01*
X128580593Y-81459191D01*
X128531093Y-81495155D01*
X128500500Y-81500000D01*
X80634689Y-81500000D01*
X80576498Y-81481093D01*
X80540534Y-81431593D01*
X80540534Y-81370407D01*
X80564683Y-81330998D01*
X83047409Y-78848273D01*
X83799500Y-78848273D01*
X83799500Y-78953727D01*
X83826526Y-79054589D01*
X83826794Y-79055589D01*
X83826794Y-79055590D01*
X83879518Y-79146910D01*
X83879520Y-79146913D01*
X83954087Y-79221480D01*
X84045413Y-79274207D01*
X84147273Y-79301500D01*
X84147275Y-79301500D01*
X84252725Y-79301500D01*
X84252727Y-79301500D01*
X84354587Y-79274207D01*
X84445913Y-79221480D01*
X84520480Y-79146913D01*
X84573207Y-79055587D01*
X84600500Y-78953727D01*
X84600500Y-78848273D01*
X84599818Y-78845728D01*
X84599916Y-78843844D01*
X84599653Y-78841841D01*
X84600024Y-78841792D01*
X84603018Y-78784628D01*
X84641522Y-78737077D01*
X84700622Y-78721240D01*
X84721062Y-78724476D01*
X84747273Y-78731500D01*
X84747274Y-78731500D01*
X84852725Y-78731500D01*
X84852727Y-78731500D01*
X84954587Y-78704207D01*
X85045913Y-78651480D01*
X85120480Y-78576913D01*
X85173207Y-78485587D01*
X85200500Y-78383727D01*
X85200500Y-78278273D01*
X85173207Y-78176413D01*
X85155307Y-78145410D01*
X85120481Y-78085089D01*
X85120480Y-78085087D01*
X85045913Y-78010520D01*
X85003964Y-77986301D01*
X84954589Y-77957794D01*
X84954588Y-77957793D01*
X84954587Y-77957793D01*
X84852727Y-77930500D01*
X84747273Y-77930500D01*
X84645413Y-77957793D01*
X84645412Y-77957793D01*
X84645410Y-77957794D01*
X84645409Y-77957794D01*
X84554089Y-78010518D01*
X84479518Y-78085089D01*
X84426794Y-78176409D01*
X84426794Y-78176410D01*
X84426793Y-78176412D01*
X84426793Y-78176413D01*
X84407138Y-78249770D01*
X84399500Y-78278274D01*
X84399500Y-78383727D01*
X84400183Y-78386276D01*
X84400084Y-78388162D01*
X84400347Y-78390159D01*
X84399976Y-78390207D01*
X84396978Y-78447378D01*
X84358470Y-78494926D01*
X84299369Y-78510759D01*
X84278936Y-78507522D01*
X84252727Y-78500500D01*
X84147273Y-78500500D01*
X84045413Y-78527793D01*
X84045412Y-78527793D01*
X84045410Y-78527794D01*
X84045409Y-78527794D01*
X83954089Y-78580518D01*
X83879518Y-78655089D01*
X83826794Y-78746409D01*
X83826794Y-78746410D01*
X83826793Y-78746412D01*
X83826793Y-78746413D01*
X83799500Y-78848273D01*
X83047409Y-78848273D01*
X84680470Y-77215212D01*
X84726614Y-77135288D01*
X84736203Y-77099500D01*
X84750197Y-77047273D01*
X85399500Y-77047273D01*
X85399500Y-77152727D01*
X85424469Y-77245913D01*
X85426794Y-77254589D01*
X85426794Y-77254590D01*
X85479518Y-77345910D01*
X85479520Y-77345913D01*
X85554087Y-77420480D01*
X85578313Y-77434467D01*
X85645409Y-77473205D01*
X85645410Y-77473205D01*
X85645413Y-77473207D01*
X85733254Y-77496743D01*
X85784567Y-77530065D01*
X85803255Y-77566743D01*
X85826793Y-77654587D01*
X85826794Y-77654589D01*
X85826794Y-77654590D01*
X85879518Y-77745910D01*
X85879520Y-77745913D01*
X85954087Y-77820480D01*
X86045413Y-77873207D01*
X86147273Y-77900500D01*
X86147275Y-77900500D01*
X86252725Y-77900500D01*
X86252727Y-77900500D01*
X86354587Y-77873207D01*
X86370945Y-77863763D01*
X86420444Y-77850500D01*
X91513810Y-77850500D01*
X91572001Y-77869407D01*
X91583814Y-77879496D01*
X92096282Y-78391964D01*
X92121904Y-78436343D01*
X92126793Y-78454587D01*
X92126794Y-78454590D01*
X92179231Y-78545413D01*
X92179520Y-78545913D01*
X92254087Y-78620480D01*
X92345413Y-78673207D01*
X92447273Y-78700500D01*
X92447275Y-78700500D01*
X92552725Y-78700500D01*
X92552727Y-78700500D01*
X92654587Y-78673207D01*
X92745913Y-78620480D01*
X92820480Y-78545913D01*
X92873207Y-78454587D01*
X92900500Y-78352727D01*
X92900500Y-78247273D01*
X92873207Y-78145413D01*
X92872134Y-78143555D01*
X92828432Y-78067861D01*
X92820480Y-78054087D01*
X92745913Y-77979520D01*
X92715050Y-77961701D01*
X92654590Y-77926794D01*
X92654587Y-77926793D01*
X92636343Y-77921904D01*
X92591964Y-77896282D01*
X92260394Y-77564712D01*
X91915212Y-77219530D01*
X91835288Y-77173386D01*
X91746144Y-77149500D01*
X91746142Y-77149500D01*
X86420444Y-77149500D01*
X86389020Y-77144380D01*
X86379570Y-77141216D01*
X86354587Y-77126793D01*
X86263819Y-77102472D01*
X86260945Y-77101510D01*
X86238677Y-77085028D01*
X86215432Y-77069933D01*
X86213706Y-77066547D01*
X86211765Y-77065110D01*
X86209803Y-77058886D01*
X86196744Y-77033256D01*
X86173207Y-76945413D01*
X86163902Y-76929297D01*
X86120481Y-76854089D01*
X86120480Y-76854087D01*
X86072915Y-76806522D01*
X86045140Y-76752008D01*
X86054711Y-76691576D01*
X86093420Y-76650786D01*
X86145913Y-76620480D01*
X86220480Y-76545913D01*
X86273207Y-76454587D01*
X86300500Y-76352727D01*
X86300500Y-76247273D01*
X86273207Y-76145413D01*
X86259472Y-76121624D01*
X86220481Y-76054089D01*
X86220480Y-76054087D01*
X86145913Y-75979520D01*
X86134975Y-75973205D01*
X86054589Y-75926794D01*
X86054588Y-75926793D01*
X86054587Y-75926793D01*
X85952727Y-75899500D01*
X85847273Y-75899500D01*
X85745413Y-75926793D01*
X85745412Y-75926793D01*
X85745410Y-75926794D01*
X85745409Y-75926794D01*
X85654089Y-75979518D01*
X85579518Y-76054089D01*
X85526794Y-76145409D01*
X85526794Y-76145410D01*
X85526793Y-76145412D01*
X85526793Y-76145413D01*
X85499500Y-76247273D01*
X85499500Y-76352727D01*
X85522353Y-76438015D01*
X85526794Y-76454589D01*
X85526794Y-76454590D01*
X85579518Y-76545910D01*
X85579520Y-76545913D01*
X85627083Y-76593476D01*
X85654859Y-76647991D01*
X85645288Y-76708423D01*
X85606578Y-76749214D01*
X85554089Y-76779518D01*
X85479518Y-76854089D01*
X85426794Y-76945409D01*
X85426794Y-76945410D01*
X85426793Y-76945412D01*
X85426793Y-76945413D01*
X85399500Y-77047273D01*
X84750197Y-77047273D01*
X84750500Y-77046144D01*
X84750500Y-74253856D01*
X84726614Y-74164712D01*
X84718409Y-74150500D01*
X84680470Y-74084788D01*
X84264212Y-73668530D01*
X84184288Y-73622386D01*
X84095144Y-73598500D01*
X83504856Y-73598500D01*
X83415712Y-73622386D01*
X83415711Y-73622386D01*
X83415709Y-73622387D01*
X83335790Y-73668529D01*
X82819529Y-74184789D01*
X82784932Y-74244711D01*
X82784933Y-74244712D01*
X82773386Y-74264710D01*
X82749500Y-74353857D01*
X82749500Y-74450889D01*
X82730593Y-74509080D01*
X82681093Y-74545044D01*
X82650500Y-74549889D01*
X82646194Y-74549889D01*
X82540740Y-74549889D01*
X82438880Y-74577182D01*
X82438879Y-74577182D01*
X82438877Y-74577183D01*
X82438876Y-74577183D01*
X82347556Y-74629907D01*
X82272985Y-74704478D01*
X82220261Y-74795798D01*
X82220261Y-74795799D01*
X82220260Y-74795801D01*
X82220260Y-74795802D01*
X82192967Y-74897662D01*
X82192967Y-75003116D01*
X82220260Y-75104975D01*
X82220261Y-75104978D01*
X82220261Y-75104979D01*
X82272988Y-75196304D01*
X82276938Y-75201452D01*
X82275471Y-75202577D01*
X82299309Y-75249363D01*
X82297155Y-75290472D01*
X82278826Y-75358879D01*
X82270035Y-75391689D01*
X82270035Y-75497143D01*
X82297328Y-75599003D01*
X82297329Y-75599005D01*
X82297329Y-75599006D01*
X82332796Y-75660436D01*
X82350055Y-75690329D01*
X82424622Y-75764896D01*
X82515948Y-75817623D01*
X82617808Y-75844916D01*
X82617810Y-75844916D01*
X82723260Y-75844916D01*
X82723262Y-75844916D01*
X82825122Y-75817623D01*
X82916448Y-75764896D01*
X82991015Y-75690329D01*
X83043742Y-75599003D01*
X83071035Y-75497143D01*
X83071035Y-75391689D01*
X83043742Y-75289829D01*
X83020168Y-75248998D01*
X83007448Y-75189151D01*
X83032335Y-75133256D01*
X83085323Y-75102663D01*
X83105906Y-75100500D01*
X83152725Y-75100500D01*
X83152727Y-75100500D01*
X83254587Y-75073207D01*
X83301001Y-75046409D01*
X83360847Y-75033688D01*
X83416743Y-75058574D01*
X83447336Y-75111562D01*
X83449500Y-75132146D01*
X83449500Y-76051620D01*
X83430593Y-76109811D01*
X83420504Y-76121624D01*
X81524264Y-78017864D01*
X81469747Y-78045641D01*
X81409315Y-78036070D01*
X81384259Y-78017866D01*
X81345913Y-77979520D01*
X81315044Y-77961698D01*
X81254589Y-77926794D01*
X81254588Y-77926793D01*
X81254587Y-77926793D01*
X81152727Y-77899500D01*
X81047273Y-77899500D01*
X80945413Y-77926793D01*
X80945412Y-77926793D01*
X80945410Y-77926794D01*
X80945409Y-77926794D01*
X80854089Y-77979518D01*
X80779518Y-78054089D01*
X80726794Y-78145409D01*
X80726794Y-78145410D01*
X80726793Y-78145412D01*
X80726793Y-78145413D01*
X80699500Y-78247273D01*
X80699500Y-78352727D01*
X80726295Y-78452727D01*
X80726794Y-78454589D01*
X80726794Y-78454590D01*
X80779231Y-78545413D01*
X80779520Y-78545913D01*
X80817865Y-78584258D01*
X80845641Y-78638773D01*
X80836070Y-78699205D01*
X80817863Y-78724264D01*
X80351919Y-79190207D01*
X80297403Y-79217984D01*
X80236971Y-79208413D01*
X80193706Y-79165148D01*
X80184135Y-79104716D01*
X80190449Y-79082324D01*
X80233973Y-78977251D01*
X80270500Y-78793616D01*
X80270500Y-78606384D01*
X80233973Y-78422749D01*
X80162322Y-78249769D01*
X80162320Y-78249767D01*
X80162318Y-78249761D01*
X80098389Y-78154087D01*
X80058302Y-78094092D01*
X79925908Y-77961698D01*
X79914436Y-77954032D01*
X79876558Y-77905985D01*
X79874156Y-77844847D01*
X79908148Y-77793973D01*
X79943817Y-77776092D01*
X79954587Y-77773207D01*
X80045913Y-77720480D01*
X80120480Y-77645913D01*
X80173207Y-77554587D01*
X80200500Y-77452727D01*
X80200500Y-77347273D01*
X80173207Y-77245413D01*
X80167361Y-77235288D01*
X80120481Y-77154089D01*
X80120480Y-77154087D01*
X80045913Y-77079520D01*
X80020954Y-77065110D01*
X79954589Y-77026794D01*
X79954588Y-77026793D01*
X79954587Y-77026793D01*
X79852727Y-76999500D01*
X79747273Y-76999500D01*
X79645413Y-77026793D01*
X79645412Y-77026793D01*
X79645410Y-77026794D01*
X79645409Y-77026794D01*
X79554089Y-77079518D01*
X79479518Y-77154089D01*
X79426794Y-77245409D01*
X79426794Y-77245410D01*
X79426793Y-77245412D01*
X79426793Y-77245413D01*
X79399500Y-77347273D01*
X79399500Y-77452727D01*
X79426793Y-77554587D01*
X79453590Y-77601000D01*
X79466311Y-77660849D01*
X79441424Y-77716744D01*
X79388436Y-77747337D01*
X79367853Y-77749500D01*
X79226381Y-77749500D01*
X79042750Y-77786026D01*
X78869770Y-77857677D01*
X78869761Y-77857681D01*
X78714092Y-77961698D01*
X78714088Y-77961701D01*
X78581701Y-78094088D01*
X78581698Y-78094092D01*
X78477681Y-78249761D01*
X78477677Y-78249770D01*
X78406026Y-78422750D01*
X78369500Y-78606381D01*
X78369500Y-78793618D01*
X78406026Y-78977249D01*
X78477677Y-79150229D01*
X78477681Y-79150238D01*
X78550616Y-79259390D01*
X78581698Y-79305908D01*
X78714092Y-79438302D01*
X78772750Y-79477496D01*
X78869761Y-79542318D01*
X78869767Y-79542320D01*
X78869769Y-79542322D01*
X79042749Y-79613973D01*
X79226384Y-79650500D01*
X79226385Y-79650500D01*
X79413615Y-79650500D01*
X79413616Y-79650500D01*
X79597251Y-79613973D01*
X79702320Y-79570451D01*
X79763314Y-79565651D01*
X79815483Y-79597620D01*
X79838898Y-79654148D01*
X79824615Y-79713643D01*
X79810207Y-79731920D01*
X79122624Y-80419504D01*
X79068107Y-80447281D01*
X79052620Y-80448500D01*
X72686190Y-80448500D01*
X72627999Y-80429593D01*
X72592035Y-80380093D01*
X72592035Y-80318907D01*
X72616186Y-80279497D01*
X73591963Y-79303718D01*
X73636345Y-79278094D01*
X73654587Y-79273207D01*
X73745913Y-79220480D01*
X73820480Y-79145913D01*
X73873207Y-79054587D01*
X73900500Y-78952727D01*
X73900500Y-78847273D01*
X73873207Y-78745413D01*
X73870922Y-78741456D01*
X73831518Y-78673205D01*
X73820480Y-78654087D01*
X73745913Y-78579520D01*
X73741392Y-78576910D01*
X73654589Y-78526794D01*
X73654588Y-78526793D01*
X73654587Y-78526793D01*
X73552727Y-78499500D01*
X73447273Y-78499500D01*
X73447270Y-78499500D01*
X73425121Y-78505435D01*
X73364020Y-78502232D01*
X73316471Y-78463726D01*
X73300500Y-78409808D01*
X73300500Y-78347274D01*
X73300500Y-78347273D01*
X73273207Y-78245413D01*
X73220480Y-78154087D01*
X73145913Y-78079520D01*
X73145910Y-78079518D01*
X73119744Y-78064411D01*
X73078803Y-78018942D01*
X73072407Y-77958091D01*
X73073605Y-77953098D01*
X73100500Y-77852727D01*
X73100500Y-77747273D01*
X73073207Y-77645413D01*
X73020480Y-77554087D01*
X73020479Y-77554086D01*
X73018242Y-77550211D01*
X73005520Y-77490363D01*
X73030406Y-77434467D01*
X73043716Y-77422165D01*
X73045904Y-77420484D01*
X73045913Y-77420480D01*
X73120480Y-77345913D01*
X73173207Y-77254587D01*
X73200500Y-77152727D01*
X73200500Y-77047273D01*
X73173207Y-76945413D01*
X73163902Y-76929297D01*
X73120481Y-76854089D01*
X73120480Y-76854087D01*
X73045913Y-76779520D01*
X72993418Y-76749212D01*
X72952480Y-76703745D01*
X72946084Y-76642895D01*
X72972916Y-76593476D01*
X73020480Y-76545913D01*
X73073207Y-76454587D01*
X73100500Y-76352727D01*
X73100500Y-76247273D01*
X73073207Y-76145413D01*
X73059472Y-76121624D01*
X73020481Y-76054089D01*
X73020480Y-76054087D01*
X72945913Y-75979520D01*
X72934975Y-75973205D01*
X72854589Y-75926794D01*
X72854588Y-75926793D01*
X72854587Y-75926793D01*
X72752727Y-75899500D01*
X72647273Y-75899500D01*
X72545413Y-75926793D01*
X72545412Y-75926793D01*
X72545410Y-75926794D01*
X72545409Y-75926794D01*
X72454089Y-75979518D01*
X72379518Y-76054089D01*
X72326794Y-76145409D01*
X72326794Y-76145410D01*
X72326793Y-76145412D01*
X72326793Y-76145413D01*
X72299500Y-76247273D01*
X72299500Y-76352727D01*
X72322353Y-76438015D01*
X72326794Y-76454589D01*
X72326794Y-76454590D01*
X72379518Y-76545910D01*
X72379520Y-76545913D01*
X72454087Y-76620480D01*
X72506578Y-76650786D01*
X72547519Y-76696253D01*
X72553915Y-76757103D01*
X72527082Y-76806524D01*
X72479519Y-76854087D01*
X72426794Y-76945409D01*
X72426794Y-76945410D01*
X72426793Y-76945412D01*
X72426793Y-76945413D01*
X72399500Y-77047273D01*
X72399500Y-77152727D01*
X72426793Y-77254587D01*
X72479520Y-77345913D01*
X72479521Y-77345914D01*
X72481758Y-77349788D01*
X72494479Y-77409636D01*
X72469592Y-77465532D01*
X72456295Y-77477825D01*
X72454093Y-77479514D01*
X72379518Y-77554089D01*
X72326794Y-77645409D01*
X72326794Y-77645410D01*
X72326793Y-77645412D01*
X72326793Y-77645413D01*
X72299500Y-77747273D01*
X72299500Y-77852727D01*
X72326793Y-77954587D01*
X72326794Y-77954589D01*
X72326794Y-77954590D01*
X72367587Y-78025245D01*
X72379520Y-78045913D01*
X72454087Y-78120480D01*
X72480257Y-78135589D01*
X72521196Y-78181057D01*
X72527592Y-78241907D01*
X72526382Y-78246946D01*
X72504987Y-78326794D01*
X72499500Y-78347273D01*
X72499500Y-78452727D01*
X72526412Y-78553165D01*
X72526794Y-78554590D01*
X72536235Y-78570941D01*
X72549500Y-78620443D01*
X72549500Y-78675999D01*
X72530593Y-78734190D01*
X72520504Y-78746003D01*
X71649003Y-79617504D01*
X71594486Y-79645281D01*
X71578999Y-79646500D01*
X69862097Y-79646500D01*
X69803906Y-79627593D01*
X69767942Y-79578093D01*
X69767942Y-79516907D01*
X69785564Y-79484701D01*
X69787132Y-79482788D01*
X69787139Y-79482782D01*
X69896632Y-79318914D01*
X69972051Y-79136835D01*
X70010500Y-78943541D01*
X70010500Y-78746459D01*
X69972051Y-78553165D01*
X69896632Y-78371086D01*
X69787139Y-78207218D01*
X69647782Y-78067861D01*
X69506122Y-77973207D01*
X69483913Y-77958367D01*
X69301835Y-77882949D01*
X69108543Y-77844500D01*
X69108541Y-77844500D01*
X69078134Y-77844500D01*
X69019943Y-77825593D01*
X68983979Y-77776093D01*
X68982507Y-77719877D01*
X69000500Y-77652727D01*
X69000500Y-77547273D01*
X68973207Y-77445413D01*
X68966887Y-77434467D01*
X68920481Y-77354089D01*
X68920480Y-77354087D01*
X68845913Y-77279520D01*
X68825774Y-77267893D01*
X68754589Y-77226794D01*
X68754588Y-77226793D01*
X68754587Y-77226793D01*
X68652727Y-77199500D01*
X68547273Y-77199500D01*
X68540784Y-77199500D01*
X68540784Y-77197547D01*
X68489475Y-77188031D01*
X68466720Y-77171038D01*
X68279496Y-76983814D01*
X68251719Y-76929297D01*
X68250500Y-76913810D01*
X68250500Y-75547273D01*
X68799500Y-75547273D01*
X68799500Y-75652727D01*
X68819298Y-75726614D01*
X68826794Y-75754589D01*
X68826794Y-75754590D01*
X68878944Y-75844916D01*
X68879520Y-75845913D01*
X68954087Y-75920480D01*
X69045413Y-75973207D01*
X69147273Y-76000500D01*
X69147275Y-76000500D01*
X69252725Y-76000500D01*
X69252727Y-76000500D01*
X69354587Y-75973207D01*
X69445913Y-75920480D01*
X69520480Y-75845913D01*
X69573207Y-75754587D01*
X69600500Y-75652727D01*
X69600500Y-75547273D01*
X69573207Y-75445413D01*
X69545477Y-75397384D01*
X69520481Y-75354089D01*
X69520480Y-75354087D01*
X69445913Y-75279520D01*
X69424255Y-75267016D01*
X69354589Y-75226794D01*
X69354588Y-75226793D01*
X69354587Y-75226793D01*
X69252727Y-75199500D01*
X69147273Y-75199500D01*
X69045413Y-75226793D01*
X69045412Y-75226793D01*
X69045410Y-75226794D01*
X69045409Y-75226794D01*
X68954089Y-75279518D01*
X68879518Y-75354089D01*
X68826794Y-75445409D01*
X68826794Y-75445410D01*
X68826793Y-75445412D01*
X68826793Y-75445413D01*
X68799500Y-75547273D01*
X68250500Y-75547273D01*
X68250500Y-74327273D01*
X74841759Y-74327273D01*
X74841759Y-74432727D01*
X74869052Y-74534587D01*
X74869053Y-74534589D01*
X74869053Y-74534590D01*
X74921780Y-74625915D01*
X74925730Y-74631063D01*
X74923533Y-74632748D01*
X74946031Y-74676904D01*
X74936460Y-74737336D01*
X74933996Y-74741872D01*
X74885765Y-74825413D01*
X74858472Y-74927273D01*
X74858472Y-75032727D01*
X74885765Y-75134587D01*
X74885766Y-75134589D01*
X74885766Y-75134590D01*
X74938490Y-75225910D01*
X74938492Y-75225913D01*
X75013059Y-75300480D01*
X75104385Y-75353207D01*
X75206245Y-75380500D01*
X75206247Y-75380500D01*
X75311697Y-75380500D01*
X75311699Y-75380500D01*
X75404344Y-75355676D01*
X75465444Y-75358879D01*
X75512993Y-75397384D01*
X75528965Y-75451303D01*
X75528965Y-75497143D01*
X75556258Y-75599003D01*
X75556259Y-75599005D01*
X75556259Y-75599006D01*
X75591726Y-75660436D01*
X75608985Y-75690329D01*
X75683552Y-75764896D01*
X75774878Y-75817623D01*
X75876738Y-75844916D01*
X75876740Y-75844916D01*
X75982190Y-75844916D01*
X75982192Y-75844916D01*
X76084052Y-75817623D01*
X76175378Y-75764896D01*
X76249945Y-75690329D01*
X76302672Y-75599003D01*
X76329965Y-75497143D01*
X76329965Y-75391689D01*
X76302844Y-75290471D01*
X76306047Y-75229371D01*
X76323811Y-75202021D01*
X76323064Y-75201448D01*
X76327007Y-75196307D01*
X76327013Y-75196302D01*
X76379740Y-75104976D01*
X76407033Y-75003116D01*
X76407033Y-74897662D01*
X76379740Y-74795802D01*
X76327013Y-74704476D01*
X76252446Y-74629909D01*
X76247395Y-74626993D01*
X76161122Y-74577183D01*
X76161121Y-74577182D01*
X76161120Y-74577182D01*
X76059260Y-74549889D01*
X75953806Y-74549889D01*
X75909211Y-74561838D01*
X75851944Y-74577182D01*
X75765669Y-74626993D01*
X75748274Y-74630690D01*
X75732500Y-74638900D01*
X75719087Y-74636894D01*
X75705821Y-74639714D01*
X75689573Y-74632480D01*
X75671988Y-74629850D01*
X75662316Y-74620344D01*
X75649925Y-74614827D01*
X75641032Y-74599424D01*
X75628352Y-74586961D01*
X75627068Y-74575237D01*
X75619333Y-74561838D01*
X75618259Y-74526613D01*
X75619088Y-74521069D01*
X75642759Y-74432727D01*
X75642759Y-74374034D01*
X77719500Y-74374034D01*
X77719500Y-74625965D01*
X77758908Y-74874780D01*
X77836759Y-75114379D01*
X77941772Y-75320480D01*
X77951130Y-75338845D01*
X78099207Y-75542656D01*
X78277344Y-75720793D01*
X78481155Y-75868870D01*
X78705621Y-75983241D01*
X78945215Y-76061090D01*
X78945216Y-76061090D01*
X78945219Y-76061091D01*
X79194035Y-76100500D01*
X79194038Y-76100500D01*
X79445965Y-76100500D01*
X79694780Y-76061091D01*
X79694781Y-76061090D01*
X79694785Y-76061090D01*
X79934379Y-75983241D01*
X80158845Y-75868870D01*
X80362656Y-75720793D01*
X80540793Y-75542656D01*
X80688870Y-75338845D01*
X80803241Y-75114379D01*
X80881090Y-74874785D01*
X80893600Y-74795802D01*
X80920500Y-74625965D01*
X80920500Y-74374034D01*
X80881091Y-74125219D01*
X80881090Y-74125215D01*
X80803241Y-73885621D01*
X80688870Y-73661155D01*
X80540793Y-73457344D01*
X80362656Y-73279207D01*
X80177461Y-73144655D01*
X80158848Y-73131131D01*
X80158844Y-73131129D01*
X80040938Y-73071053D01*
X81375201Y-73071053D01*
X81375201Y-73176507D01*
X81399928Y-73268789D01*
X81402495Y-73278369D01*
X81402495Y-73278370D01*
X81455219Y-73369690D01*
X81455221Y-73369693D01*
X81529788Y-73444260D01*
X81540550Y-73450473D01*
X81581490Y-73495942D01*
X81590049Y-73536209D01*
X81590049Y-73536543D01*
X81590049Y-73641997D01*
X81598412Y-73673207D01*
X81617343Y-73743859D01*
X81617343Y-73743860D01*
X81670067Y-73835180D01*
X81670069Y-73835183D01*
X81744636Y-73909750D01*
X81835962Y-73962477D01*
X81937822Y-73989770D01*
X81937824Y-73989770D01*
X82043274Y-73989770D01*
X82043276Y-73989770D01*
X82145136Y-73962477D01*
X82236462Y-73909750D01*
X82311029Y-73835183D01*
X82363756Y-73743857D01*
X82391049Y-73641997D01*
X82391049Y-73536543D01*
X82363756Y-73434683D01*
X82344020Y-73400500D01*
X82311030Y-73343359D01*
X82311029Y-73343357D01*
X82236462Y-73268790D01*
X82236459Y-73268788D01*
X82225697Y-73262574D01*
X82184758Y-73217103D01*
X82176201Y-73176840D01*
X82176201Y-73071054D01*
X82176201Y-73071053D01*
X82148908Y-72969193D01*
X82140476Y-72954589D01*
X82100679Y-72885658D01*
X82096181Y-72877867D01*
X82021614Y-72803300D01*
X81999071Y-72790285D01*
X81930290Y-72750574D01*
X81930289Y-72750573D01*
X81930288Y-72750573D01*
X81828428Y-72723280D01*
X81722974Y-72723280D01*
X81621114Y-72750573D01*
X81621113Y-72750573D01*
X81621111Y-72750574D01*
X81621110Y-72750574D01*
X81529790Y-72803298D01*
X81455219Y-72877869D01*
X81402495Y-72969189D01*
X81402495Y-72969190D01*
X81402494Y-72969192D01*
X81402494Y-72969193D01*
X81375201Y-73071053D01*
X80040938Y-73071053D01*
X79934379Y-73016759D01*
X79694780Y-72938908D01*
X79445965Y-72899500D01*
X79445962Y-72899500D01*
X79194038Y-72899500D01*
X79194035Y-72899500D01*
X78945219Y-72938908D01*
X78705620Y-73016759D01*
X78481157Y-73131128D01*
X78277345Y-73279206D01*
X78099206Y-73457345D01*
X77951128Y-73661157D01*
X77836759Y-73885620D01*
X77758908Y-74125219D01*
X77719500Y-74374034D01*
X75642759Y-74374034D01*
X75642759Y-74327273D01*
X75615466Y-74225413D01*
X75562739Y-74134087D01*
X75488172Y-74059520D01*
X75411426Y-74015211D01*
X75396848Y-74006794D01*
X75396847Y-74006793D01*
X75396846Y-74006793D01*
X75294986Y-73979500D01*
X75189532Y-73979500D01*
X75087672Y-74006793D01*
X75087671Y-74006793D01*
X75087669Y-74006794D01*
X75087668Y-74006794D01*
X74996348Y-74059518D01*
X74921777Y-74134089D01*
X74869053Y-74225409D01*
X74869053Y-74225410D01*
X74869052Y-74225412D01*
X74869052Y-74225413D01*
X74841759Y-74327273D01*
X68250500Y-74327273D01*
X68250500Y-73536543D01*
X76208951Y-73536543D01*
X76208951Y-73641997D01*
X76217314Y-73673207D01*
X76236245Y-73743859D01*
X76236245Y-73743860D01*
X76288969Y-73835180D01*
X76288971Y-73835183D01*
X76363538Y-73909750D01*
X76454864Y-73962477D01*
X76556724Y-73989770D01*
X76556726Y-73989770D01*
X76662176Y-73989770D01*
X76662178Y-73989770D01*
X76764038Y-73962477D01*
X76855364Y-73909750D01*
X76929931Y-73835183D01*
X76982658Y-73743857D01*
X77009951Y-73641997D01*
X77009951Y-73536543D01*
X77009951Y-73536209D01*
X77028858Y-73478018D01*
X77059453Y-73450471D01*
X77070212Y-73444260D01*
X77144779Y-73369693D01*
X77197506Y-73278367D01*
X77224799Y-73176507D01*
X77224799Y-73071053D01*
X77197506Y-72969193D01*
X77189074Y-72954589D01*
X77149277Y-72885658D01*
X77144779Y-72877867D01*
X77070212Y-72803300D01*
X77047669Y-72790285D01*
X76978888Y-72750574D01*
X76978887Y-72750573D01*
X76978886Y-72750573D01*
X76877026Y-72723280D01*
X76771572Y-72723280D01*
X76669712Y-72750573D01*
X76669711Y-72750573D01*
X76669709Y-72750574D01*
X76669708Y-72750574D01*
X76578388Y-72803298D01*
X76503817Y-72877869D01*
X76451093Y-72969189D01*
X76451093Y-72969190D01*
X76451092Y-72969192D01*
X76451092Y-72969193D01*
X76428345Y-73054089D01*
X76423799Y-73071054D01*
X76423799Y-73176840D01*
X76404892Y-73235031D01*
X76374301Y-73262576D01*
X76363539Y-73268789D01*
X76288969Y-73343359D01*
X76236245Y-73434679D01*
X76236245Y-73434680D01*
X76236244Y-73434682D01*
X76236244Y-73434683D01*
X76208951Y-73536543D01*
X68250500Y-73536543D01*
X68250500Y-72947273D01*
X68699500Y-72947273D01*
X68699500Y-73052727D01*
X68724335Y-73145413D01*
X68726794Y-73154589D01*
X68726794Y-73154590D01*
X68779518Y-73245910D01*
X68779520Y-73245913D01*
X68854087Y-73320480D01*
X68945413Y-73373207D01*
X69047273Y-73400500D01*
X69047275Y-73400500D01*
X69152725Y-73400500D01*
X69152727Y-73400500D01*
X69254587Y-73373207D01*
X69345913Y-73320480D01*
X69420480Y-73245913D01*
X69473207Y-73154587D01*
X69500500Y-73052727D01*
X69500500Y-72947273D01*
X69490219Y-72908905D01*
X75242332Y-72908905D01*
X75242332Y-73014359D01*
X75269625Y-73116219D01*
X75269626Y-73116221D01*
X75269626Y-73116222D01*
X75322350Y-73207542D01*
X75322352Y-73207545D01*
X75396919Y-73282112D01*
X75488245Y-73334839D01*
X75590105Y-73362132D01*
X75590107Y-73362132D01*
X75695557Y-73362132D01*
X75695559Y-73362132D01*
X75797419Y-73334839D01*
X75888745Y-73282112D01*
X75963312Y-73207545D01*
X76016039Y-73116219D01*
X76043332Y-73014359D01*
X76043332Y-72987160D01*
X76062239Y-72928969D01*
X76111739Y-72893005D01*
X76116686Y-72891540D01*
X76138640Y-72885658D01*
X76229966Y-72832931D01*
X76304533Y-72758364D01*
X76357260Y-72667038D01*
X76384553Y-72565178D01*
X76384553Y-72459724D01*
X82215447Y-72459724D01*
X82215447Y-72565178D01*
X82235804Y-72641152D01*
X82242741Y-72667040D01*
X82242741Y-72667041D01*
X82292999Y-72754089D01*
X82295467Y-72758364D01*
X82370034Y-72832931D01*
X82461360Y-72885658D01*
X82483290Y-72891534D01*
X82534604Y-72924856D01*
X82556532Y-72981977D01*
X82556668Y-72987160D01*
X82556668Y-73014359D01*
X82583961Y-73116219D01*
X82583962Y-73116221D01*
X82583962Y-73116222D01*
X82636686Y-73207542D01*
X82636688Y-73207545D01*
X82711255Y-73282112D01*
X82802581Y-73334839D01*
X82904441Y-73362132D01*
X82904443Y-73362132D01*
X83009893Y-73362132D01*
X83009895Y-73362132D01*
X83111755Y-73334839D01*
X83203081Y-73282112D01*
X83277648Y-73207545D01*
X83330375Y-73116219D01*
X83357668Y-73014359D01*
X83357668Y-72908905D01*
X83330375Y-72807045D01*
X83295866Y-72747273D01*
X89299500Y-72747273D01*
X89299500Y-72852727D01*
X89324834Y-72947274D01*
X89326794Y-72954589D01*
X89326794Y-72954590D01*
X89361301Y-73014357D01*
X89379520Y-73045913D01*
X89454087Y-73120480D01*
X89545413Y-73173207D01*
X89647273Y-73200500D01*
X89647275Y-73200500D01*
X89752725Y-73200500D01*
X89752727Y-73200500D01*
X89854587Y-73173207D01*
X89945913Y-73120480D01*
X90020480Y-73045913D01*
X90073207Y-72954587D01*
X90100500Y-72852727D01*
X90100500Y-72747273D01*
X90073207Y-72645413D01*
X90062457Y-72626794D01*
X90020481Y-72554089D01*
X90020480Y-72554087D01*
X89945913Y-72479520D01*
X89911625Y-72459724D01*
X89854589Y-72426794D01*
X89854588Y-72426793D01*
X89854587Y-72426793D01*
X89752727Y-72399500D01*
X89647273Y-72399500D01*
X89545413Y-72426793D01*
X89545412Y-72426793D01*
X89545410Y-72426794D01*
X89545409Y-72426794D01*
X89454089Y-72479518D01*
X89379518Y-72554089D01*
X89326794Y-72645409D01*
X89326794Y-72645410D01*
X89326793Y-72645412D01*
X89326793Y-72645413D01*
X89299500Y-72747273D01*
X83295866Y-72747273D01*
X83277648Y-72715719D01*
X83203081Y-72641152D01*
X83203078Y-72641150D01*
X83111758Y-72588426D01*
X83111755Y-72588425D01*
X83105257Y-72586683D01*
X83089820Y-72582547D01*
X83038507Y-72549221D01*
X83016582Y-72492099D01*
X83016447Y-72486921D01*
X83016447Y-72459725D01*
X83016447Y-72459724D01*
X82989154Y-72357864D01*
X82982409Y-72346182D01*
X82936428Y-72266540D01*
X82936427Y-72266538D01*
X82861860Y-72191971D01*
X82846817Y-72183286D01*
X82770536Y-72139245D01*
X82770535Y-72139244D01*
X82770534Y-72139244D01*
X82668674Y-72111951D01*
X82563220Y-72111951D01*
X82461360Y-72139244D01*
X82461359Y-72139244D01*
X82461357Y-72139245D01*
X82461356Y-72139245D01*
X82370036Y-72191969D01*
X82295465Y-72266540D01*
X82242741Y-72357860D01*
X82242741Y-72357861D01*
X82242740Y-72357863D01*
X82242740Y-72357864D01*
X82215447Y-72459724D01*
X76384553Y-72459724D01*
X76357260Y-72357864D01*
X76350515Y-72346182D01*
X76304534Y-72266540D01*
X76304533Y-72266538D01*
X76229966Y-72191971D01*
X76214923Y-72183286D01*
X76138642Y-72139245D01*
X76138641Y-72139244D01*
X76138640Y-72139244D01*
X76036780Y-72111951D01*
X75931326Y-72111951D01*
X75829466Y-72139244D01*
X75829465Y-72139244D01*
X75829463Y-72139245D01*
X75829462Y-72139245D01*
X75738142Y-72191969D01*
X75663571Y-72266540D01*
X75610847Y-72357860D01*
X75610847Y-72357861D01*
X75610846Y-72357863D01*
X75610846Y-72357864D01*
X75592377Y-72426794D01*
X75583553Y-72459725D01*
X75583553Y-72486921D01*
X75564646Y-72545112D01*
X75515146Y-72581076D01*
X75510180Y-72582547D01*
X75488241Y-72588426D01*
X75396921Y-72641150D01*
X75322350Y-72715721D01*
X75269626Y-72807041D01*
X75269626Y-72807042D01*
X75269625Y-72807044D01*
X75269625Y-72807045D01*
X75242332Y-72908905D01*
X69490219Y-72908905D01*
X69473207Y-72845413D01*
X69420480Y-72754087D01*
X69345913Y-72679520D01*
X69254587Y-72626793D01*
X69152727Y-72599500D01*
X69047273Y-72599500D01*
X68945413Y-72626793D01*
X68945412Y-72626793D01*
X68945410Y-72626794D01*
X68945409Y-72626794D01*
X68854089Y-72679518D01*
X68779518Y-72754089D01*
X68726794Y-72845409D01*
X68726794Y-72845410D01*
X68726793Y-72845412D01*
X68726793Y-72845413D01*
X68699500Y-72947273D01*
X68250500Y-72947273D01*
X68250500Y-72253290D01*
X68269407Y-72195099D01*
X68279496Y-72183286D01*
X69115509Y-71347273D01*
X83299500Y-71347273D01*
X83299500Y-71452727D01*
X83324469Y-71545913D01*
X83326794Y-71554589D01*
X83326794Y-71554590D01*
X83379518Y-71645910D01*
X83379520Y-71645913D01*
X83454087Y-71720480D01*
X83545413Y-71773207D01*
X83647273Y-71800500D01*
X83647275Y-71800500D01*
X83752725Y-71800500D01*
X83752727Y-71800500D01*
X83854587Y-71773207D01*
X83945913Y-71720480D01*
X83966405Y-71699988D01*
X83986898Y-71679496D01*
X84041415Y-71651719D01*
X84056901Y-71650500D01*
X92879556Y-71650500D01*
X92929055Y-71663763D01*
X92945411Y-71673206D01*
X92945413Y-71673207D01*
X93047273Y-71700500D01*
X93047275Y-71700500D01*
X93152725Y-71700500D01*
X93152727Y-71700500D01*
X93254587Y-71673207D01*
X93345913Y-71620480D01*
X93420480Y-71545913D01*
X93473207Y-71454587D01*
X93500500Y-71352727D01*
X93500500Y-71247273D01*
X93473207Y-71145413D01*
X93471422Y-71142322D01*
X93420481Y-71054089D01*
X93420480Y-71054087D01*
X93345913Y-70979520D01*
X93327811Y-70969069D01*
X93254589Y-70926794D01*
X93254588Y-70926793D01*
X93254587Y-70926793D01*
X93152727Y-70899500D01*
X93047273Y-70899500D01*
X93001406Y-70911790D01*
X92945411Y-70926793D01*
X92929055Y-70936237D01*
X92879556Y-70949500D01*
X86520980Y-70949500D01*
X86462789Y-70930593D01*
X86426825Y-70881093D01*
X86426825Y-70819907D01*
X86438665Y-70795498D01*
X86468907Y-70750238D01*
X86546632Y-70633914D01*
X86622051Y-70451835D01*
X86660500Y-70258541D01*
X86660500Y-70061459D01*
X86622051Y-69868165D01*
X86546632Y-69686086D01*
X86437139Y-69522218D01*
X86297782Y-69382861D01*
X86133914Y-69273368D01*
X86133915Y-69273368D01*
X86133913Y-69273367D01*
X85951835Y-69197949D01*
X85758543Y-69159500D01*
X85758541Y-69159500D01*
X85561459Y-69159500D01*
X85561456Y-69159500D01*
X85368165Y-69197949D01*
X85368163Y-69197949D01*
X85186086Y-69273367D01*
X85022218Y-69382861D01*
X85022214Y-69382864D01*
X84882864Y-69522214D01*
X84882861Y-69522218D01*
X84773367Y-69686086D01*
X84697949Y-69868163D01*
X84697949Y-69868165D01*
X84659500Y-70061456D01*
X84659500Y-70258543D01*
X84685132Y-70387403D01*
X84696770Y-70445910D01*
X84697949Y-70451834D01*
X84697949Y-70451836D01*
X84773367Y-70633913D01*
X84881335Y-70795498D01*
X84897944Y-70854387D01*
X84876766Y-70911790D01*
X84825893Y-70945783D01*
X84799020Y-70949500D01*
X83753856Y-70949500D01*
X83709284Y-70961443D01*
X83664710Y-70973386D01*
X83606701Y-71006878D01*
X83582827Y-71016767D01*
X83545413Y-71026792D01*
X83545409Y-71026794D01*
X83454089Y-71079518D01*
X83379518Y-71154089D01*
X83326794Y-71245409D01*
X83326794Y-71245410D01*
X83326793Y-71245412D01*
X83326793Y-71245413D01*
X83299500Y-71347273D01*
X69115509Y-71347273D01*
X70401326Y-70061456D01*
X71979500Y-70061456D01*
X71979500Y-70258543D01*
X72005132Y-70387403D01*
X72016770Y-70445910D01*
X72017949Y-70451834D01*
X72017949Y-70451836D01*
X72093367Y-70633913D01*
X72093368Y-70633914D01*
X72202861Y-70797782D01*
X72342218Y-70937139D01*
X72506086Y-71046632D01*
X72688165Y-71122051D01*
X72881459Y-71160500D01*
X72881460Y-71160500D01*
X73078540Y-71160500D01*
X73078541Y-71160500D01*
X73271835Y-71122051D01*
X73453914Y-71046632D01*
X73617782Y-70937139D01*
X73757139Y-70797782D01*
X73866632Y-70633914D01*
X73942051Y-70451835D01*
X73980500Y-70258541D01*
X73980500Y-70061459D01*
X73942051Y-69868165D01*
X73866632Y-69686086D01*
X73757139Y-69522218D01*
X73617782Y-69382861D01*
X73453914Y-69273368D01*
X73453915Y-69273368D01*
X73453913Y-69273367D01*
X73271835Y-69197949D01*
X73078543Y-69159500D01*
X73078541Y-69159500D01*
X72881459Y-69159500D01*
X72881456Y-69159500D01*
X72688165Y-69197949D01*
X72688163Y-69197949D01*
X72506086Y-69273367D01*
X72342218Y-69382861D01*
X72342214Y-69382864D01*
X72202864Y-69522214D01*
X72202861Y-69522218D01*
X72093367Y-69686086D01*
X72017949Y-69868163D01*
X72017949Y-69868165D01*
X71979500Y-70061456D01*
X70401326Y-70061456D01*
X72583286Y-67879496D01*
X72637803Y-67851719D01*
X72653290Y-67850500D01*
X92214811Y-67850500D01*
X92273002Y-67869407D01*
X92308966Y-67918907D01*
X92308966Y-67980093D01*
X92284814Y-68019504D01*
X91408033Y-68896283D01*
X91363654Y-68921904D01*
X91352273Y-68924954D01*
X91345408Y-68926794D01*
X91254089Y-68979518D01*
X91179518Y-69054089D01*
X91126794Y-69145409D01*
X91126794Y-69145410D01*
X91126793Y-69145412D01*
X91126793Y-69145413D01*
X91099500Y-69247273D01*
X91099500Y-69352727D01*
X91126793Y-69454587D01*
X91126794Y-69454589D01*
X91126794Y-69454590D01*
X91179518Y-69545910D01*
X91179520Y-69545913D01*
X91254087Y-69620480D01*
X91345413Y-69673207D01*
X91447273Y-69700500D01*
X91447275Y-69700500D01*
X91552725Y-69700500D01*
X91552727Y-69700500D01*
X91654587Y-69673207D01*
X91745913Y-69620480D01*
X91820480Y-69545913D01*
X91873207Y-69454587D01*
X91878094Y-69436345D01*
X91903718Y-69391963D01*
X92616187Y-68679496D01*
X92670703Y-68651719D01*
X92686190Y-68650500D01*
X100379556Y-68650500D01*
X100429055Y-68663763D01*
X100445411Y-68673206D01*
X100445413Y-68673207D01*
X100547273Y-68700500D01*
X100547275Y-68700500D01*
X100652725Y-68700500D01*
X100652727Y-68700500D01*
X100754587Y-68673207D01*
X100845913Y-68620480D01*
X100920480Y-68545913D01*
X100973207Y-68454587D01*
X101000500Y-68352727D01*
X101000500Y-68247273D01*
X100973207Y-68145413D01*
X100920480Y-68054087D01*
X100845913Y-67979520D01*
X100802731Y-67954589D01*
X100754589Y-67926794D01*
X100754588Y-67926793D01*
X100754587Y-67926793D01*
X100652727Y-67899500D01*
X100547273Y-67899500D01*
X100496343Y-67913146D01*
X100445411Y-67926793D01*
X100429055Y-67936237D01*
X100379556Y-67949500D01*
X99285189Y-67949500D01*
X99226998Y-67930593D01*
X99191034Y-67881093D01*
X99191034Y-67819907D01*
X99215185Y-67780496D01*
X99215209Y-67780471D01*
X99215212Y-67780470D01*
X101691964Y-65303715D01*
X101736345Y-65278094D01*
X101754587Y-65273207D01*
X101845913Y-65220480D01*
X101920480Y-65145913D01*
X101973207Y-65054587D01*
X102000500Y-64952727D01*
X102000500Y-64847273D01*
X101981167Y-64775120D01*
X101984370Y-64714022D01*
X102022875Y-64666472D01*
X102076794Y-64650500D01*
X112446142Y-64650500D01*
X112446144Y-64650500D01*
X112535288Y-64626614D01*
X112615212Y-64580469D01*
X112680469Y-64515212D01*
X112726614Y-64435288D01*
X112750500Y-64346144D01*
X112750500Y-62553856D01*
X112750500Y-46092296D01*
X112769407Y-46034105D01*
X112818907Y-45998141D01*
X112880093Y-45998141D01*
X112919504Y-46022292D01*
X112957838Y-46060626D01*
X113097137Y-46153703D01*
X113251918Y-46217816D01*
X113416233Y-46250500D01*
X113416234Y-46250500D01*
X113583766Y-46250500D01*
X113583767Y-46250500D01*
X113748082Y-46217816D01*
X113902863Y-46153703D01*
X114042162Y-46060626D01*
X114160626Y-45942162D01*
X114253703Y-45802863D01*
X114317816Y-45648082D01*
X114350500Y-45483767D01*
X114350500Y-45316233D01*
X114317816Y-45151918D01*
X114253703Y-44997137D01*
X114160626Y-44857838D01*
X114042162Y-44739374D01*
X113949084Y-44677181D01*
X113902862Y-44646296D01*
X113748085Y-44582185D01*
X113748079Y-44582183D01*
X113583769Y-44549500D01*
X113583767Y-44549500D01*
X113416233Y-44549500D01*
X113416230Y-44549500D01*
X113251920Y-44582183D01*
X113251914Y-44582185D01*
X113097137Y-44646296D01*
X112957838Y-44739374D01*
X112957834Y-44739377D01*
X112919504Y-44777708D01*
X112864987Y-44805485D01*
X112804555Y-44795914D01*
X112761290Y-44752649D01*
X112750500Y-44707704D01*
X112750500Y-40653857D01*
X112750500Y-40653856D01*
X112726614Y-40564712D01*
X112680469Y-40484788D01*
X112615212Y-40419531D01*
X112535288Y-40373386D01*
X112446144Y-40349500D01*
X107946144Y-40349500D01*
X107853856Y-40349500D01*
X107764712Y-40373386D01*
X107764711Y-40373386D01*
X107764709Y-40373387D01*
X107684790Y-40419529D01*
X107619529Y-40484790D01*
X107573387Y-40564709D01*
X107573386Y-40564711D01*
X107573386Y-40564712D01*
X107550400Y-40650500D01*
X107549500Y-40653857D01*
X107549500Y-62150500D01*
X107530593Y-62208691D01*
X107481093Y-62244655D01*
X107450500Y-62249500D01*
X92855900Y-62249500D01*
X92797709Y-62230593D01*
X92761745Y-62181093D01*
X92761745Y-62119907D01*
X92785894Y-62080498D01*
X92820480Y-62045913D01*
X92873207Y-61954587D01*
X92900500Y-61852727D01*
X92900500Y-61747273D01*
X92873207Y-61645413D01*
X92820480Y-61554087D01*
X92745913Y-61479520D01*
X92707338Y-61457249D01*
X92654589Y-61426794D01*
X92654588Y-61426793D01*
X92654587Y-61426793D01*
X92552727Y-61399500D01*
X92447273Y-61399500D01*
X92396343Y-61413146D01*
X92345411Y-61426793D01*
X92329055Y-61436237D01*
X92279556Y-61449500D01*
X88824000Y-61449500D01*
X88765809Y-61430593D01*
X88753996Y-61420504D01*
X87732930Y-60399438D01*
X86684117Y-59350624D01*
X86215458Y-58881965D01*
X86187681Y-58827448D01*
X86197252Y-58767016D01*
X86217861Y-58739635D01*
X86226142Y-58731894D01*
X86245913Y-58720480D01*
X86320480Y-58645913D01*
X86323231Y-58641148D01*
X86332399Y-58632579D01*
X86353068Y-58622911D01*
X86371877Y-58609983D01*
X86380242Y-58610201D01*
X86387821Y-58606657D01*
X86410228Y-58610985D01*
X86433042Y-58611582D01*
X86440186Y-58616772D01*
X86447896Y-58618262D01*
X86459872Y-58631075D01*
X86474530Y-58641725D01*
X86474932Y-58641324D01*
X86477466Y-58643858D01*
X86478545Y-58644642D01*
X86479517Y-58645909D01*
X86479518Y-58645910D01*
X86479520Y-58645913D01*
X86554087Y-58720480D01*
X86645413Y-58773207D01*
X86747273Y-58800500D01*
X86747275Y-58800500D01*
X86852725Y-58800500D01*
X86852727Y-58800500D01*
X86954587Y-58773207D01*
X87045913Y-58720480D01*
X87120480Y-58645913D01*
X87173207Y-58554587D01*
X87200500Y-58452727D01*
X87200500Y-58347273D01*
X87173207Y-58245413D01*
X87153553Y-58211372D01*
X87133630Y-58176863D01*
X87120480Y-58154087D01*
X87045913Y-58079520D01*
X87001865Y-58054089D01*
X86990059Y-58047273D01*
X89199500Y-58047273D01*
X89199500Y-58152727D01*
X89226295Y-58252727D01*
X89226794Y-58254589D01*
X89226794Y-58254590D01*
X89279231Y-58345413D01*
X89279520Y-58345913D01*
X89354087Y-58420480D01*
X89445413Y-58473207D01*
X89547273Y-58500500D01*
X89547275Y-58500500D01*
X89652725Y-58500500D01*
X89652727Y-58500500D01*
X89754587Y-58473207D01*
X89845913Y-58420480D01*
X89920480Y-58345913D01*
X89973207Y-58254587D01*
X90000500Y-58152727D01*
X90000500Y-58047273D01*
X91099500Y-58047273D01*
X91099500Y-58152727D01*
X91126295Y-58252727D01*
X91126794Y-58254589D01*
X91126794Y-58254590D01*
X91179231Y-58345413D01*
X91179520Y-58345913D01*
X91254087Y-58420480D01*
X91345413Y-58473207D01*
X91447273Y-58500500D01*
X91447275Y-58500500D01*
X91552725Y-58500500D01*
X91552727Y-58500500D01*
X91654587Y-58473207D01*
X91745913Y-58420480D01*
X91820480Y-58345913D01*
X91873207Y-58254587D01*
X91900500Y-58152727D01*
X91900500Y-58047273D01*
X91873207Y-57945413D01*
X91865353Y-57931810D01*
X91820481Y-57854089D01*
X91820480Y-57854087D01*
X91745913Y-57779520D01*
X91740450Y-57776366D01*
X91654589Y-57726794D01*
X91654588Y-57726793D01*
X91654587Y-57726793D01*
X91552727Y-57699500D01*
X91447273Y-57699500D01*
X91345413Y-57726793D01*
X91345412Y-57726793D01*
X91345410Y-57726794D01*
X91345409Y-57726794D01*
X91254089Y-57779518D01*
X91179518Y-57854089D01*
X91126794Y-57945409D01*
X91126794Y-57945410D01*
X91126793Y-57945412D01*
X91126793Y-57945413D01*
X91099500Y-58047273D01*
X90000500Y-58047273D01*
X89973207Y-57945413D01*
X89965353Y-57931810D01*
X89920481Y-57854089D01*
X89920480Y-57854087D01*
X89845913Y-57779520D01*
X89840450Y-57776366D01*
X89754589Y-57726794D01*
X89754588Y-57726793D01*
X89754587Y-57726793D01*
X89652727Y-57699500D01*
X89547273Y-57699500D01*
X89445413Y-57726793D01*
X89445412Y-57726793D01*
X89445410Y-57726794D01*
X89445409Y-57726794D01*
X89354089Y-57779518D01*
X89279518Y-57854089D01*
X89226794Y-57945409D01*
X89226794Y-57945410D01*
X89226793Y-57945412D01*
X89226793Y-57945413D01*
X89199500Y-58047273D01*
X86990059Y-58047273D01*
X86954589Y-58026794D01*
X86954588Y-58026793D01*
X86954587Y-58026793D01*
X86852727Y-57999500D01*
X86747273Y-57999500D01*
X86645413Y-58026793D01*
X86645412Y-58026793D01*
X86645410Y-58026794D01*
X86645409Y-58026794D01*
X86554089Y-58079518D01*
X86479517Y-58154090D01*
X86478541Y-58155363D01*
X86477594Y-58156013D01*
X86474932Y-58158676D01*
X86474438Y-58158182D01*
X86428115Y-58190018D01*
X86366951Y-58188415D01*
X86325468Y-58158275D01*
X86325068Y-58158676D01*
X86322541Y-58156149D01*
X86321459Y-58155363D01*
X86320482Y-58154090D01*
X86320481Y-58154089D01*
X86320480Y-58154087D01*
X86245913Y-58079520D01*
X86201865Y-58054089D01*
X86154589Y-58026794D01*
X86154588Y-58026793D01*
X86154587Y-58026793D01*
X86052727Y-57999500D01*
X85947273Y-57999500D01*
X85845413Y-58026793D01*
X85845412Y-58026793D01*
X85845410Y-58026794D01*
X85845409Y-58026794D01*
X85754089Y-58079518D01*
X85679519Y-58154088D01*
X85673772Y-58164042D01*
X85628300Y-58204980D01*
X85567449Y-58211372D01*
X85518034Y-58184541D01*
X82230496Y-54897003D01*
X82226869Y-54889885D01*
X82220407Y-54885190D01*
X82213243Y-54863141D01*
X82202719Y-54842486D01*
X82201500Y-54826999D01*
X82201500Y-54647273D01*
X86999500Y-54647273D01*
X86999500Y-54752727D01*
X87026295Y-54852727D01*
X87026794Y-54854589D01*
X87026794Y-54854590D01*
X87079231Y-54945413D01*
X87079520Y-54945913D01*
X87154087Y-55020480D01*
X87245413Y-55073207D01*
X87347273Y-55100500D01*
X87347275Y-55100500D01*
X87452725Y-55100500D01*
X87452727Y-55100500D01*
X87554587Y-55073207D01*
X87600501Y-55046698D01*
X87660348Y-55033977D01*
X87699498Y-55046698D01*
X87745413Y-55073207D01*
X87847273Y-55100500D01*
X87847275Y-55100500D01*
X87952725Y-55100500D01*
X87952727Y-55100500D01*
X88054587Y-55073207D01*
X88145913Y-55020480D01*
X88220480Y-54945913D01*
X88273207Y-54854587D01*
X88300500Y-54752727D01*
X88300500Y-54647273D01*
X88273207Y-54545413D01*
X88273059Y-54545157D01*
X88220481Y-54454089D01*
X88220480Y-54454087D01*
X88145913Y-54379520D01*
X88139357Y-54375735D01*
X88054589Y-54326794D01*
X88054588Y-54326793D01*
X88054587Y-54326793D01*
X87952727Y-54299500D01*
X87847273Y-54299500D01*
X87796343Y-54313146D01*
X87745411Y-54326793D01*
X87699499Y-54353301D01*
X87639651Y-54366022D01*
X87600501Y-54353301D01*
X87554588Y-54326793D01*
X87520633Y-54317695D01*
X87452727Y-54299500D01*
X87347273Y-54299500D01*
X87245413Y-54326793D01*
X87245412Y-54326793D01*
X87245410Y-54326794D01*
X87245409Y-54326794D01*
X87154089Y-54379518D01*
X87079518Y-54454089D01*
X87026794Y-54545409D01*
X87026794Y-54545410D01*
X87026793Y-54545412D01*
X87026793Y-54545413D01*
X86999500Y-54647273D01*
X82201500Y-54647273D01*
X82201500Y-54567046D01*
X82201226Y-54566022D01*
X82177614Y-54477901D01*
X82168130Y-54461474D01*
X82168129Y-54461472D01*
X82168129Y-54461471D01*
X82133096Y-54400794D01*
X82131470Y-54397977D01*
X81230966Y-53497473D01*
X82299500Y-53497473D01*
X82299500Y-53602927D01*
X82326793Y-53704787D01*
X82326794Y-53704789D01*
X82326794Y-53704790D01*
X82379518Y-53796110D01*
X82379520Y-53796113D01*
X82454087Y-53870680D01*
X82545413Y-53923407D01*
X82647273Y-53950700D01*
X82647275Y-53950700D01*
X82752725Y-53950700D01*
X82752727Y-53950700D01*
X82854587Y-53923407D01*
X82945913Y-53870680D01*
X83020480Y-53796113D01*
X83073207Y-53704787D01*
X83085315Y-53659595D01*
X83118639Y-53608282D01*
X83175760Y-53586355D01*
X83206562Y-53589591D01*
X83247273Y-53600500D01*
X83247275Y-53600500D01*
X83352725Y-53600500D01*
X83352727Y-53600500D01*
X83454587Y-53573207D01*
X83545913Y-53520480D01*
X83619120Y-53447273D01*
X84099500Y-53447273D01*
X84099500Y-53552727D01*
X84120011Y-53629276D01*
X84126794Y-53654589D01*
X84126794Y-53654590D01*
X84162542Y-53716507D01*
X84179520Y-53745913D01*
X84254087Y-53820480D01*
X84345413Y-53873207D01*
X84447273Y-53900500D01*
X84447275Y-53900500D01*
X84552725Y-53900500D01*
X84552727Y-53900500D01*
X84654587Y-53873207D01*
X84654594Y-53873202D01*
X84660581Y-53870724D01*
X84661539Y-53873038D01*
X84710839Y-53862555D01*
X84766737Y-53887437D01*
X84797335Y-53940422D01*
X84799500Y-53961014D01*
X84799500Y-54052727D01*
X84824834Y-54147274D01*
X84826794Y-54154589D01*
X84826794Y-54154590D01*
X84879231Y-54245413D01*
X84879520Y-54245913D01*
X84954087Y-54320480D01*
X85045413Y-54373207D01*
X85147273Y-54400500D01*
X85147275Y-54400500D01*
X85252725Y-54400500D01*
X85252727Y-54400500D01*
X85354587Y-54373207D01*
X85445913Y-54320480D01*
X85520480Y-54245913D01*
X85573207Y-54154587D01*
X85600500Y-54052727D01*
X85600500Y-53947273D01*
X85573207Y-53845413D01*
X85562457Y-53826794D01*
X85520481Y-53754089D01*
X85520480Y-53754087D01*
X85445913Y-53679520D01*
X85434975Y-53673205D01*
X85354589Y-53626794D01*
X85354588Y-53626793D01*
X85354587Y-53626793D01*
X85252727Y-53599500D01*
X85147273Y-53599500D01*
X85045413Y-53626793D01*
X85045412Y-53626793D01*
X85045410Y-53626794D01*
X85039419Y-53629276D01*
X85038462Y-53626966D01*
X84989124Y-53637440D01*
X84933236Y-53612538D01*
X84902658Y-53559541D01*
X84900500Y-53538985D01*
X84900500Y-53447274D01*
X84900500Y-53447273D01*
X84873207Y-53345413D01*
X84820480Y-53254087D01*
X84745913Y-53179520D01*
X84744139Y-53178496D01*
X84654589Y-53126794D01*
X84654588Y-53126793D01*
X84654587Y-53126793D01*
X84552727Y-53099500D01*
X84447273Y-53099500D01*
X84345413Y-53126793D01*
X84345412Y-53126793D01*
X84345410Y-53126794D01*
X84345409Y-53126794D01*
X84254089Y-53179518D01*
X84179518Y-53254089D01*
X84126794Y-53345409D01*
X84126794Y-53345410D01*
X84126793Y-53345412D01*
X84126793Y-53345413D01*
X84099500Y-53447273D01*
X83619120Y-53447273D01*
X83620480Y-53445913D01*
X83673207Y-53354587D01*
X83700500Y-53252727D01*
X83700500Y-53147273D01*
X83673207Y-53045413D01*
X83620480Y-52954087D01*
X83545913Y-52879520D01*
X83502731Y-52854589D01*
X83454589Y-52826794D01*
X83454588Y-52826793D01*
X83454587Y-52826793D01*
X83352727Y-52799500D01*
X83247273Y-52799500D01*
X83145413Y-52826793D01*
X83145412Y-52826793D01*
X83145410Y-52826794D01*
X83145409Y-52826794D01*
X83054089Y-52879518D01*
X82979518Y-52954089D01*
X82926794Y-53045409D01*
X82926791Y-53045416D01*
X82914683Y-53090605D01*
X82881359Y-53141919D01*
X82824237Y-53163845D01*
X82793438Y-53160608D01*
X82752727Y-53149700D01*
X82647273Y-53149700D01*
X82545413Y-53176993D01*
X82545412Y-53176993D01*
X82545410Y-53176994D01*
X82545409Y-53176994D01*
X82454089Y-53229718D01*
X82379518Y-53304289D01*
X82326794Y-53395609D01*
X82326794Y-53395610D01*
X82326793Y-53395612D01*
X82326793Y-53395613D01*
X82299500Y-53497473D01*
X81230966Y-53497473D01*
X80252023Y-52518530D01*
X80172099Y-52472386D01*
X80082955Y-52448500D01*
X78746144Y-52448500D01*
X70454856Y-52448500D01*
X70365712Y-52472386D01*
X70285785Y-52518532D01*
X69908034Y-52896282D01*
X69863657Y-52921904D01*
X69845410Y-52926793D01*
X69845409Y-52926794D01*
X69754089Y-52979518D01*
X69679518Y-53054089D01*
X69626794Y-53145409D01*
X69626794Y-53145410D01*
X69626793Y-53145412D01*
X69626793Y-53145413D01*
X69599500Y-53247273D01*
X69599500Y-53352727D01*
X69624834Y-53447274D01*
X69626794Y-53454589D01*
X69626794Y-53454590D01*
X69675520Y-53538985D01*
X69679520Y-53545913D01*
X69754087Y-53620480D01*
X69845413Y-53673207D01*
X69947273Y-53700500D01*
X69947275Y-53700500D01*
X70052725Y-53700500D01*
X70052727Y-53700500D01*
X70154587Y-53673207D01*
X70245913Y-53620480D01*
X70320480Y-53545913D01*
X70373207Y-53454587D01*
X70378094Y-53436345D01*
X70403716Y-53391964D01*
X70491290Y-53304390D01*
X70545807Y-53276614D01*
X70606239Y-53286186D01*
X70649503Y-53329450D01*
X70656918Y-53348767D01*
X70671607Y-53403587D01*
X70671608Y-53403589D01*
X70671608Y-53403590D01*
X70724332Y-53494910D01*
X70724334Y-53494913D01*
X70798901Y-53569480D01*
X70890227Y-53622207D01*
X70992087Y-53649500D01*
X70992089Y-53649500D01*
X71097539Y-53649500D01*
X71097541Y-53649500D01*
X71199401Y-53622207D01*
X71215759Y-53612763D01*
X71265258Y-53599500D01*
X71390500Y-53599500D01*
X71448691Y-53618407D01*
X71484655Y-53667907D01*
X71489500Y-53698500D01*
X71489500Y-53879421D01*
X71489499Y-53879439D01*
X71489499Y-53900001D01*
X71489494Y-53900016D01*
X71489496Y-54007547D01*
X71519109Y-54137276D01*
X71576845Y-54257161D01*
X71647223Y-54345409D01*
X71659813Y-54361196D01*
X71659817Y-54361199D01*
X71659820Y-54361202D01*
X71763845Y-54444159D01*
X71763851Y-54444163D01*
X71863816Y-54492301D01*
X71883737Y-54501895D01*
X72013467Y-54531505D01*
X72022259Y-54531505D01*
X72080450Y-54550412D01*
X72116414Y-54599912D01*
X72116414Y-54661098D01*
X72080450Y-54710598D01*
X72069247Y-54717643D01*
X72059059Y-54723136D01*
X72045413Y-54726793D01*
X71954087Y-54779520D01*
X71953605Y-54780001D01*
X71946988Y-54783570D01*
X71918250Y-54788811D01*
X71889652Y-54794890D01*
X71887951Y-54794337D01*
X71886796Y-54794548D01*
X71883030Y-54792738D01*
X71850500Y-54782169D01*
X71845914Y-54779521D01*
X71845913Y-54779520D01*
X71754587Y-54726793D01*
X71652727Y-54699500D01*
X71547273Y-54699500D01*
X71445413Y-54726793D01*
X71445412Y-54726793D01*
X71445410Y-54726794D01*
X71445409Y-54726794D01*
X71354089Y-54779518D01*
X71279518Y-54854089D01*
X71226794Y-54945409D01*
X71226794Y-54945410D01*
X71226793Y-54945412D01*
X71226793Y-54945413D01*
X71199500Y-55047273D01*
X71199500Y-55152727D01*
X71226793Y-55254587D01*
X71226794Y-55254589D01*
X71226794Y-55254590D01*
X71279518Y-55345910D01*
X71279520Y-55345913D01*
X71354087Y-55420480D01*
X71445413Y-55473207D01*
X71547273Y-55500500D01*
X71547275Y-55500500D01*
X71652725Y-55500500D01*
X71652727Y-55500500D01*
X71754587Y-55473207D01*
X71845913Y-55420480D01*
X71845915Y-55420477D01*
X71850499Y-55417831D01*
X71910348Y-55405109D01*
X71949501Y-55417831D01*
X71954084Y-55420477D01*
X71954087Y-55420480D01*
X72045413Y-55473207D01*
X72147273Y-55500500D01*
X72147275Y-55500500D01*
X72252725Y-55500500D01*
X72252727Y-55500500D01*
X72354587Y-55473207D01*
X72445913Y-55420480D01*
X72520480Y-55345913D01*
X72573207Y-55254587D01*
X72600500Y-55152727D01*
X72600500Y-55047273D01*
X72573207Y-54945413D01*
X72520480Y-54854087D01*
X72445913Y-54779520D01*
X72434975Y-54773205D01*
X72354589Y-54726794D01*
X72354588Y-54726793D01*
X72354587Y-54726793D01*
X72306081Y-54713796D01*
X72254769Y-54680473D01*
X72232842Y-54623351D01*
X72248678Y-54564251D01*
X72296227Y-54525746D01*
X72309672Y-54521653D01*
X72396261Y-54501890D01*
X72516149Y-54444156D01*
X72620184Y-54361193D01*
X72662598Y-54308008D01*
X72713658Y-54274304D01*
X72774781Y-54277049D01*
X72817396Y-54308009D01*
X72847223Y-54345409D01*
X72859813Y-54361196D01*
X72859817Y-54361199D01*
X72859820Y-54361202D01*
X72963845Y-54444159D01*
X72963851Y-54444163D01*
X73063816Y-54492301D01*
X73083737Y-54501895D01*
X73203584Y-54529249D01*
X73256109Y-54560631D01*
X73280156Y-54616892D01*
X73267292Y-54675266D01*
X73226793Y-54745413D01*
X73199500Y-54847273D01*
X73199500Y-54952727D01*
X73224834Y-55047274D01*
X73226794Y-55054589D01*
X73226794Y-55054590D01*
X73279518Y-55145910D01*
X73279520Y-55145913D01*
X73354087Y-55220480D01*
X73445413Y-55273207D01*
X73547273Y-55300500D01*
X73547275Y-55300500D01*
X73652725Y-55300500D01*
X73652727Y-55300500D01*
X73754587Y-55273207D01*
X73800501Y-55246698D01*
X73860348Y-55233977D01*
X73899498Y-55246698D01*
X73945413Y-55273207D01*
X74047273Y-55300500D01*
X74047275Y-55300500D01*
X74152725Y-55300500D01*
X74152727Y-55300500D01*
X74254587Y-55273207D01*
X74345913Y-55220480D01*
X74379998Y-55186394D01*
X74434513Y-55158619D01*
X74494945Y-55168190D01*
X74520000Y-55186393D01*
X74554087Y-55220480D01*
X74645413Y-55273207D01*
X74663652Y-55278094D01*
X74708035Y-55303717D01*
X75420531Y-56016212D01*
X75420530Y-56016212D01*
X75485787Y-56081468D01*
X75485789Y-56081470D01*
X75517018Y-56099500D01*
X75565712Y-56127614D01*
X75654856Y-56151500D01*
X78709899Y-56151500D01*
X78717496Y-56153968D01*
X78725386Y-56152719D01*
X78746041Y-56163243D01*
X78768090Y-56170407D01*
X78779903Y-56180496D01*
X78782388Y-56182981D01*
X78810165Y-56237498D01*
X78800594Y-56297930D01*
X78796212Y-56305653D01*
X78734796Y-56403403D01*
X78690849Y-56529030D01*
X78675965Y-56661283D01*
X78675965Y-56661286D01*
X78685458Y-56745413D01*
X78690888Y-56793537D01*
X78690888Y-56793538D01*
X78734872Y-56919153D01*
X78734873Y-56919154D01*
X78800403Y-57023386D01*
X78805709Y-57031825D01*
X78805711Y-57031827D01*
X78805712Y-57031828D01*
X78850796Y-57076889D01*
X78850808Y-57076912D01*
X78850814Y-57076907D01*
X78970182Y-57196275D01*
X78970181Y-57196275D01*
X78979049Y-57205142D01*
X78984600Y-57210693D01*
X78984602Y-57210694D01*
X78984603Y-57210695D01*
X79097271Y-57281489D01*
X79222864Y-57325437D01*
X79222868Y-57325438D01*
X79222871Y-57325439D01*
X79222872Y-57325439D01*
X79222876Y-57325440D01*
X79355098Y-57340338D01*
X79355102Y-57340338D01*
X79355106Y-57340338D01*
X79487327Y-57325440D01*
X79487329Y-57325439D01*
X79487333Y-57325439D01*
X79612933Y-57281489D01*
X79710646Y-57220092D01*
X79769976Y-57205142D01*
X79826764Y-57227921D01*
X79833321Y-57233914D01*
X80405399Y-57805992D01*
X80433176Y-57860509D01*
X80423605Y-57920941D01*
X80384897Y-57961732D01*
X80354087Y-57979520D01*
X80279518Y-58054089D01*
X80226794Y-58145409D01*
X80226794Y-58145410D01*
X80226793Y-58145412D01*
X80226793Y-58145413D01*
X80199500Y-58247273D01*
X80199500Y-58352727D01*
X80226295Y-58452727D01*
X80226794Y-58454589D01*
X80226794Y-58454590D01*
X80279518Y-58545910D01*
X80279520Y-58545913D01*
X80354087Y-58620480D01*
X80445413Y-58673207D01*
X80547273Y-58700500D01*
X80547275Y-58700500D01*
X80652725Y-58700500D01*
X80652727Y-58700500D01*
X80754587Y-58673207D01*
X80845913Y-58620480D01*
X80920480Y-58545913D01*
X80938268Y-58515103D01*
X80983735Y-58474164D01*
X81044585Y-58467767D01*
X81094007Y-58494600D01*
X81680877Y-59081470D01*
X81760801Y-59127614D01*
X81849945Y-59151500D01*
X81942233Y-59151500D01*
X82747710Y-59151500D01*
X82805901Y-59170407D01*
X82817714Y-59180496D01*
X84736954Y-61099736D01*
X84764731Y-61154253D01*
X84765950Y-61169740D01*
X84765950Y-61262594D01*
X84783152Y-61326793D01*
X84789836Y-61351738D01*
X84835980Y-61431662D01*
X85224797Y-61820479D01*
X85484814Y-62080496D01*
X85512591Y-62135013D01*
X85503020Y-62195445D01*
X85459755Y-62238710D01*
X85414810Y-62249500D01*
X82455900Y-62249500D01*
X82397709Y-62230593D01*
X82361745Y-62181093D01*
X82361745Y-62119907D01*
X82385894Y-62080498D01*
X82420480Y-62045913D01*
X82473207Y-61954587D01*
X82500500Y-61852727D01*
X82500500Y-61747273D01*
X82473207Y-61645413D01*
X82420480Y-61554087D01*
X82345913Y-61479520D01*
X82307338Y-61457249D01*
X82254589Y-61426794D01*
X82254588Y-61426793D01*
X82254587Y-61426793D01*
X82152727Y-61399500D01*
X82047273Y-61399500D01*
X81945413Y-61426793D01*
X81945412Y-61426793D01*
X81945410Y-61426794D01*
X81914689Y-61444530D01*
X81854841Y-61457249D01*
X81798946Y-61432361D01*
X81795207Y-61428814D01*
X81745913Y-61379520D01*
X81654587Y-61326793D01*
X81552727Y-61299500D01*
X81447273Y-61299500D01*
X81345413Y-61326793D01*
X81345412Y-61326793D01*
X81345410Y-61326794D01*
X81345409Y-61326794D01*
X81254089Y-61379518D01*
X81179518Y-61454089D01*
X81126794Y-61545409D01*
X81126794Y-61545410D01*
X81126793Y-61545412D01*
X81126793Y-61545413D01*
X81099500Y-61647273D01*
X81099500Y-61752727D01*
X81126295Y-61852727D01*
X81126794Y-61854589D01*
X81126794Y-61854590D01*
X81154975Y-61903400D01*
X81179520Y-61945913D01*
X81254087Y-62020480D01*
X81330790Y-62064764D01*
X81371730Y-62110233D01*
X81378126Y-62171083D01*
X81347533Y-62224071D01*
X81291637Y-62248958D01*
X81281289Y-62249500D01*
X58546144Y-62249500D01*
X56946144Y-62249500D01*
X56853856Y-62249500D01*
X56831029Y-62255616D01*
X56775122Y-62270596D01*
X56714021Y-62267393D01*
X56666471Y-62228887D01*
X56650500Y-62174969D01*
X56650500Y-58047273D01*
X59699500Y-58047273D01*
X59699500Y-58152727D01*
X59726295Y-58252727D01*
X59726794Y-58254589D01*
X59726794Y-58254590D01*
X59779231Y-58345413D01*
X59779520Y-58345913D01*
X59854087Y-58420480D01*
X59945413Y-58473207D01*
X59963652Y-58478094D01*
X60008035Y-58503717D01*
X61884788Y-60380470D01*
X61884790Y-60380471D01*
X61954077Y-60420475D01*
X61954086Y-60420478D01*
X61954088Y-60420480D01*
X61964712Y-60426614D01*
X62053856Y-60450500D01*
X77479556Y-60450500D01*
X77529055Y-60463763D01*
X77545411Y-60473206D01*
X77545413Y-60473207D01*
X77647273Y-60500500D01*
X77647275Y-60500500D01*
X77752725Y-60500500D01*
X77752727Y-60500500D01*
X77854587Y-60473207D01*
X77945913Y-60420480D01*
X78020480Y-60345913D01*
X78073207Y-60254587D01*
X78100500Y-60152727D01*
X78100500Y-60047273D01*
X78073207Y-59945413D01*
X78062457Y-59926794D01*
X78020481Y-59854089D01*
X78020480Y-59854087D01*
X77945913Y-59779520D01*
X77869209Y-59735235D01*
X77828270Y-59689767D01*
X77821874Y-59628917D01*
X77852467Y-59575929D01*
X77908363Y-59551042D01*
X77918711Y-59550500D01*
X78413810Y-59550500D01*
X78472001Y-59569407D01*
X78483814Y-59579496D01*
X79969531Y-61065212D01*
X79969530Y-61065212D01*
X80034787Y-61130468D01*
X80034789Y-61130470D01*
X80117021Y-61177947D01*
X80123868Y-61181323D01*
X80196413Y-61223207D01*
X80298273Y-61250500D01*
X80298275Y-61250500D01*
X80403725Y-61250500D01*
X80403727Y-61250500D01*
X80505587Y-61223207D01*
X80596913Y-61170480D01*
X80671480Y-61095913D01*
X80724207Y-61004587D01*
X80751500Y-60902727D01*
X80751500Y-60797273D01*
X80724207Y-60695413D01*
X80717831Y-60684370D01*
X80680944Y-60620480D01*
X80671480Y-60604087D01*
X80596913Y-60529520D01*
X80505587Y-60476793D01*
X80403727Y-60449500D01*
X80403725Y-60449500D01*
X80386189Y-60449500D01*
X80327998Y-60430593D01*
X80316185Y-60420504D01*
X79585448Y-59689767D01*
X78815212Y-58919530D01*
X78815209Y-58919528D01*
X78735291Y-58873387D01*
X78735289Y-58873386D01*
X78734627Y-58873209D01*
X78734628Y-58873209D01*
X78734620Y-58873207D01*
X78646144Y-58849500D01*
X78646142Y-58849500D01*
X77255900Y-58849500D01*
X77197709Y-58830593D01*
X77161745Y-58781093D01*
X77161745Y-58719907D01*
X77185894Y-58680498D01*
X77220480Y-58645913D01*
X77273207Y-58554587D01*
X77274258Y-58550663D01*
X77307581Y-58499349D01*
X77364702Y-58477421D01*
X77423803Y-58493256D01*
X77439883Y-58506276D01*
X77454087Y-58520480D01*
X77545413Y-58573207D01*
X77647273Y-58600500D01*
X77647275Y-58600500D01*
X77752725Y-58600500D01*
X77752727Y-58600500D01*
X77854587Y-58573207D01*
X77945913Y-58520480D01*
X78020480Y-58445913D01*
X78073207Y-58354587D01*
X78100500Y-58252727D01*
X78100500Y-58147273D01*
X78399500Y-58147273D01*
X78399500Y-58252727D01*
X78426793Y-58354587D01*
X78426794Y-58354589D01*
X78426794Y-58354590D01*
X78479518Y-58445910D01*
X78479520Y-58445913D01*
X78554087Y-58520480D01*
X78645413Y-58573207D01*
X78747273Y-58600500D01*
X78747275Y-58600500D01*
X78852725Y-58600500D01*
X78852727Y-58600500D01*
X78954587Y-58573207D01*
X79045913Y-58520480D01*
X79079998Y-58486394D01*
X79134513Y-58458619D01*
X79194945Y-58468190D01*
X79220000Y-58486393D01*
X79254087Y-58520480D01*
X79345413Y-58573207D01*
X79447273Y-58600500D01*
X79447275Y-58600500D01*
X79552725Y-58600500D01*
X79552727Y-58600500D01*
X79654587Y-58573207D01*
X79745913Y-58520480D01*
X79820480Y-58445913D01*
X79873207Y-58354587D01*
X79900500Y-58252727D01*
X79900500Y-58147273D01*
X79873207Y-58045413D01*
X79862457Y-58026794D01*
X79820481Y-57954089D01*
X79820480Y-57954087D01*
X79745913Y-57879520D01*
X79743673Y-57878227D01*
X79654589Y-57826794D01*
X79654588Y-57826793D01*
X79654587Y-57826793D01*
X79552727Y-57799500D01*
X79447273Y-57799500D01*
X79345413Y-57826793D01*
X79345412Y-57826793D01*
X79345410Y-57826794D01*
X79345409Y-57826794D01*
X79254089Y-57879518D01*
X79254087Y-57879519D01*
X79254087Y-57879520D01*
X79220001Y-57913605D01*
X79165487Y-57941381D01*
X79105055Y-57931810D01*
X79079999Y-57913606D01*
X79045913Y-57879520D01*
X79043673Y-57878227D01*
X78954589Y-57826794D01*
X78954588Y-57826793D01*
X78954587Y-57826793D01*
X78852727Y-57799500D01*
X78747273Y-57799500D01*
X78645413Y-57826793D01*
X78645412Y-57826793D01*
X78645410Y-57826794D01*
X78645409Y-57826794D01*
X78554089Y-57879518D01*
X78479518Y-57954089D01*
X78426794Y-58045409D01*
X78426794Y-58045410D01*
X78426793Y-58045412D01*
X78426793Y-58045413D01*
X78399500Y-58147273D01*
X78100500Y-58147273D01*
X78073207Y-58045413D01*
X78062457Y-58026794D01*
X78020481Y-57954089D01*
X78020480Y-57954087D01*
X77945913Y-57879520D01*
X77943673Y-57878227D01*
X77854589Y-57826794D01*
X77854588Y-57826793D01*
X77854587Y-57826793D01*
X77752727Y-57799500D01*
X77647273Y-57799500D01*
X77545413Y-57826793D01*
X77545412Y-57826793D01*
X77545410Y-57826794D01*
X77545409Y-57826794D01*
X77454089Y-57879518D01*
X77379518Y-57954089D01*
X77326794Y-58045409D01*
X77326790Y-58045419D01*
X77325738Y-58049346D01*
X77292409Y-58100658D01*
X77235286Y-58122579D01*
X77176187Y-58106737D01*
X77160115Y-58093722D01*
X77145913Y-58079520D01*
X77101865Y-58054089D01*
X77054589Y-58026794D01*
X77054588Y-58026793D01*
X77054587Y-58026793D01*
X76952727Y-57999500D01*
X76847273Y-57999500D01*
X76745413Y-58026793D01*
X76745412Y-58026793D01*
X76745410Y-58026794D01*
X76745409Y-58026794D01*
X76654089Y-58079518D01*
X76579518Y-58154089D01*
X76526794Y-58245409D01*
X76526794Y-58245410D01*
X76526793Y-58245412D01*
X76526793Y-58245413D01*
X76499500Y-58347273D01*
X76499500Y-58452727D01*
X76526295Y-58552727D01*
X76526794Y-58554589D01*
X76526794Y-58554590D01*
X76579518Y-58645910D01*
X76579520Y-58645913D01*
X76614105Y-58680498D01*
X76641881Y-58735013D01*
X76632310Y-58795445D01*
X76589045Y-58838710D01*
X76544100Y-58849500D01*
X76332147Y-58849500D01*
X76273956Y-58830593D01*
X76237992Y-58781093D01*
X76237992Y-58719907D01*
X76246410Y-58701000D01*
X76246699Y-58700500D01*
X76273207Y-58654587D01*
X76300500Y-58552727D01*
X76300500Y-58447273D01*
X76273207Y-58345413D01*
X76249388Y-58304158D01*
X76220481Y-58254089D01*
X76220480Y-58254087D01*
X76145913Y-58179520D01*
X76141316Y-58176866D01*
X76054589Y-58126794D01*
X76054588Y-58126793D01*
X76054587Y-58126793D01*
X75952727Y-58099500D01*
X75847273Y-58099500D01*
X75745413Y-58126793D01*
X75745412Y-58126793D01*
X75745410Y-58126794D01*
X75745409Y-58126794D01*
X75654089Y-58179518D01*
X75579518Y-58254089D01*
X75526794Y-58345409D01*
X75526794Y-58345410D01*
X75526793Y-58345412D01*
X75526793Y-58345413D01*
X75499500Y-58447273D01*
X75499500Y-58552727D01*
X75526793Y-58654587D01*
X75541752Y-58680496D01*
X75553590Y-58701000D01*
X75566311Y-58760849D01*
X75541424Y-58816744D01*
X75488436Y-58847337D01*
X75467853Y-58849500D01*
X63720444Y-58849500D01*
X63670945Y-58836237D01*
X63654588Y-58826793D01*
X63617083Y-58816744D01*
X63552727Y-58799500D01*
X63447273Y-58799500D01*
X63345413Y-58826793D01*
X63345412Y-58826793D01*
X63345410Y-58826794D01*
X63345409Y-58826794D01*
X63254089Y-58879518D01*
X63179518Y-58954089D01*
X63126794Y-59045409D01*
X63126794Y-59045410D01*
X63126793Y-59045412D01*
X63126793Y-59045413D01*
X63099500Y-59147273D01*
X63099500Y-59252727D01*
X63126793Y-59354587D01*
X63126794Y-59354589D01*
X63126794Y-59354590D01*
X63179518Y-59445910D01*
X63179520Y-59445913D01*
X63254087Y-59520480D01*
X63330790Y-59564764D01*
X63371730Y-59610233D01*
X63378126Y-59671083D01*
X63347533Y-59724071D01*
X63291637Y-59748958D01*
X63281289Y-59749500D01*
X62286190Y-59749500D01*
X62227999Y-59730593D01*
X62216186Y-59720504D01*
X61965186Y-59469504D01*
X61937409Y-59414987D01*
X61946980Y-59354555D01*
X61990245Y-59311290D01*
X62035190Y-59300500D01*
X62052725Y-59300500D01*
X62052727Y-59300500D01*
X62154587Y-59273207D01*
X62245913Y-59220480D01*
X62320480Y-59145913D01*
X62373207Y-59054587D01*
X62400500Y-58952727D01*
X62400500Y-58847273D01*
X62373207Y-58745413D01*
X62320480Y-58654087D01*
X62245913Y-58579520D01*
X62234979Y-58573207D01*
X62154590Y-58526794D01*
X62154583Y-58526791D01*
X62136343Y-58521904D01*
X62091963Y-58496282D01*
X61706469Y-58110788D01*
X61642954Y-58047273D01*
X62899500Y-58047273D01*
X62899500Y-58152727D01*
X62926295Y-58252727D01*
X62926794Y-58254589D01*
X62926794Y-58254590D01*
X62979231Y-58345413D01*
X62979520Y-58345913D01*
X63054087Y-58420480D01*
X63145413Y-58473207D01*
X63247273Y-58500500D01*
X63247275Y-58500500D01*
X63352725Y-58500500D01*
X63352727Y-58500500D01*
X63454587Y-58473207D01*
X63545913Y-58420480D01*
X63612041Y-58354351D01*
X63666555Y-58326575D01*
X63707665Y-58328729D01*
X63717832Y-58331453D01*
X63823284Y-58331453D01*
X63823286Y-58331453D01*
X63925146Y-58304160D01*
X64016472Y-58251433D01*
X64091039Y-58176866D01*
X64143766Y-58085540D01*
X64171059Y-57983680D01*
X64171059Y-57878226D01*
X64143766Y-57776366D01*
X64135476Y-57762008D01*
X64091040Y-57685042D01*
X64091039Y-57685040D01*
X64016472Y-57610473D01*
X63998739Y-57600235D01*
X63925148Y-57557747D01*
X63925147Y-57557746D01*
X63925146Y-57557746D01*
X63823286Y-57530453D01*
X63717832Y-57530453D01*
X63615972Y-57557746D01*
X63615971Y-57557746D01*
X63615969Y-57557747D01*
X63615968Y-57557747D01*
X63524646Y-57610472D01*
X63458517Y-57676601D01*
X63404000Y-57704378D01*
X63362893Y-57702224D01*
X63352727Y-57699500D01*
X63247273Y-57699500D01*
X63145413Y-57726793D01*
X63145412Y-57726793D01*
X63145410Y-57726794D01*
X63145409Y-57726794D01*
X63054089Y-57779518D01*
X62979518Y-57854089D01*
X62926794Y-57945409D01*
X62926794Y-57945410D01*
X62926793Y-57945412D01*
X62926793Y-57945413D01*
X62899500Y-58047273D01*
X61642954Y-58047273D01*
X61622475Y-58026794D01*
X61179496Y-57583814D01*
X61151719Y-57529297D01*
X61150500Y-57513810D01*
X61150500Y-56847273D01*
X65099500Y-56847273D01*
X65099500Y-56952727D01*
X65120694Y-57031825D01*
X65126794Y-57054589D01*
X65126794Y-57054590D01*
X65176000Y-57139816D01*
X65179520Y-57145913D01*
X65254087Y-57220480D01*
X65345413Y-57273207D01*
X65447273Y-57300500D01*
X65447275Y-57300500D01*
X65552725Y-57300500D01*
X65552727Y-57300500D01*
X65654587Y-57273207D01*
X65745913Y-57220480D01*
X65820480Y-57145913D01*
X65873207Y-57054587D01*
X65900500Y-56952727D01*
X65900500Y-56847273D01*
X65873207Y-56745413D01*
X65844626Y-56695910D01*
X65824636Y-56661286D01*
X65820480Y-56654087D01*
X65745913Y-56579520D01*
X65675425Y-56538824D01*
X65654589Y-56526794D01*
X65654588Y-56526793D01*
X65654587Y-56526793D01*
X65552727Y-56499500D01*
X65447273Y-56499500D01*
X65345413Y-56526793D01*
X65345412Y-56526793D01*
X65345410Y-56526794D01*
X65345409Y-56526794D01*
X65254089Y-56579518D01*
X65179518Y-56654089D01*
X65126794Y-56745409D01*
X65126794Y-56745410D01*
X65126793Y-56745412D01*
X65126793Y-56745413D01*
X65099500Y-56847273D01*
X61150500Y-56847273D01*
X61150500Y-55747273D01*
X65499500Y-55747273D01*
X65499500Y-55852727D01*
X65526793Y-55954587D01*
X65526794Y-55954589D01*
X65526794Y-55954590D01*
X65562372Y-56016212D01*
X65579520Y-56045913D01*
X65654087Y-56120480D01*
X65745413Y-56173207D01*
X65847273Y-56200500D01*
X65847275Y-56200500D01*
X65952725Y-56200500D01*
X65952727Y-56200500D01*
X66054587Y-56173207D01*
X66145913Y-56120480D01*
X66220480Y-56045913D01*
X66273207Y-55954587D01*
X66300500Y-55852727D01*
X66300500Y-55747273D01*
X66273207Y-55645413D01*
X66220480Y-55554087D01*
X66145913Y-55479520D01*
X66134977Y-55473206D01*
X66055848Y-55427520D01*
X66055846Y-55427520D01*
X66054587Y-55426793D01*
X65952727Y-55399500D01*
X65847273Y-55399500D01*
X65745413Y-55426793D01*
X65745412Y-55426793D01*
X65745410Y-55426794D01*
X65745409Y-55426794D01*
X65654089Y-55479518D01*
X65579518Y-55554089D01*
X65526794Y-55645409D01*
X65526794Y-55645410D01*
X65526793Y-55645412D01*
X65526793Y-55645413D01*
X65499500Y-55747273D01*
X61150500Y-55747273D01*
X61150500Y-55348272D01*
X66840186Y-55348272D01*
X66840186Y-55453726D01*
X66867078Y-55554089D01*
X66867480Y-55555588D01*
X66867480Y-55555589D01*
X66920204Y-55646909D01*
X66920206Y-55646912D01*
X66994773Y-55721479D01*
X67086099Y-55774206D01*
X67187959Y-55801499D01*
X67187961Y-55801499D01*
X67293411Y-55801499D01*
X67293413Y-55801499D01*
X67395273Y-55774206D01*
X67486599Y-55721479D01*
X67486606Y-55721471D01*
X67489620Y-55719160D01*
X67492196Y-55718247D01*
X67492218Y-55718235D01*
X67492220Y-55718239D01*
X67547295Y-55698733D01*
X67605961Y-55716108D01*
X67610154Y-55719154D01*
X67613185Y-55721479D01*
X67613186Y-55721480D01*
X67704512Y-55774207D01*
X67806372Y-55801500D01*
X67806374Y-55801500D01*
X67911824Y-55801500D01*
X67911826Y-55801500D01*
X68013686Y-55774207D01*
X68105012Y-55721480D01*
X68179579Y-55646913D01*
X68232306Y-55555587D01*
X68259599Y-55453727D01*
X68259599Y-55348273D01*
X68232306Y-55246413D01*
X68224845Y-55233491D01*
X68179580Y-55155089D01*
X68179579Y-55155087D01*
X68105012Y-55080520D01*
X68092657Y-55073387D01*
X68013688Y-55027794D01*
X68013687Y-55027793D01*
X68013686Y-55027793D01*
X67911826Y-55000500D01*
X67806372Y-55000500D01*
X67704512Y-55027793D01*
X67704511Y-55027793D01*
X67704509Y-55027794D01*
X67704508Y-55027794D01*
X67613186Y-55080519D01*
X67610154Y-55082846D01*
X67607576Y-55083758D01*
X67607567Y-55083764D01*
X67607565Y-55083762D01*
X67552476Y-55103265D01*
X67493812Y-55085883D01*
X67489631Y-55082845D01*
X67486599Y-55080519D01*
X67395275Y-55027793D01*
X67395274Y-55027792D01*
X67395273Y-55027792D01*
X67293413Y-55000499D01*
X67187959Y-55000499D01*
X67086099Y-55027792D01*
X67086098Y-55027792D01*
X67086096Y-55027793D01*
X67086095Y-55027793D01*
X66994775Y-55080517D01*
X66920204Y-55155088D01*
X66867480Y-55246408D01*
X66867480Y-55246409D01*
X66867480Y-55246410D01*
X66867479Y-55246412D01*
X66840186Y-55348272D01*
X61150500Y-55348272D01*
X61150500Y-55020443D01*
X61163765Y-54970941D01*
X61173205Y-54954590D01*
X61173204Y-54954590D01*
X61173207Y-54954587D01*
X61200500Y-54852727D01*
X61200500Y-54747273D01*
X61173207Y-54645413D01*
X61171463Y-54642393D01*
X61124258Y-54560631D01*
X61120480Y-54554087D01*
X61045913Y-54479520D01*
X61043107Y-54477900D01*
X60954589Y-54426794D01*
X60954588Y-54426793D01*
X60954587Y-54426793D01*
X60852727Y-54399500D01*
X60747273Y-54399500D01*
X60645413Y-54426793D01*
X60645412Y-54426793D01*
X60645410Y-54426794D01*
X60645409Y-54426794D01*
X60554089Y-54479518D01*
X60479518Y-54554089D01*
X60426794Y-54645409D01*
X60426794Y-54645410D01*
X60426793Y-54645412D01*
X60426793Y-54645413D01*
X60399500Y-54747273D01*
X60399500Y-54852727D01*
X60411364Y-54897003D01*
X60426794Y-54954590D01*
X60436235Y-54970941D01*
X60449500Y-55020443D01*
X60449500Y-57667853D01*
X60430593Y-57726044D01*
X60381093Y-57762008D01*
X60319907Y-57762008D01*
X60301003Y-57753591D01*
X60254587Y-57726793D01*
X60152727Y-57699500D01*
X60047273Y-57699500D01*
X59945413Y-57726793D01*
X59945412Y-57726793D01*
X59945410Y-57726794D01*
X59945409Y-57726794D01*
X59854089Y-57779518D01*
X59779518Y-57854089D01*
X59726794Y-57945409D01*
X59726794Y-57945410D01*
X59726793Y-57945412D01*
X59726793Y-57945413D01*
X59699500Y-58047273D01*
X56650500Y-58047273D01*
X56650500Y-56932146D01*
X56669407Y-56873955D01*
X56718907Y-56837991D01*
X56780093Y-56837991D01*
X56798992Y-56846406D01*
X56845413Y-56873207D01*
X56947273Y-56900500D01*
X56947275Y-56900500D01*
X57052725Y-56900500D01*
X57052727Y-56900500D01*
X57154587Y-56873207D01*
X57245913Y-56820480D01*
X57320480Y-56745913D01*
X57373207Y-56654587D01*
X57400500Y-56552727D01*
X57400500Y-56447273D01*
X57373207Y-56345413D01*
X57372862Y-56344816D01*
X57320481Y-56254089D01*
X57320480Y-56254087D01*
X57245913Y-56179520D01*
X57234975Y-56173205D01*
X57154589Y-56126794D01*
X57154588Y-56126793D01*
X57154587Y-56126793D01*
X57052727Y-56099500D01*
X56947273Y-56099500D01*
X56845413Y-56126793D01*
X56798998Y-56153590D01*
X56739151Y-56166311D01*
X56683256Y-56141424D01*
X56652663Y-56088436D01*
X56650500Y-56067853D01*
X56650500Y-54247273D01*
X63999500Y-54247273D01*
X63999500Y-54352727D01*
X64026295Y-54452727D01*
X64026794Y-54454589D01*
X64026794Y-54454590D01*
X64079231Y-54545413D01*
X64079520Y-54545913D01*
X64154087Y-54620480D01*
X64245413Y-54673207D01*
X64347273Y-54700500D01*
X64347275Y-54700500D01*
X64452725Y-54700500D01*
X64452727Y-54700500D01*
X64554587Y-54673207D01*
X64645913Y-54620480D01*
X64720480Y-54545913D01*
X64773207Y-54454587D01*
X64800500Y-54352727D01*
X64800500Y-54247273D01*
X65499500Y-54247273D01*
X65499500Y-54352727D01*
X65526295Y-54452727D01*
X65526794Y-54454589D01*
X65526794Y-54454590D01*
X65579231Y-54545413D01*
X65579520Y-54545913D01*
X65654087Y-54620480D01*
X65745413Y-54673207D01*
X65847273Y-54700500D01*
X65847275Y-54700500D01*
X65952725Y-54700500D01*
X65952727Y-54700500D01*
X66054587Y-54673207D01*
X66145913Y-54620480D01*
X66220480Y-54545913D01*
X66273207Y-54454587D01*
X66300500Y-54352727D01*
X66300500Y-54247273D01*
X66273207Y-54145413D01*
X66268507Y-54137273D01*
X66220481Y-54054089D01*
X66220480Y-54054087D01*
X66145913Y-53979520D01*
X66101865Y-53954089D01*
X66054589Y-53926794D01*
X66054588Y-53926793D01*
X66054587Y-53926793D01*
X65952727Y-53899500D01*
X65847273Y-53899500D01*
X65745413Y-53926793D01*
X65745412Y-53926793D01*
X65745410Y-53926794D01*
X65745409Y-53926794D01*
X65654089Y-53979518D01*
X65579518Y-54054089D01*
X65526794Y-54145409D01*
X65526794Y-54145410D01*
X65526793Y-54145412D01*
X65526793Y-54145413D01*
X65499500Y-54247273D01*
X64800500Y-54247273D01*
X64773207Y-54145413D01*
X64768507Y-54137273D01*
X64720481Y-54054089D01*
X64720480Y-54054087D01*
X64645913Y-53979520D01*
X64601865Y-53954089D01*
X64554589Y-53926794D01*
X64554588Y-53926793D01*
X64554587Y-53926793D01*
X64452727Y-53899500D01*
X64347273Y-53899500D01*
X64245413Y-53926793D01*
X64245412Y-53926793D01*
X64245410Y-53926794D01*
X64245409Y-53926794D01*
X64154089Y-53979518D01*
X64079518Y-54054089D01*
X64026794Y-54145409D01*
X64026794Y-54145410D01*
X64026793Y-54145412D01*
X64026793Y-54145413D01*
X63999500Y-54247273D01*
X56650500Y-54247273D01*
X56650500Y-52747273D01*
X58599500Y-52747273D01*
X58599500Y-52852727D01*
X58624469Y-52945913D01*
X58626794Y-52954589D01*
X58626794Y-52954590D01*
X58679231Y-53045413D01*
X58679520Y-53045913D01*
X58754087Y-53120480D01*
X58845413Y-53173207D01*
X58947273Y-53200500D01*
X58947275Y-53200500D01*
X59052725Y-53200500D01*
X59052727Y-53200500D01*
X59154587Y-53173207D01*
X59245913Y-53120480D01*
X59320480Y-53045913D01*
X59373207Y-52954587D01*
X59400500Y-52852727D01*
X59400500Y-52747273D01*
X59373207Y-52645413D01*
X59320480Y-52554087D01*
X59245913Y-52479520D01*
X59202731Y-52454589D01*
X59154589Y-52426794D01*
X59154588Y-52426793D01*
X59154587Y-52426793D01*
X59052727Y-52399500D01*
X58947273Y-52399500D01*
X58845413Y-52426793D01*
X58845412Y-52426793D01*
X58845410Y-52426794D01*
X58845409Y-52426794D01*
X58754089Y-52479518D01*
X58679518Y-52554089D01*
X58626794Y-52645409D01*
X58626794Y-52645410D01*
X58626793Y-52645412D01*
X58626793Y-52645413D01*
X58599500Y-52747273D01*
X56650500Y-52747273D01*
X56650500Y-47447273D01*
X83999500Y-47447273D01*
X83999500Y-47552727D01*
X84026793Y-47654587D01*
X84026794Y-47654589D01*
X84026794Y-47654590D01*
X84079518Y-47745910D01*
X84079520Y-47745913D01*
X84154087Y-47820480D01*
X84245413Y-47873207D01*
X84347273Y-47900500D01*
X84347275Y-47900500D01*
X84452725Y-47900500D01*
X84452727Y-47900500D01*
X84554587Y-47873207D01*
X84645913Y-47820480D01*
X84720480Y-47745913D01*
X84773207Y-47654587D01*
X84800500Y-47552727D01*
X84800500Y-47497799D01*
X84819407Y-47439608D01*
X84868907Y-47403644D01*
X84925120Y-47402172D01*
X84941273Y-47406500D01*
X84941276Y-47406500D01*
X85046725Y-47406500D01*
X85046727Y-47406500D01*
X85148587Y-47379207D01*
X85239913Y-47326480D01*
X85314480Y-47251913D01*
X85367207Y-47160587D01*
X85394500Y-47058727D01*
X85394500Y-46953273D01*
X85367207Y-46851413D01*
X85364817Y-46847274D01*
X85314481Y-46760089D01*
X85314480Y-46760087D01*
X85239913Y-46685520D01*
X85219748Y-46673878D01*
X85148589Y-46632794D01*
X85148588Y-46632793D01*
X85148587Y-46632793D01*
X85046727Y-46605500D01*
X84941273Y-46605500D01*
X84839413Y-46632793D01*
X84839412Y-46632793D01*
X84839410Y-46632794D01*
X84839409Y-46632794D01*
X84748089Y-46685518D01*
X84673518Y-46760089D01*
X84620794Y-46851409D01*
X84620794Y-46851410D01*
X84620793Y-46851412D01*
X84620793Y-46851413D01*
X84593647Y-46952727D01*
X84593500Y-46953274D01*
X84593500Y-47008200D01*
X84574593Y-47066391D01*
X84525093Y-47102355D01*
X84468880Y-47103828D01*
X84463382Y-47102355D01*
X84452727Y-47099500D01*
X84347273Y-47099500D01*
X84245413Y-47126793D01*
X84245412Y-47126793D01*
X84245410Y-47126794D01*
X84245409Y-47126794D01*
X84154089Y-47179518D01*
X84079518Y-47254089D01*
X84026794Y-47345409D01*
X84026794Y-47345410D01*
X84026793Y-47345412D01*
X84026793Y-47345413D01*
X83999500Y-47447273D01*
X56650500Y-47447273D01*
X56650500Y-46969033D01*
X56669407Y-46910842D01*
X56679496Y-46899029D01*
X57431252Y-46147273D01*
X59399500Y-46147273D01*
X59399500Y-46252727D01*
X59426295Y-46352727D01*
X59426794Y-46354589D01*
X59426794Y-46354590D01*
X59476272Y-46440287D01*
X59479520Y-46445913D01*
X59554087Y-46520480D01*
X59645413Y-46573207D01*
X59747273Y-46600500D01*
X59747275Y-46600500D01*
X59809541Y-46600500D01*
X59867732Y-46619407D01*
X59903696Y-46668907D01*
X59905160Y-46673854D01*
X59908287Y-46685520D01*
X59926793Y-46754587D01*
X59926794Y-46754590D01*
X59979518Y-46845910D01*
X59979520Y-46845913D01*
X60054087Y-46920480D01*
X60145413Y-46973207D01*
X60247273Y-47000500D01*
X60247275Y-47000500D01*
X60338408Y-47000500D01*
X60396599Y-47019407D01*
X60424144Y-47050000D01*
X60479518Y-47145910D01*
X60479520Y-47145913D01*
X60554087Y-47220480D01*
X60645413Y-47273207D01*
X60747273Y-47300500D01*
X60747275Y-47300500D01*
X60852725Y-47300500D01*
X60852727Y-47300500D01*
X60954587Y-47273207D01*
X61045913Y-47220480D01*
X61120480Y-47145913D01*
X61173207Y-47054587D01*
X61200500Y-46952727D01*
X61200500Y-46847273D01*
X61173207Y-46745413D01*
X61144626Y-46695910D01*
X61120481Y-46654089D01*
X61120480Y-46654087D01*
X61045913Y-46579520D01*
X61034975Y-46573205D01*
X60954589Y-46526794D01*
X60954588Y-46526793D01*
X60954587Y-46526793D01*
X60852727Y-46499500D01*
X60761592Y-46499500D01*
X60703401Y-46480593D01*
X60675856Y-46450000D01*
X60620481Y-46354089D01*
X60620480Y-46354087D01*
X60545913Y-46279520D01*
X60534975Y-46273205D01*
X60454589Y-46226794D01*
X60454588Y-46226793D01*
X60454587Y-46226793D01*
X60352727Y-46199500D01*
X60290459Y-46199500D01*
X60232268Y-46180593D01*
X60196304Y-46131093D01*
X60194839Y-46126145D01*
X60173207Y-46045413D01*
X60166678Y-46034105D01*
X60120481Y-45954089D01*
X60120480Y-45954087D01*
X60045913Y-45879520D01*
X60034975Y-45873205D01*
X59990060Y-45847273D01*
X61399500Y-45847273D01*
X61399500Y-45952727D01*
X61426295Y-46052727D01*
X61426794Y-46054589D01*
X61426794Y-46054590D01*
X61479231Y-46145413D01*
X61479520Y-46145913D01*
X61554087Y-46220480D01*
X61645413Y-46273207D01*
X61747273Y-46300500D01*
X61747275Y-46300500D01*
X61838408Y-46300500D01*
X61896599Y-46319407D01*
X61924144Y-46350000D01*
X61976272Y-46440287D01*
X61979520Y-46445913D01*
X62054087Y-46520480D01*
X62145413Y-46573207D01*
X62247273Y-46600500D01*
X62247275Y-46600500D01*
X62309541Y-46600500D01*
X62367732Y-46619407D01*
X62403696Y-46668907D01*
X62405160Y-46673854D01*
X62408287Y-46685520D01*
X62426793Y-46754587D01*
X62426794Y-46754590D01*
X62479518Y-46845910D01*
X62479520Y-46845913D01*
X62554087Y-46920480D01*
X62645413Y-46973207D01*
X62747273Y-47000500D01*
X62747275Y-47000500D01*
X62838408Y-47000500D01*
X62896599Y-47019407D01*
X62924144Y-47050000D01*
X62979518Y-47145910D01*
X62979520Y-47145913D01*
X63054087Y-47220480D01*
X63145413Y-47273207D01*
X63247273Y-47300500D01*
X63247275Y-47300500D01*
X63352725Y-47300500D01*
X63352727Y-47300500D01*
X63454587Y-47273207D01*
X63545913Y-47220480D01*
X63620480Y-47145913D01*
X63673207Y-47054587D01*
X63700500Y-46952727D01*
X63700500Y-46847273D01*
X69099500Y-46847273D01*
X69099500Y-46952727D01*
X69104988Y-46973207D01*
X69126794Y-47054589D01*
X69126794Y-47054590D01*
X69179518Y-47145910D01*
X69179520Y-47145913D01*
X69254087Y-47220480D01*
X69345413Y-47273207D01*
X69447273Y-47300500D01*
X69447275Y-47300500D01*
X69552725Y-47300500D01*
X69552727Y-47300500D01*
X69654587Y-47273207D01*
X69745913Y-47220480D01*
X69820480Y-47145913D01*
X69873207Y-47054587D01*
X69900500Y-46952727D01*
X69900500Y-46847273D01*
X69873207Y-46745413D01*
X69844626Y-46695910D01*
X69820481Y-46654089D01*
X69820480Y-46654087D01*
X69745913Y-46579520D01*
X69734975Y-46573205D01*
X69654589Y-46526794D01*
X69654588Y-46526793D01*
X69654587Y-46526793D01*
X69552727Y-46499500D01*
X69447273Y-46499500D01*
X69345413Y-46526793D01*
X69345412Y-46526793D01*
X69345410Y-46526794D01*
X69345409Y-46526794D01*
X69254089Y-46579518D01*
X69179518Y-46654089D01*
X69126794Y-46745409D01*
X69126794Y-46745410D01*
X69126793Y-46745412D01*
X69126793Y-46745413D01*
X69099500Y-46847273D01*
X63700500Y-46847273D01*
X63673207Y-46745413D01*
X63644626Y-46695910D01*
X63620481Y-46654089D01*
X63620480Y-46654087D01*
X63545913Y-46579520D01*
X63534975Y-46573205D01*
X63454589Y-46526794D01*
X63454588Y-46526793D01*
X63454587Y-46526793D01*
X63352727Y-46499500D01*
X63261592Y-46499500D01*
X63241908Y-46493104D01*
X63221328Y-46490942D01*
X63213465Y-46483863D01*
X63203401Y-46480593D01*
X63175857Y-46450003D01*
X63173207Y-46445413D01*
X63145413Y-46397273D01*
X69999500Y-46397273D01*
X69999500Y-46502727D01*
X70022340Y-46587967D01*
X70026794Y-46604589D01*
X70026794Y-46604590D01*
X70079518Y-46695910D01*
X70079520Y-46695913D01*
X70154087Y-46770480D01*
X70245413Y-46823207D01*
X70347273Y-46850500D01*
X70347275Y-46850500D01*
X70452725Y-46850500D01*
X70452727Y-46850500D01*
X70554587Y-46823207D01*
X70645913Y-46770480D01*
X70720480Y-46695913D01*
X70773207Y-46604587D01*
X70800500Y-46502727D01*
X70800500Y-46397273D01*
X70773207Y-46295413D01*
X70760386Y-46273207D01*
X70720481Y-46204089D01*
X70720480Y-46204087D01*
X70645913Y-46129520D01*
X70640027Y-46126122D01*
X70554589Y-46076794D01*
X70554588Y-46076793D01*
X70554587Y-46076793D01*
X70452727Y-46049500D01*
X70347273Y-46049500D01*
X70245413Y-46076793D01*
X70245412Y-46076793D01*
X70245410Y-46076794D01*
X70245409Y-46076794D01*
X70154089Y-46129518D01*
X70079518Y-46204089D01*
X70026794Y-46295409D01*
X70026794Y-46295410D01*
X70026793Y-46295412D01*
X70026793Y-46295413D01*
X69999500Y-46397273D01*
X63145413Y-46397273D01*
X63120480Y-46354087D01*
X63045913Y-46279520D01*
X63034975Y-46273205D01*
X62954589Y-46226794D01*
X62954588Y-46226793D01*
X62954587Y-46226793D01*
X62852727Y-46199500D01*
X62790459Y-46199500D01*
X62764197Y-46190967D01*
X62737461Y-46184119D01*
X62735685Y-46181703D01*
X62732268Y-46180593D01*
X62698432Y-46136998D01*
X62696319Y-46131672D01*
X62673207Y-46045413D01*
X62633586Y-45976788D01*
X62620770Y-45954590D01*
X62620480Y-45954087D01*
X62613666Y-45947273D01*
X71399500Y-45947273D01*
X71399500Y-46052727D01*
X71426793Y-46154587D01*
X71426794Y-46154589D01*
X71426794Y-46154590D01*
X71475768Y-46239414D01*
X71479520Y-46245913D01*
X71554087Y-46320480D01*
X71645413Y-46373207D01*
X71747273Y-46400500D01*
X71747275Y-46400500D01*
X71852725Y-46400500D01*
X71852727Y-46400500D01*
X71954587Y-46373207D01*
X72045913Y-46320480D01*
X72119120Y-46247273D01*
X80199500Y-46247273D01*
X80199500Y-46352727D01*
X80224469Y-46445913D01*
X80226794Y-46454589D01*
X80268481Y-46526794D01*
X80279520Y-46545913D01*
X80354087Y-46620480D01*
X80445413Y-46673207D01*
X80547273Y-46700500D01*
X80547275Y-46700500D01*
X80652725Y-46700500D01*
X80652727Y-46700500D01*
X80754587Y-46673207D01*
X80845913Y-46620480D01*
X80920480Y-46545913D01*
X80935588Y-46519745D01*
X80981055Y-46478804D01*
X81041905Y-46472407D01*
X81046910Y-46473608D01*
X81147273Y-46500500D01*
X81147275Y-46500500D01*
X81252725Y-46500500D01*
X81252727Y-46500500D01*
X81354587Y-46473207D01*
X81445913Y-46420480D01*
X81520480Y-46345913D01*
X81573207Y-46254587D01*
X81600500Y-46152727D01*
X81600500Y-46047273D01*
X81573207Y-45945413D01*
X81571329Y-45942161D01*
X81520481Y-45854089D01*
X81520480Y-45854087D01*
X81445913Y-45779520D01*
X81434975Y-45773205D01*
X81354589Y-45726794D01*
X81354588Y-45726793D01*
X81354587Y-45726793D01*
X81252727Y-45699500D01*
X81147273Y-45699500D01*
X81045413Y-45726793D01*
X81045412Y-45726793D01*
X81045410Y-45726794D01*
X81045409Y-45726794D01*
X80954089Y-45779518D01*
X80954087Y-45779520D01*
X80879520Y-45854087D01*
X80864838Y-45879518D01*
X80864411Y-45880257D01*
X80818940Y-45921197D01*
X80758090Y-45927591D01*
X80753062Y-45926384D01*
X80652727Y-45899500D01*
X80547273Y-45899500D01*
X80445413Y-45926793D01*
X80445412Y-45926793D01*
X80445410Y-45926794D01*
X80445409Y-45926794D01*
X80354089Y-45979518D01*
X80279518Y-46054089D01*
X80226794Y-46145409D01*
X80226794Y-46145410D01*
X80226793Y-46145412D01*
X80226793Y-46145413D01*
X80199500Y-46247273D01*
X72119120Y-46247273D01*
X72120480Y-46245913D01*
X72158696Y-46179719D01*
X72204164Y-46138779D01*
X72265015Y-46132383D01*
X72293927Y-46143481D01*
X72345413Y-46173207D01*
X72447273Y-46200500D01*
X72447275Y-46200500D01*
X72552725Y-46200500D01*
X72552727Y-46200500D01*
X72654587Y-46173207D01*
X72686835Y-46154589D01*
X72699506Y-46147273D01*
X72745913Y-46120480D01*
X72820480Y-46045913D01*
X72873207Y-45954587D01*
X72900500Y-45852727D01*
X72900500Y-45747273D01*
X72873207Y-45645413D01*
X72862457Y-45626794D01*
X72820481Y-45554089D01*
X72820480Y-45554087D01*
X72745913Y-45479520D01*
X72734975Y-45473205D01*
X72654589Y-45426794D01*
X72654588Y-45426793D01*
X72654587Y-45426793D01*
X72552727Y-45399500D01*
X72447273Y-45399500D01*
X72345413Y-45426793D01*
X72345412Y-45426793D01*
X72345410Y-45426794D01*
X72345409Y-45426794D01*
X72254089Y-45479518D01*
X72179519Y-45554088D01*
X72141303Y-45620279D01*
X72095833Y-45661220D01*
X72034982Y-45667614D01*
X72006068Y-45656515D01*
X71954588Y-45626793D01*
X71920633Y-45617695D01*
X71852727Y-45599500D01*
X71747273Y-45599500D01*
X71645413Y-45626793D01*
X71645412Y-45626793D01*
X71645410Y-45626794D01*
X71645409Y-45626794D01*
X71554089Y-45679518D01*
X71479518Y-45754089D01*
X71426794Y-45845409D01*
X71426794Y-45845410D01*
X71426793Y-45845412D01*
X71426793Y-45845413D01*
X71399500Y-45947273D01*
X62613666Y-45947273D01*
X62545913Y-45879520D01*
X62534975Y-45873205D01*
X62454589Y-45826794D01*
X62454588Y-45826793D01*
X62454587Y-45826793D01*
X62352727Y-45799500D01*
X62261592Y-45799500D01*
X62203401Y-45780593D01*
X62175856Y-45750000D01*
X62122567Y-45657702D01*
X62120480Y-45654087D01*
X62045913Y-45579520D01*
X62002731Y-45554589D01*
X61954589Y-45526794D01*
X61954588Y-45526793D01*
X61954587Y-45526793D01*
X61852727Y-45499500D01*
X61747273Y-45499500D01*
X61645413Y-45526793D01*
X61645412Y-45526793D01*
X61645410Y-45526794D01*
X61645409Y-45526794D01*
X61554089Y-45579518D01*
X61479518Y-45654089D01*
X61426794Y-45745409D01*
X61426794Y-45745410D01*
X61426793Y-45745412D01*
X61426793Y-45745413D01*
X61399500Y-45847273D01*
X59990060Y-45847273D01*
X59954589Y-45826794D01*
X59954588Y-45826793D01*
X59954587Y-45826793D01*
X59852727Y-45799500D01*
X59747273Y-45799500D01*
X59645413Y-45826793D01*
X59645412Y-45826793D01*
X59645410Y-45826794D01*
X59645409Y-45826794D01*
X59554089Y-45879518D01*
X59479518Y-45954089D01*
X59426794Y-46045409D01*
X59426794Y-46045410D01*
X59426793Y-46045412D01*
X59426793Y-46045413D01*
X59399500Y-46147273D01*
X57431252Y-46147273D01*
X58931252Y-44647273D01*
X72799500Y-44647273D01*
X72799500Y-44752727D01*
X72818387Y-44823214D01*
X72826794Y-44854589D01*
X72826794Y-44854590D01*
X72879231Y-44945413D01*
X72879520Y-44945913D01*
X72954087Y-45020480D01*
X73045413Y-45073207D01*
X73147273Y-45100500D01*
X73147275Y-45100500D01*
X73252725Y-45100500D01*
X73252727Y-45100500D01*
X73354587Y-45073207D01*
X73399506Y-45047273D01*
X73899500Y-45047273D01*
X73899500Y-45152727D01*
X73924335Y-45245413D01*
X73926794Y-45254589D01*
X73926794Y-45254590D01*
X73979231Y-45345413D01*
X73979520Y-45345913D01*
X74054087Y-45420480D01*
X74145413Y-45473207D01*
X74247273Y-45500500D01*
X74247275Y-45500500D01*
X74352725Y-45500500D01*
X74352727Y-45500500D01*
X74454587Y-45473207D01*
X74499506Y-45447273D01*
X85599500Y-45447273D01*
X85599500Y-45552727D01*
X85626659Y-45654087D01*
X85626794Y-45654589D01*
X85626794Y-45654590D01*
X85679231Y-45745413D01*
X85679520Y-45745913D01*
X85754087Y-45820480D01*
X85845413Y-45873207D01*
X85947273Y-45900500D01*
X85947275Y-45900500D01*
X86052725Y-45900500D01*
X86052727Y-45900500D01*
X86154587Y-45873207D01*
X86245913Y-45820480D01*
X86295190Y-45771202D01*
X86349704Y-45743426D01*
X86410136Y-45752997D01*
X86414691Y-45755470D01*
X86445411Y-45773206D01*
X86445413Y-45773207D01*
X86547273Y-45800500D01*
X86547275Y-45800500D01*
X86652725Y-45800500D01*
X86652727Y-45800500D01*
X86754587Y-45773207D01*
X86845913Y-45720480D01*
X86920480Y-45645913D01*
X86973207Y-45554587D01*
X87000500Y-45452727D01*
X87000500Y-45347273D01*
X86982226Y-45279074D01*
X87467699Y-45279074D01*
X87467699Y-45384528D01*
X87494992Y-45486388D01*
X87494993Y-45486390D01*
X87494993Y-45486391D01*
X87534368Y-45554590D01*
X87547719Y-45577714D01*
X87581803Y-45611798D01*
X87609579Y-45666313D01*
X87600008Y-45726745D01*
X87581812Y-45751793D01*
X87579521Y-45754084D01*
X87526794Y-45845409D01*
X87526794Y-45845410D01*
X87526793Y-45845412D01*
X87526793Y-45845413D01*
X87499500Y-45947273D01*
X87499500Y-46052727D01*
X87526793Y-46154587D01*
X87526794Y-46154589D01*
X87526794Y-46154590D01*
X87575768Y-46239414D01*
X87579520Y-46245913D01*
X87654087Y-46320480D01*
X87745413Y-46373207D01*
X87847273Y-46400500D01*
X87847275Y-46400500D01*
X87952725Y-46400500D01*
X87952727Y-46400500D01*
X88054587Y-46373207D01*
X88145913Y-46320480D01*
X88220480Y-46245913D01*
X88273207Y-46154587D01*
X88300500Y-46052727D01*
X88300500Y-45947273D01*
X88273207Y-45845413D01*
X88262457Y-45826794D01*
X88220481Y-45754089D01*
X88220480Y-45754087D01*
X88186394Y-45720001D01*
X88158619Y-45665487D01*
X88168190Y-45605055D01*
X88186393Y-45579999D01*
X88188679Y-45577714D01*
X88241406Y-45486388D01*
X88268699Y-45384528D01*
X88268699Y-45279074D01*
X88241406Y-45177214D01*
X88227268Y-45152727D01*
X88188680Y-45085890D01*
X88188679Y-45085888D01*
X88114112Y-45011321D01*
X88093637Y-44999500D01*
X88022788Y-44958595D01*
X88022787Y-44958594D01*
X88022786Y-44958594D01*
X87920926Y-44931301D01*
X87815472Y-44931301D01*
X87713612Y-44958594D01*
X87713611Y-44958594D01*
X87713609Y-44958595D01*
X87713608Y-44958595D01*
X87622288Y-45011319D01*
X87547717Y-45085890D01*
X87494993Y-45177210D01*
X87494993Y-45177211D01*
X87494992Y-45177213D01*
X87494992Y-45177214D01*
X87467699Y-45279074D01*
X86982226Y-45279074D01*
X86973207Y-45245413D01*
X86920480Y-45154087D01*
X86845913Y-45079520D01*
X86834975Y-45073205D01*
X86754589Y-45026794D01*
X86754588Y-45026793D01*
X86754587Y-45026793D01*
X86652727Y-44999500D01*
X86547273Y-44999500D01*
X86445413Y-45026793D01*
X86445412Y-45026793D01*
X86445410Y-45026794D01*
X86445409Y-45026794D01*
X86354087Y-45079519D01*
X86304810Y-45128796D01*
X86250293Y-45156573D01*
X86189861Y-45147001D01*
X86185309Y-45144529D01*
X86154591Y-45126795D01*
X86154589Y-45126794D01*
X86154588Y-45126793D01*
X86154587Y-45126793D01*
X86052727Y-45099500D01*
X85947273Y-45099500D01*
X85845413Y-45126793D01*
X85845412Y-45126793D01*
X85845410Y-45126794D01*
X85845409Y-45126794D01*
X85754089Y-45179518D01*
X85679518Y-45254089D01*
X85626794Y-45345409D01*
X85626794Y-45345410D01*
X85626793Y-45345412D01*
X85626793Y-45345413D01*
X85599500Y-45447273D01*
X74499506Y-45447273D01*
X74545913Y-45420480D01*
X74620480Y-45345913D01*
X74673207Y-45254587D01*
X74700500Y-45152727D01*
X74700500Y-45047273D01*
X74673207Y-44945413D01*
X74665059Y-44931301D01*
X74620481Y-44854089D01*
X74620480Y-44854087D01*
X74545913Y-44779520D01*
X74454587Y-44726793D01*
X74352727Y-44699500D01*
X74247273Y-44699500D01*
X74145413Y-44726793D01*
X74145412Y-44726793D01*
X74145410Y-44726794D01*
X74145409Y-44726794D01*
X74054089Y-44779518D01*
X73979518Y-44854089D01*
X73926794Y-44945409D01*
X73926794Y-44945410D01*
X73926793Y-44945412D01*
X73926793Y-44945413D01*
X73899500Y-45047273D01*
X73399506Y-45047273D01*
X73445913Y-45020480D01*
X73520480Y-44945913D01*
X73573207Y-44854587D01*
X73600500Y-44752727D01*
X73600500Y-44647273D01*
X73573207Y-44545413D01*
X73520480Y-44454087D01*
X73445913Y-44379520D01*
X73434975Y-44373205D01*
X73354589Y-44326794D01*
X73354588Y-44326793D01*
X73354587Y-44326793D01*
X73252727Y-44299500D01*
X73147273Y-44299500D01*
X73045413Y-44326793D01*
X73045412Y-44326793D01*
X73045410Y-44326794D01*
X73045409Y-44326794D01*
X72954089Y-44379518D01*
X72879518Y-44454089D01*
X72826794Y-44545409D01*
X72826794Y-44545410D01*
X72826793Y-44545412D01*
X72826793Y-44545413D01*
X72799500Y-44647273D01*
X58931252Y-44647273D01*
X59631252Y-43947273D01*
X95599500Y-43947273D01*
X95599500Y-44052727D01*
X95626793Y-44154587D01*
X95626794Y-44154589D01*
X95626794Y-44154590D01*
X95679518Y-44245910D01*
X95679520Y-44245913D01*
X95754087Y-44320480D01*
X95845413Y-44373207D01*
X95947273Y-44400500D01*
X95947275Y-44400500D01*
X96052725Y-44400500D01*
X96052727Y-44400500D01*
X96154587Y-44373207D01*
X96245913Y-44320480D01*
X96320480Y-44245913D01*
X96373207Y-44154587D01*
X96394833Y-44073876D01*
X96428156Y-44022563D01*
X96485277Y-44000636D01*
X96490459Y-44000500D01*
X96552725Y-44000500D01*
X96552727Y-44000500D01*
X96654587Y-43973207D01*
X96745913Y-43920480D01*
X96820480Y-43845913D01*
X96848810Y-43796843D01*
X96875856Y-43750000D01*
X96921325Y-43709059D01*
X96961592Y-43700500D01*
X97052725Y-43700500D01*
X97052727Y-43700500D01*
X97154587Y-43673207D01*
X97245913Y-43620480D01*
X97320480Y-43545913D01*
X97373207Y-43454587D01*
X97400500Y-43352727D01*
X97400500Y-43247273D01*
X97373207Y-43145413D01*
X97320480Y-43054087D01*
X97245913Y-42979520D01*
X97154587Y-42926793D01*
X97052727Y-42899500D01*
X96947273Y-42899500D01*
X96845413Y-42926793D01*
X96845412Y-42926793D01*
X96845410Y-42926794D01*
X96845409Y-42926794D01*
X96754089Y-42979518D01*
X96679518Y-43054089D01*
X96624144Y-43150000D01*
X96578675Y-43190941D01*
X96538408Y-43199500D01*
X96447273Y-43199500D01*
X96345413Y-43226793D01*
X96345412Y-43226793D01*
X96345410Y-43226794D01*
X96345409Y-43226794D01*
X96254089Y-43279518D01*
X96179518Y-43354089D01*
X96126794Y-43445409D01*
X96126793Y-43445412D01*
X96126793Y-43445413D01*
X96105166Y-43526123D01*
X96071844Y-43577437D01*
X96014723Y-43599364D01*
X96009541Y-43599500D01*
X95947273Y-43599500D01*
X95845413Y-43626793D01*
X95845412Y-43626793D01*
X95845410Y-43626794D01*
X95845409Y-43626794D01*
X95754089Y-43679518D01*
X95679518Y-43754089D01*
X95626794Y-43845409D01*
X95626794Y-43845410D01*
X95626793Y-43845412D01*
X95626793Y-43845413D01*
X95599500Y-43947273D01*
X59631252Y-43947273D01*
X61299029Y-42279496D01*
X61353546Y-42251719D01*
X61369033Y-42250500D01*
X101672474Y-42250500D01*
X101672475Y-42250500D01*
X101812485Y-42212984D01*
X101812487Y-42212982D01*
X101812489Y-42212982D01*
X101938010Y-42140512D01*
X101938010Y-42140511D01*
X101938015Y-42140509D01*
X101980498Y-42098025D01*
X102035013Y-42070250D01*
X102095445Y-42079821D01*
X102138710Y-42123086D01*
X102149500Y-42168031D01*
X102149500Y-54859309D01*
X102151831Y-54868007D01*
X102172269Y-54944283D01*
X102180199Y-54973882D01*
X102180203Y-54973892D01*
X102239507Y-55076609D01*
X102239509Y-55076611D01*
X102239511Y-55076614D01*
X104823386Y-57660489D01*
X104823388Y-57660490D01*
X104823390Y-57660492D01*
X104926107Y-57719796D01*
X104926108Y-57719796D01*
X104926113Y-57719799D01*
X105040691Y-57750499D01*
X105040693Y-57750499D01*
X105159307Y-57750499D01*
X105159309Y-57750499D01*
X105273887Y-57719799D01*
X105334091Y-57685040D01*
X105376609Y-57660492D01*
X105376609Y-57660491D01*
X105376614Y-57660489D01*
X105460489Y-57576614D01*
X105519799Y-57473887D01*
X105550499Y-57359309D01*
X105550499Y-57240691D01*
X105519799Y-57126113D01*
X105491390Y-57076907D01*
X105460492Y-57023390D01*
X105460491Y-57023389D01*
X105460490Y-57023388D01*
X105460489Y-57023386D01*
X103079496Y-54642393D01*
X103051719Y-54587876D01*
X103050500Y-54572389D01*
X103050500Y-41140692D01*
X103019798Y-41026112D01*
X102993447Y-40980470D01*
X102979517Y-40956344D01*
X102960490Y-40923387D01*
X101876614Y-39839511D01*
X101876611Y-39839509D01*
X101876609Y-39839507D01*
X101773890Y-39780202D01*
X101773886Y-39780200D01*
X101749673Y-39773712D01*
X101749673Y-39773713D01*
X101659309Y-39749500D01*
X101659307Y-39749500D01*
X47027611Y-39749500D01*
X46969420Y-39730593D01*
X46957607Y-39720504D01*
X45884376Y-38647273D01*
X71599500Y-38647273D01*
X71599500Y-38752727D01*
X71626295Y-38852727D01*
X71626794Y-38854589D01*
X71626794Y-38854590D01*
X71679518Y-38945910D01*
X71679520Y-38945913D01*
X71754087Y-39020480D01*
X71845413Y-39073207D01*
X71947273Y-39100500D01*
X71947275Y-39100500D01*
X72052725Y-39100500D01*
X72052727Y-39100500D01*
X72154587Y-39073207D01*
X72245913Y-39020480D01*
X72320480Y-38945913D01*
X72373207Y-38854587D01*
X72400500Y-38752727D01*
X72400500Y-38747273D01*
X98799500Y-38747273D01*
X98799500Y-38852727D01*
X98824469Y-38945913D01*
X98826794Y-38954589D01*
X98826794Y-38954590D01*
X98879518Y-39045910D01*
X98879520Y-39045913D01*
X98954087Y-39120480D01*
X99045413Y-39173207D01*
X99147273Y-39200500D01*
X99147275Y-39200500D01*
X99252725Y-39200500D01*
X99252727Y-39200500D01*
X99354587Y-39173207D01*
X99445913Y-39120480D01*
X99520480Y-39045913D01*
X99573207Y-38954587D01*
X99600500Y-38852727D01*
X99600500Y-38747273D01*
X99573207Y-38645413D01*
X99520480Y-38554087D01*
X99445913Y-38479520D01*
X99401865Y-38454089D01*
X99354589Y-38426794D01*
X99354588Y-38426793D01*
X99354587Y-38426793D01*
X99252727Y-38399500D01*
X99147273Y-38399500D01*
X99045413Y-38426793D01*
X99045412Y-38426793D01*
X99045410Y-38426794D01*
X99045409Y-38426794D01*
X98954089Y-38479518D01*
X98879518Y-38554089D01*
X98826794Y-38645409D01*
X98826794Y-38645410D01*
X98826793Y-38645412D01*
X98826793Y-38645413D01*
X98799500Y-38747273D01*
X72400500Y-38747273D01*
X72400500Y-38647273D01*
X72373207Y-38545413D01*
X72320480Y-38454087D01*
X72245913Y-38379520D01*
X72154587Y-38326793D01*
X72052727Y-38299500D01*
X71947273Y-38299500D01*
X71845413Y-38326793D01*
X71845412Y-38326793D01*
X71845410Y-38326794D01*
X71845409Y-38326794D01*
X71754089Y-38379518D01*
X71679518Y-38454089D01*
X71626794Y-38545409D01*
X71626794Y-38545410D01*
X71626793Y-38545412D01*
X71626793Y-38545413D01*
X71599500Y-38647273D01*
X45884376Y-38647273D01*
X44779496Y-37542393D01*
X44775869Y-37535275D01*
X44769407Y-37530580D01*
X44762243Y-37508531D01*
X44751719Y-37487876D01*
X44750500Y-37472389D01*
X44750500Y-37347273D01*
X72099500Y-37347273D01*
X72099500Y-37452727D01*
X72123526Y-37542393D01*
X72126794Y-37554589D01*
X72126794Y-37554590D01*
X72179518Y-37645910D01*
X72179520Y-37645913D01*
X72254087Y-37720480D01*
X72345413Y-37773207D01*
X72447273Y-37800500D01*
X72447275Y-37800500D01*
X72552725Y-37800500D01*
X72552727Y-37800500D01*
X72654587Y-37773207D01*
X72745913Y-37720480D01*
X72820480Y-37645913D01*
X72873207Y-37554587D01*
X72900500Y-37452727D01*
X72900500Y-37347273D01*
X72873207Y-37245413D01*
X72820480Y-37154087D01*
X72745913Y-37079520D01*
X72745910Y-37079518D01*
X72654590Y-37026794D01*
X72654587Y-37026793D01*
X72552727Y-36999500D01*
X72447273Y-36999500D01*
X72345413Y-37026793D01*
X72345412Y-37026793D01*
X72345410Y-37026794D01*
X72345409Y-37026794D01*
X72254089Y-37079518D01*
X72179518Y-37154089D01*
X72126794Y-37245409D01*
X72126794Y-37245410D01*
X72126793Y-37245412D01*
X72126793Y-37245413D01*
X72099500Y-37347273D01*
X44750500Y-37347273D01*
X44750500Y-36947273D01*
X100599500Y-36947273D01*
X100599500Y-37052727D01*
X100626659Y-37154087D01*
X100626794Y-37154589D01*
X100626794Y-37154590D01*
X100679231Y-37245413D01*
X100679520Y-37245913D01*
X100754087Y-37320480D01*
X100845413Y-37373207D01*
X100947273Y-37400500D01*
X100947275Y-37400500D01*
X101052725Y-37400500D01*
X101052727Y-37400500D01*
X101154587Y-37373207D01*
X101245913Y-37320480D01*
X101320480Y-37245913D01*
X101373207Y-37154587D01*
X101400500Y-37052727D01*
X101400500Y-36947273D01*
X101373207Y-36845413D01*
X101320480Y-36754087D01*
X101245913Y-36679520D01*
X101234975Y-36673205D01*
X101154589Y-36626794D01*
X101154588Y-36626793D01*
X101154587Y-36626793D01*
X101052727Y-36599500D01*
X100947273Y-36599500D01*
X100845413Y-36626793D01*
X100845412Y-36626793D01*
X100845410Y-36626794D01*
X100845409Y-36626794D01*
X100754089Y-36679518D01*
X100679518Y-36754089D01*
X100626794Y-36845409D01*
X100626794Y-36845410D01*
X100626793Y-36845412D01*
X100626793Y-36845413D01*
X100599500Y-36947273D01*
X44750500Y-36947273D01*
X44750500Y-36247273D01*
X67999500Y-36247273D01*
X67999500Y-36352727D01*
X68026793Y-36454587D01*
X68026794Y-36454589D01*
X68026794Y-36454590D01*
X68079518Y-36545910D01*
X68079520Y-36545913D01*
X68154087Y-36620480D01*
X68245413Y-36673207D01*
X68347273Y-36700500D01*
X68347275Y-36700500D01*
X68452725Y-36700500D01*
X68452727Y-36700500D01*
X68554587Y-36673207D01*
X68645913Y-36620480D01*
X68720480Y-36545913D01*
X68773207Y-36454587D01*
X68800500Y-36352727D01*
X68800500Y-36247273D01*
X68773207Y-36145413D01*
X68720480Y-36054087D01*
X68645913Y-35979520D01*
X68554587Y-35926793D01*
X68452727Y-35899500D01*
X68347273Y-35899500D01*
X68245413Y-35926793D01*
X68245412Y-35926793D01*
X68245410Y-35926794D01*
X68245409Y-35926794D01*
X68154089Y-35979518D01*
X68079518Y-36054089D01*
X68026794Y-36145409D01*
X68026794Y-36145410D01*
X68026793Y-36145412D01*
X68026793Y-36145413D01*
X67999500Y-36247273D01*
X44750500Y-36247273D01*
X44750500Y-35047273D01*
X64099500Y-35047273D01*
X64099500Y-35152727D01*
X64123070Y-35240691D01*
X64126794Y-35254589D01*
X64126794Y-35254590D01*
X64179518Y-35345910D01*
X64179520Y-35345913D01*
X64254087Y-35420480D01*
X64345413Y-35473207D01*
X64447273Y-35500500D01*
X64447275Y-35500500D01*
X64552725Y-35500500D01*
X64552727Y-35500500D01*
X64654587Y-35473207D01*
X64745913Y-35420480D01*
X64820480Y-35345913D01*
X64873207Y-35254587D01*
X64900500Y-35152727D01*
X64900500Y-35047273D01*
X64873207Y-34945413D01*
X64820480Y-34854087D01*
X64813666Y-34847273D01*
X68599500Y-34847273D01*
X68599500Y-34952727D01*
X68624834Y-35047274D01*
X68626794Y-35054589D01*
X68626794Y-35054590D01*
X68668088Y-35126112D01*
X68679520Y-35145913D01*
X68754087Y-35220480D01*
X68845413Y-35273207D01*
X68947273Y-35300500D01*
X68947275Y-35300500D01*
X69052725Y-35300500D01*
X69052727Y-35300500D01*
X69154587Y-35273207D01*
X69245913Y-35220480D01*
X69320480Y-35145913D01*
X69373207Y-35054587D01*
X69400500Y-34952727D01*
X69400500Y-34847273D01*
X69373207Y-34745413D01*
X69362457Y-34726794D01*
X69320481Y-34654089D01*
X69320480Y-34654087D01*
X69245913Y-34579520D01*
X69154587Y-34526793D01*
X69052727Y-34499500D01*
X68947273Y-34499500D01*
X68845413Y-34526793D01*
X68845412Y-34526793D01*
X68845410Y-34526794D01*
X68845409Y-34526794D01*
X68754089Y-34579518D01*
X68679518Y-34654089D01*
X68626794Y-34745409D01*
X68626794Y-34745410D01*
X68626793Y-34745412D01*
X68626793Y-34745413D01*
X68599500Y-34847273D01*
X64813666Y-34847273D01*
X64745913Y-34779520D01*
X64654587Y-34726793D01*
X64552727Y-34699500D01*
X64447273Y-34699500D01*
X64345413Y-34726793D01*
X64345412Y-34726793D01*
X64345410Y-34726794D01*
X64345409Y-34726794D01*
X64254089Y-34779518D01*
X64179518Y-34854089D01*
X64126794Y-34945409D01*
X64126794Y-34945410D01*
X64126793Y-34945412D01*
X64126793Y-34945413D01*
X64099500Y-35047273D01*
X44750500Y-35047273D01*
X44750500Y-33247273D01*
X65699500Y-33247273D01*
X65699500Y-33352727D01*
X65726793Y-33454587D01*
X65726794Y-33454589D01*
X65726794Y-33454590D01*
X65779518Y-33545910D01*
X65779520Y-33545913D01*
X65854087Y-33620480D01*
X65854089Y-33620481D01*
X65854090Y-33620482D01*
X65855363Y-33621459D01*
X65856013Y-33622405D01*
X65858676Y-33625068D01*
X65858182Y-33625561D01*
X65890018Y-33671885D01*
X65888415Y-33733049D01*
X65858275Y-33774531D01*
X65858676Y-33774932D01*
X65856149Y-33777458D01*
X65855363Y-33778541D01*
X65854090Y-33779517D01*
X65779518Y-33854089D01*
X65726794Y-33945409D01*
X65726794Y-33945410D01*
X65726793Y-33945412D01*
X65726793Y-33945413D01*
X65699500Y-34047273D01*
X65699500Y-34152727D01*
X65726793Y-34254587D01*
X65726794Y-34254589D01*
X65726794Y-34254590D01*
X65779518Y-34345910D01*
X65779520Y-34345913D01*
X65854087Y-34420480D01*
X65945413Y-34473207D01*
X66047273Y-34500500D01*
X66047275Y-34500500D01*
X66152725Y-34500500D01*
X66152727Y-34500500D01*
X66254587Y-34473207D01*
X66345913Y-34420480D01*
X66420480Y-34345913D01*
X66473207Y-34254587D01*
X66500500Y-34152727D01*
X66500500Y-34047273D01*
X66473207Y-33945413D01*
X66420480Y-33854087D01*
X66345913Y-33779520D01*
X66345910Y-33779518D01*
X66345909Y-33779517D01*
X66344642Y-33778545D01*
X66343993Y-33777601D01*
X66341324Y-33774932D01*
X66341818Y-33774437D01*
X66309983Y-33728123D01*
X66311582Y-33666958D01*
X66341725Y-33625469D01*
X66341324Y-33625068D01*
X66343858Y-33622533D01*
X66344642Y-33621455D01*
X66345907Y-33620483D01*
X66345913Y-33620480D01*
X66420480Y-33545913D01*
X66473207Y-33454587D01*
X66500500Y-33352727D01*
X66500500Y-33247273D01*
X66473207Y-33145413D01*
X66420480Y-33054087D01*
X66345913Y-32979520D01*
X66254587Y-32926793D01*
X66152727Y-32899500D01*
X66047273Y-32899500D01*
X65945413Y-32926793D01*
X65945412Y-32926793D01*
X65945410Y-32926794D01*
X65945409Y-32926794D01*
X65854089Y-32979518D01*
X65779518Y-33054089D01*
X65726794Y-33145409D01*
X65726794Y-33145410D01*
X65726793Y-33145412D01*
X65726793Y-33145413D01*
X65699500Y-33247273D01*
X44750500Y-33247273D01*
X44750500Y-32440692D01*
X44750500Y-32440691D01*
X44719799Y-32326114D01*
X44660490Y-32223387D01*
X40776614Y-28339511D01*
X40776611Y-28339509D01*
X40776609Y-28339507D01*
X40673890Y-28280202D01*
X40673886Y-28280200D01*
X40649673Y-28273712D01*
X40649673Y-28273713D01*
X40559309Y-28249500D01*
X33740691Y-28249500D01*
X33626118Y-28280200D01*
X33626114Y-28280201D01*
X33523387Y-28339510D01*
X26839507Y-35023390D01*
X26780200Y-35126112D01*
X26780200Y-35126113D01*
X26780201Y-35126114D01*
X26749500Y-35240691D01*
X26749500Y-39659309D01*
X26765897Y-39720504D01*
X26780202Y-39773890D01*
X26839507Y-39876608D01*
X26839509Y-39876610D01*
X26839511Y-39876613D01*
X26923387Y-39960489D01*
X26923389Y-39960490D01*
X26923391Y-39960492D01*
X27026110Y-40019797D01*
X27026111Y-40019797D01*
X27026114Y-40019799D01*
X27140691Y-40050500D01*
X27140693Y-40050500D01*
X27259307Y-40050500D01*
X27259309Y-40050500D01*
X27373886Y-40019799D01*
X27373888Y-40019797D01*
X27373890Y-40019797D01*
X27476608Y-39960492D01*
X27476608Y-39960491D01*
X27476613Y-39960489D01*
X27560489Y-39876613D01*
X27581910Y-39839511D01*
X27619797Y-39773890D01*
X27619797Y-39773888D01*
X27619799Y-39773886D01*
X27650500Y-39659309D01*
X27650500Y-35527611D01*
X27669407Y-35469420D01*
X27679496Y-35457607D01*
X33957607Y-29179496D01*
X34012124Y-29151719D01*
X34027611Y-29150500D01*
X40272389Y-29150500D01*
X40330580Y-29169407D01*
X40342393Y-29179496D01*
X43820504Y-32657607D01*
X43848281Y-32712124D01*
X43849500Y-32727611D01*
X43849500Y-37759309D01*
X43873713Y-37849673D01*
X43873712Y-37849673D01*
X43880200Y-37873886D01*
X43880202Y-37873890D01*
X43939507Y-37976609D01*
X43939509Y-37976611D01*
X43939511Y-37976614D01*
X46523386Y-40560489D01*
X46523388Y-40560490D01*
X46523390Y-40560492D01*
X46626107Y-40619796D01*
X46626109Y-40619797D01*
X46626113Y-40619799D01*
X46650322Y-40626284D01*
X46650325Y-40626287D01*
X46650326Y-40626286D01*
X46740688Y-40650499D01*
X46740690Y-40650500D01*
X46740691Y-40650500D01*
X101372389Y-40650500D01*
X101430580Y-40669407D01*
X101442393Y-40679496D01*
X101743393Y-40980496D01*
X101771170Y-41035013D01*
X101761599Y-41095445D01*
X101718334Y-41138710D01*
X101673389Y-41149500D01*
X101672475Y-41149500D01*
X101572475Y-41149500D01*
X101072475Y-41149500D01*
X100572475Y-41149500D01*
X61027525Y-41149500D01*
X60887515Y-41187016D01*
X60761985Y-41259490D01*
X55659488Y-46361987D01*
X55606026Y-46454586D01*
X55606027Y-46454587D01*
X55587016Y-46487513D01*
X55549500Y-46627525D01*
X55549500Y-59823205D01*
X55530593Y-59881396D01*
X55481093Y-59917360D01*
X55424878Y-59918832D01*
X55375356Y-59905563D01*
X55352727Y-59899500D01*
X55247273Y-59899500D01*
X55145413Y-59926793D01*
X55145412Y-59926793D01*
X55145410Y-59926794D01*
X55145409Y-59926794D01*
X55054089Y-59979518D01*
X54979518Y-60054089D01*
X54926794Y-60145409D01*
X54926794Y-60145410D01*
X54926793Y-60145412D01*
X54926793Y-60145413D01*
X54899500Y-60247273D01*
X54899500Y-60352727D01*
X54925430Y-60449500D01*
X54926794Y-60454589D01*
X54926794Y-60454590D01*
X54979518Y-60545910D01*
X54979520Y-60545913D01*
X55054087Y-60620480D01*
X55145413Y-60673207D01*
X55247273Y-60700500D01*
X55247275Y-60700500D01*
X55352725Y-60700500D01*
X55352727Y-60700500D01*
X55424879Y-60681167D01*
X55485978Y-60684370D01*
X55533528Y-60722875D01*
X55549500Y-60776794D01*
X55549500Y-68844100D01*
X55530593Y-68902291D01*
X55481093Y-68938255D01*
X55419907Y-68938255D01*
X55380498Y-68914105D01*
X55345913Y-68879520D01*
X55290061Y-68847274D01*
X55254589Y-68826794D01*
X55254588Y-68826793D01*
X55254587Y-68826793D01*
X55152727Y-68799500D01*
X55047273Y-68799500D01*
X54996343Y-68813146D01*
X54945411Y-68826793D01*
X54929055Y-68836237D01*
X54879556Y-68849500D01*
X50920444Y-68849500D01*
X50870945Y-68836237D01*
X50854588Y-68826793D01*
X50820633Y-68817695D01*
X50752727Y-68799500D01*
X50647273Y-68799500D01*
X50545413Y-68826793D01*
X50545412Y-68826793D01*
X50545410Y-68826794D01*
X50545409Y-68826794D01*
X50454089Y-68879518D01*
X50379518Y-68954089D01*
X50326794Y-69045409D01*
X50326794Y-69045410D01*
X50326793Y-69045412D01*
X50326793Y-69045413D01*
X50299500Y-69147273D01*
X50299500Y-69252727D01*
X50326295Y-69352727D01*
X50326794Y-69354589D01*
X50326794Y-69354590D01*
X50379518Y-69445910D01*
X50379520Y-69445913D01*
X50454087Y-69520480D01*
X50545413Y-69573207D01*
X50647273Y-69600500D01*
X50647275Y-69600500D01*
X50752725Y-69600500D01*
X50752727Y-69600500D01*
X50854587Y-69573207D01*
X50870945Y-69563763D01*
X50920444Y-69550500D01*
X54879556Y-69550500D01*
X54929055Y-69563763D01*
X54945411Y-69573206D01*
X54945413Y-69573207D01*
X55047273Y-69600500D01*
X55047275Y-69600500D01*
X55152725Y-69600500D01*
X55152727Y-69600500D01*
X55254587Y-69573207D01*
X55345913Y-69520480D01*
X55380498Y-69485894D01*
X55435013Y-69458119D01*
X55495445Y-69467690D01*
X55538710Y-69510955D01*
X55549500Y-69555900D01*
X55549500Y-74898066D01*
X55530593Y-74956257D01*
X55520504Y-74968070D01*
X54925410Y-75563163D01*
X54893297Y-75584621D01*
X54887519Y-75587014D01*
X54887516Y-75587015D01*
X54887515Y-75587016D01*
X54871639Y-75596182D01*
X54761986Y-75659490D01*
X54659487Y-75761989D01*
X54587017Y-75887510D01*
X54549500Y-76027525D01*
X54549500Y-76172474D01*
X54587017Y-76312489D01*
X54659487Y-76438010D01*
X54659489Y-76438012D01*
X54659491Y-76438015D01*
X54761985Y-76540509D01*
X54761987Y-76540510D01*
X54761989Y-76540512D01*
X54887511Y-76612982D01*
X54887512Y-76612982D01*
X54887515Y-76612984D01*
X55027525Y-76650500D01*
X55027526Y-76650500D01*
X55239574Y-76650500D01*
X55239575Y-76650500D01*
X55379585Y-76612984D01*
X55422320Y-76588311D01*
X55505115Y-76540510D01*
X56459081Y-75586543D01*
X56513594Y-75558769D01*
X56574026Y-75568340D01*
X56614815Y-75607046D01*
X56619527Y-75615207D01*
X56619529Y-75615209D01*
X56619531Y-75615212D01*
X56684788Y-75680469D01*
X56764712Y-75726614D01*
X56853856Y-75750500D01*
X56853858Y-75750500D01*
X58546142Y-75750500D01*
X58546144Y-75750500D01*
X58635288Y-75726614D01*
X58715212Y-75680469D01*
X58780469Y-75615212D01*
X58826614Y-75535288D01*
X58850500Y-75446144D01*
X58850500Y-74374034D01*
X61069500Y-74374034D01*
X61069500Y-74625965D01*
X61108908Y-74874780D01*
X61186759Y-75114379D01*
X61291772Y-75320480D01*
X61301130Y-75338845D01*
X61449207Y-75542656D01*
X61627344Y-75720793D01*
X61831155Y-75868870D01*
X62055621Y-75983241D01*
X62295215Y-76061090D01*
X62295216Y-76061090D01*
X62295219Y-76061091D01*
X62544035Y-76100500D01*
X62544038Y-76100500D01*
X62795965Y-76100500D01*
X63044780Y-76061091D01*
X63044781Y-76061090D01*
X63044785Y-76061090D01*
X63284379Y-75983241D01*
X63508845Y-75868870D01*
X63712656Y-75720793D01*
X63890793Y-75542656D01*
X64038870Y-75338845D01*
X64153241Y-75114379D01*
X64231090Y-74874785D01*
X64243600Y-74795802D01*
X64270500Y-74625965D01*
X64270500Y-74374034D01*
X64231091Y-74125219D01*
X64231090Y-74125215D01*
X64153241Y-73885621D01*
X64038870Y-73661155D01*
X63890793Y-73457344D01*
X63712656Y-73279207D01*
X63508845Y-73131130D01*
X63508844Y-73131129D01*
X63508842Y-73131128D01*
X63284379Y-73016759D01*
X63044780Y-72938908D01*
X62795965Y-72899500D01*
X62795962Y-72899500D01*
X62544038Y-72899500D01*
X62544035Y-72899500D01*
X62295219Y-72938908D01*
X62055620Y-73016759D01*
X61831157Y-73131128D01*
X61627345Y-73279206D01*
X61449206Y-73457345D01*
X61301128Y-73661157D01*
X61186759Y-73885620D01*
X61108908Y-74125219D01*
X61069500Y-74374034D01*
X58850500Y-74374034D01*
X58850500Y-69897273D01*
X61049500Y-69897273D01*
X61049500Y-70002727D01*
X61076793Y-70104587D01*
X61076794Y-70104588D01*
X61088868Y-70125502D01*
X61101587Y-70185351D01*
X61088868Y-70224497D01*
X61076793Y-70245413D01*
X61049500Y-70347273D01*
X61049500Y-70452727D01*
X61067654Y-70520480D01*
X61076793Y-70554588D01*
X61103301Y-70600501D01*
X61116022Y-70660349D01*
X61103301Y-70699499D01*
X61076793Y-70745411D01*
X61075502Y-70750231D01*
X61049500Y-70847273D01*
X61049500Y-70952727D01*
X61076659Y-71054087D01*
X61076794Y-71054589D01*
X61076794Y-71054590D01*
X61129231Y-71145413D01*
X61129520Y-71145913D01*
X61173605Y-71189998D01*
X61201381Y-71244513D01*
X61191810Y-71304945D01*
X61173606Y-71330000D01*
X61150882Y-71352725D01*
X61129518Y-71374089D01*
X61076794Y-71465409D01*
X61076794Y-71465410D01*
X61076793Y-71465412D01*
X61076793Y-71465413D01*
X61049500Y-71567273D01*
X61049500Y-71672727D01*
X61076793Y-71774587D01*
X61076794Y-71774589D01*
X61076794Y-71774590D01*
X61129518Y-71865910D01*
X61129520Y-71865913D01*
X61204087Y-71940480D01*
X61295413Y-71993207D01*
X61397273Y-72020500D01*
X61397275Y-72020500D01*
X61502725Y-72020500D01*
X61502727Y-72020500D01*
X61604587Y-71993207D01*
X61695913Y-71940480D01*
X61770480Y-71865913D01*
X61823207Y-71774587D01*
X61850500Y-71672727D01*
X61850500Y-71567273D01*
X61823207Y-71465413D01*
X61816958Y-71454590D01*
X61770481Y-71374089D01*
X61770480Y-71374087D01*
X61726394Y-71330001D01*
X61698619Y-71275487D01*
X61708190Y-71215055D01*
X61726393Y-71189999D01*
X61770480Y-71145913D01*
X61823207Y-71054587D01*
X61834229Y-71013449D01*
X61867551Y-70962137D01*
X61924672Y-70940209D01*
X61983772Y-70956043D01*
X61999859Y-70969069D01*
X62069092Y-71038302D01*
X62130776Y-71079518D01*
X62224761Y-71142318D01*
X62224767Y-71142320D01*
X62224769Y-71142322D01*
X62397749Y-71213973D01*
X62581384Y-71250500D01*
X62581385Y-71250500D01*
X62768615Y-71250500D01*
X62768616Y-71250500D01*
X62952251Y-71213973D01*
X63125231Y-71142322D01*
X63125234Y-71142319D01*
X63125238Y-71142318D01*
X63170187Y-71112282D01*
X63280908Y-71038302D01*
X63413302Y-70905908D01*
X63487282Y-70795187D01*
X63517318Y-70750238D01*
X63517319Y-70750234D01*
X63517322Y-70750231D01*
X63588973Y-70577251D01*
X63625500Y-70393616D01*
X63625500Y-70206384D01*
X63588973Y-70022749D01*
X63517322Y-69849769D01*
X63517320Y-69849767D01*
X63517318Y-69849761D01*
X63442797Y-69738235D01*
X63413302Y-69694092D01*
X63280908Y-69561698D01*
X63221816Y-69522214D01*
X63125238Y-69457681D01*
X63125229Y-69457677D01*
X62952249Y-69386026D01*
X62768618Y-69349500D01*
X62768616Y-69349500D01*
X62581384Y-69349500D01*
X62581381Y-69349500D01*
X62397750Y-69386026D01*
X62224770Y-69457677D01*
X62224761Y-69457681D01*
X62069092Y-69561698D01*
X62069088Y-69561701D01*
X61936698Y-69694091D01*
X61932511Y-69700358D01*
X61884459Y-69738235D01*
X61823321Y-69740634D01*
X61775240Y-69708503D01*
X61775068Y-69708676D01*
X61774200Y-69707808D01*
X61772449Y-69706638D01*
X61771657Y-69705621D01*
X61770482Y-69704090D01*
X61770481Y-69704089D01*
X61770480Y-69704087D01*
X61695913Y-69629520D01*
X61680255Y-69620480D01*
X61604589Y-69576794D01*
X61604588Y-69576793D01*
X61604587Y-69576793D01*
X61502727Y-69549500D01*
X61397273Y-69549500D01*
X61295413Y-69576793D01*
X61295412Y-69576793D01*
X61295410Y-69576794D01*
X61295409Y-69576794D01*
X61204089Y-69629518D01*
X61129518Y-69704089D01*
X61076794Y-69795409D01*
X61076794Y-69795410D01*
X61076793Y-69795412D01*
X61076793Y-69795413D01*
X61049500Y-69897273D01*
X58850500Y-69897273D01*
X58850500Y-64749500D01*
X58869407Y-64691309D01*
X58918907Y-64655345D01*
X58949500Y-64650500D01*
X65614810Y-64650500D01*
X65673001Y-64669407D01*
X65708965Y-64718907D01*
X65708965Y-64780093D01*
X65684814Y-64819504D01*
X64519529Y-65984789D01*
X64495381Y-66026613D01*
X64495382Y-66026614D01*
X64473386Y-66064710D01*
X64449500Y-66153857D01*
X64449500Y-73846143D01*
X64464964Y-73903856D01*
X64464963Y-73903856D01*
X64473385Y-73935285D01*
X64473386Y-73935288D01*
X64519530Y-74015212D01*
X64769028Y-74264710D01*
X65015408Y-74511090D01*
X65043185Y-74565607D01*
X65033614Y-74626039D01*
X65015408Y-74651097D01*
X64668530Y-74997976D01*
X64638205Y-75050499D01*
X64638206Y-75050500D01*
X64622386Y-75077899D01*
X64598500Y-75167046D01*
X64598500Y-77695143D01*
X64612467Y-77747272D01*
X64622385Y-77784287D01*
X64622386Y-77784289D01*
X64636235Y-77808275D01*
X64649500Y-77857777D01*
X64649500Y-78313810D01*
X64630593Y-78372001D01*
X64620504Y-78383814D01*
X64188814Y-78815504D01*
X64134297Y-78843281D01*
X64118810Y-78844500D01*
X59148290Y-78844500D01*
X59090099Y-78825593D01*
X59078286Y-78815504D01*
X58213282Y-77950500D01*
X57320312Y-77057530D01*
X57240388Y-77011386D01*
X57151244Y-76987500D01*
X57151242Y-76987500D01*
X53778670Y-76987500D01*
X53720479Y-76968593D01*
X53708666Y-76958504D01*
X46897435Y-70147273D01*
X53899500Y-70147273D01*
X53899500Y-70252727D01*
X53924834Y-70347274D01*
X53926794Y-70354589D01*
X53926794Y-70354590D01*
X53979518Y-70445910D01*
X53979520Y-70445913D01*
X54054087Y-70520480D01*
X54145413Y-70573207D01*
X54247273Y-70600500D01*
X54247275Y-70600500D01*
X54352725Y-70600500D01*
X54352727Y-70600500D01*
X54454587Y-70573207D01*
X54545913Y-70520480D01*
X54620480Y-70445913D01*
X54673207Y-70354587D01*
X54700500Y-70252727D01*
X54700500Y-70147273D01*
X54673207Y-70045413D01*
X54620480Y-69954087D01*
X54545913Y-69879520D01*
X54494384Y-69849770D01*
X54454589Y-69826794D01*
X54454588Y-69826793D01*
X54454587Y-69826793D01*
X54352727Y-69799500D01*
X54247273Y-69799500D01*
X54145413Y-69826793D01*
X54145412Y-69826793D01*
X54145410Y-69826794D01*
X54145409Y-69826794D01*
X54054089Y-69879518D01*
X53979518Y-69954089D01*
X53926794Y-70045409D01*
X53926794Y-70045410D01*
X53926793Y-70045412D01*
X53926793Y-70045413D01*
X53899500Y-70147273D01*
X46897435Y-70147273D01*
X45103352Y-68353190D01*
X45075575Y-68298673D01*
X45085146Y-68238241D01*
X45128411Y-68194976D01*
X45188843Y-68185405D01*
X45198964Y-68187555D01*
X45247273Y-68200500D01*
X45247275Y-68200500D01*
X45352725Y-68200500D01*
X45352727Y-68200500D01*
X45454587Y-68173207D01*
X45454589Y-68173205D01*
X45454592Y-68173205D01*
X45460585Y-68170723D01*
X45461614Y-68173209D01*
X45510324Y-68162843D01*
X45538841Y-68172108D01*
X45539415Y-68170723D01*
X45545407Y-68173205D01*
X45545411Y-68173206D01*
X45545413Y-68173207D01*
X45647273Y-68200500D01*
X45647275Y-68200500D01*
X45752725Y-68200500D01*
X45752727Y-68200500D01*
X45854587Y-68173207D01*
X45854589Y-68173205D01*
X45854592Y-68173205D01*
X45860585Y-68170723D01*
X45861614Y-68173209D01*
X45910324Y-68162843D01*
X45938841Y-68172108D01*
X45939415Y-68170723D01*
X45945407Y-68173205D01*
X45945411Y-68173206D01*
X45945413Y-68173207D01*
X46047273Y-68200500D01*
X46047275Y-68200500D01*
X46152725Y-68200500D01*
X46152727Y-68200500D01*
X46254587Y-68173207D01*
X46345913Y-68120480D01*
X46420480Y-68045913D01*
X46473207Y-67954587D01*
X46500500Y-67852727D01*
X46500500Y-67747273D01*
X53899500Y-67747273D01*
X53899500Y-67852727D01*
X53925430Y-67949500D01*
X53926794Y-67954589D01*
X53926794Y-67954590D01*
X53979518Y-68045910D01*
X53979520Y-68045913D01*
X54054087Y-68120480D01*
X54145413Y-68173207D01*
X54247273Y-68200500D01*
X54247275Y-68200500D01*
X54352725Y-68200500D01*
X54352727Y-68200500D01*
X54454587Y-68173207D01*
X54545913Y-68120480D01*
X54620480Y-68045913D01*
X54673207Y-67954587D01*
X54700500Y-67852727D01*
X54700500Y-67747273D01*
X54673207Y-67645413D01*
X54620480Y-67554087D01*
X54545913Y-67479520D01*
X54544018Y-67478426D01*
X54454589Y-67426794D01*
X54454588Y-67426793D01*
X54454587Y-67426793D01*
X54352727Y-67399500D01*
X54247273Y-67399500D01*
X54145413Y-67426793D01*
X54145412Y-67426793D01*
X54145410Y-67426794D01*
X54145409Y-67426794D01*
X54054089Y-67479518D01*
X53979518Y-67554089D01*
X53926794Y-67645409D01*
X53926794Y-67645410D01*
X53926793Y-67645412D01*
X53926793Y-67645413D01*
X53899500Y-67747273D01*
X46500500Y-67747273D01*
X46473207Y-67645413D01*
X46420480Y-67554087D01*
X46345913Y-67479520D01*
X46344018Y-67478426D01*
X46254589Y-67426794D01*
X46254588Y-67426793D01*
X46254587Y-67426793D01*
X46152727Y-67399500D01*
X46047273Y-67399500D01*
X45945413Y-67426793D01*
X45945412Y-67426793D01*
X45945410Y-67426794D01*
X45939419Y-67429276D01*
X45938391Y-67426795D01*
X45889648Y-67437154D01*
X45861152Y-67427895D01*
X45860581Y-67429276D01*
X45854589Y-67426794D01*
X45854588Y-67426793D01*
X45854587Y-67426793D01*
X45752727Y-67399500D01*
X45647273Y-67399500D01*
X45545413Y-67426793D01*
X45545412Y-67426793D01*
X45545410Y-67426794D01*
X45539419Y-67429276D01*
X45538391Y-67426795D01*
X45489648Y-67437154D01*
X45461152Y-67427895D01*
X45460581Y-67429276D01*
X45454589Y-67426794D01*
X45454588Y-67426793D01*
X45454587Y-67426793D01*
X45352727Y-67399500D01*
X45247273Y-67399500D01*
X45145413Y-67426793D01*
X45145412Y-67426793D01*
X45145410Y-67426794D01*
X45145406Y-67426796D01*
X45142378Y-67428544D01*
X45139930Y-67429063D01*
X45139419Y-67429276D01*
X45139379Y-67429181D01*
X45082529Y-67441261D01*
X45026635Y-67416370D01*
X44996047Y-67363379D01*
X45002447Y-67302530D01*
X45022878Y-67272803D01*
X46166186Y-66129496D01*
X46220703Y-66101719D01*
X46236190Y-66100500D01*
X46252725Y-66100500D01*
X46252727Y-66100500D01*
X46354587Y-66073207D01*
X46445913Y-66020480D01*
X46520480Y-65945913D01*
X46573207Y-65854587D01*
X46600500Y-65752727D01*
X46600500Y-65647273D01*
X46573207Y-65545413D01*
X46569914Y-65539710D01*
X46520481Y-65454089D01*
X46520480Y-65454087D01*
X46445913Y-65379520D01*
X46434625Y-65373003D01*
X46354589Y-65326794D01*
X46354588Y-65326793D01*
X46354587Y-65326793D01*
X46252727Y-65299500D01*
X46147273Y-65299500D01*
X46096343Y-65313146D01*
X46045411Y-65326793D01*
X45965374Y-65373001D01*
X45965373Y-65373003D01*
X45884792Y-65419526D01*
X45884791Y-65419527D01*
X44432364Y-66871953D01*
X44377847Y-66899730D01*
X44317415Y-66890159D01*
X44277616Y-66850360D01*
X44276452Y-66851033D01*
X44220481Y-66754089D01*
X44220480Y-66754087D01*
X44145913Y-66679520D01*
X44054587Y-66626793D01*
X43952727Y-66599500D01*
X43847273Y-66599500D01*
X43745413Y-66626793D01*
X43745412Y-66626793D01*
X43745410Y-66626794D01*
X43745409Y-66626794D01*
X43654089Y-66679518D01*
X43579518Y-66754089D01*
X43526794Y-66845409D01*
X43526794Y-66845410D01*
X43526793Y-66845412D01*
X43526793Y-66845413D01*
X43499500Y-66947273D01*
X43499500Y-67052727D01*
X43520380Y-67130652D01*
X43526794Y-67154590D01*
X43536235Y-67170941D01*
X43549500Y-67220443D01*
X43549500Y-67694530D01*
X43530593Y-67752721D01*
X43481093Y-67788685D01*
X43419907Y-67788685D01*
X43380496Y-67764534D01*
X42004496Y-66388534D01*
X41976719Y-66334017D01*
X41975500Y-66318530D01*
X41975500Y-56397273D01*
X47849500Y-56397273D01*
X47849500Y-56502727D01*
X47876793Y-56604587D01*
X47876794Y-56604589D01*
X47876794Y-56604590D01*
X47905662Y-56654590D01*
X47929520Y-56695913D01*
X48004087Y-56770480D01*
X48095413Y-56823207D01*
X48197273Y-56850500D01*
X48197275Y-56850500D01*
X48302725Y-56850500D01*
X48302727Y-56850500D01*
X48404587Y-56823207D01*
X48495913Y-56770480D01*
X48570480Y-56695913D01*
X48623207Y-56604587D01*
X48650500Y-56502727D01*
X48650500Y-56447273D01*
X52099500Y-56447273D01*
X52099500Y-56552727D01*
X52126659Y-56654087D01*
X52126794Y-56654589D01*
X52126794Y-56654590D01*
X52179231Y-56745413D01*
X52179520Y-56745913D01*
X52254087Y-56820480D01*
X52345413Y-56873207D01*
X52447273Y-56900500D01*
X52447275Y-56900500D01*
X52552725Y-56900500D01*
X52552727Y-56900500D01*
X52654587Y-56873207D01*
X52745913Y-56820480D01*
X52820480Y-56745913D01*
X52873207Y-56654587D01*
X52900500Y-56552727D01*
X52900500Y-56447273D01*
X52873207Y-56345413D01*
X52872862Y-56344816D01*
X52820481Y-56254089D01*
X52820480Y-56254087D01*
X52745913Y-56179520D01*
X52734975Y-56173205D01*
X52654589Y-56126794D01*
X52654588Y-56126793D01*
X52654587Y-56126793D01*
X52552727Y-56099500D01*
X52447273Y-56099500D01*
X52345413Y-56126793D01*
X52345412Y-56126793D01*
X52345410Y-56126794D01*
X52345409Y-56126794D01*
X52254089Y-56179518D01*
X52179518Y-56254089D01*
X52126794Y-56345409D01*
X52126794Y-56345410D01*
X52126793Y-56345412D01*
X52126793Y-56345413D01*
X52099500Y-56447273D01*
X48650500Y-56447273D01*
X48650500Y-56397273D01*
X48623207Y-56295413D01*
X48599347Y-56254087D01*
X48570481Y-56204089D01*
X48570480Y-56204087D01*
X48495913Y-56129520D01*
X48492608Y-56127612D01*
X48404589Y-56076794D01*
X48404588Y-56076793D01*
X48404587Y-56076793D01*
X48302727Y-56049500D01*
X48197273Y-56049500D01*
X48095413Y-56076793D01*
X48095412Y-56076793D01*
X48095410Y-56076794D01*
X48095409Y-56076794D01*
X48004089Y-56129518D01*
X47929518Y-56204089D01*
X47876794Y-56295409D01*
X47876794Y-56295410D01*
X47876793Y-56295412D01*
X47876793Y-56295413D01*
X47849500Y-56397273D01*
X41975500Y-56397273D01*
X41975500Y-52783492D01*
X41994407Y-52725301D01*
X42043907Y-52689337D01*
X42100121Y-52687866D01*
X42147273Y-52700500D01*
X42147274Y-52700500D01*
X42252725Y-52700500D01*
X42252727Y-52700500D01*
X42354587Y-52673207D01*
X42399506Y-52647273D01*
X49899500Y-52647273D01*
X49899500Y-52752727D01*
X49926295Y-52852727D01*
X49926794Y-52854589D01*
X49926794Y-52854590D01*
X49979518Y-52945910D01*
X49979520Y-52945913D01*
X50054087Y-53020480D01*
X50145413Y-53073207D01*
X50247273Y-53100500D01*
X50247275Y-53100500D01*
X50352725Y-53100500D01*
X50352727Y-53100500D01*
X50454587Y-53073207D01*
X50545913Y-53020480D01*
X50620480Y-52945913D01*
X50673207Y-52854587D01*
X50700500Y-52752727D01*
X50700500Y-52647273D01*
X54099500Y-52647273D01*
X54099500Y-52752727D01*
X54126295Y-52852727D01*
X54126794Y-52854589D01*
X54126794Y-52854590D01*
X54179518Y-52945910D01*
X54179520Y-52945913D01*
X54254087Y-53020480D01*
X54345413Y-53073207D01*
X54447273Y-53100500D01*
X54447275Y-53100500D01*
X54552725Y-53100500D01*
X54552727Y-53100500D01*
X54654587Y-53073207D01*
X54745913Y-53020480D01*
X54820480Y-52945913D01*
X54873207Y-52854587D01*
X54900500Y-52752727D01*
X54900500Y-52647273D01*
X54873207Y-52545413D01*
X54820480Y-52454087D01*
X54745913Y-52379520D01*
X54654587Y-52326793D01*
X54552727Y-52299500D01*
X54447273Y-52299500D01*
X54345413Y-52326793D01*
X54345412Y-52326793D01*
X54345410Y-52326794D01*
X54345409Y-52326794D01*
X54254089Y-52379518D01*
X54179518Y-52454089D01*
X54126794Y-52545409D01*
X54126794Y-52545410D01*
X54126793Y-52545412D01*
X54126793Y-52545413D01*
X54099500Y-52647273D01*
X50700500Y-52647273D01*
X50673207Y-52545413D01*
X50620480Y-52454087D01*
X50545913Y-52379520D01*
X50454587Y-52326793D01*
X50352727Y-52299500D01*
X50247273Y-52299500D01*
X50145413Y-52326793D01*
X50145412Y-52326793D01*
X50145410Y-52326794D01*
X50145409Y-52326794D01*
X50054089Y-52379518D01*
X49979518Y-52454089D01*
X49926794Y-52545409D01*
X49926794Y-52545410D01*
X49926793Y-52545412D01*
X49926793Y-52545413D01*
X49899500Y-52647273D01*
X42399506Y-52647273D01*
X42445913Y-52620480D01*
X42520480Y-52545913D01*
X42573207Y-52454587D01*
X42600500Y-52352727D01*
X42600500Y-52247273D01*
X42573207Y-52145413D01*
X42520480Y-52054087D01*
X42445913Y-51979520D01*
X42354587Y-51926793D01*
X42252727Y-51899500D01*
X42147273Y-51899500D01*
X42100121Y-51912133D01*
X42039021Y-51908931D01*
X41991471Y-51870426D01*
X41975500Y-51816507D01*
X41975500Y-31660659D01*
X41975500Y-31660658D01*
X41951614Y-31571514D01*
X41951238Y-31570863D01*
X41944049Y-31558410D01*
X41914165Y-31506651D01*
X41905470Y-31491590D01*
X39908410Y-29494530D01*
X39828486Y-29448386D01*
X39739342Y-29424500D01*
X34160658Y-29424500D01*
X34071514Y-29448386D01*
X33991590Y-29494530D01*
X32544529Y-30941591D01*
X32498385Y-31021515D01*
X32474499Y-31110660D01*
X32474499Y-31252842D01*
X32455592Y-31311033D01*
X32425000Y-31338578D01*
X32354088Y-31379519D01*
X32279518Y-31454089D01*
X32226794Y-31545409D01*
X32226794Y-31545410D01*
X32226793Y-31545412D01*
X32226793Y-31545413D01*
X32199500Y-31647273D01*
X32199500Y-31752727D01*
X32218260Y-31822740D01*
X32226794Y-31854589D01*
X32226794Y-31854590D01*
X32279518Y-31945910D01*
X32279520Y-31945913D01*
X32354087Y-32020480D01*
X32445413Y-32073207D01*
X32547273Y-32100500D01*
X32547275Y-32100500D01*
X32652725Y-32100500D01*
X32652727Y-32100500D01*
X32754587Y-32073207D01*
X32845913Y-32020480D01*
X32920480Y-31945913D01*
X32964264Y-31870075D01*
X33009731Y-31829136D01*
X33070581Y-31822740D01*
X33123570Y-31853332D01*
X33135735Y-31870076D01*
X33156745Y-31906465D01*
X33179520Y-31945913D01*
X33254087Y-32020480D01*
X33345413Y-32073207D01*
X33447273Y-32100500D01*
X33447275Y-32100500D01*
X33552725Y-32100500D01*
X33552727Y-32100500D01*
X33654587Y-32073207D01*
X33745913Y-32020480D01*
X33779998Y-31986394D01*
X33789685Y-31981459D01*
X33796578Y-31973051D01*
X33816325Y-31967885D01*
X33834513Y-31958619D01*
X33845251Y-31960319D01*
X33855772Y-31957568D01*
X33870983Y-31964395D01*
X33894945Y-31968190D01*
X33912762Y-31979836D01*
X33916539Y-31982932D01*
X33954087Y-32020480D01*
X33982011Y-32036602D01*
X33988261Y-32041725D01*
X34000618Y-32061006D01*
X34015939Y-32078020D01*
X34018130Y-32088328D01*
X34021277Y-32093238D01*
X34020823Y-32100999D01*
X34024499Y-32118289D01*
X34024499Y-61139341D01*
X34035265Y-61179520D01*
X34045986Y-61219531D01*
X34045985Y-61219531D01*
X34045986Y-61219533D01*
X34048382Y-61228477D01*
X34048383Y-61228480D01*
X34048385Y-61228485D01*
X34094529Y-61308409D01*
X54117118Y-81330998D01*
X54144894Y-81385513D01*
X54135323Y-81445945D01*
X54092058Y-81489210D01*
X54047113Y-81500000D01*
X20099500Y-81500000D01*
X20041309Y-81481093D01*
X20005345Y-81431593D01*
X20000500Y-81401000D01*
X20000500Y-74947273D01*
X31599500Y-74947273D01*
X31599500Y-75052727D01*
X31621435Y-75134589D01*
X31626794Y-75154589D01*
X31626794Y-75154590D01*
X31669969Y-75229371D01*
X31679520Y-75245913D01*
X31754087Y-75320480D01*
X31845413Y-75373207D01*
X31947273Y-75400500D01*
X31947275Y-75400500D01*
X32052725Y-75400500D01*
X32052727Y-75400500D01*
X32154587Y-75373207D01*
X32245913Y-75320480D01*
X32320480Y-75245913D01*
X32373207Y-75154587D01*
X32400500Y-75052727D01*
X32400500Y-74947273D01*
X32373207Y-74845413D01*
X32320480Y-74754087D01*
X32245913Y-74679520D01*
X32172082Y-74636894D01*
X32154589Y-74626794D01*
X32154588Y-74626793D01*
X32154587Y-74626793D01*
X32052727Y-74599500D01*
X31947273Y-74599500D01*
X31845413Y-74626793D01*
X31845412Y-74626793D01*
X31845410Y-74626794D01*
X31845409Y-74626794D01*
X31754089Y-74679518D01*
X31679518Y-74754089D01*
X31626794Y-74845409D01*
X31626794Y-74845410D01*
X31626793Y-74845412D01*
X31626793Y-74845413D01*
X31599500Y-74947273D01*
X20000500Y-74947273D01*
X20000500Y-73247273D01*
X27999500Y-73247273D01*
X27999500Y-73352727D01*
X28026793Y-73454587D01*
X28026794Y-73454589D01*
X28026794Y-73454590D01*
X28079518Y-73545910D01*
X28079520Y-73545913D01*
X28154087Y-73620480D01*
X28245413Y-73673207D01*
X28347273Y-73700500D01*
X28347275Y-73700500D01*
X28452725Y-73700500D01*
X28452727Y-73700500D01*
X28554587Y-73673207D01*
X28645913Y-73620480D01*
X28720480Y-73545913D01*
X28773207Y-73454587D01*
X28800500Y-73352727D01*
X28800500Y-73247273D01*
X28773207Y-73145413D01*
X28772769Y-73144655D01*
X28720481Y-73054089D01*
X28720480Y-73054087D01*
X28645913Y-72979520D01*
X28628026Y-72969193D01*
X28554589Y-72926794D01*
X28554588Y-72926793D01*
X28554587Y-72926793D01*
X28452727Y-72899500D01*
X28347273Y-72899500D01*
X28245413Y-72926793D01*
X28245412Y-72926793D01*
X28245410Y-72926794D01*
X28245409Y-72926794D01*
X28154089Y-72979518D01*
X28079518Y-73054089D01*
X28026794Y-73145409D01*
X28026794Y-73145410D01*
X28026793Y-73145412D01*
X28026793Y-73145413D01*
X27999500Y-73247273D01*
X20000500Y-73247273D01*
X20000500Y-68847273D01*
X27899500Y-68847273D01*
X27899500Y-68952727D01*
X27924335Y-69045413D01*
X27926794Y-69054589D01*
X27926794Y-69054590D01*
X27979231Y-69145413D01*
X27979520Y-69145913D01*
X28054087Y-69220480D01*
X28145413Y-69273207D01*
X28247273Y-69300500D01*
X28247275Y-69300500D01*
X28352725Y-69300500D01*
X28352727Y-69300500D01*
X28454587Y-69273207D01*
X28545913Y-69220480D01*
X28620480Y-69145913D01*
X28673207Y-69054587D01*
X28700500Y-68952727D01*
X28700500Y-68847273D01*
X28673207Y-68745413D01*
X28620480Y-68654087D01*
X28545913Y-68579520D01*
X28454587Y-68526793D01*
X28352727Y-68499500D01*
X28247273Y-68499500D01*
X28145413Y-68526793D01*
X28145412Y-68526793D01*
X28145410Y-68526794D01*
X28145409Y-68526794D01*
X28054089Y-68579518D01*
X27979518Y-68654089D01*
X27926794Y-68745409D01*
X27926794Y-68745410D01*
X27926793Y-68745412D01*
X27926793Y-68745413D01*
X27899500Y-68847273D01*
X20000500Y-68847273D01*
X20000500Y-55547273D01*
X30699500Y-55547273D01*
X30699500Y-55652727D01*
X30724834Y-55747274D01*
X30726794Y-55754589D01*
X30726794Y-55754590D01*
X30753878Y-55801500D01*
X30779520Y-55845913D01*
X30854087Y-55920480D01*
X30945413Y-55973207D01*
X31047273Y-56000500D01*
X31047275Y-56000500D01*
X31152725Y-56000500D01*
X31152727Y-56000500D01*
X31254587Y-55973207D01*
X31345913Y-55920480D01*
X31420480Y-55845913D01*
X31473207Y-55754587D01*
X31500500Y-55652727D01*
X31500500Y-55547273D01*
X31473207Y-55445413D01*
X31465734Y-55432470D01*
X31420481Y-55354089D01*
X31420480Y-55354087D01*
X31345913Y-55279520D01*
X31343441Y-55278093D01*
X31254589Y-55226794D01*
X31254588Y-55226793D01*
X31254587Y-55226793D01*
X31152727Y-55199500D01*
X31047273Y-55199500D01*
X30945413Y-55226793D01*
X30945412Y-55226793D01*
X30945410Y-55226794D01*
X30945409Y-55226794D01*
X30854089Y-55279518D01*
X30779518Y-55354089D01*
X30726794Y-55445409D01*
X30726794Y-55445410D01*
X30726793Y-55445412D01*
X30726793Y-55445413D01*
X30699500Y-55547273D01*
X20000500Y-55547273D01*
X20000500Y-49997273D01*
X31449500Y-49997273D01*
X31449500Y-50102727D01*
X31453257Y-50116747D01*
X31476794Y-50204589D01*
X31476794Y-50204590D01*
X31529518Y-50295910D01*
X31529520Y-50295913D01*
X31604087Y-50370480D01*
X31695413Y-50423207D01*
X31797273Y-50450500D01*
X31797275Y-50450500D01*
X31902725Y-50450500D01*
X31902727Y-50450500D01*
X32004587Y-50423207D01*
X32095913Y-50370480D01*
X32170480Y-50295913D01*
X32223207Y-50204587D01*
X32246744Y-50116743D01*
X32280065Y-50065432D01*
X32316741Y-50046744D01*
X32404587Y-50023207D01*
X32495913Y-49970480D01*
X32570480Y-49895913D01*
X32623207Y-49804587D01*
X32636177Y-49756179D01*
X32669499Y-49704867D01*
X32706178Y-49686177D01*
X32754587Y-49673207D01*
X32845913Y-49620480D01*
X32920480Y-49545913D01*
X32973207Y-49454587D01*
X32996744Y-49366743D01*
X33030065Y-49315432D01*
X33066741Y-49296744D01*
X33154587Y-49273207D01*
X33245913Y-49220480D01*
X33320480Y-49145913D01*
X33373207Y-49054587D01*
X33400500Y-48952727D01*
X33400500Y-48847273D01*
X33373207Y-48745413D01*
X33320480Y-48654087D01*
X33245913Y-48579520D01*
X33154587Y-48526793D01*
X33052727Y-48499500D01*
X32947273Y-48499500D01*
X32845413Y-48526793D01*
X32845412Y-48526793D01*
X32845410Y-48526794D01*
X32845409Y-48526794D01*
X32754089Y-48579518D01*
X32679518Y-48654089D01*
X32626794Y-48745409D01*
X32626794Y-48745410D01*
X32603257Y-48833253D01*
X32569933Y-48884567D01*
X32533254Y-48903256D01*
X32445413Y-48926793D01*
X32445412Y-48926793D01*
X32445410Y-48926794D01*
X32445409Y-48926794D01*
X32354089Y-48979518D01*
X32279518Y-49054089D01*
X32226794Y-49145409D01*
X32226793Y-49145411D01*
X32213823Y-49193819D01*
X32180499Y-49245134D01*
X32143819Y-49263822D01*
X32130482Y-49267396D01*
X32095411Y-49276793D01*
X32095409Y-49276794D01*
X32004089Y-49329518D01*
X31929518Y-49404089D01*
X31876794Y-49495409D01*
X31876794Y-49495410D01*
X31853257Y-49583253D01*
X31819933Y-49634567D01*
X31783254Y-49653256D01*
X31695413Y-49676793D01*
X31695412Y-49676793D01*
X31695410Y-49676794D01*
X31695409Y-49676794D01*
X31604089Y-49729518D01*
X31529518Y-49804089D01*
X31476794Y-49895409D01*
X31476794Y-49895410D01*
X31476793Y-49895412D01*
X31476793Y-49895413D01*
X31449500Y-49997273D01*
X20000500Y-49997273D01*
X20000500Y-45313385D01*
X30399500Y-45313385D01*
X30399500Y-45486614D01*
X30426597Y-45657702D01*
X30426598Y-45657706D01*
X30480123Y-45822438D01*
X30480125Y-45822441D01*
X30547457Y-45954590D01*
X30558768Y-45976788D01*
X30660586Y-46116928D01*
X30783072Y-46239414D01*
X30923212Y-46341232D01*
X31077555Y-46419873D01*
X31077557Y-46419873D01*
X31077558Y-46419874D01*
X31077561Y-46419876D01*
X31242293Y-46473401D01*
X31242297Y-46473402D01*
X31413386Y-46500500D01*
X31413389Y-46500500D01*
X31586614Y-46500500D01*
X31757702Y-46473402D01*
X31757706Y-46473401D01*
X31922438Y-46419876D01*
X31922440Y-46419874D01*
X31922445Y-46419873D01*
X32076788Y-46341232D01*
X32216928Y-46239414D01*
X32339414Y-46116928D01*
X32441232Y-45976788D01*
X32519873Y-45822445D01*
X32519874Y-45822440D01*
X32519876Y-45822438D01*
X32573401Y-45657706D01*
X32573402Y-45657702D01*
X32600500Y-45486614D01*
X32600500Y-45313385D01*
X32573402Y-45142297D01*
X32573401Y-45142293D01*
X32519876Y-44977561D01*
X32519874Y-44977558D01*
X32519873Y-44977557D01*
X32519873Y-44977555D01*
X32441232Y-44823212D01*
X32339414Y-44683072D01*
X32216928Y-44560586D01*
X32076788Y-44458768D01*
X32076787Y-44458767D01*
X32076785Y-44458766D01*
X31922441Y-44380125D01*
X31922438Y-44380123D01*
X31757706Y-44326598D01*
X31757702Y-44326597D01*
X31586614Y-44299500D01*
X31586611Y-44299500D01*
X31413389Y-44299500D01*
X31413386Y-44299500D01*
X31242297Y-44326597D01*
X31242293Y-44326598D01*
X31077561Y-44380123D01*
X31077558Y-44380125D01*
X30923214Y-44458766D01*
X30783073Y-44560585D01*
X30660585Y-44683073D01*
X30558766Y-44823214D01*
X30480125Y-44977558D01*
X30480123Y-44977561D01*
X30426598Y-45142293D01*
X30426597Y-45142297D01*
X30399500Y-45313385D01*
X20000500Y-45313385D01*
X20000500Y-17399500D01*
X20019407Y-17341309D01*
X20068907Y-17305345D01*
X20099500Y-17300500D01*
X128500500Y-17300500D01*
X128558691Y-17319407D01*
G37*
%TD.AperFunction*%
%TD*%
%TA.AperFunction,NonConductor*%
G36*
X39378803Y-30594407D02*
G01*
X39390616Y-30604496D01*
X39946210Y-31160090D01*
X39973987Y-31214606D01*
X39964416Y-31275038D01*
X39921151Y-31318303D01*
X39860719Y-31327874D01*
X39850584Y-31325720D01*
X39791325Y-31309842D01*
X39752727Y-31299500D01*
X39647273Y-31299500D01*
X39545413Y-31326793D01*
X39545412Y-31326793D01*
X39545410Y-31326794D01*
X39545409Y-31326794D01*
X39454089Y-31379518D01*
X39454087Y-31379519D01*
X39454087Y-31379520D01*
X39420001Y-31413605D01*
X39365487Y-31441381D01*
X39305055Y-31431810D01*
X39279999Y-31413606D01*
X39245913Y-31379520D01*
X39238588Y-31375291D01*
X39154589Y-31326794D01*
X39154588Y-31326793D01*
X39154587Y-31326793D01*
X39052727Y-31299500D01*
X38947273Y-31299500D01*
X38845413Y-31326793D01*
X38845412Y-31326793D01*
X38845410Y-31326794D01*
X38845409Y-31326794D01*
X38754089Y-31379518D01*
X38679519Y-31454088D01*
X38635957Y-31529539D01*
X38590487Y-31570479D01*
X38529637Y-31576874D01*
X38476649Y-31546281D01*
X38464490Y-31529547D01*
X38421530Y-31455137D01*
X38346963Y-31380570D01*
X38345144Y-31379520D01*
X38255639Y-31327844D01*
X38255638Y-31327843D01*
X38255637Y-31327843D01*
X38153777Y-31300550D01*
X38048323Y-31300550D01*
X37946463Y-31327843D01*
X37946462Y-31327843D01*
X37946460Y-31327844D01*
X37946459Y-31327844D01*
X37855139Y-31380568D01*
X37855137Y-31380569D01*
X37855137Y-31380570D01*
X37821051Y-31414655D01*
X37766537Y-31442431D01*
X37706105Y-31432860D01*
X37681049Y-31414656D01*
X37645913Y-31379520D01*
X37638588Y-31375291D01*
X37554589Y-31326794D01*
X37554588Y-31326793D01*
X37554587Y-31326793D01*
X37452727Y-31299500D01*
X37347273Y-31299500D01*
X37245413Y-31326793D01*
X37245412Y-31326793D01*
X37245410Y-31326794D01*
X37245409Y-31326794D01*
X37154089Y-31379518D01*
X37079518Y-31454089D01*
X37035736Y-31529922D01*
X36990267Y-31570863D01*
X36929416Y-31577259D01*
X36876428Y-31546666D01*
X36864264Y-31529922D01*
X36820481Y-31454089D01*
X36820480Y-31454087D01*
X36745913Y-31379520D01*
X36738588Y-31375291D01*
X36654589Y-31326794D01*
X36654588Y-31326793D01*
X36654587Y-31326793D01*
X36552727Y-31299500D01*
X36447273Y-31299500D01*
X36345413Y-31326793D01*
X36345412Y-31326793D01*
X36345410Y-31326794D01*
X36345409Y-31326794D01*
X36254089Y-31379518D01*
X36254087Y-31379519D01*
X36254087Y-31379520D01*
X36220001Y-31413605D01*
X36165487Y-31441381D01*
X36105055Y-31431810D01*
X36079999Y-31413606D01*
X36045913Y-31379520D01*
X36038588Y-31375291D01*
X35954589Y-31326794D01*
X35954588Y-31326793D01*
X35954587Y-31326793D01*
X35852727Y-31299500D01*
X35747273Y-31299500D01*
X35645413Y-31326793D01*
X35645412Y-31326793D01*
X35645410Y-31326794D01*
X35645409Y-31326794D01*
X35554089Y-31379518D01*
X35479517Y-31454090D01*
X35478541Y-31455363D01*
X35477594Y-31456013D01*
X35474932Y-31458676D01*
X35474438Y-31458182D01*
X35428115Y-31490018D01*
X35366951Y-31488415D01*
X35325468Y-31458275D01*
X35325068Y-31458676D01*
X35322541Y-31456149D01*
X35321459Y-31455363D01*
X35320482Y-31454090D01*
X35320481Y-31454089D01*
X35320480Y-31454087D01*
X35245913Y-31379520D01*
X35238588Y-31375291D01*
X35154589Y-31326794D01*
X35154588Y-31326793D01*
X35154587Y-31326793D01*
X35052727Y-31299500D01*
X34947273Y-31299500D01*
X34845413Y-31326793D01*
X34845412Y-31326793D01*
X34845410Y-31326794D01*
X34845409Y-31326794D01*
X34754089Y-31379518D01*
X34679517Y-31454090D01*
X34678541Y-31455363D01*
X34677594Y-31456013D01*
X34674932Y-31458676D01*
X34674438Y-31458182D01*
X34628115Y-31490018D01*
X34566951Y-31488415D01*
X34525468Y-31458275D01*
X34525068Y-31458676D01*
X34522541Y-31456149D01*
X34521459Y-31455363D01*
X34520482Y-31454090D01*
X34520481Y-31454089D01*
X34520480Y-31454087D01*
X34445913Y-31379520D01*
X34438588Y-31375291D01*
X34354589Y-31326794D01*
X34354588Y-31326793D01*
X34354587Y-31326793D01*
X34252727Y-31299500D01*
X34147273Y-31299500D01*
X34119592Y-31306916D01*
X34049415Y-31325720D01*
X33988314Y-31322517D01*
X33940764Y-31284011D01*
X33924929Y-31224911D01*
X33946856Y-31167789D01*
X33953779Y-31160099D01*
X34509383Y-30604496D01*
X34563900Y-30576719D01*
X34579387Y-30575500D01*
X39320612Y-30575500D01*
X39378803Y-30594407D01*
G37*
%TD.AperFunction*%
%TA.AperFunction,NonConductor*%
G36*
X79908812Y-53168407D02*
G01*
X79920625Y-53178496D01*
X81117864Y-54375735D01*
X81124982Y-54389706D01*
X81136070Y-54400794D01*
X81138522Y-54416281D01*
X81145641Y-54430252D01*
X81143188Y-54445739D01*
X81145641Y-54461226D01*
X81138522Y-54475196D01*
X81136070Y-54490684D01*
X81117864Y-54515743D01*
X81115743Y-54517864D01*
X81061226Y-54545641D01*
X81000794Y-54536070D01*
X80975735Y-54517864D01*
X79776375Y-53318504D01*
X79748598Y-53263987D01*
X79758169Y-53203555D01*
X79801434Y-53160290D01*
X79846379Y-53149500D01*
X79850621Y-53149500D01*
X79908812Y-53168407D01*
G37*
%TD.AperFunction*%
%TA.AperFunction,NonConductor*%
G36*
X79034190Y-53569407D02*
G01*
X79046003Y-53579496D01*
X79747939Y-54281432D01*
X79775716Y-54335949D01*
X79766145Y-54396381D01*
X79727435Y-54437172D01*
X79654089Y-54479518D01*
X79579518Y-54554089D01*
X79526794Y-54645409D01*
X79526794Y-54645410D01*
X79526793Y-54645412D01*
X79526793Y-54645413D01*
X79499500Y-54747273D01*
X79499500Y-54852727D01*
X79526295Y-54952727D01*
X79526794Y-54954589D01*
X79526794Y-54954590D01*
X79579518Y-55045910D01*
X79579520Y-55045913D01*
X79654087Y-55120480D01*
X79745413Y-55173207D01*
X79847273Y-55200500D01*
X79847275Y-55200500D01*
X79952724Y-55200500D01*
X79952727Y-55200500D01*
X79992047Y-55189964D01*
X80053146Y-55193166D01*
X80100696Y-55231671D01*
X80116532Y-55290772D01*
X80101495Y-55338260D01*
X80042302Y-55432469D01*
X79998355Y-55558060D01*
X79998355Y-55558061D01*
X79992771Y-55607604D01*
X79967465Y-55663311D01*
X79914248Y-55693504D01*
X79853448Y-55686650D01*
X79824390Y-55666519D01*
X79441334Y-55283463D01*
X79425602Y-55262959D01*
X79380472Y-55184792D01*
X79380470Y-55184790D01*
X79380469Y-55184788D01*
X79315212Y-55119531D01*
X79272346Y-55094782D01*
X79235290Y-55073387D01*
X79235289Y-55073386D01*
X79235288Y-55073386D01*
X79146144Y-55049500D01*
X79146142Y-55049500D01*
X77018711Y-55049500D01*
X76960520Y-55030593D01*
X76924556Y-54981093D01*
X76924556Y-54919907D01*
X76960520Y-54870407D01*
X76969199Y-54864770D01*
X77045913Y-54820480D01*
X77120480Y-54745913D01*
X77173207Y-54654587D01*
X77200500Y-54552727D01*
X77200500Y-54447273D01*
X77173705Y-54347273D01*
X77899500Y-54347273D01*
X77899500Y-54452727D01*
X77926659Y-54554087D01*
X77926794Y-54554589D01*
X77926794Y-54554590D01*
X77979231Y-54645413D01*
X77979520Y-54645913D01*
X78054087Y-54720480D01*
X78145413Y-54773207D01*
X78247273Y-54800500D01*
X78247275Y-54800500D01*
X78352725Y-54800500D01*
X78352727Y-54800500D01*
X78454587Y-54773207D01*
X78545913Y-54720480D01*
X78620480Y-54645913D01*
X78673207Y-54554587D01*
X78700500Y-54452727D01*
X78700500Y-54347273D01*
X78673207Y-54245413D01*
X78640797Y-54189278D01*
X78620481Y-54154089D01*
X78620480Y-54154087D01*
X78545913Y-54079520D01*
X78501865Y-54054089D01*
X78454589Y-54026794D01*
X78454588Y-54026793D01*
X78454587Y-54026793D01*
X78352727Y-53999500D01*
X78247273Y-53999500D01*
X78145413Y-54026793D01*
X78145412Y-54026793D01*
X78145410Y-54026794D01*
X78145409Y-54026794D01*
X78054089Y-54079518D01*
X77979518Y-54154089D01*
X77926794Y-54245409D01*
X77926794Y-54245410D01*
X77926793Y-54245412D01*
X77926793Y-54245413D01*
X77899500Y-54347273D01*
X77173705Y-54347273D01*
X77173207Y-54345413D01*
X77162457Y-54326794D01*
X77122255Y-54257161D01*
X77120480Y-54254087D01*
X77045913Y-54179520D01*
X77002731Y-54154589D01*
X76954589Y-54126794D01*
X76954588Y-54126793D01*
X76954587Y-54126793D01*
X76852727Y-54099500D01*
X76747273Y-54099500D01*
X76645413Y-54126793D01*
X76645412Y-54126793D01*
X76645410Y-54126794D01*
X76645409Y-54126794D01*
X76554089Y-54179518D01*
X76479518Y-54254089D01*
X76426794Y-54345409D01*
X76426794Y-54345410D01*
X76426793Y-54345412D01*
X76426793Y-54345413D01*
X76399500Y-54447273D01*
X76399500Y-54552727D01*
X76424834Y-54647274D01*
X76426794Y-54654589D01*
X76426794Y-54654590D01*
X76479231Y-54745413D01*
X76479520Y-54745913D01*
X76554087Y-54820480D01*
X76630790Y-54864764D01*
X76671730Y-54910233D01*
X76678126Y-54971083D01*
X76647533Y-55024071D01*
X76591637Y-55048958D01*
X76581289Y-55049500D01*
X76186190Y-55049500D01*
X76127999Y-55030593D01*
X76116186Y-55020504D01*
X75303717Y-54208035D01*
X75278094Y-54163652D01*
X75273207Y-54145413D01*
X75220480Y-54054087D01*
X75145913Y-53979520D01*
X75101865Y-53954089D01*
X75054589Y-53926794D01*
X75054588Y-53926793D01*
X75054587Y-53926793D01*
X74952727Y-53899500D01*
X74847273Y-53899500D01*
X74745413Y-53926793D01*
X74745412Y-53926793D01*
X74745410Y-53926794D01*
X74745409Y-53926794D01*
X74654089Y-53979518D01*
X74579518Y-54054089D01*
X74526794Y-54145409D01*
X74526794Y-54145410D01*
X74526793Y-54145412D01*
X74526793Y-54145413D01*
X74499500Y-54247273D01*
X74499500Y-54352727D01*
X74526295Y-54452727D01*
X74526794Y-54454589D01*
X74526795Y-54454591D01*
X74544529Y-54485309D01*
X74545089Y-54487948D01*
X74546999Y-54489857D01*
X74551402Y-54517649D01*
X74557249Y-54545157D01*
X74556151Y-54547621D01*
X74556574Y-54550288D01*
X74543800Y-54575362D01*
X74532362Y-54601052D01*
X74528800Y-54604807D01*
X74520005Y-54613601D01*
X74465493Y-54641380D01*
X74405060Y-54631812D01*
X74379999Y-54613606D01*
X74345913Y-54579520D01*
X74338711Y-54575362D01*
X74254589Y-54526794D01*
X74254588Y-54526793D01*
X74254587Y-54526793D01*
X74152727Y-54499500D01*
X74047273Y-54499500D01*
X73996343Y-54513146D01*
X73945411Y-54526793D01*
X73899499Y-54553301D01*
X73879260Y-54557602D01*
X73860358Y-54566021D01*
X73850004Y-54563821D01*
X73839651Y-54566022D01*
X73800508Y-54553305D01*
X73797944Y-54551825D01*
X73756999Y-54506360D01*
X73750597Y-54445510D01*
X73781185Y-54392519D01*
X73785693Y-54388697D01*
X73820184Y-54361193D01*
X73903150Y-54257159D01*
X73960886Y-54137273D01*
X73986104Y-54026794D01*
X73990497Y-54007551D01*
X73990497Y-54007547D01*
X73990498Y-54007545D01*
X73990498Y-53987154D01*
X73990500Y-53987149D01*
X73990500Y-53919531D01*
X73990501Y-53885499D01*
X73990500Y-53885495D01*
X73990500Y-53649500D01*
X74009407Y-53591309D01*
X74058907Y-53555345D01*
X74089500Y-53550500D01*
X74424512Y-53550500D01*
X78975999Y-53550500D01*
X79034190Y-53569407D01*
G37*
%TD.AperFunction*%
%TA.AperFunction,NonConductor*%
G36*
X81902209Y-57156067D02*
G01*
X81934763Y-57207873D01*
X81937143Y-57220994D01*
X81942888Y-57272045D01*
X81972176Y-57355779D01*
X81986821Y-57397648D01*
X82007287Y-57430227D01*
X82022231Y-57489559D01*
X81999446Y-57546344D01*
X81986953Y-57558843D01*
X81980373Y-57564343D01*
X81954087Y-57579520D01*
X81912632Y-57620974D01*
X81909236Y-57623814D01*
X81884745Y-57633657D01*
X81861225Y-57645641D01*
X81856708Y-57644925D01*
X81852465Y-57646631D01*
X81826863Y-57640198D01*
X81800793Y-57636069D01*
X81795698Y-57632367D01*
X81793124Y-57631721D01*
X81790518Y-57628604D01*
X81775735Y-57617864D01*
X81534835Y-57376964D01*
X81507058Y-57322447D01*
X81516629Y-57262015D01*
X81559894Y-57218750D01*
X81593748Y-57208584D01*
X81643283Y-57203003D01*
X81768883Y-57159053D01*
X81786092Y-57148239D01*
X81845422Y-57133289D01*
X81902209Y-57156067D01*
G37*
%TD.AperFunction*%
%TA.AperFunction,NonConductor*%
G36*
X86599204Y-60263929D02*
G01*
X86624264Y-60282135D01*
X88357342Y-62015212D01*
X88357341Y-62015212D01*
X88422626Y-62080496D01*
X88450404Y-62135012D01*
X88440833Y-62195444D01*
X88397569Y-62238709D01*
X88352623Y-62249500D01*
X86376794Y-62249500D01*
X86318603Y-62230593D01*
X86282639Y-62181093D01*
X86278501Y-62138686D01*
X86279341Y-62131691D01*
X86300500Y-62052727D01*
X86300500Y-61955659D01*
X86301207Y-61949777D01*
X86311695Y-61927133D01*
X86319407Y-61903400D01*
X86325037Y-61898330D01*
X86326924Y-61894258D01*
X86333849Y-61890395D01*
X86350000Y-61875854D01*
X86354582Y-61873208D01*
X86354587Y-61873207D01*
X86445913Y-61820480D01*
X86520480Y-61745913D01*
X86573207Y-61654587D01*
X86600500Y-61552727D01*
X86600500Y-61447273D01*
X86573207Y-61345413D01*
X86562457Y-61326794D01*
X86538055Y-61284529D01*
X86520480Y-61254087D01*
X86445913Y-61179520D01*
X86445910Y-61179518D01*
X86354590Y-61126794D01*
X86354587Y-61126793D01*
X86336343Y-61121904D01*
X86291964Y-61096282D01*
X85637928Y-60442246D01*
X85629666Y-60426031D01*
X85617491Y-60412509D01*
X85616117Y-60399438D01*
X85610151Y-60387729D01*
X85612997Y-60369757D01*
X85611095Y-60351659D01*
X85617666Y-60340277D01*
X85619722Y-60327297D01*
X85632590Y-60314428D01*
X85641688Y-60298671D01*
X85653693Y-60293325D01*
X85662987Y-60284032D01*
X85680959Y-60281185D01*
X85697583Y-60273784D01*
X85710438Y-60276516D01*
X85723419Y-60274461D01*
X85757426Y-60286503D01*
X85816277Y-60320480D01*
X85826901Y-60326614D01*
X85916045Y-60350500D01*
X85979556Y-60350500D01*
X86029055Y-60363763D01*
X86045411Y-60373206D01*
X86045413Y-60373207D01*
X86147273Y-60400500D01*
X86147275Y-60400500D01*
X86252725Y-60400500D01*
X86252727Y-60400500D01*
X86354587Y-60373207D01*
X86445913Y-60320480D01*
X86484258Y-60282134D01*
X86538772Y-60254358D01*
X86599204Y-60263929D01*
G37*
%TD.AperFunction*%
%TA.AperFunction,NonConductor*%
G36*
X94373001Y-64669407D02*
G01*
X94408965Y-64718907D01*
X94408965Y-64780093D01*
X94384814Y-64819503D01*
X94083815Y-65120503D01*
X94029298Y-65148281D01*
X94013811Y-65149500D01*
X93776794Y-65149500D01*
X93718603Y-65130593D01*
X93682639Y-65081093D01*
X93681167Y-65024879D01*
X93700500Y-64952727D01*
X93700500Y-64847273D01*
X93681167Y-64775120D01*
X93684370Y-64714022D01*
X93722875Y-64666472D01*
X93776794Y-64650500D01*
X94314810Y-64650500D01*
X94373001Y-64669407D01*
G37*
%TD.AperFunction*%
%TA.AperFunction,NonConductor*%
G36*
X100373000Y-64669407D02*
G01*
X100408964Y-64718907D01*
X100408964Y-64780093D01*
X100384813Y-64819504D01*
X100027200Y-65177117D01*
X99972683Y-65204894D01*
X99912251Y-65195323D01*
X99868986Y-65152058D01*
X99859415Y-65091626D01*
X99871458Y-65057615D01*
X99873207Y-65054587D01*
X99900500Y-64952727D01*
X99900500Y-64847273D01*
X99881167Y-64775120D01*
X99884370Y-64714022D01*
X99922875Y-64666472D01*
X99976794Y-64650500D01*
X100314809Y-64650500D01*
X100373000Y-64669407D01*
G37*
%TD.AperFunction*%
%TA.AperFunction,NonConductor*%
G36*
X97473000Y-64669407D02*
G01*
X97508964Y-64718907D01*
X97508964Y-64780093D01*
X97484813Y-64819504D01*
X96782814Y-65521504D01*
X96728297Y-65549281D01*
X96712810Y-65550500D01*
X94884188Y-65550500D01*
X94862139Y-65543336D01*
X94839244Y-65539710D01*
X94833595Y-65534061D01*
X94825997Y-65531593D01*
X94812368Y-65512835D01*
X94795979Y-65496446D01*
X94794729Y-65488557D01*
X94790033Y-65482093D01*
X94790033Y-65458906D01*
X94786407Y-65436014D01*
X94790033Y-65428897D01*
X94790033Y-65420907D01*
X94814184Y-65381497D01*
X94822680Y-65373001D01*
X94891964Y-65303716D01*
X94936345Y-65278094D01*
X94954587Y-65273207D01*
X95045913Y-65220480D01*
X95120480Y-65145913D01*
X95173207Y-65054587D01*
X95200500Y-64952727D01*
X95200500Y-64847273D01*
X95181167Y-64775120D01*
X95184370Y-64714022D01*
X95222875Y-64666472D01*
X95276794Y-64650500D01*
X97414809Y-64650500D01*
X97473000Y-64669407D01*
G37*
%TD.AperFunction*%
%TA.AperFunction,NonConductor*%
G36*
X99073001Y-64669407D02*
G01*
X99108965Y-64718907D01*
X99108965Y-64780093D01*
X99084814Y-64819504D01*
X97981814Y-65922504D01*
X97927297Y-65950281D01*
X97911810Y-65951500D01*
X97583190Y-65951500D01*
X97524999Y-65932593D01*
X97489035Y-65883093D01*
X97489035Y-65821907D01*
X97513186Y-65782497D01*
X97991963Y-65303718D01*
X98036345Y-65278094D01*
X98054587Y-65273207D01*
X98145913Y-65220480D01*
X98220480Y-65145913D01*
X98273207Y-65054587D01*
X98300500Y-64952727D01*
X98300500Y-64847273D01*
X98281167Y-64775120D01*
X98284370Y-64714022D01*
X98322875Y-64666472D01*
X98376794Y-64650500D01*
X99014810Y-64650500D01*
X99073001Y-64669407D01*
G37*
%TD.AperFunction*%
%TA.AperFunction,NonConductor*%
G36*
X40232209Y-31446856D02*
G01*
X40239910Y-31453789D01*
X40795504Y-32009383D01*
X40823281Y-32063900D01*
X40824500Y-32079387D01*
X40824500Y-66171612D01*
X40805593Y-66229803D01*
X40756093Y-66265767D01*
X40694907Y-66265767D01*
X40655496Y-66241616D01*
X35204497Y-60790617D01*
X35176720Y-60736100D01*
X35175501Y-60720613D01*
X35175501Y-54683493D01*
X35194408Y-54625302D01*
X35243908Y-54589338D01*
X35300121Y-54587866D01*
X35347273Y-54600500D01*
X35347275Y-54600500D01*
X35452725Y-54600500D01*
X35452727Y-54600500D01*
X35554587Y-54573207D01*
X35645913Y-54520480D01*
X35720480Y-54445913D01*
X35773207Y-54354587D01*
X35800500Y-54252727D01*
X35800500Y-54147273D01*
X35773207Y-54045413D01*
X35762457Y-54026794D01*
X35720481Y-53954089D01*
X35720480Y-53954087D01*
X35645913Y-53879520D01*
X35634975Y-53873205D01*
X35554589Y-53826794D01*
X35554588Y-53826793D01*
X35554587Y-53826793D01*
X35452727Y-53799500D01*
X35347273Y-53799500D01*
X35300122Y-53812133D01*
X35239023Y-53808931D01*
X35191473Y-53770426D01*
X35175501Y-53716507D01*
X35175501Y-32118289D01*
X35194408Y-32060098D01*
X35208133Y-32044830D01*
X35215915Y-32037799D01*
X35245913Y-32020480D01*
X35320480Y-31945913D01*
X35323599Y-31940510D01*
X35333632Y-31931446D01*
X35353729Y-31922456D01*
X35371877Y-31909983D01*
X35381081Y-31910223D01*
X35389485Y-31906465D01*
X35411030Y-31911006D01*
X35433042Y-31911582D01*
X35440922Y-31917307D01*
X35449355Y-31919085D01*
X35460791Y-31931743D01*
X35474530Y-31941725D01*
X35474932Y-31941324D01*
X35477466Y-31943858D01*
X35478545Y-31944642D01*
X35479517Y-31945909D01*
X35479518Y-31945910D01*
X35479520Y-31945913D01*
X35554087Y-32020480D01*
X35645413Y-32073207D01*
X35747273Y-32100500D01*
X35747275Y-32100500D01*
X35852725Y-32100500D01*
X35852727Y-32100500D01*
X35954587Y-32073207D01*
X36045913Y-32020480D01*
X36079998Y-31986394D01*
X36134513Y-31958619D01*
X36194945Y-31968190D01*
X36220000Y-31986393D01*
X36254087Y-32020480D01*
X36345413Y-32073207D01*
X36447273Y-32100500D01*
X36447275Y-32100500D01*
X36552725Y-32100500D01*
X36552727Y-32100500D01*
X36654587Y-32073207D01*
X36745913Y-32020480D01*
X36820480Y-31945913D01*
X36864264Y-31870075D01*
X36909733Y-31829136D01*
X36970583Y-31822740D01*
X37023571Y-31853333D01*
X37035732Y-31870071D01*
X37079520Y-31945913D01*
X37154087Y-32020480D01*
X37245413Y-32073207D01*
X37347273Y-32100500D01*
X37347275Y-32100500D01*
X37452725Y-32100500D01*
X37452727Y-32100500D01*
X37554587Y-32073207D01*
X37645913Y-32020480D01*
X37679998Y-31986394D01*
X37734513Y-31958619D01*
X37794945Y-31968190D01*
X37820000Y-31986393D01*
X37855137Y-32021530D01*
X37946463Y-32074257D01*
X38048323Y-32101550D01*
X38048325Y-32101550D01*
X38153775Y-32101550D01*
X38153777Y-32101550D01*
X38255637Y-32074257D01*
X38346963Y-32021530D01*
X38421530Y-31946963D01*
X38465093Y-31871508D01*
X38510561Y-31830570D01*
X38571411Y-31824174D01*
X38624399Y-31854767D01*
X38636560Y-31871504D01*
X38679520Y-31945913D01*
X38754087Y-32020480D01*
X38845413Y-32073207D01*
X38947273Y-32100500D01*
X38947275Y-32100500D01*
X39052725Y-32100500D01*
X39052727Y-32100500D01*
X39154587Y-32073207D01*
X39245913Y-32020480D01*
X39279998Y-31986394D01*
X39334513Y-31958619D01*
X39394945Y-31968190D01*
X39420000Y-31986393D01*
X39454087Y-32020480D01*
X39545413Y-32073207D01*
X39647273Y-32100500D01*
X39647275Y-32100500D01*
X39752725Y-32100500D01*
X39752727Y-32100500D01*
X39854587Y-32073207D01*
X39945913Y-32020480D01*
X40020480Y-31945913D01*
X40073207Y-31854587D01*
X40100500Y-31752727D01*
X40100500Y-31647273D01*
X40074279Y-31549414D01*
X40077482Y-31488314D01*
X40115987Y-31440765D01*
X40175087Y-31424929D01*
X40232209Y-31446856D01*
G37*
%TD.AperFunction*%
%TA.AperFunction,NonConductor*%
G36*
X99773349Y-65283617D02*
G01*
X99803947Y-65336601D01*
X99797558Y-65397452D01*
X99777117Y-65427198D01*
X98880814Y-66323503D01*
X98873697Y-66327129D01*
X98869001Y-66333593D01*
X98846950Y-66340757D01*
X98826297Y-66351281D01*
X98810810Y-66352500D01*
X98782190Y-66352500D01*
X98723999Y-66333593D01*
X98688035Y-66284093D01*
X98688035Y-66222907D01*
X98712186Y-66183497D01*
X99591962Y-65303718D01*
X99636345Y-65278094D01*
X99654587Y-65273207D01*
X99657607Y-65271463D01*
X99660048Y-65270944D01*
X99660580Y-65270724D01*
X99660620Y-65270822D01*
X99717451Y-65258736D01*
X99773349Y-65283617D01*
G37*
%TD.AperFunction*%
%TA.AperFunction,NonConductor*%
G36*
X74158691Y-65670407D02*
G01*
X74194655Y-65719907D01*
X74199500Y-65750500D01*
X74199500Y-65852727D01*
X74225966Y-65951500D01*
X74226794Y-65954589D01*
X74226794Y-65954590D01*
X74279518Y-66045910D01*
X74279520Y-66045913D01*
X74354087Y-66120480D01*
X74445413Y-66173207D01*
X74547273Y-66200500D01*
X74547275Y-66200500D01*
X74652725Y-66200500D01*
X74652727Y-66200500D01*
X74754587Y-66173207D01*
X74845913Y-66120480D01*
X74920480Y-66045913D01*
X74973207Y-65954587D01*
X75000500Y-65852727D01*
X75000500Y-65750500D01*
X75019407Y-65692309D01*
X75068907Y-65656345D01*
X75099500Y-65651500D01*
X78913810Y-65651500D01*
X78972001Y-65670407D01*
X79007965Y-65719907D01*
X79007965Y-65781093D01*
X78983814Y-65820503D01*
X78619532Y-66184785D01*
X78619530Y-66184787D01*
X78619530Y-66184788D01*
X78573386Y-66264712D01*
X78549864Y-66352500D01*
X78549500Y-66353857D01*
X78549500Y-66379555D01*
X78536238Y-66429052D01*
X78526794Y-66445410D01*
X78526793Y-66445412D01*
X78526793Y-66445413D01*
X78500501Y-66543540D01*
X78499500Y-66547274D01*
X78499500Y-66650500D01*
X78480593Y-66708691D01*
X78431093Y-66744655D01*
X78400500Y-66749500D01*
X72253856Y-66749500D01*
X72164712Y-66773386D01*
X72084788Y-66819530D01*
X66219529Y-72684789D01*
X66181548Y-72750574D01*
X66173387Y-72764709D01*
X66173387Y-72764710D01*
X66173386Y-72764712D01*
X66149803Y-72852725D01*
X66149500Y-72853857D01*
X66149500Y-73100500D01*
X66130593Y-73158691D01*
X66081093Y-73194655D01*
X66050500Y-73199500D01*
X65947273Y-73199500D01*
X65845413Y-73226793D01*
X65845412Y-73226793D01*
X65845410Y-73226794D01*
X65845409Y-73226794D01*
X65754087Y-73279519D01*
X65719503Y-73314103D01*
X65664986Y-73341880D01*
X65604554Y-73332308D01*
X65561290Y-73289043D01*
X65550500Y-73244099D01*
X65550500Y-67147273D01*
X66799500Y-67147273D01*
X66799500Y-67252727D01*
X66812845Y-67302530D01*
X66826794Y-67354589D01*
X66826794Y-67354590D01*
X66874463Y-67437154D01*
X66879520Y-67445913D01*
X66954087Y-67520480D01*
X67045413Y-67573207D01*
X67147273Y-67600500D01*
X67147275Y-67600500D01*
X67252725Y-67600500D01*
X67252727Y-67600500D01*
X67354587Y-67573207D01*
X67445913Y-67520480D01*
X67487968Y-67478425D01*
X69030651Y-67478425D01*
X69030651Y-67583879D01*
X69035105Y-67600500D01*
X69057945Y-67685741D01*
X69057945Y-67685742D01*
X69093471Y-67747274D01*
X69110671Y-67777065D01*
X69185238Y-67851632D01*
X69276564Y-67904359D01*
X69378424Y-67931652D01*
X69378426Y-67931652D01*
X69483876Y-67931652D01*
X69483878Y-67931652D01*
X69585738Y-67904359D01*
X69677064Y-67851632D01*
X69751631Y-67777065D01*
X69804358Y-67685739D01*
X69831651Y-67583879D01*
X69831651Y-67478425D01*
X69804358Y-67376565D01*
X69791668Y-67354586D01*
X69751632Y-67285241D01*
X69751631Y-67285239D01*
X69677064Y-67210672D01*
X69585738Y-67157945D01*
X69483878Y-67130652D01*
X69378424Y-67130652D01*
X69276564Y-67157945D01*
X69276563Y-67157945D01*
X69276561Y-67157946D01*
X69276560Y-67157946D01*
X69185240Y-67210670D01*
X69110669Y-67285241D01*
X69057945Y-67376561D01*
X69057945Y-67376562D01*
X69057944Y-67376564D01*
X69057944Y-67376565D01*
X69030651Y-67478425D01*
X67487968Y-67478425D01*
X67520480Y-67445913D01*
X67573207Y-67354587D01*
X67600500Y-67252727D01*
X67600500Y-67147273D01*
X67573207Y-67045413D01*
X67520480Y-66954087D01*
X67445913Y-66879520D01*
X67395406Y-66850360D01*
X67354589Y-66826794D01*
X67354588Y-66826793D01*
X67354587Y-66826793D01*
X67252727Y-66799500D01*
X67147273Y-66799500D01*
X67045413Y-66826793D01*
X67045412Y-66826793D01*
X67045410Y-66826794D01*
X67045409Y-66826794D01*
X66954089Y-66879518D01*
X66879518Y-66954089D01*
X66826794Y-67045409D01*
X66826794Y-67045410D01*
X66826793Y-67045412D01*
X66826793Y-67045413D01*
X66799500Y-67147273D01*
X65550500Y-67147273D01*
X65550500Y-66553290D01*
X65569407Y-66495099D01*
X65579496Y-66483286D01*
X66382286Y-65680496D01*
X66436803Y-65652719D01*
X66452290Y-65651500D01*
X74100500Y-65651500D01*
X74158691Y-65670407D01*
G37*
%TD.AperFunction*%
%TA.AperFunction,NonConductor*%
G36*
X65447999Y-75574699D02*
G01*
X65450999Y-75576431D01*
X65491940Y-75621900D01*
X65500500Y-75662168D01*
X65500500Y-75900500D01*
X65495655Y-75915411D01*
X65495655Y-75931093D01*
X65486438Y-75943778D01*
X65481593Y-75958691D01*
X65468907Y-75967907D01*
X65459691Y-75980593D01*
X65444778Y-75985438D01*
X65432093Y-75994655D01*
X65401500Y-75999500D01*
X65398500Y-75999500D01*
X65340309Y-75980593D01*
X65304345Y-75931093D01*
X65299500Y-75900500D01*
X65299500Y-75660436D01*
X65318407Y-75602245D01*
X65367907Y-75566281D01*
X65429093Y-75566281D01*
X65447999Y-75574699D01*
G37*
%TD.AperFunction*%
%TA.AperFunction,NonConductor*%
G36*
X65475072Y-78637337D02*
G01*
X65499958Y-78693233D01*
X65500500Y-78703581D01*
X65500500Y-78962810D01*
X65481593Y-79021001D01*
X65471504Y-79032814D01*
X65287814Y-79216504D01*
X65233297Y-79244281D01*
X65217810Y-79245500D01*
X64989189Y-79245500D01*
X64930998Y-79226593D01*
X64895034Y-79177093D01*
X64895034Y-79115907D01*
X64919185Y-79076497D01*
X65188682Y-78806999D01*
X65280469Y-78715212D01*
X65315759Y-78654089D01*
X65315764Y-78654081D01*
X65361233Y-78613140D01*
X65422084Y-78606744D01*
X65475072Y-78637337D01*
G37*
%TD.AperFunction*%
%TA.AperFunction,NonConductor*%
G36*
X55501152Y-78108407D02*
G01*
X55537116Y-78157907D01*
X55537116Y-78219093D01*
X55525276Y-78243502D01*
X55443367Y-78366086D01*
X55367949Y-78548163D01*
X55367949Y-78548165D01*
X55329500Y-78741456D01*
X55329500Y-78938543D01*
X55367949Y-79131834D01*
X55367949Y-79131836D01*
X55410521Y-79234615D01*
X55415321Y-79295612D01*
X55383352Y-79347781D01*
X55326824Y-79371195D01*
X55319057Y-79371500D01*
X55028470Y-79371500D01*
X54970279Y-79352593D01*
X54958466Y-79342504D01*
X53874466Y-78258504D01*
X53846689Y-78203987D01*
X53856260Y-78143555D01*
X53899525Y-78100290D01*
X53944470Y-78089500D01*
X55442961Y-78089500D01*
X55501152Y-78108407D01*
G37*
%TD.AperFunction*%
%TA.AperFunction,NonConductor*%
G36*
X67495445Y-72496980D02*
G01*
X67538710Y-72540245D01*
X67549500Y-72585190D01*
X67549500Y-77146144D01*
X67568007Y-77215212D01*
X67568239Y-77216081D01*
X67568252Y-77216130D01*
X67573383Y-77235282D01*
X67573384Y-77235284D01*
X67573385Y-77235287D01*
X67573386Y-77235288D01*
X67619530Y-77315212D01*
X68184788Y-77880470D01*
X68264712Y-77926614D01*
X68295266Y-77934801D01*
X68346580Y-77968123D01*
X68368507Y-78025245D01*
X68352672Y-78084345D01*
X68339647Y-78100430D01*
X68232869Y-78207208D01*
X68232861Y-78207218D01*
X68123367Y-78371086D01*
X68047949Y-78553163D01*
X68047949Y-78553165D01*
X68009500Y-78746456D01*
X68009500Y-78943543D01*
X68011526Y-78953727D01*
X68046954Y-79131835D01*
X68047949Y-79136834D01*
X68047949Y-79136836D01*
X68123367Y-79318913D01*
X68153632Y-79364208D01*
X68232038Y-79481551D01*
X68232862Y-79482783D01*
X68234436Y-79484701D01*
X68234848Y-79485756D01*
X68235563Y-79486825D01*
X68235328Y-79486981D01*
X68256732Y-79541679D01*
X68241279Y-79600881D01*
X68193979Y-79639693D01*
X68157903Y-79646500D01*
X66088189Y-79646500D01*
X66029998Y-79627593D01*
X65994034Y-79578093D01*
X65994034Y-79516907D01*
X66018183Y-79477498D01*
X66131469Y-79364213D01*
X66177614Y-79284288D01*
X66189174Y-79241144D01*
X66201500Y-79195144D01*
X66201500Y-78647273D01*
X66399500Y-78647273D01*
X66399500Y-78752727D01*
X66426793Y-78854587D01*
X66426794Y-78854589D01*
X66426794Y-78854590D01*
X66479518Y-78945910D01*
X66479520Y-78945913D01*
X66554087Y-79020480D01*
X66645413Y-79073207D01*
X66747273Y-79100500D01*
X66747275Y-79100500D01*
X66852725Y-79100500D01*
X66852727Y-79100500D01*
X66954587Y-79073207D01*
X67045913Y-79020480D01*
X67120480Y-78945913D01*
X67173207Y-78854587D01*
X67200500Y-78752727D01*
X67200500Y-78647273D01*
X67173207Y-78545413D01*
X67162457Y-78526794D01*
X67120481Y-78454089D01*
X67120480Y-78454087D01*
X67045913Y-78379520D01*
X66990061Y-78347274D01*
X66954589Y-78326794D01*
X66954588Y-78326793D01*
X66954587Y-78326793D01*
X66852727Y-78299500D01*
X66747273Y-78299500D01*
X66645413Y-78326793D01*
X66645412Y-78326793D01*
X66645410Y-78326794D01*
X66645409Y-78326794D01*
X66554089Y-78379518D01*
X66479518Y-78454089D01*
X66426794Y-78545409D01*
X66426794Y-78545410D01*
X66426793Y-78545412D01*
X66426793Y-78545413D01*
X66399500Y-78647273D01*
X66201500Y-78647273D01*
X66201500Y-77461591D01*
X66220407Y-77403400D01*
X66269907Y-77367436D01*
X66331093Y-77367436D01*
X66339271Y-77371079D01*
X66339419Y-77370724D01*
X66345408Y-77373204D01*
X66345413Y-77373207D01*
X66447273Y-77400500D01*
X66447275Y-77400500D01*
X66552725Y-77400500D01*
X66552727Y-77400500D01*
X66654587Y-77373207D01*
X66745913Y-77320480D01*
X66820480Y-77245913D01*
X66873207Y-77154587D01*
X66900500Y-77052727D01*
X66900500Y-76947273D01*
X66873207Y-76845413D01*
X66871128Y-76841812D01*
X66863762Y-76829052D01*
X66850500Y-76779555D01*
X66850500Y-73086190D01*
X66869407Y-73027999D01*
X66879496Y-73016186D01*
X67380496Y-72515186D01*
X67435013Y-72487409D01*
X67495445Y-72496980D01*
G37*
%TD.AperFunction*%
%TA.AperFunction,NonConductor*%
G36*
X57499504Y-78795186D02*
G01*
X58181814Y-79477496D01*
X58209591Y-79532013D01*
X58200020Y-79592445D01*
X58156755Y-79635710D01*
X58111810Y-79646500D01*
X57177429Y-79646500D01*
X57119238Y-79627593D01*
X57083274Y-79578093D01*
X57083274Y-79516907D01*
X57104640Y-79482039D01*
X57104046Y-79481551D01*
X57107128Y-79477792D01*
X57107139Y-79477782D01*
X57216632Y-79313914D01*
X57292051Y-79131835D01*
X57330500Y-78938541D01*
X57330500Y-78865190D01*
X57349407Y-78806999D01*
X57398907Y-78771035D01*
X57460093Y-78771035D01*
X57499504Y-78795186D01*
G37*
%TD.AperFunction*%
%TA.AperFunction,NonConductor*%
G36*
X83995445Y-76634789D02*
G01*
X84038710Y-76678054D01*
X84049500Y-76722999D01*
X84049500Y-76813809D01*
X84030593Y-76872000D01*
X84020504Y-76883813D01*
X80755358Y-80148958D01*
X80741386Y-80156076D01*
X80730299Y-80167164D01*
X80714811Y-80169616D01*
X80700841Y-80176735D01*
X80685354Y-80174282D01*
X80669867Y-80176735D01*
X80655896Y-80169616D01*
X80640409Y-80167164D01*
X80615353Y-80148960D01*
X80569943Y-80103550D01*
X80542168Y-80049036D01*
X80551739Y-79988604D01*
X80569942Y-79963548D01*
X83880497Y-76652994D01*
X83935013Y-76625218D01*
X83995445Y-76634789D01*
G37*
%TD.AperFunction*%
%TA.AperFunction,NonConductor*%
G36*
X77539479Y-59569407D02*
G01*
X77575443Y-59618907D01*
X77575443Y-59680093D01*
X77539479Y-59729593D01*
X77530789Y-59735236D01*
X77529057Y-59736236D01*
X77479556Y-59749500D01*
X63718712Y-59749500D01*
X63713611Y-59747842D01*
X63708365Y-59748958D01*
X63684926Y-59738522D01*
X63660521Y-59730593D01*
X63657367Y-59726253D01*
X63652469Y-59724072D01*
X63639643Y-59701857D01*
X63624557Y-59681093D01*
X63624557Y-59675727D01*
X63621876Y-59671084D01*
X63624557Y-59645569D01*
X63624557Y-59619907D01*
X63627709Y-59615567D01*
X63628270Y-59610234D01*
X63645438Y-59591166D01*
X63660521Y-59570407D01*
X63669211Y-59564764D01*
X63670943Y-59563764D01*
X63720444Y-59550500D01*
X77481288Y-59550500D01*
X77539479Y-59569407D01*
G37*
%TD.AperFunction*%
M02*
